<svg width="196" height="52" viewBox="0 0 196 52" fill="none" xmlns="http://www.w3.org/2000/svg">
<path fill-rule="evenodd" clip-rule="evenodd" d="M90.485 51.9989C89.5724 51.9989 88.6597 52.0018 87.7471 51.9981C86.4171 51.9927 85.0968 51.8489 83.7788 51.6934C82.688 51.5646 81.6009 51.4025 80.5135 51.2459C78.3909 50.9399 76.7228 49.8635 75.4076 48.1959C74.9172 47.574 74.4943 46.9065 74.1271 46.2059C73.1517 44.3448 72.294 42.4291 71.5488 40.4642C71.2093 39.5691 70.9651 38.6458 70.8183 37.6954C70.6029 36.3003 70.8264 35.0051 71.6079 33.8179C73.0527 31.6231 74.6303 29.5409 76.6168 27.7989C76.9909 27.4708 77.3295 27.102 77.6932 26.7613C78.2578 26.2329 78.2931 25.6035 78.0435 24.9271C77.9432 24.6552 77.8014 24.3983 77.6722 24.1377C77.459 23.7075 77.2975 23.2628 77.2 22.7892C77.1002 22.3049 77.1365 21.8367 77.2771 21.373C77.5073 20.613 77.8255 19.8929 78.2713 19.2324C78.7597 18.509 79.2444 17.7833 79.7294 17.0577C80.1017 16.5005 80.3721 15.8937 80.5768 15.258C80.9078 14.2292 81.2452 13.2018 81.5466 12.1641C81.6793 11.7077 81.756 11.2303 81.8118 10.7568C81.8974 10.0312 82.0155 9.31184 82.2461 8.62111C82.5814 7.61597 82.9624 6.62631 83.3151 5.6269C83.5974 4.8269 84.1283 4.24374 84.8242 3.7813C85.5997 3.26592 86.4494 2.95958 87.3582 2.80062C87.6031 2.75782 87.8509 2.7309 88.0976 2.69682C88.9421 2.57987 89.7542 2.69538 90.522 3.0669C91.0259 3.3108 91.5188 3.57786 92.0154 3.83672C92.5865 4.13434 93.1646 4.4109 93.7943 4.56856C94.39 4.71763 94.9835 4.72569 95.581 4.59756C96.5165 4.39698 97.4131 4.07112 98.3073 3.73851C98.8513 3.5361 99.3989 3.34163 99.9348 3.11932C100.278 2.97675 100.609 2.79984 100.936 2.62046C101.554 2.28094 102.159 1.91581 102.782 1.58462C103.571 1.16472 104.389 0.806863 105.269 0.624489C105.654 0.54475 106.045 0.48179 106.435 0.437693C107.548 0.312164 108.66 0.174278 109.776 0.0886847C111.642 -0.0542747 113.506 -0.0723559 115.34 0.403872C117.224 0.892847 118.875 1.81838 120.341 3.08524C120.815 3.49486 121.219 3.96992 121.509 4.53265C121.76 5.02059 122.112 5.43164 122.507 5.80043C123.479 6.70735 124.464 7.59919 125.445 8.49584C125.537 8.57987 125.634 8.65883 125.734 8.73324C126.783 9.51555 127.203 10.6078 127.258 11.8722C127.3 12.836 127.108 13.7768 126.942 14.7188C126.837 15.3147 126.686 15.9002 126.438 16.4515C125.867 17.717 125.577 19.0532 125.418 20.4226C125.267 21.7238 124.844 22.9328 124.207 24.0674C123.727 24.9238 123.118 25.688 122.429 26.3861C121.483 27.3442 120.357 27.9202 118.993 27.8828C118.358 27.8652 117.95 28.2306 117.52 28.5777C117.402 28.6722 117.34 28.8556 117.29 29.0106C117.071 29.6969 116.705 30.2933 116.227 30.8262C115.636 31.4864 115.35 32.2605 115.29 33.1485C115.179 34.8122 115.15 36.4729 115.281 38.1368C115.368 39.2394 115.371 40.3381 115.076 41.421C114.844 42.2692 114.54 43.0884 114.078 43.8332C113.389 44.9455 112.684 46.0497 111.94 47.1254C111.588 47.6342 111.151 48.0908 110.713 48.5317C110.076 49.1734 109.317 49.6404 108.464 49.9452C108.13 50.0645 107.788 50.1261 107.43 50.1338C105.895 50.1669 104.36 50.1989 102.827 50.2616C102.041 50.2937 101.256 50.3736 100.473 50.4612C99.7069 50.547 98.97 50.7643 98.2613 51.0692C96.831 51.6847 95.335 51.9798 93.783 51.9928C92.6837 52.0019 91.5844 51.9946 90.485 51.9946C90.485 51.9961 90.485 51.9975 90.485 51.9989ZM92.7907 36.5053C93.1248 36.2342 93.4805 36.1073 93.8937 36.1118C94.3299 36.1165 94.6661 36.3483 95.0231 36.5861C95.0849 36.5069 95.1232 36.4589 95.1602 36.41C95.3768 36.1234 95.6629 35.9926 96.0221 35.9995C96.2499 36.0039 96.478 35.982 96.7061 35.9737C97.1965 35.9556 97.1965 35.956 97.6242 36.2313C97.8079 36.107 97.9755 35.9265 98.1776 35.8707C98.5946 35.7553 99.0275 35.6637 99.4583 35.6394C100.236 35.5952 100.526 35.9284 100.449 36.6936C100.443 36.7556 100.423 36.8166 100.421 36.8785C100.403 37.5019 100.381 38.1252 100.376 38.7487C100.376 38.8797 100.363 39.0523 100.55 39.1084C101.746 38.5263 101.677 38.3228 101.748 37.438C101.757 37.3343 101.758 37.2301 101.765 37.1263C101.846 35.8579 101.836 34.59 101.764 33.3211C101.699 32.1751 102.188 31.3005 103.151 30.7089C103.892 30.2531 104.476 29.6478 104.977 28.9488C105.208 28.6263 105.417 28.2956 105.498 27.8956C105.557 27.6013 105.723 27.3584 105.946 27.1624C107.464 25.829 109.165 25.2333 111.176 25.8424C112.768 26.3249 114.306 26.9385 115.781 27.7113C115.903 27.7756 116.03 27.832 116.095 27.8634C116.628 27.4363 117.104 27.0548 117.627 26.6362C117.454 26.5308 117.341 26.4469 117.216 26.3877C116.41 26.0065 115.608 25.6149 114.792 25.2566C113.48 24.6808 112.13 24.2045 110.754 23.8078C110.018 23.5958 109.535 23.1273 109.239 22.4409C109.173 22.2889 109.108 22.1314 109.078 21.9697C108.988 21.4802 108.874 20.99 108.843 20.4955C108.767 19.2895 108.811 18.0821 108.903 16.8778C109.043 15.0444 109.013 13.2177 108.702 11.4024C108.536 10.4359 108.285 9.49304 107.839 8.61213C107.251 7.45077 106.364 6.62085 105.149 6.14254C104.332 5.82059 103.484 5.62104 102.614 5.54703C100.412 5.35958 98.2227 5.42111 96.0686 5.98358C94.9904 6.26508 93.9272 6.20016 92.8889 5.81265C92.4046 5.63184 91.934 5.4107 91.4669 5.18722C91.0742 4.99938 90.6908 4.79047 90.3119 4.57545C89.5974 4.16986 88.8407 4.04576 88.0311 4.16856C87.1615 4.30033 86.3266 4.51145 85.5883 5.02371C85.1659 5.31665 84.8404 5.66995 84.6664 6.164C84.3488 7.0656 84.0069 7.95873 83.694 8.86202C83.4895 9.4522 83.3644 10.0625 83.2884 10.6852C83.2104 11.3245 83.1376 11.9665 82.9424 12.5852C82.6049 13.6558 82.2767 14.7293 81.9295 15.7968C81.6973 16.5109 81.3861 17.1914 80.9687 17.8188C80.4966 18.5281 80.034 19.2441 79.5467 19.9429C79.2222 20.4082 79.0003 20.9185 78.7776 21.4349C78.529 22.0114 78.5574 22.5674 78.8063 23.126C78.9078 23.3536 79.0225 23.5754 79.126 23.8024C79.2379 24.048 79.3711 24.2882 79.4475 24.545C79.7893 25.694 79.719 26.7673 78.822 27.6714C78.6172 27.8778 78.4245 28.0965 78.2154 28.2984C77.9317 28.5725 77.6398 28.8385 77.3476 29.1038C76.3606 30.0004 75.4647 30.9809 74.6537 32.0394C74.5846 32.1295 74.5464 32.2435 74.4736 32.3866C75.277 32.389 75.9555 32.5987 76.4829 33.1417C77.4514 32.8892 78.3254 32.9756 79.0932 33.6342C79.9479 33.393 80.6393 33.6702 81.2026 34.3546C81.5299 34.0984 81.8691 33.9496 82.2524 33.9399C82.6309 33.9304 82.99 34.0334 83.344 34.1583C83.725 34.2927 84.0755 34.4819 84.2853 34.8367C84.4688 35.1468 84.6043 35.4852 84.7647 35.8193C84.9824 35.6588 85.1698 35.4919 85.3827 35.37C85.7125 35.1811 86.0386 35.2687 86.2518 35.5818C86.3196 35.6814 86.3594 35.8002 86.4256 35.9386C87.5943 35.5863 88.682 35.686 89.5887 36.5127C90.1073 36.2971 90.6103 36.1778 91.128 36.133C91.712 36.0818 92.293 36.0813 92.7907 36.5053ZM101.155 4.18312C101.165 4.21577 101.174 4.24856 101.184 4.28121C101.679 4.32205 102.175 4.35743 102.669 4.40517C103.601 4.49519 104.51 4.69161 105.392 5.01773C107.054 5.63301 108.245 6.75171 108.981 8.36589C109.416 9.31964 109.668 10.3241 109.839 11.354C110.157 13.2757 110.143 15.2049 110.023 17.1426C109.954 18.2418 109.969 19.3466 109.964 20.4489C109.962 20.9295 110.065 21.4002 110.227 21.8536C110.391 22.3123 110.684 22.6336 111.176 22.7565C111.517 22.8419 111.853 22.9522 112.188 23.0634C114.615 23.8712 116.961 24.8657 119.164 26.1766C119.489 26.3702 119.771 26.3829 120.099 26.2501C120.608 26.0434 121.039 25.7248 121.421 25.336C122.898 23.8339 123.8 22.0553 124.027 19.941C124.166 18.6536 124.464 17.4034 124.969 16.2041C125.162 15.7464 125.324 15.2692 125.437 14.7861C125.579 14.18 125.683 13.5617 125.752 12.9429C125.803 12.491 125.805 12.0269 125.768 11.5733C125.715 10.9303 125.465 10.3676 124.933 9.96082C124.752 9.82202 124.574 9.67698 124.406 9.5227C123.411 8.61057 122.412 7.70273 121.429 6.77695C120.929 6.30527 120.502 5.76803 120.187 5.14794C119.986 4.75223 119.686 4.43223 119.353 4.14826C117.668 2.7106 115.747 1.80407 113.535 1.54026C112.102 1.36947 110.676 1.45714 109.25 1.59776C108.363 1.6853 107.48 1.81851 106.591 1.88771C105.686 1.95821 104.835 2.19977 104.03 2.59782C103.324 2.94709 102.639 3.33981 101.947 3.71873C101.679 3.86612 101.419 4.02807 101.155 4.18312ZM73.5375 41.5029C73.7146 41.9172 73.8484 42.2415 73.9912 42.5619C74.5073 43.7206 75.0235 44.8792 75.6631 45.9769C76.0516 46.6436 76.4858 47.2775 77.018 47.8384C77.9589 48.8299 79.0741 49.5014 80.4336 49.7528C82.2922 50.0965 84.1673 50.3211 86.0483 50.4573C88.6985 50.6491 91.3545 50.6349 94.0106 50.5304C95.313 50.4792 96.5577 50.2171 97.7542 49.7057C98.9318 49.2024 100.171 48.9476 101.441 48.8863C103.306 48.7963 105.172 48.7412 107.039 48.7012C107.597 48.6893 108.102 48.5613 108.586 48.3028C109.028 48.0662 109.442 47.7813 109.779 47.4112C110.211 46.9358 110.64 46.4512 111.015 45.9305C111.513 45.2398 111.967 44.5165 112.42 43.7951C112.674 43.3912 112.909 42.9725 113.118 42.5433C113.703 41.3425 113.972 40.0805 113.86 38.7345C113.709 36.9069 113.717 35.0767 113.821 33.245C113.894 31.9535 114.278 30.7998 115.16 29.8342C115.258 29.7271 115.35 29.6131 115.433 29.494C115.536 29.3449 115.68 29.2118 115.671 29.0112C115.17 28.6058 113.87 27.9864 113.186 27.8363C113.013 28.097 112.812 28.3617 112.651 28.6487C111.979 29.8448 111.313 31.0441 110.658 32.2497C110.398 32.7283 110.245 33.2478 110.194 33.7933C110.154 34.2283 110.118 34.6636 110.085 35.0993C109.987 36.3881 109.371 37.157 108.127 37.5351C108.008 37.5712 107.888 37.6084 107.767 37.6308C107.073 37.7579 106.379 37.8774 105.686 38.0056C105.116 38.1109 104.545 38.2106 103.98 38.3391C103.638 38.4169 103.309 38.548 102.972 38.6487C102.831 38.6907 102.701 38.7283 102.615 38.8689C102.242 39.4777 101.659 39.8374 101.054 40.1676C100.893 40.2558 100.729 40.3395 100.568 40.424C100.546 40.6359 100.54 40.824 100.505 41.0067C100.462 41.2301 100.42 41.4592 100.334 41.6675C100.131 42.155 99.7604 42.4166 99.2221 42.4173C98.8624 42.4177 98.5225 42.3559 98.2196 42.1423C98.1278 42.0775 98.0603 41.9498 97.9141 41.9871C97.7728 42.2651 97.6585 42.5591 97.4868 42.8142C96.9897 43.5529 96.1133 43.7307 95.3597 43.2719C95.2795 43.2231 95.1928 43.1853 95.132 43.154C94.9276 43.5365 94.7769 43.9066 94.5514 44.2231C94.0134 44.9784 92.7835 44.9896 92.2598 44.1818C92.1733 44.0484 92.0788 43.92 91.9681 43.7604C91.8717 43.9483 91.8005 44.0981 91.7201 44.2426C91.3044 44.9896 90.6572 45.3908 89.822 45.4914C89.5762 45.521 89.324 45.5221 89.0765 45.5068C88.3167 45.4601 87.8009 45.0309 87.6149 44.2871C87.5651 44.0879 87.5694 43.8755 87.5422 43.67C87.53 43.5782 87.5878 43.4622 87.4381 43.3868C87.2919 43.5148 87.1416 43.6516 86.9859 43.7817C86.848 43.8968 86.6902 43.9098 86.5167 43.8733C86.4104 43.8508 86.3448 43.7023 86.1874 43.7708C86.2066 43.9426 86.2191 44.1069 86.2443 44.2692C86.2994 44.6242 86.1562 44.888 85.8516 45.0435C85.6519 45.1452 85.4284 45.2148 85.2077 45.2576C84.1462 45.4631 83.1022 45.3402 82.0698 45.0578C81.5148 44.9061 81.0413 44.6133 80.6525 44.1937C80.4727 43.9996 80.3305 43.7704 80.1622 43.5451C80.0206 43.6506 79.8942 43.7552 79.7578 43.8445C79.2199 44.1964 78.7402 44.1453 78.3218 43.6495C78.1239 43.4153 77.9894 43.1265 77.8319 42.859C77.7502 42.7205 77.6807 42.5745 77.6198 42.4588C77.0778 42.4771 76.5814 42.4995 76.0846 42.509C75.5177 42.5199 75.0773 42.3044 74.8226 41.7702C74.7975 41.7176 74.742 41.6795 74.6952 41.6283C74.5296 41.6283 74.3627 41.6416 74.1988 41.6249C74.0178 41.6058 73.8399 41.56 73.5375 41.5029ZM102.904 37.4906C103.112 37.428 103.266 37.3788 103.421 37.3356C103.799 37.2307 104.173 37.1036 104.557 37.031C105.167 36.9157 105.787 36.8519 106.398 36.7399C106.926 36.643 107.456 36.5367 107.971 36.3848C108.567 36.2086 108.893 35.7756 108.948 35.1507C108.97 34.9025 108.977 34.6527 108.993 34.4039C109.052 33.4846 109.189 32.5786 109.637 31.7601C110.383 30.3939 111.155 29.0417 111.915 27.6826C111.972 27.5795 112.018 27.4699 112.078 27.3451C111.552 27.1033 111.034 26.9639 110.512 26.8399C109.765 26.6626 109.034 26.7105 108.317 26.9915C107.79 27.1979 107.324 27.5027 106.88 27.8486C106.709 27.9822 106.598 28.1429 106.546 28.3552C106.434 28.807 106.193 29.1949 105.926 29.5678C105.34 30.3845 104.677 31.1215 103.798 31.6344C103.727 31.6761 103.658 31.7239 103.592 31.7742C103.135 32.1219 102.875 32.5713 102.889 33.1598C102.892 33.3259 102.887 33.4929 102.901 33.6582C102.991 34.7591 102.968 35.8596 102.905 36.9606C102.896 37.1202 102.904 37.281 102.904 37.4906ZM85.4176 44.3434C85.3405 43.6252 85.2505 42.9674 85.2044 42.3063C85.1597 41.6641 85.1382 41.0185 85.1469 40.3747C85.1558 39.7105 85.2074 39.0466 85.2515 38.3832C85.2947 37.7354 85.4666 37.1005 85.497 36.43C85.4137 36.4588 85.3621 36.4601 85.3415 36.4863C85.1233 36.763 84.8945 37.0333 84.6977 37.325C83.5254 39.0625 82.3608 40.8054 81.1938 42.5464C81.1707 42.581 81.1451 42.6141 81.1244 42.6499C80.9064 43.0245 80.927 43.3001 81.2187 43.611C81.4767 43.886 81.7747 44.1077 82.1397 44.227C83.0828 44.5354 84.048 44.5913 85.0264 44.4755C85.1443 44.4616 85.2563 44.3993 85.4176 44.3434ZM86.7976 42.6972C86.8366 42.6936 86.8631 42.699 86.8731 42.6888C86.9444 42.615 87.021 42.5441 87.08 42.461C87.7567 41.508 88.3198 40.4921 88.7349 39.3974C88.8378 39.1261 88.9393 38.8476 88.9866 38.5632C89.0442 38.2176 89.0664 37.862 89.0625 37.5111C89.0585 37.1438 88.8493 36.8922 88.5106 36.7529C88.1207 36.5924 87.7207 36.523 87.2958 36.5705C86.7881 36.627 86.4547 36.8723 86.2912 37.3658C86.1526 37.7839 86.0651 38.2065 86.0507 38.6474C86.0063 39.9976 86.2882 41.2923 86.701 42.5653C86.718 42.6179 86.7688 42.6592 86.7976 42.6972ZM77.8608 38.7769C77.8145 38.8468 77.7747 38.8791 77.7738 38.9126C77.7679 39.0985 77.7617 39.2852 77.7734 39.4705C77.8424 40.5605 78.192 41.5768 78.5981 42.5766C78.6598 42.7287 78.7446 42.875 78.8406 43.0081C78.909 43.1032 79.0141 43.1719 79.0881 43.2387C79.366 43.1859 79.5183 43.0088 79.6679 42.8428C80.5367 41.8787 81.1925 40.7855 81.6153 39.5552C81.6455 39.467 81.6432 39.3678 81.662 39.229C80.3553 39.1275 79.0645 39.2325 77.8608 38.7769ZM83.0465 38.2707C83.3871 37.8401 83.6709 37.4112 83.9131 36.9838C83.8519 36.6406 83.794 36.3353 83.7434 36.0286C83.6481 35.45 83.3243 35.1129 82.7452 34.9805C82.1697 34.8489 81.9724 34.8964 81.6392 35.3857C81.1482 36.1068 80.6604 36.83 80.1748 37.5546C80.0969 37.6709 80.0373 37.7995 79.9464 37.9638C80.9987 38.231 82.0165 38.3248 83.0465 38.2707ZM88.8904 41.3645C88.5543 42.0908 88.3691 42.868 88.3399 43.683C88.3355 43.805 88.3721 43.9289 88.3936 44.0512C88.4594 44.4252 88.6934 44.6263 89.0547 44.6997C89.9784 44.887 90.8691 44.3807 91.1655 43.4813C91.3777 42.838 91.3683 42.1792 91.2844 41.5296C90.8247 41.3881 89.5816 41.3039 88.8904 41.3645ZM78.8026 37.7463C79.0644 37.4599 80.2101 35.8397 80.3877 35.5436C80.4825 35.3857 80.4889 35.2326 80.435 35.0694C80.2896 34.628 79.8624 34.4127 79.3899 34.5507C79.0864 34.6393 78.8359 34.8212 78.6108 35.0398C78.1594 35.4783 77.5516 36.5293 77.3465 37.2416C77.7696 37.5513 78.287 37.6007 78.8026 37.7463ZM92.5528 40.8927C92.5143 41.6005 92.4999 42.2826 92.6485 42.9556C92.697 43.1756 92.7577 43.4019 92.8616 43.5992C93.1188 44.0871 93.6315 44.1174 93.9554 43.6629C94.0849 43.4813 94.185 43.2655 94.2449 43.0504C94.4527 42.3053 94.4874 41.5408 94.4373 40.7719C94.4323 40.6937 94.3906 40.618 94.3677 40.5466C93.7674 40.5587 93.1347 40.6769 92.5528 40.8927ZM91.3629 39.997C91.6605 39.4402 92.0876 38.2298 92.1749 37.7044C92.1884 37.6225 92.2047 37.5407 92.2113 37.4582C92.2396 37.1046 92.1302 36.958 91.7703 36.9238C91.3135 36.8802 90.8706 36.9645 90.4523 37.102C90.2531 37.6801 89.9935 39.4355 90.0407 39.8713C90.4723 40.0255 90.9173 40.0585 91.3629 39.997ZM75.5379 38.117C75.402 38.7661 75.414 39.9123 75.5478 40.7148C75.6889 41.5617 75.69 41.5684 76.5919 41.5357C76.8278 41.5273 77.0814 41.5645 77.2931 41.4211C77.1958 40.8974 77.0794 40.4125 77.0217 39.9206C76.9642 39.4301 76.9655 38.9324 76.9406 38.4296C76.4969 38.3145 76.0783 38.2048 75.6585 38.0996C75.6221 38.0904 75.5783 38.1105 75.5379 38.117ZM95.4195 40.202C95.3325 40.8671 95.3645 41.4808 95.5369 42.085C95.5705 42.203 95.6243 42.3191 95.6883 42.4238C95.867 42.7163 96.118 42.789 96.4338 42.6605C96.635 42.5786 96.7911 42.4426 96.8822 42.2514C96.9793 42.0472 97.0737 41.8348 97.1222 41.6155C97.2253 41.149 97.2717 40.6734 97.2333 40.1944C97.2258 40.1009 97.1839 40.0104 97.1523 39.8989C96.852 39.9541 96.5907 40.004 96.3289 40.0497C96.0458 40.0992 95.7621 40.1447 95.4195 40.202ZM94.3573 39.4617C94.4686 38.9545 94.5728 38.5133 94.6583 38.0685C94.6849 37.9301 94.6814 37.7782 94.6559 37.6387C94.5907 37.2808 94.235 36.9572 93.8942 36.9222C93.5933 36.8915 93.3789 37.0406 93.1985 37.4219C93.1283 37.5707 93.0661 37.7254 93.0197 37.883C92.909 38.2588 92.8064 38.6371 92.7079 39.0163C92.6783 39.13 92.6262 39.253 92.7578 39.3943C93.2542 39.4539 93.7818 39.4796 94.3573 39.4617ZM78.0765 34.1459C77.9622 33.9808 77.784 34.0204 77.6262 33.9935C77.1237 33.9075 76.7421 34.0758 76.4593 34.5061C76.0836 35.078 75.6898 35.6376 75.3088 36.2059C75.2554 36.2855 75.2305 36.3845 75.1706 36.5267C75.5773 36.6977 75.9212 36.9211 76.3724 36.8793C76.6284 36.397 76.8557 35.9066 77.1394 35.4515C77.4213 34.9993 77.76 34.5823 78.0765 34.1459ZM74.1812 36.2171C74.4522 35.7838 74.7106 35.3839 74.9553 34.9756C75.1964 34.5735 75.5438 34.2393 75.7544 33.7641C75.5727 33.6537 75.4252 33.539 75.2593 33.4682C74.7943 33.27 74.5477 33.3407 74.2363 33.7433C73.8662 34.2218 73.5581 34.7388 73.3078 35.2896C73.2592 35.3968 73.2395 35.5174 73.2068 35.6303C73.4888 35.8945 73.7727 36.0945 74.1812 36.2171ZM96.8557 38.6872C96.9552 37.7954 96.9283 37.1836 96.7786 36.7892C96.458 36.7828 96.1306 36.746 95.7884 36.92C95.7508 37.1541 95.7046 37.3952 95.6749 37.6385C95.6451 37.8845 95.6321 38.1325 95.6106 38.3795C95.5901 38.6143 95.482 38.8491 95.6009 39.1275C96.0283 38.9777 96.4326 38.8357 96.8557 38.6872ZM74.5777 40.6145C74.4291 39.6223 74.4813 38.6742 74.5674 37.7196C74.3051 37.5801 74.0764 37.4501 73.7863 37.4137C73.5861 38.1817 73.5739 38.9437 73.6448 39.7077C73.6696 39.9754 73.7491 40.2407 73.9319 40.4517C74.0878 40.6316 74.2735 40.7449 74.5777 40.6145ZM99.6519 39.4478C99.1717 39.5062 98.7879 39.6328 98.4178 39.7581C98.2633 40.1756 98.3027 40.5627 98.3831 40.9488C98.4038 41.0479 98.4437 41.1466 98.4925 41.2357C98.6485 41.5205 98.9038 41.6294 99.2155 41.6095C99.5265 41.5896 99.6108 41.3509 99.6686 41.1014C99.7917 40.5704 99.7686 40.0412 99.6519 39.4478ZM98.4211 36.6729C98.3483 37.2412 98.3787 37.7795 98.3876 38.3165C98.3885 38.3693 98.4394 38.4213 98.4678 38.4749C98.8502 38.5094 99.2141 38.5027 99.5721 38.293C99.5892 37.7448 99.6077 37.2075 99.6202 36.6703C99.6217 36.6124 99.5894 36.5537 99.5698 36.4862C99.1848 36.4356 98.8281 36.5199 98.4211 36.6729ZM72.2593 36.1083C72.1035 36.6789 72.1983 37.1751 72.2709 37.6615C72.3251 38.0251 72.3586 38.4089 72.5993 38.8205C72.7122 38.0337 72.8117 37.3405 72.9111 36.6474C72.8359 36.5783 72.7782 36.5198 72.7148 36.468C72.588 36.3645 72.4579 36.2647 72.2593 36.1083Z" fill="black"/>
<path fill-rule="evenodd" clip-rule="evenodd" d="M5.18498 11.8237C5.38429 11.81 5.54677 11.7892 5.70912 11.7891C9.0285 11.7874 12.3478 11.7844 15.667 11.7905C16.6864 11.7924 17.6994 11.891 18.6841 12.1635C19.1412 12.2899 19.5966 12.4515 20.0216 12.6609C21.8649 13.5693 22.9364 15.0683 23.3159 17.0825C23.4959 18.0373 23.4833 18.9886 23.2587 19.9317C22.9318 21.3036 22.1448 22.3781 21.0604 23.2451C20.5395 23.6615 19.9644 23.9944 19.3536 24.2633C19.2086 24.327 19.065 24.3937 18.9262 24.4567C18.9751 24.6761 19.1525 24.6733 19.271 24.7339C20.4498 25.3372 21.369 26.2117 22.0309 27.3594C22.4319 28.0551 22.6654 28.804 22.7106 29.6076C22.7813 30.8628 22.6949 32.1022 22.3265 33.3124C21.8121 35.0021 20.8041 36.2912 19.2609 37.159C18.091 37.8168 16.8378 38.232 15.5314 38.5052C14.0627 38.8121 12.5751 38.9199 11.0789 38.922C7.57279 38.9268 4.06681 38.9242 0.560827 38.923C0.397438 38.9229 0.23392 38.9083 0.0692348 38.9004C-0.0625135 38.7053 0.0285173 38.5189 0.0601577 38.3481C0.272563 37.2032 0.499232 36.0611 0.719807 34.9178C1.28311 31.9985 1.84576 29.079 2.40841 26.1596C3.0066 23.0562 3.60426 19.9529 4.20258 16.8497C4.47411 15.4409 4.74617 14.0324 5.01939 12.624C5.07022 12.3621 5.12728 12.1016 5.18498 11.8237ZM8.95342 27.3109C8.6544 28.4298 7.75122 33.3449 7.74772 33.8549C7.8027 33.8714 7.86053 33.9041 7.91837 33.9041C9.30652 33.9034 10.6949 33.9141 12.0827 33.89C12.8869 33.8761 13.6202 33.5936 14.3057 33.1759C14.9589 32.778 15.3746 32.2052 15.5826 31.4764C15.7736 30.807 15.8226 30.1177 15.7051 29.4376C15.5133 28.3263 14.9136 27.5232 13.6355 27.3673C13.2868 27.3246 12.9348 27.2925 12.5839 27.2888C11.5687 27.2784 10.5533 27.2839 9.53799 27.2861C9.35411 27.2865 9.1705 27.3013 8.95342 27.3109ZM9.84039 22.6878C9.95632 22.7318 9.99431 22.7589 10.0323 22.7589C11.0893 22.7609 12.1469 22.782 13.203 22.7525C13.9186 22.7323 14.58 22.4846 15.1915 22.1061C15.7667 21.7501 16.1337 21.2403 16.3224 20.597C16.4946 20.0101 16.5452 19.4047 16.4533 18.8053C16.2831 17.6943 15.6756 17.0153 14.4971 16.8888C14.3118 16.8689 14.1251 16.8536 13.9388 16.8528C13.0683 16.8486 12.1977 16.8482 11.3271 16.8523C11.2084 16.8528 11.0899 16.886 10.9394 16.909C10.5631 18.8382 10.1877 20.7485 9.84039 22.6878Z" fill="black"/>
<path fill-rule="evenodd" clip-rule="evenodd" d="M57.3854 38.8763C57.313 38.8885 57.2155 38.9154 57.1171 38.9198C55.9184 38.9751 50.9288 38.9358 50.4362 38.8656C50.2705 38.4274 50.3073 37.9431 50.2336 37.4788C50.162 37.0277 50.1339 36.5698 50.0874 36.1146C50.0387 35.6389 49.9939 35.1628 49.9415 34.6874C49.8917 34.2354 49.8341 33.7842 49.776 33.2989C49.6427 33.2778 49.5259 33.2432 49.409 33.2431C46.7547 33.24 44.1005 33.2404 41.446 33.2417C41.3446 33.2417 41.2434 33.2577 41.0994 33.2698C40.185 35.1258 39.2678 36.987 38.3411 38.8679C38.1984 38.8865 38.0579 38.9206 37.9175 38.9209C35.7402 38.9243 33.5628 38.9237 31.3855 38.9219C31.2641 38.9219 31.1427 38.901 31.0213 38.8897C30.9682 38.6337 31.1325 38.4772 31.2266 38.3033C32.3543 36.2203 33.4882 34.1407 34.6203 32.0601C38.1851 25.5079 41.75 18.9559 45.3154 12.4039C45.4238 12.2047 45.5376 12.0084 45.639 11.8286C46.3556 11.7585 53.0312 11.7743 53.4976 11.8437C53.5113 11.8579 53.5272 11.8707 53.5377 11.887C53.5487 11.9042 53.5583 11.9241 53.5623 11.944C53.5954 12.1068 53.6343 12.2689 53.6582 12.4332C54.9135 21.0942 56.1676 29.7552 57.421 38.4163C57.4328 38.4985 57.4378 38.5819 57.442 38.6649C57.4441 38.706 57.4393 38.748 57.433 38.7887C57.4301 38.8069 57.4151 38.8231 57.3854 38.8763ZM49.3236 28.0352C49.3236 27.8709 49.3358 27.7064 49.3212 27.5444C49.2753 27.0269 49.2198 26.5103 49.1673 25.9935C49.0138 24.4845 48.8592 22.9756 48.7063 21.4666C48.6141 20.5569 48.5256 19.647 48.4326 18.7376C48.4192 18.6075 48.4229 18.4627 48.2632 18.3528C48.1504 18.5741 48.0545 18.7556 47.9646 18.9397C47.4004 20.0968 46.8375 21.2544 46.2743 22.412C45.4387 24.1297 44.6011 25.8464 43.7711 27.5669C43.6959 27.7227 43.5379 27.8759 43.6755 28.1042C45.4867 28.1042 47.309 28.1048 49.1313 28.1016C49.1883 28.1016 49.2451 28.0634 49.3236 28.0352Z" fill="black"/>
<path fill-rule="evenodd" clip-rule="evenodd" d="M196 18.1736C195.624 18.4672 191.055 20.8597 190.343 21.1352C190.282 21.0438 190.214 20.9469 190.151 20.846C189.933 20.493 189.733 20.1262 189.495 19.7872C188.719 18.6833 187.671 17.996 186.339 17.7436C185.119 17.5124 183.904 17.5074 182.696 17.7928C181.453 18.0864 180.399 18.7274 179.482 19.6084C178.054 20.98 177.228 22.6785 176.823 24.5936C176.585 25.7184 176.492 26.8568 176.68 28.0045C176.9 29.3541 177.42 30.5545 178.398 31.5308C179.255 32.3859 180.291 32.8697 181.489 32.986C182.34 33.0686 183.19 33.0274 184.028 32.8455C184.804 32.6768 185.532 32.3828 186.203 31.9503C187.064 31.3952 187.82 30.7182 188.517 29.9703C188.655 29.8219 188.798 29.6784 188.97 29.5006C190.427 31.0298 191.858 32.5312 193.304 34.0484C193.214 34.1734 193.153 34.2807 193.071 34.3664C191.677 35.812 190.116 37.0393 188.354 38.006C187.047 38.723 185.652 39.1646 184.183 39.3863C182.76 39.6008 181.332 39.654 179.902 39.4932C177.117 39.1805 174.644 38.172 172.642 36.1515C171.109 34.6034 170.155 32.7376 169.713 30.6062C169.334 28.7733 169.33 26.929 169.568 25.0793C169.953 22.083 171.053 19.3753 172.876 16.974C174.984 14.1968 177.716 12.3343 181.099 11.4704C182.926 11.0037 184.784 10.921 186.658 11.1067C187.82 11.2218 188.955 11.4501 190.041 11.8838C192.88 13.017 194.811 15.0521 195.929 17.8855C195.966 17.9796 195.978 18.0831 196 18.1736Z" fill="black"/>
<path fill-rule="evenodd" clip-rule="evenodd" d="M150.412 38.8697C149.973 38.9212 144.386 38.959 143.83 38.916C143.752 38.91 143.676 38.8751 143.562 38.8429C143.666 38.2764 143.762 37.7266 143.868 37.1785C144.425 34.2803 144.981 31.3817 145.55 28.4855C145.629 28.079 145.567 27.7153 145.426 27.3348C143.62 22.4641 141.821 17.5906 140.025 12.716C139.92 12.4303 139.756 12.1562 139.761 11.8097C142.162 11.8097 144.542 11.8097 146.932 11.8097C147.088 11.9979 147.123 12.2273 147.19 12.4407C148.094 15.315 148.997 18.1898 149.9 21.0643C149.956 21.242 150.016 21.418 150.078 21.6055C150.332 21.5517 150.399 21.3326 150.511 21.1726C152.099 18.9111 153.682 16.6455 155.266 14.3814C155.862 13.5307 156.459 12.681 157.043 11.8479C157.531 11.7742 163.786 11.7541 164.588 11.8197C164.669 12.0208 164.499 12.1238 164.407 12.246C163.305 13.705 162.198 15.1601 161.092 16.6161C158.365 20.2063 155.641 23.7997 152.904 27.382C152.64 27.7263 152.496 28.0907 152.418 28.5052C151.791 31.8345 151.157 35.1629 150.524 38.4911C150.501 38.612 150.454 38.7283 150.412 38.8697Z" fill="black"/>
<path fill-rule="evenodd" clip-rule="evenodd" d="M97.1553 17.7769C97.0858 17.2831 97.0196 16.8346 96.9601 16.3852C96.85 15.5533 96.8791 14.7242 97.034 13.9009C97.1229 13.4278 97.2897 12.9799 97.5332 12.5635C98.2462 11.3443 98.9037 10.0904 99.7737 8.96949C99.8092 8.92358 99.8278 8.86439 99.882 8.75564C99.745 8.76722 99.6422 8.75057 99.5638 8.78699C99.1885 8.96052 98.8179 9.14445 98.4501 9.33346C98.322 9.39941 98.213 9.50348 98.0843 9.56813C97.7827 9.71967 97.4516 9.64969 97.2363 9.40358C97.0025 9.13639 96.9865 8.77086 97.2055 8.48728C97.268 8.40637 97.3474 8.33444 97.4306 8.2746C98.415 7.5667 99.4946 7.13509 100.723 7.12754C101.801 7.12091 102.774 7.43974 103.607 8.11694C104.769 9.06133 105.564 10.2572 105.892 11.7355C106.09 12.6288 106.045 13.5148 105.712 14.3728C105.585 14.7013 105.441 15.0269 105.27 15.3342C104.825 16.1329 104.367 16.924 103.904 17.7123C103.134 19.0257 101.927 19.633 100.465 19.7616C99.1237 19.8794 97.8223 19.6274 96.5548 19.1934C96.1399 19.0512 95.7566 18.8424 95.4223 18.5551C94.912 18.1167 94.6032 17.5832 94.5816 16.8846C94.5623 16.262 94.4916 15.6408 94.4392 15.0194C94.4041 14.6032 94.3959 14.1904 94.487 13.7781C94.6262 13.1493 94.7473 12.5163 94.8894 11.8881C94.93 11.7085 94.9937 11.5253 95.0876 11.3683C95.2565 11.0858 95.6059 10.9772 95.9027 11.0818C96.2105 11.1902 96.4076 11.4753 96.3888 11.8024C96.383 11.9044 96.3484 12.0048 96.3265 12.1058C96.216 12.6132 96.1203 13.1247 95.9909 13.6272C95.853 14.1625 95.8692 14.6972 95.9195 15.2384C95.9638 15.7142 96.0211 16.1915 96.02 16.668C96.0193 17.0442 96.1654 17.3087 96.4564 17.5086C96.6413 17.6358 96.8253 17.7791 97.1553 17.7769Z" fill="black"/>
<path fill-rule="evenodd" clip-rule="evenodd" d="M90.1752 23.8058C90.1825 24.2586 90.0495 24.7164 89.8661 25.1599C89.6424 25.7007 89.3348 26.1941 88.9732 26.6518C87.7953 28.1424 86.3476 29.3 84.6362 30.1136C84.2098 30.3162 83.7435 30.4389 83.2885 30.5751C82.9162 30.6863 82.5405 30.6384 82.2046 30.4479C81.8821 30.265 81.5645 30.0643 81.2758 29.8326C80.9095 29.5383 80.7071 29.136 80.6002 28.6719C80.4306 27.9353 80.47 27.2216 80.801 26.544C81.3459 25.4284 81.5963 24.2338 81.7899 23.0213C81.8455 22.6726 81.8906 22.3223 81.9505 21.9745C82.0143 21.604 82.1312 21.2507 82.314 20.9198C82.5802 20.438 82.974 20.1162 83.5131 20.0131C83.8356 19.9515 84.1716 19.9086 84.4974 19.9273C85.9049 20.0086 87.2224 20.4245 88.4571 21.0958C88.7632 21.2623 89.0531 21.4766 89.3096 21.7133C89.904 22.2619 90.1948 22.9547 90.1752 23.8058ZM84.7222 21.3798C84.4295 21.3798 84.245 21.3795 84.0604 21.3798C83.7765 21.3803 83.587 21.5235 83.4962 21.7852C83.4284 21.9809 83.3733 22.1829 83.3344 22.3862C83.2798 22.672 83.2454 22.9616 83.2023 23.2496C83.0136 24.5067 82.7736 25.7495 82.2079 26.9037C82.1441 27.0339 82.1002 27.1737 82.0464 27.3089C81.892 27.6963 81.9202 28.0851 82.0509 28.4689C82.151 28.7632 82.359 28.9398 82.6995 29.0142C82.7105 28.8635 82.7194 28.7442 82.7282 28.6249C82.7466 28.3765 82.7583 28.1273 82.785 27.8797C82.8528 27.2502 83.0893 26.6713 83.348 26.1037C83.5591 25.6406 83.673 25.1646 83.6661 24.6552C83.6529 23.671 83.9649 22.7748 84.4207 21.9197C84.4974 21.7764 84.5791 21.6358 84.7222 21.3798Z" fill="black"/>
<path fill-rule="evenodd" clip-rule="evenodd" d="M86.6629 17.6717C85.9104 17.7047 85.2224 17.5059 84.5931 17.1069C83.5932 16.4727 83.2974 15.4187 83.7797 14.4032C83.9398 14.0663 84.1152 13.7338 84.3153 13.4196C85.1682 12.0803 85.8362 10.6579 86.2885 9.13339C86.365 8.87531 86.4604 8.621 86.5686 8.37437C86.9696 7.46107 87.6572 6.87245 88.6149 6.60916C89.5033 6.36487 90.376 6.41469 91.2298 6.7732C91.861 7.03817 92.2883 7.4876 92.4914 8.14529C92.6642 8.70477 92.7865 9.27011 92.6987 9.86263C92.5373 10.9514 92.3879 12.0419 92.2181 13.1292C92.1381 13.6416 92.0346 14.1511 91.9181 14.6565C91.8578 14.9177 91.7621 15.1741 91.6534 15.4198C91.2502 16.3317 90.582 16.9348 89.5931 17.1469C88.9456 17.286 88.2993 17.4321 87.6487 17.5554C87.3245 17.6169 86.9918 17.6342 86.6629 17.6717ZM86.2329 16.1717C86.2172 15.9413 86.1948 15.7787 86.1975 15.6164C86.2037 15.2437 86.1958 14.8679 86.242 14.4994C86.318 13.8924 86.5712 13.3487 86.9051 12.8381C87.325 12.1959 87.7374 11.547 88.032 10.8346C88.3806 9.99154 88.7164 9.14315 89.0521 8.29489C89.0853 8.21085 89.1759 8.11485 89.0466 7.99739C88.5574 8.08012 88.1867 8.34978 87.9559 8.79739C87.8331 9.03531 87.7369 9.29092 87.6595 9.54796C87.1657 11.188 86.454 12.7256 85.5318 14.1666C85.4201 14.3412 85.3165 14.5214 85.219 14.7043C85.151 14.8316 85.097 14.967 85.0421 15.1009C84.9342 15.364 84.9943 15.5936 85.2078 15.7725C85.4815 16.0013 85.7866 16.1627 86.2329 16.1717Z" fill="black"/>
</svg>
