<svg width="1404" height="1091" viewBox="0 0 1404 1091" fill="none" xmlns="http://www.w3.org/2000/svg">
<path d="M1364.34 170.723C1364.34 170.795 1364.43 170.825 1364.48 170.771C1373.29 160.961 1379.72 149.242 1383.26 136.529C1386.82 123.754 1387.36 110.325 1384.85 97.3017C1382.34 84.2785 1376.84 72.0178 1368.79 61.4863C1360.73 50.9549 1350.35 42.4409 1338.45 36.617C1326.55 30.7931 1313.46 27.8182 1300.22 27.9272C1286.98 28.0361 1273.94 31.2263 1262.14 37.2452C1250.35 43.2641 1240.11 51.9475 1232.23 62.61C1231.94 63.0077 1231.65 63.4079 1231.36 63.8103C1219.81 80.0407 1199.06 92.114 1179.25 94.1797C1166.56 95.5023 1154.33 99.6532 1143.45 106.328C1132.58 113.003 1123.33 122.033 1116.39 132.754C1109.46 143.476 1105.01 155.618 1103.37 168.289C1101.73 180.959 1102.94 193.838 1106.92 205.979C1110.9 218.12 1117.54 229.216 1126.36 238.452C1135.18 247.688 1145.94 254.831 1157.88 259.355C1169.81 263.88 1182.6 265.671 1195.31 264.599C1212.33 263.201 1231.5 272.225 1241.15 286.308C1242.46 288.216 1243.85 290.074 1245.31 291.878C1253.99 302.568 1265.12 311.002 1277.76 316.461C1290.39 321.921 1304.15 324.246 1317.87 323.238C1331.59 322.229 1344.87 317.918 1356.56 310.67C1368.26 303.423 1378.04 293.453 1385.07 281.608C1392.09 269.763 1396.16 256.393 1396.92 242.636C1397.68 228.878 1395.12 215.138 1389.44 202.585C1383.79 190.09 1375.23 179.138 1364.47 170.65C1364.41 170.605 1364.33 170.65 1364.34 170.723Z" fill="#FFF7D9"/>
<path d="M915.898 480.802C915.547 480.832 915.305 480.46 915.471 480.151C945.955 423.59 955.873 358.182 943.517 295.099C931.108 231.747 897.011 174.707 847.098 133.801C797.186 92.8947 734.584 70.6836 670.072 70.9939C640.413 71.1366 611.203 76.0355 583.489 85.3087C527.75 103.959 461.997 101.092 407.073 80.1633C374.729 67.8386 340.202 62.2853 305.629 63.8467C271.056 65.408 237.172 74.0511 206.072 89.241C174.972 104.431 147.318 125.845 124.821 152.158C102.323 178.472 85.4601 209.125 75.2753 242.221C65.0906 275.318 61.8002 310.155 65.608 344.577C69.4159 378.998 80.241 412.273 97.4134 442.342C123.155 487.416 123.558 551.521 96.5823 595.867C92.7107 602.232 89.0896 608.762 85.7308 615.444C66.7984 653.107 56.6931 694.593 56.1829 736.751C55.6727 778.909 64.7711 820.63 82.7865 858.745C100.802 896.859 127.261 930.365 160.153 956.716C193.045 983.068 231.505 1001.57 272.612 1010.82C313.719 1020.07 356.392 1019.83 397.388 1010.11C438.384 1000.39 476.626 981.441 509.208 954.714C546.441 924.172 622.21 925.378 658.437 957.106C662.025 960.249 665.699 963.304 669.456 966.266C706.353 995.358 750.025 1014.6 796.381 1022.2C842.736 1029.79 890.258 1025.48 934.494 1009.68C978.731 993.879 1018.23 967.1 1049.3 931.849C1080.37 896.598 1101.98 854.032 1112.12 808.138C1122.26 762.244 1120.59 714.523 1107.26 669.448C1093.94 624.374 1069.4 583.422 1035.95 550.426C1002.51 517.448 961.257 493.498 916.054 480.817C916.003 480.803 915.95 480.798 915.898 480.802Z" fill="#FFF7D9"/>
</svg>
