<svg width="1404" height="1159" viewBox="0 0 1404 1159" fill="none" xmlns="http://www.w3.org/2000/svg">
<path d="M1364.34 170.723C1364.34 170.795 1364.43 170.825 1364.48 170.771C1373.29 160.961 1379.72 149.242 1383.26 136.529C1386.82 123.754 1387.36 110.325 1384.85 97.3017C1382.34 84.2785 1376.84 72.0178 1368.79 61.4863C1360.73 50.9549 1350.35 42.4409 1338.45 36.617C1326.55 30.7931 1313.46 27.8182 1300.22 27.9272C1286.98 28.0361 1273.94 31.2263 1262.14 37.2452C1250.35 43.2641 1240.11 51.9475 1232.23 62.61C1231.94 63.0077 1231.65 63.4079 1231.36 63.8103C1219.81 80.0407 1199.06 92.114 1179.25 94.1797C1166.56 95.5023 1154.33 99.6532 1143.45 106.328C1132.58 113.003 1123.33 122.033 1116.39 132.754C1109.46 143.476 1105.01 155.618 1103.37 168.289C1101.73 180.959 1102.94 193.838 1106.92 205.979C1110.9 218.12 1117.54 229.216 1126.36 238.452C1135.18 247.688 1145.94 254.831 1157.88 259.355C1169.81 263.88 1182.6 265.671 1195.31 264.599C1212.33 263.201 1231.5 272.225 1241.15 286.308C1242.46 288.216 1243.85 290.074 1245.31 291.878C1253.99 302.568 1265.12 311.002 1277.76 316.461C1290.39 321.921 1304.15 324.246 1317.87 323.238C1331.59 322.229 1344.87 317.918 1356.56 310.67C1368.26 303.423 1378.04 293.453 1385.07 281.608C1392.09 269.763 1396.16 256.393 1396.92 242.636C1397.68 228.878 1395.12 215.138 1389.44 202.585C1383.79 190.09 1375.23 179.138 1364.47 170.65C1364.41 170.605 1364.33 170.65 1364.34 170.723Z" fill="#FFF7D9"/>
<path d="M915.898 480.802C915.547 480.832 915.305 480.46 915.471 480.151C945.955 423.59 955.873 358.182 943.517 295.099C931.108 231.747 897.011 174.707 847.098 133.801C797.186 92.8947 734.584 70.6836 670.072 70.9939C640.413 71.1366 611.203 76.0355 583.489 85.3087C527.75 103.959 461.997 101.092 407.073 80.1633C374.729 67.8386 340.202 62.2853 305.629 63.8467C271.056 65.408 237.172 74.0511 206.072 89.241C174.972 104.431 147.318 125.845 124.821 152.158C102.323 178.472 85.4601 209.125 75.2753 242.221C65.0906 275.318 61.8002 310.155 65.608 344.577C69.4159 378.998 80.241 412.273 97.4134 442.342C123.155 487.416 123.558 551.521 96.5823 595.867C92.7107 602.232 89.0896 608.762 85.7308 615.444C66.7984 653.107 56.6931 694.593 56.1829 736.751C55.6727 778.909 64.7711 820.63 82.7865 858.745C100.802 896.859 127.261 930.365 160.153 956.716C193.045 983.068 231.505 1001.57 272.612 1010.82C313.719 1020.07 356.392 1019.83 397.388 1010.11C438.384 1000.39 476.626 981.441 509.208 954.714C546.441 924.172 622.21 925.378 658.437 957.106C662.025 960.249 665.699 963.304 669.456 966.266C706.353 995.358 750.025 1014.6 796.381 1022.2C842.736 1029.79 890.258 1025.48 934.494 1009.68C978.731 993.879 1018.23 967.1 1049.3 931.849C1080.37 896.598 1101.98 854.032 1112.12 808.138C1122.26 762.244 1120.59 714.523 1107.26 669.448C1093.94 624.374 1069.4 583.422 1035.95 550.426C1002.51 517.448 961.257 493.498 916.054 480.817C916.003 480.803 915.95 480.798 915.898 480.802Z" fill="#FFF7D9"/>
<path d="M1118.5 442.5L1117.14 441.879L1118.5 442.5ZM420 848.5L420.295 849.971L420.303 849.969L420 848.5ZM233.5 995L234.973 995.285L233.5 995ZM490.512 1148.61C491.124 1148.05 491.167 1147.1 490.608 1146.49L481.506 1136.52C480.947 1135.91 479.998 1135.86 479.386 1136.42C478.775 1136.98 478.732 1137.93 479.29 1138.54L487.381 1147.4L478.52 1155.49C477.908 1156.05 477.865 1157 478.423 1157.61C478.982 1158.23 479.931 1158.27 480.542 1157.71L490.512 1148.61ZM489.569 1146C487.697 1145.92 485.752 1145.81 483.737 1145.69L483.553 1148.68C485.583 1148.81 487.544 1148.91 489.432 1149L489.569 1146ZM471.954 1144.8C468.199 1144.47 464.277 1144.08 460.214 1143.63L459.883 1146.61C463.969 1147.07 467.912 1147.46 471.69 1147.79L471.954 1144.8ZM448.463 1142.2C444.644 1141.7 440.73 1141.15 436.738 1140.54L436.287 1143.51C440.299 1144.12 444.232 1144.67 448.071 1145.18L448.463 1142.2ZM425.053 1138.65C421.229 1137.99 417.351 1137.29 413.433 1136.54L412.868 1139.48C416.805 1140.24 420.702 1140.95 424.545 1141.61L425.053 1138.65ZM401.853 1134.19C398.031 1133.38 394.184 1132.52 390.322 1131.61L389.635 1134.53C393.518 1135.44 397.386 1136.31 401.228 1137.12L401.853 1134.19ZM378.85 1128.77C375.048 1127.79 371.244 1126.76 367.448 1125.68L366.627 1128.56C370.447 1129.65 374.274 1130.69 378.098 1131.68L378.85 1128.77ZM356.129 1122.3C352.366 1121.13 348.623 1119.9 344.909 1118.62L343.933 1121.46C347.675 1122.75 351.446 1123.98 355.234 1125.17L356.129 1122.3ZM333.807 1114.61C330.108 1113.21 326.451 1111.75 322.848 1110.24L321.687 1113.01C325.324 1114.53 329.014 1116 332.743 1117.42L333.807 1114.61ZM312.063 1105.47C308.467 1103.79 304.941 1102.05 301.495 1100.25L300.106 1102.91C303.593 1104.73 307.161 1106.49 310.795 1108.19L312.063 1105.47ZM291.2 1094.54C287.775 1092.52 284.455 1090.43 281.252 1088.26L279.574 1090.75C282.83 1092.95 286.202 1095.07 289.674 1097.12L291.2 1094.54ZM271.753 1081.37C268.627 1078.92 265.65 1076.39 262.839 1073.77L260.796 1075.97C263.674 1078.64 266.715 1081.23 269.903 1083.73L271.753 1081.37ZM254.683 1065.42C252.07 1062.45 249.663 1059.39 247.482 1056.22L245.013 1057.93C247.265 1061.19 249.746 1064.35 252.432 1067.4L254.683 1065.42ZM241.527 1046.23C239.777 1042.77 238.285 1039.19 237.074 1035.51L234.224 1036.45C235.484 1040.28 237.034 1043.99 238.85 1047.58L241.527 1046.23ZM234.317 1024.24C233.708 1020.5 233.373 1016.66 233.332 1012.7L230.332 1012.73C230.375 1016.84 230.722 1020.83 231.356 1024.72L234.317 1024.24ZM234.031 1001.12C234.278 999.198 234.591 997.254 234.973 995.285L232.028 994.715C231.634 996.744 231.311 998.75 231.056 1000.73L234.031 1001.12ZM234.973 995.285C235.368 993.247 235.812 991.232 236.304 989.24L233.391 988.521C232.888 990.562 232.432 992.626 232.028 994.715L234.973 995.285ZM239.862 977.422C241.253 973.52 242.829 969.714 244.576 966.004L241.862 964.726C240.075 968.522 238.461 972.418 237.036 976.414L239.862 977.422ZM250.355 955.08C252.449 951.526 254.7 948.068 257.092 944.704L254.647 942.966C252.207 946.397 249.909 949.927 247.77 953.557L250.355 955.08ZM264.667 934.909C267.314 931.749 270.085 928.68 272.965 925.703L270.808 923.617C267.881 926.644 265.062 929.765 262.367 932.984L264.667 934.909ZM281.879 917.076C284.939 914.299 288.09 911.611 291.317 909.011L289.435 906.675C286.164 909.31 282.968 912.036 279.863 914.855L281.879 917.076ZM301.2 901.481C304.565 899.055 307.99 896.715 311.46 894.462L309.826 891.946C306.317 894.225 302.851 896.591 299.445 899.048L301.2 901.481ZM322.041 887.926C325.637 885.814 329.262 883.789 332.9 881.85L331.49 879.202C327.816 881.16 324.155 883.205 320.521 885.34L322.041 887.926ZM343.998 876.214C347.777 874.385 351.551 872.649 355.302 871.002L354.096 868.255C350.312 869.916 346.505 871.668 342.692 873.513L343.998 876.214ZM366.8 866.199C370.736 864.637 374.624 863.176 378.441 861.815L377.433 858.989C373.583 860.362 369.662 861.835 365.693 863.411L366.8 866.199ZM390.241 857.843C394.354 856.541 398.347 855.363 402.187 854.308L401.392 851.415C397.515 852.481 393.485 853.669 389.335 854.983L390.241 857.843ZM414.242 851.27C416.331 850.794 418.351 850.361 420.295 849.971L419.705 847.029C417.734 847.425 415.689 847.863 413.575 848.345L414.242 851.27ZM420.303 849.969C422.177 849.582 424.072 849.186 425.987 848.781L425.365 845.846C423.455 846.25 421.566 846.645 419.697 847.031L420.303 849.969ZM437.721 846.233C441.481 845.398 445.309 844.529 449.204 843.626L448.526 840.703C444.64 841.604 440.821 842.471 437.071 843.305L437.721 846.233ZM460.862 840.87C464.64 839.96 468.474 839.02 472.361 838.05L471.634 835.139C467.756 836.107 463.929 837.045 460.159 837.953L460.862 840.87ZM483.911 835.12C487.703 834.143 491.541 833.138 495.422 832.107L494.651 829.208C490.778 830.237 486.947 831.24 483.162 832.215L483.911 835.12ZM506.894 829.014C510.686 827.977 514.515 826.915 518.379 825.829L517.567 822.941C513.71 824.025 509.888 825.085 506.103 826.12L506.894 829.014ZM529.798 822.577C533.58 821.486 537.392 820.372 541.234 819.235L540.382 816.358C536.548 817.493 532.742 818.605 528.966 819.694L529.798 822.577ZM552.616 815.825C556.383 814.683 560.175 813.519 563.991 812.335L563.101 809.469C559.292 810.652 555.506 811.814 551.746 812.954L552.616 815.825ZM575.347 808.767C579.096 807.576 582.865 806.365 586.653 805.133L585.726 802.28C581.944 803.51 578.181 804.719 574.438 805.908L575.347 808.767ZM597.987 801.409C601.716 800.169 605.462 798.911 609.223 797.633L608.259 794.793C604.504 796.068 600.764 797.324 597.04 798.562L597.987 801.409ZM620.532 793.751C624.241 792.463 627.964 791.158 631.699 789.834L630.696 787.006C626.968 788.328 623.251 789.631 619.548 790.917L620.532 793.751ZM642.937 785.807C646.64 784.467 650.353 783.108 654.075 781.732L653.035 778.918C649.319 780.292 645.612 781.648 641.916 782.986L642.937 785.807ZM665.228 777.566C668.926 776.169 672.632 774.756 676.344 773.325L675.266 770.526C671.56 771.954 667.86 773.365 664.168 774.759L665.228 777.566ZM687.415 769.014C691.105 767.562 694.799 766.093 698.497 764.607L697.379 761.824C693.688 763.307 690 764.773 686.317 766.222L687.415 769.014ZM709.491 760.145C713.158 758.641 716.828 757.12 720.499 755.583L719.341 752.815C715.676 754.35 712.013 755.868 708.352 757.369L709.491 760.145ZM731.441 750.952C735.081 749.396 738.722 747.823 742.362 746.233L741.161 743.484C737.529 745.07 733.895 746.64 730.262 748.194L731.441 750.952ZM753.252 741.427C756.866 739.815 760.479 738.187 764.088 736.542L762.844 733.812C759.242 735.453 755.637 737.078 752.03 738.687L753.252 741.427ZM774.905 731.561C778.495 729.89 782.081 728.203 785.661 726.499L784.372 723.79C780.8 725.49 777.222 727.173 773.639 728.841L774.905 731.561ZM796.383 721.342C799.949 719.608 803.509 717.858 807.061 716.092L805.726 713.406C802.182 715.168 798.63 716.914 795.071 718.644L796.383 721.342ZM817.69 710.748C821.225 708.95 824.751 707.136 828.268 705.306L826.883 702.645C823.375 704.471 819.857 706.28 816.33 708.074L817.69 710.748ZM838.801 699.762C842.302 697.898 845.792 696.017 849.27 694.121L847.834 691.487C844.365 693.379 840.883 695.254 837.391 697.114L838.801 699.762ZM859.694 688.368C863.16 686.432 866.613 684.48 870.052 682.512L868.561 679.908C865.132 681.871 861.688 683.818 858.231 685.749L859.694 688.368ZM880.341 676.548C883.77 674.535 887.184 672.506 890.582 670.46L889.034 667.89C885.647 669.93 882.242 671.953 878.822 673.961L880.341 676.548ZM900.722 664.274C904.109 662.18 907.478 660.07 910.828 657.943L909.22 655.41C905.88 657.531 902.522 659.635 899.145 661.722L900.722 664.274ZM920.828 651.506C924.158 649.333 927.468 647.143 930.755 644.935L929.083 642.445C925.806 644.645 922.508 646.828 919.188 648.994L920.828 651.506ZM940.601 638.23C943.866 635.973 947.107 633.7 950.324 631.409L948.584 628.965C945.379 631.247 942.149 633.513 938.895 635.762L940.601 638.23ZM959.998 624.414C963.197 622.065 966.369 619.698 969.513 617.314L967.701 614.924C964.569 617.298 961.409 619.656 958.222 621.996L959.998 624.414ZM978.97 610.026C982.1 607.573 985.201 605.102 988.271 602.613L986.381 600.283C983.325 602.761 980.237 605.222 977.12 607.665L978.97 610.026ZM997.46 595.03C1000.51 592.466 1003.53 589.884 1006.52 587.283L1004.54 585.021C1001.57 587.61 998.569 590.181 995.531 592.733L997.46 595.03ZM1015.4 579.387C1018.37 576.705 1021.29 574.004 1024.18 571.283L1022.12 569.101C1019.25 571.807 1016.34 574.495 1013.39 577.164L1015.4 579.387ZM1032.72 563.056C1035.58 560.249 1038.39 557.422 1041.17 554.575L1039.02 552.482C1036.26 555.313 1033.46 558.124 1030.62 560.916L1032.72 563.056ZM1049.35 545.974C1052.08 543.042 1054.76 540.09 1057.39 537.116L1055.14 535.128C1052.53 538.082 1049.86 541.017 1047.15 543.932L1049.35 545.974ZM1065.16 528.116C1067.73 525.055 1070.25 521.974 1072.73 518.871L1070.38 517.002C1067.93 520.084 1065.42 523.144 1062.86 526.185L1065.16 528.116ZM1080.01 509.456C1082.41 506.262 1084.76 503.046 1087.05 499.809L1084.6 498.078C1082.33 501.291 1080 504.482 1077.62 507.653L1080.01 509.456ZM1093.77 489.97C1095.98 486.64 1098.12 483.287 1100.2 479.912L1097.64 478.339C1095.58 481.686 1093.46 485.011 1091.27 488.315L1093.77 489.97ZM1106.28 469.65C1108.26 466.184 1110.16 462.694 1112.01 459.182L1109.35 457.789C1107.52 461.27 1105.63 464.728 1103.67 468.164L1106.28 469.65ZM1117.35 448.51C1118.21 446.719 1119.05 444.923 1119.87 443.121L1117.14 441.879C1116.32 443.663 1115.49 445.442 1114.65 447.216L1117.35 448.51ZM1119.87 443.121C1120.7 441.292 1121.51 439.467 1122.31 437.648L1119.56 436.443C1118.77 438.25 1117.96 440.062 1117.14 441.879L1119.87 443.121ZM1126.89 426.791C1128.38 423.106 1129.8 419.443 1131.16 415.8L1128.34 414.757C1127 418.371 1125.59 422.007 1124.11 425.664L1126.89 426.791ZM1135.08 404.704C1136.35 400.928 1137.55 397.175 1138.67 393.446L1135.8 392.581C1134.68 396.279 1133.5 400.002 1132.24 403.747L1135.08 404.704ZM1141.86 382.152C1142.89 378.289 1143.83 374.452 1144.7 370.641L1141.77 369.976C1140.91 373.752 1139.98 377.555 1138.96 381.384L1141.86 382.152ZM1147.09 359.175C1147.84 355.246 1148.5 351.345 1149.09 347.474L1146.12 347.026C1145.54 350.86 1144.88 354.723 1144.14 358.615L1147.09 359.175ZM1150.62 335.797C1151.06 331.853 1151.42 327.94 1151.7 324.058L1148.71 323.844C1148.43 327.686 1148.08 331.559 1147.64 335.463L1150.62 335.797ZM1152.3 312.239C1152.43 308.284 1152.46 304.362 1152.42 300.475L1149.42 300.508C1149.46 304.354 1149.43 308.234 1149.31 312.148L1152.3 312.239ZM1152.04 288.656C1151.83 284.691 1151.53 280.763 1151.15 276.872L1148.17 277.161C1148.54 281.009 1148.83 284.895 1149.04 288.817L1152.04 288.656ZM1149.76 265.178C1149.21 261.248 1148.58 257.358 1147.86 253.509L1144.91 254.055C1145.62 257.863 1146.25 261.709 1146.79 265.596L1149.76 265.178ZM1145.46 241.939C1144.57 238.087 1143.6 234.277 1142.56 230.509L1139.67 231.309C1140.7 235.035 1141.66 238.804 1142.53 242.613L1145.46 241.939ZM1139.17 219.202C1137.95 215.435 1136.66 211.712 1135.3 208.034L1132.49 209.076C1133.83 212.715 1135.11 216.398 1136.32 220.125L1139.17 219.202ZM1130.97 197.056C1129.45 193.415 1127.86 189.822 1126.2 186.275L1123.48 187.544C1125.12 191.054 1126.7 194.611 1128.2 198.213L1130.97 197.056ZM1120.99 175.67C1119.18 172.159 1117.31 168.697 1115.37 165.285L1112.76 166.762C1114.68 170.142 1116.53 173.57 1118.32 177.045L1120.99 175.67ZM1109.37 155.131C1107.3 151.775 1105.18 148.469 1103 145.215L1100.51 146.882C1102.66 150.107 1104.77 153.381 1106.82 156.706L1109.37 155.131ZM1096.26 135.514C1093.95 132.31 1091.6 129.159 1089.2 126.062L1086.82 127.899C1089.2 130.97 1091.54 134.093 1093.83 137.268L1096.26 135.514ZM1081.82 116.864C1079.3 113.828 1076.74 110.847 1074.15 107.923L1071.91 109.912C1074.48 112.813 1077.01 115.769 1079.51 118.779L1081.82 116.864ZM1066.18 99.2136C1063.47 96.3366 1060.72 93.5182 1057.95 90.7588L1055.83 92.8848C1058.58 95.6228 1061.31 98.419 1064 101.273L1066.18 99.2136ZM1049.47 82.5657C1046.58 79.8603 1043.68 77.2172 1040.75 74.6367L1038.77 76.8851C1041.67 79.4463 1044.55 82.0696 1047.42 84.7544L1049.47 82.5657ZM1031.82 66.9746C1028.77 64.4331 1025.71 61.9593 1022.65 59.5535L1020.79 61.913C1023.83 64.3012 1026.87 66.7569 1029.9 69.2797L1031.82 66.9746ZM1013.26 52.3972C1010.06 50.0288 1006.86 47.7352 1003.67 45.5168L1001.96 47.9788C1005.12 50.181 1008.3 52.4578 1011.47 54.8089L1013.26 52.3972ZM993.896 38.919C990.551 36.732 987.226 34.6299 983.931 32.6133L982.365 35.1722C985.635 37.1732 988.934 39.2594 992.254 41.43L993.896 38.919ZM973.778 26.6128C970.281 24.6195 966.829 22.7273 963.433 20.9369L962.034 23.5907C965.401 25.3655 968.824 27.2419 972.292 29.219L973.778 26.6128ZM952.895 15.6159C951.118 14.7591 949.361 13.9326 947.626 13.1366L946.375 15.8634C948.092 16.6513 949.832 17.4695 951.591 18.3181L952.895 15.6159Z" fill="black"/>
</svg>
