<svg width="1920" height="616" viewBox="0 0 1920 616" fill="none" xmlns="http://www.w3.org/2000/svg">
<path d="M0.5 0V198.32C292.233 309.911 615.836 372 956.5 372C1300.09 372 1626.32 308.841 1920 195.437V0H0.5Z" fill="#FDEAA7"/>
<path d="M-19 158C-19 158 450 377 993 373.5C1536 370 1931 184 1931 184" stroke="black"/>
<path d="M1730.12 225.389C1739.43 219.952 1759.99 212.572 1772.97 223.8C1785.18 234.374 1782.02 253.974 1781.69 255.895C1792.05 245.415 1807.96 247.424 1813.97 255.95C1819.14 263.292 1817.42 276.101 1807.81 283.77C1811.78 284.788 1825.87 288.849 1829.69 299.714C1834.92 314.596 1817.42 332.372 1804.75 339.821C1777.58 355.793 1728.04 350.481 1708.26 315.068C1690.34 282.99 1704.67 240.233 1730.12 225.389Z" fill="#FA6456"/>
<path d="M1761.77 348.455C1757.41 348.004 1753.06 347.206 1748.81 346.052C1730.71 341.139 1716.15 330.221 1707.82 315.31C1699.38 300.194 1697.47 281.842 1702.45 263.634C1707.06 246.74 1717.31 232.282 1729.86 224.959C1739.89 219.109 1760.33 212.2 1773.29 223.424C1784.17 232.844 1783.07 249.297 1782.39 254.534C1787.37 250.052 1793.86 247.812 1800.41 248.356C1806.27 248.842 1811.49 251.576 1814.38 255.664C1819.37 262.747 1818.27 275.451 1808.87 283.538C1814.76 285.17 1826.67 289.624 1830.16 299.55C1835.37 314.362 1818.58 332.267 1805 340.25C1793.18 347.2 1777.42 350.073 1761.77 348.455ZM1730.37 225.819C1718.03 233.013 1707.95 247.248 1703.4 263.897C1698.5 281.852 1700.38 299.939 1708.69 314.825C1716.89 329.5 1731.23 340.25 1749.07 345.091C1768.37 350.328 1789.61 348.145 1804.5 339.391C1811.62 335.204 1818.74 328.799 1823.53 322.26C1827.71 316.558 1832.09 308.047 1829.22 299.878C1825.7 289.847 1812.99 285.608 1807.69 284.252C1807.5 284.204 1807.36 284.059 1807.32 283.873C1807.28 283.689 1807.35 283.498 1807.5 283.381C1817.15 275.686 1818.42 263.133 1813.56 256.236C1810.85 252.386 1805.89 249.806 1800.33 249.347C1793.59 248.787 1786.93 251.302 1782.04 256.244C1781.89 256.4 1781.65 256.437 1781.46 256.336C1781.26 256.237 1781.16 256.023 1781.2 255.808C1781.57 253.656 1784.55 234.483 1772.64 224.175C1767.03 219.324 1759.5 217.527 1750.24 218.838C1740.55 220.208 1732.58 224.527 1730.37 225.819Z" fill="#2E1E00"/>
<path d="M1413.22 424.738C1423.28 435.382 1436.65 446.836 1452.17 457.656C1467.69 468.476 1483.07 477.053 1496.54 482.798C1508.38 475.211 1517.3 463.117 1520.55 448.346C1520.61 448.071 1520.67 447.793 1520.73 447.509C1526.79 417.775 1507.59 388.755 1477.86 382.697C1463.27 379.725 1448.85 382.83 1437.24 390.283C1425.4 397.863 1416.46 409.966 1413.22 424.738Z" fill="#FEFFFA"/>
<path d="M1412.8 424.988C1412.81 425.02 1412.84 425.051 1412.86 425.079C1423.32 436.15 1436.81 447.556 1451.89 458.064C1466.95 468.561 1482.32 477.273 1496.35 483.255C1496.5 483.32 1496.67 483.305 1496.81 483.216C1509.26 475.233 1517.86 462.888 1521.03 448.452C1521.1 448.181 1521.16 447.897 1521.22 447.609C1524.17 433.097 1521.3 418.305 1513.13 405.95C1504.96 393.596 1492.47 385.165 1477.96 382.209C1463.74 379.31 1449.18 382.029 1436.97 389.863C1424.51 397.842 1415.91 410.189 1412.74 424.631C1412.71 424.754 1412.73 424.881 1412.8 424.988ZM1496.5 482.236C1482.6 476.282 1467.37 467.645 1452.46 457.247C1437.52 446.839 1424.15 435.55 1413.77 424.587C1416.92 410.515 1425.34 398.488 1437.5 390.701C1449.5 383.007 1463.79 380.338 1477.76 383.183C1492.01 386.087 1504.28 394.366 1512.3 406.498C1520.32 418.631 1523.14 433.158 1520.24 447.41C1520.18 447.687 1520.13 447.959 1520.06 448.229C1516.97 462.329 1508.6 474.392 1496.5 482.236Z" fill="#2E1E00"/>
<path d="M1413.04 425.569C1406.99 455.309 1426.18 484.324 1455.92 490.383C1470.51 493.357 1484.92 490.25 1496.54 482.797C1483.07 477.052 1467.69 468.475 1452.17 457.655C1436.65 446.835 1423.28 435.382 1413.22 424.737C1413.16 425.013 1413.1 425.291 1413.04 425.569Z" fill="#FEFFFA"/>
<path d="M1418.9 464.321C1419.45 465.271 1420.03 466.207 1420.64 467.131C1428.81 479.482 1441.31 487.914 1455.82 490.871C1470.04 493.769 1484.6 491.05 1496.81 483.216C1496.97 483.116 1497.05 482.94 1497.04 482.756C1497.02 482.572 1496.91 482.412 1496.74 482.34C1482.77 476.383 1467.46 467.707 1452.46 457.247C1437.44 446.778 1424 435.418 1413.59 424.396C1413.46 424.263 1413.27 424.21 1413.1 424.257C1412.92 424.304 1412.78 424.444 1412.74 424.621C1412.67 424.898 1412.62 425.178 1412.56 425.457L1412.56 425.47C1409.82 438.898 1412.07 452.569 1418.9 464.321ZM1495.48 482.881C1483.65 490.187 1469.68 492.678 1456.02 489.896C1426.63 483.908 1407.58 455.151 1413.51 425.764C1423.87 436.62 1437.12 447.773 1451.89 458.064C1466.64 468.344 1481.69 476.911 1495.48 482.881ZM1413.04 425.569L1413.04 425.564L1413.04 425.569Z" fill="#2E1E00"/>
<path d="M1496.11 483.047C1496.17 483.138 1496.25 483.212 1496.35 483.256C1518.67 492.779 1534.33 494.145 1539.3 487.004C1544.28 479.864 1537.58 465.65 1520.91 448.004C1520.78 447.871 1520.59 447.817 1520.41 447.867C1520.24 447.916 1520.1 448.06 1520.06 448.239C1516.95 462.415 1508.5 474.539 1496.27 482.379C1496.12 482.478 1496.03 482.655 1496.05 482.839C1496.05 482.914 1496.08 482.985 1496.11 483.047ZM1535.28 468.062C1539.97 476.137 1541.18 482.565 1538.49 486.435C1533.94 492.967 1518.68 491.563 1497.6 482.703C1509.36 474.883 1517.57 463.105 1520.82 449.367C1527.19 456.177 1532.05 462.51 1535.28 468.062Z" fill="#2E1E00"/>
<path d="M1397.58 405.489C1400.95 411.288 1406.08 417.899 1412.86 425.079C1412.99 425.214 1413.18 425.267 1413.36 425.217C1413.54 425.168 1413.67 425.024 1413.71 424.844C1416.82 410.662 1425.27 398.536 1437.5 390.701C1437.66 390.602 1437.75 390.425 1437.73 390.241C1437.72 390.057 1437.6 389.897 1437.43 389.825C1415.11 380.303 1399.45 378.936 1394.47 386.075C1391.52 390.31 1392.67 397.035 1397.58 405.489ZM1412.95 423.715C1397.33 407 1390.73 393.173 1395.29 386.643C1399.84 380.113 1415.1 381.517 1436.18 390.375C1424.41 398.193 1416.2 409.972 1412.95 423.715Z" fill="#2E1E00"/>
<path d="M1510.96 336.319C1507.51 338.324 1506.34 342.748 1508.34 346.201C1510.35 349.654 1514.77 350.828 1518.22 348.823C1521.68 346.818 1522.85 342.393 1520.85 338.94C1518.84 335.488 1514.42 334.314 1510.96 336.319Z" fill="#FFDC38"/>
<path d="M1507.91 346.451C1510.05 350.135 1514.79 351.392 1518.47 349.253C1522.16 347.113 1523.41 342.375 1521.28 338.691C1519.14 335.006 1514.4 333.749 1510.71 335.888C1507.03 338.028 1505.77 342.766 1507.91 346.451ZM1520.41 339.19C1522.28 342.4 1521.18 346.528 1517.97 348.392C1514.76 350.256 1510.64 349.161 1508.77 345.951C1506.91 342.741 1508 338.613 1511.21 336.749C1514.42 334.885 1518.55 335.98 1520.41 339.19Z" fill="#2E1E00"/>
<path d="M1614.96 496.227C1614.96 496.227 1621.8 502.84 1617.54 507.723C1613.28 512.606 1606.12 506.292 1606.12 506.292C1606.12 506.292 1600.44 515.367 1594.16 509.744C1587.89 504.121 1595.9 499.47 1595.9 499.47C1595.9 499.47 1590.47 496.965 1590.42 490.86C1590.36 484.754 1598.1 483.991 1601.75 488.612C1601.75 488.612 1609.19 479.016 1614.29 483.873C1619.4 488.73 1614.96 496.227 1614.96 496.227Z" fill="#FEFFFA"/>
<path d="M1592.02 507.964C1592.45 508.696 1593.05 509.414 1593.83 510.114C1595.54 511.648 1597.38 512.289 1599.29 512.019C1602.72 511.535 1605.34 508.262 1606.22 507.023C1607.39 507.942 1610.68 510.271 1613.94 510.059C1615.5 509.958 1616.84 509.281 1617.92 508.05C1621.93 503.456 1616.82 497.481 1615.57 496.142C1616.37 494.583 1619.33 487.981 1614.64 483.512C1613.47 482.405 1612.1 481.903 1610.57 482.019C1606.72 482.31 1602.94 486.415 1601.74 487.836C1599.61 485.519 1596.24 484.539 1593.49 485.504C1591.2 486.312 1589.9 488.265 1589.92 490.864C1589.97 495.87 1593.39 498.547 1594.94 499.508C1593.77 500.348 1591.56 502.262 1591.29 504.817C1591.18 505.887 1591.43 506.939 1592.02 507.964ZM1617.1 499.831C1618.38 502.037 1619.27 504.981 1617.17 507.395C1616.27 508.42 1615.16 508.983 1613.87 509.067C1610.32 509.297 1606.49 505.953 1606.45 505.919C1606.34 505.822 1606.19 505.779 1606.05 505.8C1605.9 505.82 1605.78 505.904 1605.7 506.028C1605.67 506.072 1602.84 510.515 1599.15 511.034C1597.54 511.26 1595.98 510.701 1594.5 509.373C1592.87 507.919 1592.13 506.421 1592.28 504.922C1592.58 502.014 1596.12 499.921 1596.15 499.9C1596.31 499.806 1596.41 499.631 1596.4 499.447C1596.39 499.262 1596.28 499.097 1596.11 499.018C1595.9 498.92 1590.97 496.56 1590.92 490.855C1590.9 488.708 1591.96 487.1 1593.83 486.442C1596 485.678 1599.28 486.284 1601.36 488.92C1601.45 489.04 1601.6 489.11 1601.75 489.11C1601.91 489.109 1602.05 489.038 1602.14 488.917C1602.19 488.861 1606.53 483.322 1610.64 483.011C1611.9 482.916 1612.98 483.316 1613.95 484.233C1618.7 488.755 1614.57 495.902 1614.53 495.973C1614.41 496.172 1614.45 496.425 1614.61 496.585C1614.64 496.613 1616.01 497.955 1617.1 499.831Z" fill="#2E1E00"/>
<path d="M1489.08 562.007C1488.53 562.324 1487.83 562.139 1487.52 561.593C1487.2 561.047 1487.39 560.347 1487.93 560.03C1488.48 559.713 1489.18 559.898 1489.49 560.444C1489.81 560.99 1489.63 561.69 1489.08 562.007Z" fill="#2E1E00"/>
<path d="M1554.67 150.017C1548.94 157.102 1478.82 163.675 1478.82 163.675L1441.88 232.664C1441.88 232.664 1417.82 280.466 1403.63 277.498C1383.62 273.316 1440.69 183.852 1440.69 183.852L1431.94 181.326C1431.94 181.326 1416.75 209.918 1393.48 211.445C1370.23 212.976 1316.6 199.381 1322.09 184.3C1326.48 172.221 1392.16 187.853 1392.16 187.853L1449.08 99.2775C1456.71 109.827 1475.28 130.215 1501.48 124.1L1501.49 124.098C1511.3 123.226 1536.6 121.353 1545.13 124.338C1555.81 128.067 1548.57 136.671 1548.57 136.671C1548.57 136.671 1560.4 142.938 1554.67 150.017Z" fill="#ADF0E7"/>
<path d="M1407.15 277.807C1405.89 278.152 1404.68 278.226 1403.52 277.984C1401.66 277.594 1400.33 276.501 1399.59 274.733C1392.97 258.997 1435.23 191.553 1439.92 184.146L1432.18 181.914C1430.49 184.905 1418.12 205.847 1399.62 210.907C1397.65 211.446 1395.62 211.803 1393.52 211.941C1373.78 213.24 1332.34 203.807 1323.08 191.47C1321.23 189.011 1320.74 186.542 1321.62 184.13C1323.53 178.868 1336.06 177.834 1358.84 181.053C1374.3 183.238 1389.48 186.715 1391.93 187.287L1448.66 99.0081C1448.75 98.8699 1448.9 98.7842 1449.06 98.7793C1449.23 98.7751 1449.38 98.8521 1449.48 98.9852C1453.38 104.37 1459.86 111.957 1468.59 117.518C1479.07 124.195 1490.1 126.246 1501.37 123.614C1501.39 123.609 1501.42 123.604 1501.44 123.602C1511.77 122.684 1536.73 120.87 1545.3 123.868C1548.62 125.028 1550.63 126.782 1551.26 129.081C1552.11 132.204 1550.16 135.35 1549.31 136.52C1550.92 137.467 1555.76 140.623 1556.61 144.774C1557 146.703 1556.48 148.572 1555.06 150.33C1549.39 157.346 1484.55 163.631 1479.13 164.145L1442.32 232.899C1441.42 234.696 1421.54 273.869 1407.15 277.807ZM1431.81 180.846C1431.89 180.822 1431.98 180.822 1432.07 180.848L1440.83 183.374C1440.98 183.418 1441.1 183.53 1441.16 183.677C1441.22 183.823 1441.2 183.987 1441.11 184.12C1440.64 184.862 1393.85 258.522 1400.51 274.348C1401.13 275.815 1402.18 276.687 1403.73 277.011C1417.39 279.864 1441.2 232.915 1441.44 232.44L1478.38 163.44C1478.46 163.293 1478.61 163.196 1478.77 163.18C1502.95 160.914 1549.86 155.181 1554.29 149.705C1555.51 148.19 1555.96 146.599 1555.63 144.976C1554.73 140.549 1548.4 137.144 1548.34 137.111C1548.2 137.04 1548.11 136.914 1548.08 136.766C1548.05 136.619 1548.09 136.466 1548.19 136.351C1548.22 136.315 1551.22 132.69 1550.3 129.341C1549.76 127.378 1547.96 125.853 1544.97 124.808C1536.59 121.877 1511.85 123.677 1501.56 124.591C1490.02 127.272 1478.75 125.173 1468.05 118.358C1459.5 112.912 1453.09 105.567 1449.1 100.157L1392.58 188.121C1392.47 188.3 1392.25 188.385 1392.05 188.337C1391.88 188.298 1375.45 184.406 1358.7 182.038C1330.98 178.122 1323.74 181.199 1322.55 184.471C1321.8 186.546 1322.24 188.701 1323.87 190.873C1327.9 196.23 1339.11 201.685 1354.64 205.839C1368.61 209.575 1383.85 211.581 1393.45 210.949C1416.17 209.457 1431.35 181.376 1431.5 181.092C1431.56 180.968 1431.68 180.881 1431.81 180.846Z" fill="#2E1E00"/>
<path d="M1497.66 124.955C1497.63 124.964 1497.59 124.97 1497.56 124.972L1444.57 127.695C1444.3 127.71 1444.06 127.499 1444.05 127.224C1444.03 126.95 1444.24 126.717 1444.52 126.702L1497.5 123.978C1497.78 123.964 1498.01 124.175 1498.03 124.45C1498.04 124.687 1497.88 124.895 1497.66 124.955Z" fill="#2E1E00"/>
<path d="M1542.22 139.663C1533 142.183 1515.88 144.613 1491.08 146.915C1466.43 149.202 1442.98 150.505 1442.75 150.517C1442.48 150.533 1442.24 150.322 1442.23 150.048C1442.21 149.774 1442.42 149.539 1442.7 149.524C1443.63 149.473 1536.26 144.285 1548.29 136.255C1548.52 136.101 1548.83 136.164 1548.98 136.393C1549.14 136.622 1549.07 136.93 1548.85 137.083C1547.54 137.952 1545.33 138.813 1542.22 139.663Z" fill="#2E1E00"/>
<path d="M1478.94 164.157C1478.83 164.187 1478.71 164.179 1478.6 164.126C1478.35 164.007 1478.25 163.71 1478.37 163.462L1486.43 146.583C1486.54 146.335 1486.84 146.23 1487.09 146.349C1487.34 146.467 1487.44 146.764 1487.32 147.012L1479.26 163.891C1479.2 164.027 1479.08 164.12 1478.94 164.157Z" fill="#2E1E00"/>
<path d="M1444.56 183.767C1444.54 183.771 1444.53 183.775 1444.51 183.778C1439.42 184.679 1434.56 182.861 1431.37 181.177C1427.94 179.362 1425.73 177.364 1425.63 177.28C1425.43 177.095 1425.42 176.781 1425.6 176.577C1425.79 176.374 1426.1 176.359 1426.3 176.544C1426.39 176.624 1435.11 184.432 1444.34 182.798C1444.61 182.75 1444.87 182.931 1444.92 183.201C1444.96 183.456 1444.8 183.7 1444.56 183.767Z" fill="#2E1E00"/>
<path d="M1497.53 124.474C1497.53 124.474 1514.27 112.711 1525.82 70.1707L1511.91 78.1584C1511.91 78.1584 1503.66 65.7799 1488.59 63.5042L1485.85 44.0789C1472.92 62.0588 1461.04 80.6546 1449.08 99.2775C1449.08 99.2775 1465.01 128.177 1497.53 124.474Z" fill="#FA6456"/>
<path d="M1497.66 124.953C1497.64 124.96 1497.61 124.964 1497.59 124.968C1480.61 126.901 1468.21 119.877 1460.79 113.645C1452.76 106.901 1448.68 99.5903 1448.64 99.5172C1448.55 99.3571 1448.56 99.1619 1448.66 99.008L1450.17 96.6572C1461.42 79.1381 1473.06 61.0218 1485.45 43.7881C1485.56 43.6225 1485.77 43.5468 1485.97 43.5954C1486.17 43.6442 1486.31 43.808 1486.34 44.0091L1489.03 63.0692C1502.42 65.2529 1510.5 75.402 1512.05 77.5022L1525.57 69.739C1525.75 69.6375 1525.96 69.6534 1526.12 69.7764C1526.28 69.8994 1526.35 70.1063 1526.3 70.3007C1523 82.4668 1517.1 99.8465 1507.75 113.555C1502.14 121.793 1497.99 124.758 1497.82 124.88C1497.77 124.913 1497.72 124.938 1497.66 124.953ZM1449.66 99.2909C1450.45 100.626 1454.4 106.985 1461.46 112.906C1468.7 118.985 1480.8 125.833 1497.34 123.994C1498.71 122.945 1514.13 110.438 1525.02 71.203L1512.15 78.5894C1511.93 78.7196 1511.64 78.652 1511.49 78.4339C1511.41 78.3122 1503.18 66.2107 1488.51 63.9958C1488.29 63.9629 1488.12 63.7913 1488.09 63.5732L1485.53 45.3778C1473.43 62.2877 1462.03 80.0281 1451 97.1948L1449.66 99.2909Z" fill="#2E1E00"/>
<path d="M1466.9 71.7482L1474.51 82.5384L1461.18 80.4944L1466.9 71.7482Z" fill="#2E1E00"/>
<path d="M1474.64 83.0184C1474.58 83.0364 1474.51 83.0407 1474.44 83.0299L1461.1 80.9864C1460.94 80.9609 1460.79 80.852 1460.73 80.6975C1460.66 80.543 1460.67 80.3638 1460.76 80.2224L1466.48 71.4757C1466.57 71.3377 1466.72 71.2541 1466.89 71.2502C1467.05 71.2476 1467.21 71.3262 1467.3 71.4612L1474.92 82.2514C1475.03 82.4144 1475.04 82.6302 1474.94 82.7998C1474.87 82.909 1474.76 82.9858 1474.64 83.0184ZM1462.02 80.1199L1473.43 81.8689L1466.91 72.6331L1462.02 80.1199Z" fill="#2E1E00"/>
<path d="M1458.13 85.2103L1464.68 93.3093L1454.41 90.4224L1458.13 85.2103Z" fill="#2E1E00"/>
<path d="M1464.81 93.7891C1464.73 93.8123 1464.64 93.8131 1464.55 93.7881L1454.28 90.9012C1454.12 90.8572 1454 90.7402 1453.94 90.5877C1453.89 90.4354 1453.91 90.2659 1454.01 90.1339L1457.72 84.9212C1457.81 84.7949 1457.95 84.7178 1458.11 84.713C1458.27 84.7077 1458.41 84.7763 1458.51 84.8971L1465.07 92.996C1465.21 93.1641 1465.22 93.4013 1465.1 93.5824C1465.03 93.6861 1464.93 93.758 1464.81 93.7891ZM1455.23 90.1348L1463.31 92.4068L1458.15 86.0322L1455.23 90.1348Z" fill="#2E1E00"/>
<path d="M1494.59 103.214C1494.47 103.244 1494.35 103.236 1494.24 103.18C1488.02 100.129 1490.63 93.3498 1490.66 93.2814C1490.76 93.0266 1491.05 92.9027 1491.31 93.0033C1491.56 93.1048 1491.69 93.394 1491.59 93.6491C1491.49 93.8931 1489.29 99.6444 1494.67 102.287C1494.92 102.408 1495.02 102.706 1494.9 102.953C1494.84 103.086 1494.72 103.177 1494.59 103.214Z" fill="#2E1E00"/>
<path d="M1503.11 96.8937C1503.53 98.453 1502.61 100.063 1501.05 100.489C1499.49 100.916 1497.88 99.9971 1497.46 98.4377C1497.03 96.8784 1497.95 95.2686 1499.51 94.8422C1501.07 94.4159 1502.68 95.3343 1503.11 96.8937Z" fill="#2E1E00"/>
<path d="M1496.39 88.0977C1496.63 89 1496.1 89.9309 1495.2 90.1775C1494.3 90.4242 1493.37 89.8932 1493.12 88.9909C1492.87 88.0886 1493.4 87.1577 1494.31 86.911C1495.21 86.6644 1496.14 87.1954 1496.39 88.0977Z" fill="#2E1E00"/>
<path d="M1510.26 96.2183C1510.5 97.1206 1509.97 98.0515 1509.07 98.2981C1508.17 98.5448 1507.24 98.0138 1506.99 97.1115C1506.74 96.2092 1507.27 95.2783 1508.18 95.0316C1509.08 94.785 1510.01 95.316 1510.26 96.2183Z" fill="#2E1E00"/>
<path d="M1499.77 79.8187C1499.88 81.3654 1497.65 82.7849 1494.78 82.9891C1491.91 83.1939 1489.5 82.1057 1489.39 80.559C1489.28 79.0128 1491.52 77.5934 1494.38 77.3887C1497.25 77.1844 1499.66 78.2721 1499.77 79.8187Z" fill="#2E1E00"/>
<path d="M1512.67 89.2542C1511.43 90.1815 1511.82 92.801 1513.54 95.1051C1515.26 97.4092 1517.66 98.5256 1518.9 97.5988C1520.14 96.6716 1519.76 94.0521 1518.04 91.748C1516.32 89.4439 1513.92 88.3269 1512.67 89.2542Z" fill="#2E1E00"/>
<g opacity="0.4">
<g opacity="0.4">
<path opacity="0.4" d="M1538.38 67.4655C1545.73 94.3531 1529.89 122.11 1503.01 129.461C1476.12 136.812 1448.36 120.975 1441.01 94.0871C1433.66 67.1995 1449.5 39.4432 1476.38 32.0918C1503.27 24.7405 1531.03 40.5778 1538.38 67.4655Z" fill="#FEFFFA"/>
<path opacity="0.4" d="M1503.14 129.941C1476.03 137.353 1447.94 121.328 1440.53 94.2182C1433.12 67.1093 1449.14 39.0242 1476.25 31.6122C1503.36 24.2002 1531.45 40.2252 1538.86 67.3341C1546.27 94.4435 1530.25 122.529 1503.14 129.941ZM1476.52 32.5721C1449.94 39.8394 1434.22 67.3762 1441.49 93.9558C1448.76 120.536 1476.29 136.248 1502.87 128.981C1529.45 121.714 1545.17 94.1765 1537.9 67.5965C1530.63 41.017 1503.1 25.3048 1476.52 32.5721Z" fill="#2E1E00"/>
</g>
</g>
<path d="M1503.14 129.941C1476.03 137.353 1447.94 121.328 1440.53 94.2182C1433.12 67.1093 1449.14 39.0242 1476.25 31.6122C1503.36 24.2002 1531.45 40.2252 1538.86 67.3341C1546.27 94.4435 1530.25 122.529 1503.14 129.941ZM1476.52 32.5721C1449.94 39.8394 1434.22 67.3762 1441.49 93.9558C1448.76 120.536 1476.29 136.248 1502.87 128.981C1529.45 121.714 1545.17 94.1765 1537.9 67.5965C1530.63 41.017 1503.1 25.3048 1476.52 32.5721Z" fill="#2E1E00"/>
<path d="M1688.98 505.87C1688.98 505.87 1676.6 493.14 1666.31 501.505C1650.62 514.251 1667.86 527.708 1675.4 525.345C1669.18 530.292 1660.07 539.925 1665.09 548.478C1670.4 557.519 1685.72 559.766 1693.07 552.349C1695.41 549.997 1697.02 547.044 1698.11 543.938C1698.48 542.894 1700.81 535.634 1699.21 534.991C1699.21 534.991 1717.96 542.543 1721.08 527.599C1724.2 512.655 1703.89 511.453 1703.89 511.453C1703.89 511.453 1710.3 500.891 1701.47 497.958C1691.29 494.574 1688.98 505.87 1688.98 505.87Z" fill="#FEFFFA"/>
<path d="M1679.06 557.178C1678.9 557.161 1678.74 557.142 1678.58 557.123C1672.5 556.358 1667.3 553.22 1664.66 548.73C1662.35 544.784 1662.66 540.267 1665.6 535.305C1667.86 531.5 1671.24 528.215 1673.68 526.122C1669.19 526.258 1663.42 522.734 1660.85 517.939C1659.08 514.654 1657.4 508.099 1665.99 501.119C1675.18 493.651 1686.02 502.481 1688.71 504.93C1689.2 503.3 1690.58 499.729 1693.73 497.912C1695.95 496.625 1698.61 496.482 1701.63 497.485C1703.96 498.261 1705.5 499.623 1706.21 501.532C1707.5 505.042 1705.57 509.364 1704.7 511.024C1707.3 511.298 1715.63 512.571 1719.69 517.878C1721.74 520.559 1722.37 523.863 1721.57 527.7C1720.76 531.556 1718.87 534.306 1715.94 535.874C1710.49 538.787 1703.07 536.822 1700.21 535.876C1700.56 538.277 1698.98 542.97 1698.58 544.103C1697.36 547.594 1695.62 550.486 1693.43 552.699C1690.05 556.104 1684.71 557.762 1679.06 557.178ZM1675.45 524.851C1675.62 524.867 1675.76 524.962 1675.84 525.112C1675.96 525.324 1675.9 525.586 1675.71 525.735C1671.97 528.71 1660.18 539.124 1665.52 548.226C1668 552.452 1672.93 555.409 1678.7 556.135C1684.22 556.829 1689.46 555.283 1692.72 551.999C1694.81 549.892 1696.47 547.124 1697.64 543.773C1699.12 539.588 1699.64 535.703 1699.03 535.454C1699.03 535.453 1699.03 535.453 1699.03 535.453C1698.77 535.35 1698.65 535.061 1698.75 534.806C1698.86 534.551 1699.15 534.426 1699.4 534.53L1699.4 534.53C1699.52 534.58 1709.16 538.375 1715.47 534.996C1718.13 533.573 1719.85 531.05 1720.59 527.497C1721.33 523.957 1720.76 520.926 1718.9 518.486C1714.43 512.646 1703.97 511.959 1703.86 511.95C1703.69 511.942 1703.53 511.84 1703.45 511.685C1703.37 511.531 1703.38 511.345 1703.47 511.196C1703.5 511.142 1706.71 505.771 1705.27 501.874C1704.68 500.264 1703.35 499.105 1701.31 498.43C1698.58 497.52 1696.19 497.636 1694.22 498.774C1690.54 500.903 1689.48 505.92 1689.47 505.97C1689.43 506.151 1689.3 506.296 1689.12 506.348C1688.94 506.4 1688.75 506.349 1688.62 506.218C1688.5 506.094 1676.44 493.914 1666.62 501.892C1658.59 508.421 1660.1 514.454 1661.72 517.469C1664.69 522.989 1671.55 526.032 1675.26 524.871C1675.32 524.849 1675.39 524.844 1675.45 524.851Z" fill="#2E1E00"/>
<mask id="mask0_2592:24917" style="mask-type:alpha" maskUnits="userSpaceOnUse" x="0" y="0" width="1920" height="372">
<path d="M0.5 0V198.32C292.233 309.911 615.836 372 956.5 372C1300.09 372 1626.32 308.841 1920 195.437V0H0.5Z" fill="#FDEAA7"/>
</mask>
<g mask="url(#mask0_2592:24917)">
<path fill-rule="evenodd" clip-rule="evenodd" d="M434.448 76.9658C431.651 79.8074 428.892 82.6101 425.722 85.8315C430.166 83.5102 433.959 81.5292 437.753 79.5492C437.87 79.732 437.985 79.9161 438.103 80.1008C437.578 80.6961 437.054 81.2923 436.192 82.269C438.851 81.3067 441.007 80.5258 443.804 79.514C442.481 80.8999 441.607 81.8171 440.733 82.7334C440.868 82.8819 441.005 83.0301 441.141 83.1786C441.844 82.7307 442.547 82.2828 443.131 81.9119C447.207 85.9924 451.245 89.9229 455.112 94.0142C455.805 94.746 456.155 96.1853 456.045 97.2333C455.176 105.501 454.157 113.754 453.129 122.481C452.027 114.184 451.063 106.467 449.926 98.7755C449.711 97.322 448.967 95.8636 448.169 94.5976C446.706 92.2792 444.215 91.6002 441.871 93.005C439.347 94.5193 436.808 96.1314 434.648 98.1081C429.645 102.681 423.96 103.681 417.42 102.758C412.387 102.047 407.236 102.019 402.133 101.966C396.261 101.906 390.93 103.843 386.552 107.736C377.815 115.5 370.946 124.491 370.062 136.682C369.815 140.091 370.119 143.738 371.1 146.995C373.193 153.948 378.824 156.768 385.893 155.042C386.494 154.895 387.091 154.731 387.289 154.68C391.164 159.22 393.893 164.372 398.731 167.787C399.215 168.128 399.568 169.355 399.338 169.9C395.638 178.661 391.76 187.346 388.091 196.12C386.825 199.148 385.979 202.355 385.015 205.502C383.28 211.165 383.723 216.813 385.197 222.456C385.467 223.488 385.499 224.581 385.641 225.646C385.398 225.763 385.155 225.88 384.911 225.997C381.699 220.274 378.487 214.552 375.275 208.83C375.061 208.884 374.847 208.94 374.632 208.996C375.996 215.827 377.359 222.656 378.834 230.051C378.136 229.079 377.675 228.528 377.309 227.919C373.431 221.472 369.495 215.057 365.75 208.533C364.794 206.866 364.14 204.881 363.923 202.976C363.709 201.089 364.223 199.118 364.418 197.186C364.135 197.146 363.851 197.107 363.569 197.069C363.011 201.858 362.453 206.644 361.895 211.433C361.695 211.416 361.493 211.4 361.292 211.382C361.551 203.772 361.732 196.161 362.083 188.557C362.613 177.058 363.03 165.544 360.372 154.25C358.544 146.49 356.523 138.729 353.859 131.23C351.939 125.824 352.694 122.234 356.898 118.071C367.294 107.776 378.064 98.138 391.213 91.4469C397.772 88.1104 404.692 85.3768 411.955 85.2916C416.14 85.2418 419.749 84.221 423.325 82.8001C427.13 81.2859 430.629 79.0094 434.448 76.9658ZM368.126 199.728C368.205 206.28 369.734 212.505 372.939 218.262C371.335 212.083 369.73 205.906 368.126 199.728ZM369.844 190.099C369.64 190.124 369.437 190.149 369.234 190.173C369.618 193.066 370.002 195.957 370.386 198.848C370.589 198.821 370.791 198.793 370.994 198.766C370.611 195.877 370.227 192.988 369.844 190.099ZM373.549 215.23C373.854 215.147 374.158 215.063 374.463 214.979C373.604 211.82 372.745 208.661 371.888 205.501C371.568 205.59 371.25 205.676 370.932 205.764C371.804 208.919 372.677 212.074 373.549 215.23Z" fill="#C7B19A"/>
<path fill-rule="evenodd" clip-rule="evenodd" d="M474.601 334.989C473.814 329.057 473.069 323.136 472.23 317.225C471.409 311.446 471.926 305.638 471.146 299.954C470.468 296.543 469.79 293.135 469.113 289.724C477.416 299.511 479.502 311.871 483.396 323.503C482.729 322.536 482.061 321.568 481.393 320.602C481.191 320.694 480.991 320.788 480.789 320.88C482.245 324.716 483.701 328.552 485.157 332.388C484.889 332.499 484.621 332.609 484.353 332.72C483.494 331.457 482.635 330.193 481.777 328.929C481.589 329.026 481.403 329.123 481.215 329.22C481.813 330.801 482.413 332.382 482.981 333.878L474.601 334.989ZM399.981 344.86C400.018 344.632 400.057 344.402 400.093 344.173C399.523 344.015 398.932 343.672 398.383 343.727C391.74 344.407 385.888 340.743 384.935 335.245C383.805 328.738 387.866 322.005 394.252 320.628C397.01 320.033 398.493 318.67 399.899 316.458C405.468 307.701 413.857 304.74 423.783 305.502C429.084 305.908 433.102 308.943 436.733 312.609C437.321 313.204 438.585 313.639 439.368 313.451C446.091 311.823 450.553 314.186 452.55 320.613C454.42 326.636 451.828 332.321 445.695 334.089C442.591 334.983 442.273 336.581 442.529 339.249L399.981 344.86ZM306.955 357.255C309.524 356.917 312.104 356.638 314.686 356.419C316.823 356.237 318.148 355.398 318.48 353.072C318.833 350.615 319.498 348.201 319.506 345.448C317.325 348.071 315.144 350.694 312.56 353.803C313.137 349.274 313.64 345.334 314.143 341.394C313.977 341.341 313.811 341.289 313.645 341.236C312.972 343.094 312.3 344.952 311.627 346.81C311.413 346.755 311.199 346.701 310.985 346.646C312.474 340.303 313.964 333.96 315.451 327.624C314.767 328.347 313.997 329.161 312.887 330.335C314.779 323.181 316.986 316.682 321.255 311.036C322.593 309.267 324.371 309.406 326.102 309.727C330.277 310.501 333.731 312.655 335.783 316.365C338.031 320.427 339.926 324.695 341.789 328.955C343.615 333.125 345.382 337.34 346.849 341.646C347.943 344.858 348.519 348.249 349.332 351.584L306.955 357.255ZM413.744 343.239C413.273 342.438 413.003 342.011 412.761 341.565C411.39 339.038 412.176 336.711 414.952 336.674C419.909 336.609 424.556 335.888 429.147 333.907C431.217 333.014 433.251 334.841 433.015 337.028C432.835 338.685 433.378 339.969 434.715 340.138C436.169 340.32 438.348 340.14 439.147 339.207C443.878 333.676 444.479 325.879 438.795 320.881C435.268 317.779 431.098 315.947 426.527 315.105C423.89 314.62 421.376 315.021 419.205 316.908C418.707 317.339 417.687 317.276 416.912 317.261C414.994 317.222 412.792 316.42 411.213 317.103C406.56 319.112 402.539 322.181 399.73 326.536C396.776 331.115 396.799 337.704 399.921 341.773C400.834 342.963 402.388 344.422 403.656 344.429C406.904 344.446 410.156 343.715 413.744 343.239ZM397.997 327.058C400.673 322.536 404.531 319.545 408.755 316.903C411.305 315.31 413.856 314.899 416.709 315.887C417.333 316.103 418.344 316.066 418.824 315.692C421.658 313.488 424.867 313.17 428.024 314.269C432.034 315.664 435.873 317.559 439.351 319.053C436.49 310.061 426.309 304.882 415.008 307.257C405.066 309.343 397.037 318.557 397.997 327.058ZM398.611 342.473C395.003 335.491 396.851 328.411 396.873 321.327C392.382 321.829 388.782 323.482 387.147 328.073C385.764 331.956 385.068 335.857 388.23 339.164C390.96 342.021 394.443 343.092 398.611 342.473ZM438.908 314.979C441.192 321.027 445.151 326.359 443.647 333.498C447.44 332.503 450.286 330.827 451.418 327.274C452.763 323.045 451.52 319.21 448.524 316.139C445.792 313.34 442.381 313.776 438.908 314.979ZM322.678 354.678C326.493 354.935 330.045 348.635 329.238 343.43C324.812 345.942 323.548 350.022 322.678 354.678ZM417.774 343.213C419.099 341.685 420.425 340.158 421.749 338.631C420.2 338.259 418.651 337.875 417.096 337.525C416.848 337.469 416.565 337.555 416.299 337.592C414.882 337.788 413.237 337.831 413.296 339.831C413.345 341.507 415.497 342.983 417.774 343.213ZM428.51 340.804C429.775 339.736 430.933 339.063 431.608 338.063C431.97 337.527 431.669 335.78 431.368 335.7C430.18 335.384 428.875 335.502 427.614 335.48C427.445 335.477 427.246 335.546 427.11 335.647C425.862 336.6 424.626 337.566 423.386 338.53C425.009 339.252 426.631 339.972 428.51 340.804Z" fill="#C7B19A"/>
<path fill-rule="evenodd" clip-rule="evenodd" d="M321.057 162.665C324.302 168.118 328.966 171.835 335.078 173.454C343.328 175.641 350.871 174.185 357.359 168.402C357.744 172.237 357.54 172.653 354.013 174.049C351.965 174.86 349.853 175.511 347.951 176.848C351.042 175.898 354.133 174.948 357.223 173.997C357.325 174.194 357.427 174.389 357.527 174.586C356.715 175.074 355.947 175.883 355.085 176.002C347.109 177.087 339.139 178.297 331.124 178.948C327.352 179.254 324.095 177.247 321.411 174.427C315.077 167.772 310.908 159.911 308.537 151.125C308.005 149.156 308.157 146.763 308.732 144.779C310.751 137.808 312.908 130.864 315.373 124.04C317.045 119.408 320.233 116.014 325.088 114.239C328.449 113.01 331.158 113.818 334.157 116.015C327.269 116.335 322.06 118.969 318.636 124.654C323.583 119.296 329.34 116.37 336.904 118.316C325.828 116.778 321.395 125.199 315.616 131.586C315.781 131.82 315.947 132.053 316.112 132.288C316.866 131.614 317.619 130.94 318.877 129.816C315.255 141.126 315.668 151.694 320.852 161.89C320.212 161.193 319.318 160.603 318.98 159.783C317.591 156.423 316.37 152.996 315.096 149.59C314.86 148.96 314.665 148.315 314.452 147.678C314.172 147.785 313.893 147.891 313.615 147.998C314.375 153.556 316.247 158.676 320.063 163.005C320.149 163.106 320.714 162.787 321.057 162.665Z" fill="#C7B19A"/>
<path fill-rule="evenodd" clip-rule="evenodd" d="M347.846 94.3608C343.64 94.4144 338.035 94.4542 332.431 94.5739C329.707 94.6329 327.647 93.7036 327.019 90.9049C326.4 88.1529 327.258 85.5114 329.554 84.0546C336.119 79.8889 342.659 75.5799 349.616 72.1549C363.362 65.3854 377.797 60.3111 392.494 55.9383C406.723 51.7048 421.085 48.172 435.847 46.4864C439.19 46.1037 442.615 46.0618 445.972 46.2977C448.402 46.4678 450.755 47.5508 451.472 50.2437C452.198 52.974 451.906 55.9043 449.48 57.5185C443.839 61.2719 438.138 65.0397 432.095 68.0708C418.868 74.7046 405.064 80.0129 390.793 83.9567C380.346 86.8447 369.794 89.3526 359.271 91.9599C355.97 92.7781 352.613 93.3678 347.846 94.3608ZM446.314 55.273C447.074 52.8109 445.486 51.9432 443.678 51.8033C438.126 51.3773 432.507 50.554 427.007 51.0031C413.162 52.1334 399.807 55.7779 386.602 60.0099C374.443 63.9057 362.454 68.2545 351.37 74.6179C346.272 77.545 341.552 81.2626 337.085 85.1139C334.438 87.395 335.239 88.6127 338.396 89.6868C345.27 92.0257 352.277 91.337 359.012 90.0572C370.107 87.9512 381.086 85.1252 391.986 82.1311C404.654 78.653 416.847 73.7674 428.362 67.4389C434.792 63.9062 441.695 60.6086 444.65 52.3908C445.362 53.6259 445.837 54.4495 446.314 55.273Z" fill="#F9A058"/>
<path fill-rule="evenodd" clip-rule="evenodd" d="M434.163 76.8341C435.062 76.2089 435.961 75.5846 436.86 74.9603C437.034 75.1496 437.209 75.338 437.383 75.5274C435.862 77.2433 434.339 78.9585 432.819 80.6743C432.904 80.8097 432.992 80.9447 433.08 81.0797C437.519 79.125 441.958 77.1711 447.195 74.8659C446.327 77.8886 445.696 80.0854 444.999 82.5147C448.301 85.9551 451.935 89.5735 455.373 93.3682C458.503 96.8193 458.938 100.857 457.29 105.163C457.083 105.702 456.941 106.266 456.632 107.258C462.07 101.397 468.775 100.393 475.675 100.623C479.308 100.745 482.56 102.87 484.023 106.227C487.149 113.399 488.395 121.065 485.745 128.565C484.008 133.482 481.133 138.054 478.37 142.535C476.078 146.25 473.366 149.746 470.537 153.081C467.993 156.08 465.106 158.806 462.227 161.501C460.752 162.878 460.28 164.301 460.536 166.277C461.34 172.482 463.796 177.813 467.477 182.934C473.33 191.073 477.479 199.991 475.987 210.534C475.625 213.093 475.48 215.684 475.25 218.261C475.219 218.614 475.149 219.064 475.32 219.32C477.872 223.142 474.907 227.245 475.895 231.168C476.007 231.613 475.047 232.466 474.436 232.937C467.777 238.075 460.149 240.802 451.851 241.572C442.372 242.453 432.874 243.15 423.377 243.832C420.797 244.016 420.119 245.106 420.273 247.656C420.585 252.828 422.762 257.28 425.637 261.248C428.113 264.666 429.956 269.142 435.041 269.868C435.266 269.899 435.487 270.169 435.656 270.372C439.982 275.595 445.96 277.297 452.315 278.204C453.559 278.381 454.825 278.493 456.039 278.799C461.6 280.203 467.014 281.557 470.552 286.958C473.878 292.033 477.584 296.591 479.416 302.737C481.626 310.149 485.61 317.027 488.756 324.167C489.873 326.701 490.789 329.325 491.919 332.223C488.873 332.628 486.14 333.071 483.39 333.287C482.855 333.329 482.02 332.6 481.73 332.023C481.17 330.905 480.902 329.644 480.966 328.238C481.828 329.518 482.689 330.799 483.549 332.08C483.842 331.965 484.135 331.85 484.428 331.735C482.975 327.909 481.52 324.082 480.066 320.256C480.238 320.156 480.412 320.055 480.584 319.955C481.324 321.002 482.064 322.049 482.804 323.096C478.807 311.327 476.739 298.773 468.417 288.872C469.133 292.345 469.849 295.817 470.703 299.97C469.675 301.657 469.676 304.096 471.301 306.524C471.508 306.835 471.575 307.301 471.561 307.69C471.47 310.238 470.618 313.026 471.369 315.286C473.147 320.644 472.247 326.211 473.383 331.567C473.583 332.516 473.769 333.467 473.976 334.487C463.306 335.904 452.558 337.331 441.692 338.774C441.748 336.26 441.374 334.172 444.919 333.442C450.018 332.393 453.243 327.308 452.285 322.272C451.154 316.331 448.735 312.679 442.083 312.242C441.905 312.232 441.694 312.202 441.55 312.28C438.072 314.144 435.88 312.293 433.521 309.894C424.181 300.393 404.22 304.922 398.46 317.176C397.117 320.033 394.321 319.673 392.099 320.403C384.459 322.91 381.394 334.4 387.188 339.924C389.911 342.52 393.413 343.654 397.307 343.193C397.99 343.113 398.723 343.456 399.433 343.602C399.373 343.886 399.312 344.169 399.251 344.453C382.43 346.686 365.61 348.92 348.513 351.19C348.275 350.337 348.042 349.507 347.811 348.677C346.41 343.636 345.33 338.477 343.521 333.588C341.614 328.431 339.068 323.505 336.697 318.528C334.701 314.34 331.691 311.201 327.172 309.617C323.817 308.44 321.73 308.877 319.682 311.666C315.712 317.069 313.887 323.365 311.914 330.322C313.233 328.771 314.115 327.733 314.727 327.013C313.26 333.226 311.741 339.665 310.221 346.104C310.474 346.171 310.727 346.24 310.979 346.308C311.649 344.332 312.317 342.357 312.987 340.382C313.14 340.422 313.292 340.463 313.445 340.503C312.926 344.56 312.407 348.616 311.837 353.062C314.377 349.984 316.641 347.236 318.906 344.491C319.127 344.589 319.346 344.687 319.568 344.784C318.836 348.021 318.16 351.272 317.311 354.478C317.185 354.954 316.285 355.424 315.676 355.537C313.663 355.908 311.618 356.115 309.719 356.367C307.169 352.933 306.845 349.532 308.056 345.572C308.81 343.106 308.437 340.261 308.386 337.592C308.17 326.273 312.965 317.159 320.628 309.247C321.809 308.027 322.987 306.718 323.8 305.246C325.946 301.368 329.413 299.067 333.107 297.006C339.617 293.375 346.271 289.988 352.648 286.136C358.499 282.603 362.336 277.155 365.264 271.061C370.492 260.177 369.383 248.872 367.518 237.504C366.298 230.07 365.227 222.613 363.935 215.193C363.725 213.986 362.712 212.919 362.069 211.787C361.777 211.885 361.486 211.983 361.193 212.082C361.72 207.243 362.246 202.405 362.772 197.567C362.974 197.578 363.177 197.592 363.38 197.604C363.482 197.822 363.717 198.081 363.666 198.252C361.873 204.234 364.518 209.203 367.39 214.04C370.564 219.388 373.939 224.616 377.241 229.889C377.417 230.172 377.715 230.38 378.086 230.754C376.63 223.561 375.217 216.581 373.804 209.603C373.99 209.517 374.175 209.431 374.361 209.345C377.665 215.237 380.969 221.131 384.273 227.024C384.481 226.935 384.689 226.844 384.897 226.756C384.714 225.373 384.756 223.91 384.308 222.618C381.888 215.648 382.831 208.726 385.267 202.148C388.416 193.653 392.295 185.428 395.855 177.084C396.938 174.548 398.006 172.006 399.118 169.38C393.36 166.168 390.666 160.46 386.608 155.412C386.492 155.45 385.85 155.685 385.193 155.857C376.936 158.018 370.191 153.147 369.134 144.169C367.869 133.414 371.75 124.348 378.349 116.128C382.43 111.044 386.818 106.389 393.082 104.044C399.129 101.781 405.43 102.412 411.672 102.75C415.23 102.942 418.767 103.589 422.323 103.684C426.218 103.788 429.553 102.159 432.579 99.6972C435.203 97.5622 437.957 95.5613 440.799 93.7254C443.441 92.0187 445.843 92.5602 447.411 95.3356C448.528 97.3135 449.461 99.5573 449.789 101.784C450.61 107.366 451.035 113.005 451.628 118.621C451.723 119.51 451.861 120.394 452.404 121.321C453.284 115.373 454.166 109.426 455.039 103.477C455.09 103.125 455.027 102.755 455.095 102.408C455.952 98.0598 455.233 94.6037 451.254 91.6536C447.955 89.2076 445.497 85.6288 442.584 82.463C441.792 82.9602 441.015 83.448 440.239 83.9357C440.11 83.7826 439.983 83.6293 439.852 83.4764C440.817 82.5462 441.779 81.6172 443.256 80.1941C440.368 81.2113 438.082 82.0169 435.126 83.0574C436.255 81.9737 436.918 81.3356 437.585 80.697C437.479 80.5145 437.373 80.3301 437.269 80.1474C433.297 82.2103 429.327 84.275 425.333 86.3493C428.221 83.2726 431.196 80.1027 434.172 76.9327C434.175 76.9342 434.163 76.8341 434.163 76.8341ZM421.127 138.698C425.749 138.393 430.373 138.089 434.997 137.784C433.272 136.998 431.47 136.23 429.703 136.304C426.899 136.421 424.115 137.086 421.336 137.591C421.222 137.611 421.241 138.354 421.194 138.758C419.35 139.196 417.506 139.634 415.661 140.071C415.755 140.382 415.849 140.692 415.943 141.003C417.671 140.235 419.399 139.467 421.127 138.698ZM434.206 144.443C433.524 147.829 432.737 151.2 432.204 154.609C431.931 156.34 431.944 158.157 432.108 159.909C433.164 171.137 437.457 181.126 443.666 190.448C450.226 200.298 456.163 210.477 458.025 222.983C458.194 221.477 458.306 220.474 458.42 219.47C458.563 219.492 458.709 219.513 458.854 219.534C459.134 220.476 459.415 221.419 459.833 222.826C460.384 221.71 460.683 221.102 460.994 220.475C462.709 221.809 464.708 220.673 465.888 218.047C468.506 218.842 469.674 216.899 470.729 215.41C471.949 213.689 473.302 211.717 473.514 209.735C473.692 208.093 472.299 206.281 471.603 204.545C471.883 204.418 472.164 204.291 472.446 204.166C472.955 204.901 473.466 205.637 474.155 206.633C473.798 203.946 473.922 201.462 473.068 199.38C472.163 197.18 472.254 194.014 468.948 193.284C468.754 193.242 468.728 192.242 468.702 191.685C468.674 191.058 468.929 190.348 468.714 189.813C468.219 188.582 467.622 187.361 466.877 186.266C464.583 182.896 462.029 179.692 459.894 176.23C456.876 171.338 454.235 166.217 451.228 161.32C450.461 160.072 448.924 159.298 447.74 158.307C447.573 157.601 447.57 156.392 447.21 156.274C444.73 155.455 442.189 154.796 439.632 154.253C439.027 154.125 438.288 154.634 437.611 154.85C435.573 153.432 434.48 154.286 434.072 156.418C433.833 157.669 433.808 158.962 433.689 160.236C433.421 160.21 433.154 160.182 432.887 160.155C433.062 158.102 432.745 155.833 433.528 154.049C434.676 151.442 436.598 149.174 438.218 146.781C439.041 145.564 439.698 143.699 440.826 143.327C443.698 142.381 446.892 142.025 449.601 143.841C450.593 144.507 451.327 146.074 451.455 147.304C451.523 147.946 450.129 149.17 449.208 149.41C445.77 150.304 442.245 150.862 438.773 151.631C437.774 151.853 436.839 152.364 435.875 152.741C436.001 153.184 436.125 153.627 436.25 154.07C440.658 153.485 445.117 153.134 449.462 152.232C452.456 151.61 455.281 150.119 455.827 146.57C456.214 144.06 454.436 141.109 451.656 139.966C446.431 137.815 441.093 138.176 435.79 139.845C434.825 139.726 433.859 139.609 432.207 139.407C433.082 141.614 433.645 143.028 434.206 144.443ZM455.625 223.888C454.823 221.023 454.446 218.103 453.218 215.602C450.247 209.553 446.899 203.689 443.665 197.77C439.727 190.565 434.787 183.835 433.8 175.286C433.502 172.709 432.388 170.222 431.621 167.703C431.203 166.329 430.295 164.952 430.357 163.613C430.58 158.851 431.189 154.11 431.528 149.351C431.774 145.901 431.633 142.483 429.023 139.654C429.33 141.971 429.638 144.286 429.945 146.603C429.794 146.619 429.643 146.635 429.493 146.651C428.944 144.347 428.398 142.042 427.859 139.777C425.613 140.227 423.932 140.507 422.278 140.905C414.63 142.751 406.982 144.601 399.35 146.516C397.197 147.056 395.028 147.655 392.997 148.528C390.409 149.642 388.543 153.203 388.88 155.792C389.211 158.324 390.733 159.538 394.433 160.236C399.247 161.145 403.939 160.568 408.551 159.056C410.873 158.294 413.187 157.506 415.505 156.729C415.686 157.045 415.867 157.359 416.048 157.675C412.671 159.909 409.509 162.64 405.846 164.208C403.27 165.313 401.582 166.691 400.569 169.069C397.882 175.374 395.272 181.712 392.639 188.041C392.438 188.526 392.007 189.328 392.173 189.491C394.119 191.416 391.809 192.253 391.096 193.226C389.268 195.72 387.291 197.943 387.97 201.487C388.222 202.802 387.66 204.614 386.829 205.72C385.042 208.102 384.376 210.342 385.71 213.162C386.125 214.039 386.267 215.713 385.745 216.247C383.721 218.317 385.522 219.81 386.121 221.957C386.232 220.49 386.309 219.475 386.385 218.461C386.625 218.469 386.865 218.477 387.105 218.485C386.98 220.33 389.517 221.859 387.477 223.966C387.378 224.068 387.618 224.623 387.819 224.869C389.142 226.487 390.498 228.08 391.993 229.858C392.252 229.155 392.307 228.883 392.449 228.673C392.527 228.559 392.757 228.548 393.083 228.433C394.403 231.876 396.795 233.971 400.658 233.935C402.363 233.919 404.094 234.002 405.765 233.738C415.948 232.125 426.124 230.461 436.283 228.704C437.456 228.501 438.511 227.617 439.999 226.858C439.996 226.855 440.454 227.407 440.93 227.984C442.46 227.571 443.983 227.161 445.37 226.788C445.229 225.074 445.112 223.638 444.994 222.202C445.274 222.166 445.553 222.129 445.831 222.092C446.422 223.518 447.012 224.944 447.611 226.389C449.069 226.031 450.277 225.735 451.187 225.509C451.512 224.37 451.761 223.492 452.012 222.613C452.237 222.664 452.462 222.715 452.688 222.766C452.676 223.457 452.662 224.149 452.644 225.084C453.755 224.637 454.569 224.312 455.625 223.888ZM382.193 241.567C379.213 237.263 376.406 233.211 373.599 229.157C373.377 229.294 373.154 229.431 372.931 229.567C372.908 230.48 372.884 231.393 372.841 233.077C371.039 229.64 369.6 226.895 368.159 224.149C367.929 224.228 367.699 224.305 367.47 224.382C368.131 229.361 368.924 234.325 369.416 239.319C369.923 244.483 370.575 249.691 370.386 254.852C370.056 263.877 367.268 272.324 362.448 279.971C361.072 282.155 361.485 283.439 363.433 284.449C364.425 284.963 365.729 285.223 366.834 285.098C368.87 284.864 370.845 284.125 372.879 283.834C379.483 282.89 386.102 282.054 392.715 281.176C392.709 281.24 392.705 281.306 392.7 281.371C385.074 283.369 377.448 285.368 369.822 287.366C369.878 287.642 369.935 287.919 369.99 288.194C377.679 291.254 385.72 291.532 393.805 290.73C398.789 290.233 403.834 289.58 408.636 288.233C414.514 286.583 420.204 284.224 425.889 281.958C427.219 281.427 428.203 280.032 429.348 279.036C429.224 278.841 429.101 278.647 428.977 278.452C426.35 278.801 423.723 279.15 421.287 279.473C424.633 276.67 430.769 279.786 433.098 274.078C432.581 273.629 432.257 273.32 431.906 273.048C424.774 267.548 420.319 260.383 418.721 251.523C418.435 249.93 417.519 249.834 416.326 249.627C410.039 248.536 403.721 247.42 398.471 243.434C396.195 241.706 394.182 239.632 391.853 237.539C392.578 239.64 393.229 241.527 393.881 243.412C393.721 243.531 393.563 243.649 393.403 243.768C390.627 240.953 387.851 238.138 385.056 235.305C384.992 235.787 384.93 236.246 384.829 237.004C383.509 235.535 382.408 234.312 381.025 232.773C381.439 235.886 381.793 238.551 382.193 241.567ZM380.704 136.25C383.574 131.988 386.238 127.561 389.37 123.493C394.036 117.43 400.237 113.536 407.847 112.251C411.391 111.652 414.89 112.078 417.919 114.573C416.686 114.435 415.452 114.297 413.801 114.111C415.736 119.022 415.254 124.537 419.143 127.799C419.217 129.369 419.275 130.57 419.332 131.771C419.599 131.771 419.867 131.772 420.135 131.772C419.796 132.483 419.456 133.192 419.164 133.806C421.95 133.436 424.596 133.085 426.593 132.82C426.942 128.19 427.472 123.707 427.562 119.213C427.651 114.872 427.321 110.521 427.078 106.18C427.05 105.682 426.412 105.219 426.057 104.74C425.872 104.843 425.688 104.944 425.503 105.047C425.747 107.961 425.99 110.874 426.235 113.788C425.952 113.806 425.668 113.824 425.386 113.842C425.01 111.008 424.633 108.174 424.276 105.483C420.11 105.053 416.155 104.359 412.191 104.305C406.592 104.228 400.791 103.779 395.426 105.01C386.628 107.028 381.411 114.09 376.502 121.13C372.852 126.362 370.982 131.949 372.055 138.494C373.385 146.6 382.805 152.308 390.173 148.565C394.339 146.449 398.592 145.313 403.021 144.33C406.604 143.536 410.256 142.747 411.372 138.912C408.174 139.336 404.725 139.794 401.276 140.252C401.303 140.446 401.331 140.64 401.358 140.836C402.501 140.684 403.645 140.532 404.788 140.38C391.464 143.41 387.522 140.944 380.704 136.25ZM465.682 144.473C465.774 144.748 465.864 145.022 465.956 145.296C463.437 146.165 460.97 147.329 458.38 147.795C456.627 148.111 456.199 148.993 456.459 150.232C456.869 152.18 457.661 154.046 458.453 156.436C460.66 154.577 462.98 153.307 464.326 151.364C468.538 145.284 472.63 139.092 476.296 132.674C479.961 126.257 481.303 119.425 477.504 112.414C476.137 109.892 473.702 108.494 470.967 108.91C464.116 109.952 459.335 114.38 454.698 119.004C454.393 119.309 454.393 119.917 454.199 120.555C467.227 114.739 472.927 114.129 475.78 117.848C473.049 117.48 470.055 117.076 466.631 116.616C472.214 124.268 471.51 136.418 465.506 140.308C465.996 139.322 466.439 138.485 466.833 137.625C468.789 133.357 470.099 128.981 469.237 124.195C468.111 117.942 465.547 116.562 459.914 119.249C459.353 119.516 458.804 119.812 458.245 120.085C454.953 121.697 452.784 124.094 452.29 127.909C451.972 130.362 451.191 132.754 450.833 135.204C450.698 136.124 450.855 137.691 451.419 138.011C454.888 139.973 457.222 142.655 457.745 147.294C460.642 146.263 463.162 145.368 465.682 144.473ZM429.866 117.064C436.427 109.354 447.021 108.642 448.456 113.602C446.677 112.935 444.824 112.238 442.971 111.54C442.665 111.811 442.359 112.082 442.054 112.353C443.502 115.51 444.827 118.731 446.46 121.789C447.04 122.875 448.371 123.559 449.562 124.609C446.899 131.348 445.454 133.268 442.089 133.867C442.535 133.207 442.843 132.751 442.869 132.713C440.615 132.885 438.107 133.519 435.774 133.126C433.421 132.73 431.24 131.315 428.876 130.301C429.411 132.789 430.372 134.923 433.303 135.455C436.346 136.007 439.43 136.395 442.428 137.131C444.717 137.694 446.375 136.698 447.128 134.993C448.609 131.637 450.667 128.028 450.563 124.581C450.312 116.307 449.332 108 447.902 99.8377C446.961 94.4654 444.361 92.6854 439.216 96.262C435.446 98.8812 431.903 101.828 428.218 104.66C428.758 108.72 429.317 112.934 429.866 117.064ZM383.579 134.487C394.869 133.334 405.905 132.104 416.087 128.158C414.648 123.308 413.295 118.753 411.949 114.212C397.654 114.358 390.041 123.488 383.579 134.487ZM475.207 222.221C475.144 221.87 475.082 221.52 475.018 221.169C474.03 220.999 472.933 220.459 472.068 220.714C462.127 223.626 452.27 226.838 442.287 229.59C436.966 231.056 431.466 231.944 426.003 232.808C418.131 234.058 409.951 233.794 402.068 238.085C407.362 237.773 412.038 237.419 416.721 237.242C420.795 237.088 424.877 237.163 428.955 237.086C435.101 236.97 441.262 236.845 447.049 234.389C451.282 232.591 455.446 230.631 459.67 228.808C464.834 226.577 470.027 224.413 475.207 222.221ZM480.776 125.868C475.746 138.095 469.269 149.336 458.841 158.234C459.038 158.975 459.295 159.943 459.686 161.419C461.841 159.539 463.857 158.151 465.403 156.357C469.023 152.149 472.207 147.555 475.948 143.465C483.571 135.127 487.11 125.53 484.705 114.419C482.561 104.521 478.612 100.305 469.21 102.44C465.763 103.223 462.258 104.23 460.757 108.402C463.152 107.017 465.229 105.692 467.413 104.582C470.527 102.999 473.837 102.302 477.215 103.607C478.308 104.029 479.175 105.032 480.145 105.769C479.985 105.935 479.823 106.1 479.662 106.266C473.237 102.131 460.786 106.257 458.209 113.248C460.735 111.708 463.195 109.637 466.034 108.632C469.047 107.566 472.414 107.265 475.639 107.191C476.397 107.173 477.544 109.307 477.92 110.621C478.506 112.671 480.784 112.946 481.55 114.574C483.493 118.709 482.498 122.879 481.58 127.704C481.107 126.624 480.914 126.183 480.776 125.868ZM473.588 227.892C462.513 231.318 452.057 235.523 441.195 237.638C430.329 239.755 419.054 239.781 408.539 240.675C412.952 242.065 418.122 242.148 423.266 241.544C432.524 240.457 441.756 239.13 450.997 237.903C451.018 238.043 451.04 238.185 451.06 238.325C448.989 238.701 446.915 239.077 444.843 239.452C444.891 239.689 444.939 239.926 444.987 240.161C450.26 239.214 455.598 238.526 460.783 237.23C464.173 236.383 467.409 234.796 470.583 233.272C472.522 232.34 473.807 230.672 473.588 227.892ZM445.683 124.894C443.677 120.385 441.962 116.527 440.233 112.64C432.487 114.104 427.392 120.476 429.035 128.202C434.59 127.098 440.157 125.992 445.683 124.894ZM385.186 136.416C391.785 137.93 398.403 139.535 405.457 138.152C410.592 137.145 414.551 134.959 416.867 130.016C415.412 130.45 413.811 130.849 412.766 131.835C409.751 134.684 406.27 136.036 402.19 135.725C400.733 135.614 399.276 134.686 397.875 134.804C393.608 135.168 389.371 135.861 385.186 136.416ZM455.4 150.723C453.608 151.954 451.929 152.583 451.106 153.793C449.877 155.6 454.212 166.195 456.303 166.17C458.528 166.143 458.148 167.666 458.71 168.546C459.364 169.574 459.61 170.861 460.033 172.036C460.226 171.979 460.42 171.922 460.614 171.865C458.908 164.947 457.202 158.028 455.4 150.723ZM446.655 125.77C445.663 126.393 444.575 126.903 443.702 127.66C441.312 129.728 438.682 130.462 435.595 129.627C434.341 129.288 433.032 129.154 431.747 128.927C436.985 133.365 445.585 131.222 446.655 125.77ZM467.431 227.575C472.093 227.34 474.104 226.122 474.04 223.68C471.91 224.935 469.834 226.158 467.431 227.575ZM415.069 137.069C415.212 137.42 415.355 137.769 415.499 138.118C418.594 136.989 421.689 135.859 424.785 134.73C424.716 134.514 424.649 134.3 424.58 134.086C421.409 135.08 418.239 136.075 415.069 137.069Z" fill="#333333"/>
<path fill-rule="evenodd" clip-rule="evenodd" d="M434.164 76.8344L434.175 76.9344C427.974 81.5774 420.986 84.5693 413.344 86.7134C413.316 86.3381 413.286 85.9171 413.248 85.4002C402.545 86.5562 392.761 90.3038 383.619 95.926C371.637 103.293 361.567 112.856 352.232 123.247C351.619 123.929 351.38 125.412 351.637 126.339C354.063 135.131 357.159 143.774 359.007 152.679C360.598 160.354 361.414 168.307 361.504 176.15C361.645 188.476 360.888 200.811 360.505 213.316C360.071 213.41 359.4 213.557 358.625 213.724C358.525 213.248 358.389 212.91 358.395 212.575C358.559 203.518 358.757 194.462 358.896 185.405C358.921 183.795 358.799 182.17 358.583 180.573C358.188 177.639 357.065 177.072 354.112 177.675C346.478 179.231 338.818 180.658 331.17 182.144C326.227 183.105 322.153 181.222 318.534 178.139C309.481 170.428 305.828 160.35 305.938 148.707C305.95 147.378 306.214 146.016 306.579 144.731C308.263 138.796 309.616 132.721 311.909 127.026C313.289 123.594 316.175 120.769 318.746 117.909C313.804 125.89 312.059 134.987 309.468 143.719C308.604 146.629 308.634 150.23 309.499 153.146C311.951 161.418 316.161 168.837 322.281 175.064C325.229 178.062 328.93 179.404 332.955 179.173C339.027 178.828 345.084 178.102 351.12 177.324C353.108 177.067 355.025 176.182 356.94 175.486C357.364 175.332 357.637 174.767 357.686 174.018C354.436 175.063 351.186 176.107 347.937 177.152C347.861 176.919 347.785 176.688 347.709 176.457C349.728 175.747 351.76 175.067 353.766 174.32C357.744 172.834 357.738 172.818 357.929 169.108C354.94 170.49 351.751 172.342 348.324 173.471C340.905 175.913 333.955 174.228 327.83 169.707C325.374 167.895 323.593 165.17 321.505 162.859C321.298 162.519 321.089 162.179 320.88 161.84C318.921 156.937 317.502 151.947 317.07 146.614C316.644 141.344 317.348 136.335 318.949 131.375C319.075 130.982 319.166 130.576 319.396 129.716C318.152 130.852 317.277 131.65 316.403 132.448C316.058 132.169 315.716 131.889 315.371 131.61C316.717 130.262 318.04 128.889 319.415 127.571C322.853 124.277 325.56 119.955 330.681 118.953C332.882 118.523 335.179 118.581 337.123 118.441C335.098 117.198 330.517 117.052 327.231 118.884C324.227 120.557 321.532 122.783 318.799 124.696C321.993 119.195 327.317 116.878 333.574 115.969C330.513 113.248 329.734 113.211 322.362 115.354C327.556 110.942 333.829 110.624 339.372 114.685C341.752 116.427 343.971 118.41 346.132 120.423C349.302 123.377 350.736 123.022 353.574 119.884C357.272 115.794 361.409 112.081 365.52 108.386C369.684 104.644 373.963 101.015 378.344 97.5291C384.255 92.8268 391.174 90.2457 398.289 87.8274C405.044 85.5333 411.839 84.0414 418.846 82.8505C423.211 82.1092 427.221 79.32 431.419 77.5119C432.272 77.1438 433.246 77.0531 434.164 76.8344ZM353.082 138.941C354.005 135.83 351.351 135.619 349.48 134.718C349.631 135.093 349.782 135.469 349.932 135.844C348.517 133.58 346.761 133.98 344.962 135.269C344.022 135.943 343.152 136.72 342.292 137.498C336.717 142.537 334.702 150.24 337.626 156.66C338.632 158.869 340.491 160.689 341.984 162.72C338.542 161.186 336.601 158.361 335.713 154.911C333.691 147.062 336.857 140.869 342.706 135.549C339.009 132.872 335.097 132.074 331.082 132.778C324.83 133.873 322.259 138.571 321.124 145.032C320.81 144 320.644 143.744 320.677 143.519C321.945 135.06 328.663 128.685 339.278 132.708C342.205 133.818 344.599 135.347 347.261 132.555C347.532 132.271 348.23 132.392 348.797 132.317C345.684 124.793 340.462 120.457 333.987 120.216C330.134 120.072 327.049 121.797 324.347 125.226C326.018 125.153 327.143 125.103 328.799 125.03C322.213 126.35 321.545 127.058 319.7 133.397C317.238 141.85 317.928 150.142 320.948 158.284C325.947 171.764 341.503 177.407 353.626 169.906C356.074 168.391 358.703 165.69 359.315 163.082C359.993 160.189 358.455 156.776 357.774 152.989C352.977 163.575 350.916 166.207 346.178 167.849C350.649 164.326 354.008 160.148 356.021 154.663C358.248 148.594 355.273 143.942 353.082 138.941Z" fill="black"/>
<path fill-rule="evenodd" clip-rule="evenodd" d="M412.818 342.735C409.587 343.164 406.573 343.624 403.546 343.946C401.258 344.19 398.382 341.225 397.515 338.047C395.722 331.476 397.606 326.066 402.708 321.754C404.73 320.047 406.897 318.465 409.177 317.132C410.406 316.415 412.256 315.694 413.409 316.115C416.592 317.275 418.999 316.13 421.59 314.635C422.39 314.172 423.659 314.391 424.695 314.496C430.586 315.098 435.668 317.432 439.631 321.892C442.698 325.341 442.877 331.281 440.397 335.952C439.253 338.102 438.129 339.838 435.274 339.816C433.206 339.798 432.312 339.043 432.222 337.064C432.064 333.641 430.531 332.636 427.172 333.704C426.916 333.786 426.615 333.758 426.387 333.878C423.401 335.44 420.456 336.109 416.877 335.855C411.494 335.471 410.535 337.451 412.818 342.735ZM426.833 323.957C427.206 322.417 427.514 321.145 427.821 319.874C427.64 319.817 427.459 319.76 427.278 319.703C426.73 321.024 426.183 322.343 425.618 323.705C424.624 322.977 423.818 322.388 423.011 321.798C422.95 321.885 422.888 321.972 422.826 322.057C423.104 322.421 423.382 322.784 423.77 323.287C423.112 323.374 422.734 323.425 421.682 323.564C423.246 324.01 424.152 324.271 425.187 324.566C424.781 325.914 424.396 327.196 424.009 328.477C424.225 328.539 424.439 328.601 424.655 328.664C425.16 327.601 425.666 326.539 426.255 325.301C427.685 326.181 428.944 326.956 430.204 327.731C430.284 327.606 430.362 327.481 430.442 327.358C429.656 326.636 428.869 325.916 427.945 325.07C428.868 325.074 429.536 325.076 430.204 325.079C430.206 324.982 430.209 324.885 430.211 324.787C429.102 324.515 427.992 324.242 426.833 323.957ZM410.31 329.321C409.808 330.035 409.28 330.79 408.751 331.545C408.877 331.647 409.002 331.749 409.128 331.852C409.876 331.054 410.624 330.256 411.318 329.516C412.693 330.309 414.048 331.091 415.403 331.872C415.214 331.042 414.838 330.503 414.322 330.207C412.224 329.005 411.953 327.807 414.064 326.298C414.885 325.711 415.499 324.838 416.505 323.783C415.772 323.959 415.354 323.933 415.143 324.129C412.817 326.291 410.624 328.852 407.012 326.393C408.091 327.349 409.169 328.306 410.31 329.321Z" fill="black"/>
<path fill-rule="evenodd" clip-rule="evenodd" d="M397.208 326.651C395.977 319.449 403.862 309.006 413.58 306.679C427.997 303.224 436.645 312.287 438.97 319.438C434.591 316.158 429.91 313.447 424.281 313.398C422.381 313.381 420.481 314.398 418.566 314.886C417.672 315.114 416.651 315.534 415.848 315.305C413.23 314.558 410.86 314.744 408.478 316.136C404.044 318.73 400.158 321.881 397.208 326.651Z" fill="black"/>
<path fill-rule="evenodd" clip-rule="evenodd" d="M398.072 342C393.814 342.486 390.15 341.632 387.458 338.577C384.29 334.984 385.054 330.925 386.724 326.838C388.48 322.539 392.082 321.331 396.179 320.565C396.17 327.742 394.367 334.878 398.072 342Z" fill="black"/>
<path fill-rule="evenodd" clip-rule="evenodd" d="M442.969 332.851C444.057 325.73 440.63 320.322 438.054 314.573C441.392 312.852 444.623 312.845 447.623 315.353C450.421 317.691 451.997 323.193 450.821 326.536C449.57 330.091 446.931 331.994 442.969 332.851Z" fill="black"/>
<path fill-rule="evenodd" clip-rule="evenodd" d="M321.649 354.853C322.665 349.556 323.883 345.093 328.894 342.476C329.422 347.106 327.221 350.575 325.06 353.968C324.662 354.592 323.135 354.501 321.649 354.853Z" fill="black"/>
<path fill-rule="evenodd" clip-rule="evenodd" d="M415.934 342.846C414.749 341.655 413.039 340.682 412.589 339.299C412.012 337.519 413.872 337.126 415.343 336.968C416.226 336.873 417.152 336.668 417.996 336.831C419.046 337.037 420.032 337.573 421.045 337.968C420.351 338.937 419.753 340 418.932 340.847C418.287 341.514 417.367 341.915 415.934 342.846Z" fill="black"/>
<path fill-rule="evenodd" clip-rule="evenodd" d="M428.001 339.629C427.737 339.661 427.433 339.799 427.213 339.715C425.652 339.119 424.108 338.477 422.557 337.849C423.729 336.929 424.885 335.987 426.085 335.104C426.347 334.911 426.775 334.964 427.104 334.84C428.684 334.248 430.305 333.803 431.101 335.858C431.736 337.496 430.152 339.307 428.001 339.629Z" fill="black"/>
<path fill-rule="evenodd" clip-rule="evenodd" d="M367.115 199.454C368.9 206.359 370.562 212.787 372.18 219.047C369.832 216.87 366.559 204.947 367.115 199.454Z" fill="black"/>
<path fill-rule="evenodd" clip-rule="evenodd" d="M320.881 161.839C321.089 162.179 321.298 162.519 321.506 162.858C321.204 163.012 320.679 163.351 320.63 163.294C316.82 158.739 314.478 153.595 314.44 147.549C316.424 152.392 317.089 157.817 320.881 161.839Z" fill="black"/>
<path fill-rule="evenodd" clip-rule="evenodd" d="M371.047 205.978C371.943 209.289 372.842 212.601 373.739 215.911C373.457 215.988 373.177 216.066 372.897 216.142C371.963 212.831 371.03 209.519 370.097 206.208C370.413 206.132 370.729 206.055 371.047 205.978Z" fill="black"/>
<path fill-rule="evenodd" clip-rule="evenodd" d="M368.94 190.375C369.355 193.501 369.77 196.627 370.185 199.753C370.006 199.776 369.829 199.8 369.65 199.824C369.235 196.698 368.819 193.57 368.404 190.445C368.584 190.421 368.762 190.399 368.94 190.375Z" fill="black"/>
<path fill-rule="evenodd" clip-rule="evenodd" d="M425.631 340.919C423.798 341.162 422.17 341.378 420.549 341.593C421.721 339.414 421.721 339.414 425.631 340.919Z" fill="black"/>
<path fill-rule="evenodd" clip-rule="evenodd" d="M455.625 223.889C454.569 224.312 453.755 224.636 452.645 225.082C452.663 224.147 452.677 223.454 452.689 222.764C452.463 222.712 452.238 222.661 452.013 222.61C451.761 223.489 451.513 224.367 451.188 225.506C450.278 225.731 449.07 226.028 447.612 226.387C447.012 224.941 446.422 223.515 445.831 222.09C445.553 222.127 445.273 222.164 444.995 222.2C445.112 223.635 445.23 225.071 445.371 226.785C443.984 227.157 442.461 227.568 440.93 227.981C440.455 227.405 439.997 226.852 439.999 226.856C438.513 227.615 437.457 228.499 436.284 228.701C426.125 230.458 415.949 232.123 405.766 233.735C404.095 233.999 402.363 233.916 400.659 233.932C396.796 233.968 394.404 231.874 393.084 228.43C392.757 228.545 392.528 228.556 392.45 228.67C392.306 228.881 392.253 229.152 391.994 229.855C390.499 228.077 389.142 226.485 387.819 224.866C387.618 224.62 387.379 224.065 387.477 223.963C389.517 221.856 386.981 220.327 387.106 218.483C386.866 218.474 386.625 218.467 386.385 218.458C386.308 219.472 386.233 220.487 386.122 221.954C385.523 219.807 383.722 218.314 385.745 216.245C386.269 215.71 386.126 214.036 385.711 213.159C384.377 210.34 385.043 208.099 386.83 205.718C387.659 204.612 388.223 202.799 387.971 201.484C387.292 197.94 389.268 195.718 391.096 193.223C391.809 192.249 394.12 191.413 392.174 189.489C392.009 189.326 392.439 188.524 392.639 188.038C395.273 181.711 397.883 175.372 400.57 169.066C401.583 166.688 403.269 165.309 405.847 164.205C409.509 162.638 412.672 159.906 416.049 157.672C415.868 157.357 415.686 157.042 415.506 156.727C413.189 157.504 410.875 158.291 408.552 159.053C403.941 160.565 399.249 161.142 394.433 160.234C390.733 159.535 389.212 158.321 388.881 155.789C388.544 153.201 390.41 149.639 392.997 148.525C395.029 147.652 397.198 147.054 399.351 146.513C406.982 144.599 414.631 142.748 422.279 140.902C423.932 140.504 425.614 140.225 427.86 139.774C428.398 142.039 428.945 144.344 429.494 146.648C429.644 146.632 429.795 146.617 429.946 146.6C429.639 144.284 429.331 141.968 429.023 139.651C431.633 142.48 431.775 145.899 431.529 149.348C431.189 154.107 430.58 158.849 430.358 163.61C430.295 164.951 431.204 166.326 431.622 167.7C432.389 170.22 433.503 172.706 433.801 175.283C434.789 183.831 439.728 190.562 443.666 197.768C446.9 203.687 450.248 209.552 453.218 215.599C454.446 218.103 454.822 221.024 455.625 223.889ZM395.065 155.541C395.229 155.657 395.393 155.772 395.557 155.887C396.885 156.72 398.304 158.376 399.524 158.24C404.383 157.699 409.232 156.807 413.98 155.625C416.619 154.969 418.779 155.152 420.467 157.196C421.816 158.829 422.822 160.748 423.919 162.448C424.227 159.02 423.355 157.526 418.072 152.746C418.855 152.805 419.433 152.848 420.009 152.892C418.539 151.677 416.624 150.197 415.348 150.624C413.251 151.327 411.822 150.414 410.13 149.975C409.755 149.883 409.38 149.791 409.005 149.7C408.708 149.383 408.469 148.909 408.104 148.772C403.884 147.196 396.312 149.735 393.858 153.504C394.259 154.182 394.661 154.861 395.065 155.541ZM404.993 204.904C405.345 204.89 405.696 204.876 406.048 204.862C406.091 202.571 406.133 200.28 406.175 197.989C405.867 197.987 405.559 197.985 405.252 197.983C404.677 200.279 403.521 202.557 404.993 204.904ZM400.373 196.954C400.139 196.919 399.905 196.883 399.671 196.847C399.313 198.833 398.956 200.815 398.586 202.859C401.123 202.77 401.452 201.5 400.373 196.954ZM427.417 196.51C425.588 200.416 426.066 202.74 428.68 203.578C428.277 201.334 427.909 199.269 427.417 196.51ZM401.832 194.41C402.239 194.407 402.646 194.404 403.054 194.402C403.109 192.293 403.164 190.183 403.219 188.074C402.936 188.065 402.652 188.056 402.369 188.049C401.864 190.152 400.48 192.209 401.832 194.41ZM439.097 197.845C439.415 197.677 439.734 197.509 440.052 197.343C439.044 195.417 438.035 193.491 437.026 191.567C436.761 191.706 436.495 191.846 436.231 191.985C436.989 194.041 436.567 196.721 439.097 197.845ZM400.043 214.251C400.428 214.21 400.815 214.167 401.2 214.124C400.944 212.196 400.688 210.268 400.432 208.34C399.209 210.431 399.084 212.395 400.043 214.251ZM418.37 192.452C419.084 189.759 419.624 187.719 420.26 185.325C417.287 187.593 416.703 189.429 418.37 192.452ZM447.54 208.449C447.335 208.606 447.13 208.762 446.924 208.919C447.783 212.258 449.454 214.307 451.495 213.947C450.104 212.014 448.822 210.232 447.54 208.449ZM418.594 173.066C417.78 170.936 416.965 168.805 415.94 166.126C414.397 169.851 416.423 171.488 418.594 173.066ZM413.242 210.474C413.324 208.513 413.407 206.552 413.513 204.01C411.293 206.993 411.13 208.799 413.242 210.474ZM448.716 221.069C449.181 220.884 449.646 220.699 450.11 220.513C449.298 218.707 448.486 216.902 447.673 215.096C447.307 215.258 446.941 215.418 446.574 215.58C447.287 217.41 448.001 219.239 448.716 221.069ZM442.888 205.699C442.29 209.202 443.269 211.148 445.686 211.506C444.68 209.416 443.783 207.558 442.888 205.699ZM426.851 180.475C425.01 183.327 425.385 184.574 427.983 185.673C427.576 183.803 427.213 182.139 426.851 180.475ZM419.202 196.059C416.545 199.349 416.4 200.779 418.57 202.39C418.776 200.33 418.952 198.557 419.202 196.059ZM391.317 210.781C390.869 212.427 390.422 214.074 389.94 215.842C392.225 215.734 392.638 214.385 391.317 210.781ZM433.84 202.096C433.626 200.487 433.417 198.907 433.172 197.065C430.884 200.92 431.033 202.002 433.84 202.096ZM442.388 217.996C440.238 220.344 440.388 222.395 442.586 223.529C442.521 221.738 442.461 220.041 442.388 217.996ZM433.928 218.747C432.272 221.505 432.791 223.022 435.194 223.29C434.745 221.68 434.337 220.214 433.928 218.747ZM421.333 216.179C419.901 218.512 420.182 220.611 422.085 221.844C421.834 219.951 421.61 218.264 421.333 216.179ZM433.377 191.389C433.878 191.381 434.379 191.372 434.882 191.363C434.742 189.586 434.602 187.809 434.464 186.032C434.069 186.046 433.675 186.062 433.282 186.078C433.314 187.848 433.345 189.62 433.377 191.389ZM411.404 198.503C411.787 196.444 412.12 194.654 412.572 192.225C409.922 195.233 409.666 196.631 411.404 198.503ZM400.758 224.568C400.432 224.657 400.106 224.745 399.781 224.834C399.997 225.994 400.07 227.212 400.507 228.283C400.662 228.663 401.704 228.68 403.085 229.076C402.049 227.069 401.404 225.818 400.758 224.568ZM422.491 201.904C422.215 201.853 421.941 201.802 421.665 201.752C421.339 202.978 420.947 204.189 420.732 205.433C420.674 205.767 421.163 206.194 421.4 206.579C421.815 206.254 422.556 205.956 422.586 205.597C422.689 204.378 422.543 203.137 422.491 201.904ZM426.433 228.834C426.88 228.695 427.329 228.555 427.778 228.415C427.293 226.942 426.81 225.469 426.325 223.998C425.943 224.114 425.562 224.23 425.18 224.346C425.598 225.842 426.016 227.339 426.433 228.834ZM424.904 189.734C422.313 191.423 423.614 193.46 423.817 195.399C424.054 195.419 424.291 195.438 424.529 195.458C424.653 193.551 424.78 191.642 424.904 189.734ZM418.194 207.854C417.934 207.831 417.673 207.81 417.412 207.786C417.095 209.382 416.779 210.976 416.464 212.57C416.845 212.649 417.223 212.726 417.603 212.804C418.487 211.305 418.778 209.675 418.194 207.854ZM431.963 206.896C431.575 206.875 431.186 206.856 430.796 206.835C430.596 208.477 430.395 210.12 430.193 211.762C430.626 211.805 431.058 211.849 431.491 211.893C431.648 210.227 431.807 208.561 431.963 206.896ZM410.936 217.959C410.683 217.926 410.43 217.891 410.175 217.859C409.847 218.866 409.394 219.858 409.258 220.892C409.207 221.272 409.903 221.754 410.259 222.189C410.619 221.788 411.264 221.398 411.282 220.981C411.323 219.979 411.07 218.967 410.936 217.959ZM396.445 220.419C396.89 220.229 397.335 220.04 397.78 219.851C397.146 218.412 396.513 216.975 395.88 215.538C395.527 215.685 395.173 215.835 394.821 215.983C395.361 217.461 395.904 218.94 396.445 220.419ZM444.081 204.901C444.502 204.666 444.924 204.43 445.347 204.196C444.601 202.761 443.854 201.324 443.109 199.89C442.779 200.051 442.45 200.212 442.119 200.375C442.772 201.884 443.427 203.392 444.081 204.901ZM390.258 204.611C389.939 204.516 389.62 204.421 389.3 204.327C388.773 205.931 388.246 207.534 387.718 209.138C388.152 209.263 388.588 209.388 389.023 209.513C389.434 207.879 389.846 206.246 390.258 204.611ZM415.598 222.34C417.261 220.995 417.09 219.406 414.958 217.516C415.191 219.272 415.378 220.682 415.598 222.34Z" fill="#E3C8A1"/>
<path fill-rule="evenodd" clip-rule="evenodd" d="M382.194 241.567C381.793 238.551 381.439 235.886 381.026 232.771C382.409 234.31 383.509 235.534 384.83 237.002C384.931 236.244 384.993 235.785 385.057 235.303C387.852 238.136 390.628 240.951 393.404 243.766C393.564 243.647 393.722 243.53 393.882 243.41C393.23 241.524 392.578 239.639 391.854 237.537C394.183 239.63 396.196 241.704 398.472 243.432C403.723 247.418 410.04 248.535 416.327 249.626C417.52 249.833 418.436 249.929 418.722 251.521C420.32 260.38 424.776 267.546 431.907 273.047C432.258 273.318 432.582 273.628 433.099 274.076C430.77 279.784 424.634 276.669 421.288 279.471C423.725 279.148 426.351 278.799 428.978 278.45C429.102 278.645 429.225 278.839 429.349 279.034C428.205 280.03 427.22 281.425 425.89 281.956C420.205 284.222 414.515 286.581 408.637 288.231C403.835 289.579 398.79 290.231 393.806 290.728C385.721 291.531 377.68 291.252 369.991 288.192C369.935 287.916 369.878 287.639 369.823 287.365C377.449 285.366 385.075 283.368 392.701 281.369C392.707 281.304 392.711 281.238 392.716 281.174C386.103 282.052 379.484 282.888 372.88 283.832C370.847 284.123 368.871 284.862 366.835 285.096C365.73 285.222 364.426 284.961 363.435 284.447C361.485 283.436 361.072 282.153 362.449 279.969C367.27 272.321 370.057 263.875 370.387 254.85C370.576 249.689 369.925 244.481 369.417 239.317C368.925 234.323 368.132 229.359 367.471 224.38C367.7 224.302 367.93 224.225 368.16 224.147C369.601 226.893 371.04 229.638 372.842 233.075C372.885 231.391 372.909 230.478 372.932 229.565C373.155 229.429 373.378 229.292 373.6 229.155C376.407 233.211 379.213 237.263 382.194 241.567Z" fill="#E3C8A1"/>
<path fill-rule="evenodd" clip-rule="evenodd" d="M435.788 139.843C441.091 138.174 446.43 137.812 451.653 139.964C454.434 141.108 456.211 144.059 455.824 146.568C455.279 150.117 452.454 151.608 449.46 152.231C445.116 153.134 440.657 153.483 436.248 154.069C436.123 153.625 435.998 153.183 435.873 152.74C436.837 152.362 437.773 151.851 438.771 151.63C442.243 150.86 445.768 150.302 449.205 149.409C450.127 149.169 451.521 147.944 451.452 147.303C451.324 146.071 450.591 144.505 449.599 143.839C446.889 142.023 443.696 142.38 440.824 143.326C439.695 143.698 439.039 145.562 438.215 146.779C436.596 149.173 434.673 151.441 433.526 154.047C432.743 155.832 433.06 158.101 432.885 160.153C433.152 160.181 433.419 160.208 433.687 160.235C433.807 158.961 433.832 157.667 434.07 156.416C434.478 154.286 435.571 153.431 437.608 154.849C440.986 156.001 444.362 157.153 447.739 158.305C448.922 159.296 450.461 160.071 451.227 161.318C454.234 166.215 456.876 171.336 459.892 176.228C462.028 179.691 464.582 182.895 466.875 186.264C467.621 187.36 468.218 188.58 468.713 189.812C468.927 190.347 468.672 191.056 468.701 191.683C468.727 192.241 468.752 193.24 468.947 193.282C472.251 194.012 472.161 197.179 473.066 199.378C473.921 201.46 473.797 203.944 474.153 206.631C473.465 205.636 472.955 204.898 472.444 204.164C472.163 204.29 471.882 204.416 471.602 204.543C472.298 206.28 473.691 208.091 473.513 209.734C473.3 211.714 471.948 213.686 470.728 215.408C469.673 216.898 468.504 218.84 465.887 218.045C464.706 220.671 462.708 221.807 460.993 220.473C460.681 221.1 460.383 221.708 459.832 222.824C459.414 221.417 459.133 220.475 458.853 219.532C458.708 219.511 458.561 219.49 458.418 219.469C458.304 220.472 458.193 221.475 458.024 222.981C456.162 210.476 450.225 200.297 443.665 190.446C437.456 181.124 433.164 171.135 432.107 159.908C431.942 158.155 431.929 156.338 432.202 154.608C432.737 151.198 433.523 147.828 434.205 144.443C434.733 142.91 435.261 141.376 435.788 139.843ZM444.41 187.891C445.245 192.555 446.311 193.65 448.357 192.411C447.186 191.071 446.037 189.752 444.41 187.891ZM454.763 198.405C454.779 201.902 456.005 203.39 458.098 203.045C456.944 201.44 455.854 199.922 454.763 198.405ZM458.469 212.774C458.227 212.81 457.987 212.846 457.746 212.882C458.057 214.568 458.37 216.255 458.721 218.149C460.454 216.873 460.258 215.321 458.469 212.774ZM469.932 207.943C469.855 209.822 469.78 211.701 469.704 213.581C469.979 213.584 470.254 213.59 470.53 213.594C471.017 211.716 472.013 209.84 469.932 207.943ZM460.616 198.559C460.267 198.756 459.918 198.952 459.569 199.149C460.498 200.856 461.428 202.563 462.358 204.268C462.711 204.067 463.065 203.868 463.417 203.669C462.484 201.966 461.55 200.262 460.616 198.559ZM462.661 213.739C463.015 213.653 463.368 213.57 463.721 213.484C463.384 211.905 463.049 210.327 462.713 208.746C462.481 208.802 462.252 208.857 462.02 208.913C462.234 210.52 462.447 212.129 462.661 213.739Z" fill="#E3C8A1"/>
<path fill-rule="evenodd" clip-rule="evenodd" d="M380.704 136.25C387.522 140.944 391.465 143.41 404.787 140.379C403.644 140.531 402.5 140.683 401.357 140.835C401.33 140.64 401.303 140.445 401.275 140.252C404.724 139.794 408.173 139.336 411.371 138.911C410.255 142.747 406.603 143.535 403.02 144.329C398.592 145.312 394.339 146.449 390.172 148.565C382.805 152.308 373.385 146.599 372.055 138.493C370.981 131.947 372.851 126.361 376.502 121.129C381.411 114.089 386.628 107.028 395.425 105.01C400.791 103.778 406.59 104.228 412.191 104.304C416.155 104.359 420.109 105.053 424.275 105.482C424.633 108.174 425.009 111.008 425.385 113.841C425.668 113.823 425.951 113.805 426.235 113.787C425.99 110.874 425.747 107.96 425.503 105.046C425.688 104.944 425.871 104.842 426.056 104.74C426.411 105.218 427.049 105.682 427.078 106.179C427.32 110.52 427.651 114.872 427.561 119.213C427.472 123.705 426.941 128.189 426.592 132.819C424.595 133.084 421.95 133.436 419.163 133.806C419.456 133.191 419.795 132.482 420.134 131.772C419.867 131.771 419.6 131.77 419.332 131.77C419.274 130.569 419.217 129.369 419.142 127.799C415.253 124.536 415.736 119.023 413.8 114.111C415.452 114.297 416.685 114.434 417.918 114.573C414.889 112.078 411.392 111.653 407.846 112.25C400.236 113.535 394.036 117.43 389.369 123.492C386.238 127.561 383.574 131.988 380.704 136.25Z" fill="#E3C8A1"/>
<path fill-rule="evenodd" clip-rule="evenodd" d="M465.682 144.473C463.162 145.369 460.642 146.263 457.746 147.292C457.223 142.654 454.888 139.971 451.42 138.009C450.856 137.689 450.699 136.123 450.833 135.202C451.193 132.752 451.973 130.36 452.291 127.907C452.784 124.093 454.953 121.695 458.246 120.084C458.805 119.81 459.354 119.514 459.915 119.247C465.548 116.56 468.111 117.94 469.238 124.193C470.1 128.979 468.789 133.355 466.834 137.623C466.439 138.482 465.997 139.32 465.507 140.306C471.511 136.416 472.215 124.266 466.632 116.614C470.055 117.074 473.05 117.479 475.781 117.846C472.928 114.127 467.227 114.737 454.199 120.553C454.394 119.916 454.394 119.307 454.699 119.002C459.336 114.379 464.117 109.951 470.968 108.908C473.703 108.493 476.138 109.889 477.505 112.412C481.305 119.424 479.962 126.255 476.297 132.672C472.63 139.091 468.538 145.283 464.327 151.362C462.981 153.305 460.661 154.576 458.454 156.434C457.662 154.044 456.869 152.178 456.459 150.23C456.199 148.992 456.628 148.11 458.38 147.794C460.971 147.327 463.437 146.162 465.957 145.294C465.864 145.023 465.773 144.748 465.682 144.473Z" fill="#E3C8A1"/>
<path fill-rule="evenodd" clip-rule="evenodd" d="M429.866 117.065C429.317 112.934 428.758 108.721 428.218 104.66C431.903 101.827 435.447 98.8806 439.217 96.2615C444.363 92.6847 446.962 94.4658 447.903 99.8372C449.333 108 450.313 116.307 450.564 124.581C450.668 128.027 448.61 131.637 447.129 134.993C446.376 136.698 444.719 137.693 442.429 137.13C439.431 136.394 436.347 136.007 433.304 135.455C430.373 134.922 429.411 132.789 428.877 130.301C431.24 131.315 433.421 132.73 435.775 133.126C438.108 133.518 440.616 132.884 442.87 132.713C442.844 132.75 442.536 133.207 442.09 133.867C445.456 133.269 446.9 131.348 449.563 124.608C448.372 123.56 447.04 122.874 446.461 121.788C444.828 118.732 443.503 115.509 442.055 112.353C442.36 112.082 442.666 111.811 442.972 111.54C444.825 112.237 446.678 112.933 448.457 113.602C447.021 108.642 436.427 109.355 429.866 117.065Z" fill="#E3C8A1"/>
<path fill-rule="evenodd" clip-rule="evenodd" d="M383.58 134.487C390.042 123.488 397.654 114.358 411.949 114.213C413.296 118.753 414.648 123.308 416.087 128.158C405.907 132.104 394.869 133.334 383.58 134.487Z" fill="#B18E5D"/>
<path fill-rule="evenodd" clip-rule="evenodd" d="M475.207 222.221C470.028 224.414 464.835 226.578 459.67 228.808C455.447 230.632 451.283 232.592 447.049 234.389C441.262 236.847 435.102 236.971 428.955 237.086C424.877 237.164 420.795 237.089 416.721 237.243C412.038 237.419 407.362 237.774 402.068 238.085C409.951 233.795 418.131 234.057 426.003 232.808C431.467 231.944 436.966 231.057 442.288 229.59C452.27 226.837 462.127 223.626 472.069 220.714C472.933 220.46 474.03 220.999 475.019 221.169C475.082 221.521 475.146 221.87 475.207 222.221Z" fill="#E3C8A1"/>
<path fill-rule="evenodd" clip-rule="evenodd" d="M480.777 125.868C480.915 126.183 481.107 126.624 481.581 127.705C482.499 122.879 483.495 118.709 481.551 114.574C480.785 112.947 478.507 112.672 477.921 110.622C477.544 109.308 476.398 107.174 475.64 107.191C472.415 107.266 469.049 107.566 466.035 108.633C463.197 109.638 460.737 111.708 458.21 113.249C460.787 106.257 473.238 102.131 479.663 106.267C479.824 106.101 479.986 105.935 480.147 105.769C479.176 105.032 478.309 104.029 477.216 103.608C473.838 102.303 470.528 103 467.414 104.582C465.23 105.692 463.153 107.017 460.759 108.403C462.26 104.23 465.765 103.224 469.211 102.441C478.613 100.305 482.562 104.522 484.706 114.42C487.111 125.531 483.573 135.128 475.949 143.465C472.209 147.556 469.024 152.15 465.404 156.357C463.859 158.152 461.842 159.54 459.688 161.42C459.296 159.944 459.039 158.977 458.842 158.235C469.271 149.336 475.747 138.094 480.777 125.868Z" fill="#E3C8A1"/>
<path fill-rule="evenodd" clip-rule="evenodd" d="M473.589 227.892C473.807 230.671 472.523 232.341 470.583 233.273C467.409 234.798 464.172 236.384 460.784 237.231C455.599 238.527 450.261 239.215 444.987 240.162C444.94 239.926 444.891 239.689 444.843 239.454C446.916 239.078 448.989 238.702 451.06 238.326C451.04 238.186 451.018 238.044 450.998 237.904C441.756 239.131 432.525 240.458 423.266 241.546C418.122 242.15 412.952 242.066 408.539 240.676C419.056 239.782 430.33 239.756 441.195 237.639C452.058 235.524 462.513 231.319 473.589 227.892Z" fill="#E3C8A1"/>
<path fill-rule="evenodd" clip-rule="evenodd" d="M445.683 124.894C440.158 125.992 434.591 127.097 429.035 128.202C427.393 120.476 432.487 114.105 440.233 112.641C441.963 116.528 443.678 120.385 445.683 124.894Z" fill="#B18E5D"/>
<path fill-rule="evenodd" clip-rule="evenodd" d="M385.187 136.417C389.372 135.861 393.609 135.169 397.876 134.805C399.276 134.687 400.734 135.615 402.191 135.727C406.271 136.038 409.751 134.685 412.767 131.836C413.812 130.849 415.412 130.451 416.868 130.017C414.552 134.96 410.592 137.146 405.458 138.153C398.403 139.535 391.785 137.929 385.187 136.417Z" fill="white"/>
<path fill-rule="evenodd" clip-rule="evenodd" d="M455.4 150.723C457.203 158.028 458.908 164.947 460.614 171.866C460.42 171.923 460.227 171.979 460.033 172.037C459.61 170.862 459.365 169.575 458.71 168.547C458.149 167.667 458.528 166.144 456.303 166.171C454.212 166.196 449.877 155.601 451.106 153.794C451.929 152.583 453.608 151.953 455.4 150.723Z" fill="#E3C8A1"/>
<path fill-rule="evenodd" clip-rule="evenodd" d="M446.655 125.77C445.585 131.222 436.985 133.364 431.746 128.926C433.031 129.153 434.34 129.287 435.594 129.627C438.681 130.461 441.312 129.728 443.701 127.659C444.576 126.903 445.664 126.393 446.655 125.77Z" fill="white"/>
<path fill-rule="evenodd" clip-rule="evenodd" d="M421.198 138.76C421.242 138.355 421.223 137.612 421.336 137.591C424.116 137.086 426.899 136.421 429.704 136.304C431.47 136.23 433.272 136.998 434.997 137.785C430.373 138.089 425.75 138.394 421.127 138.698L421.198 138.76Z" fill="#E3C8A1"/>
<path fill-rule="evenodd" clip-rule="evenodd" d="M447.741 158.306C444.365 157.154 440.988 156.002 437.611 154.85C438.289 154.634 439.028 154.125 439.632 154.253C442.19 154.796 444.731 155.454 447.21 156.273C447.571 156.391 447.573 157.601 447.741 158.306Z" fill="#E3C8A1"/>
<path fill-rule="evenodd" clip-rule="evenodd" d="M435.789 139.843C435.262 141.376 434.734 142.91 434.207 144.444C433.645 143.029 433.082 141.614 432.205 139.405C433.858 139.608 434.823 139.725 435.789 139.843Z" fill="#E3C8A1"/>
<path fill-rule="evenodd" clip-rule="evenodd" d="M467.432 227.576C469.834 226.159 471.911 224.935 474.041 223.681C474.104 226.123 472.094 227.341 467.432 227.576Z" fill="#E3C8A1"/>
<path fill-rule="evenodd" clip-rule="evenodd" d="M415.069 137.07C418.24 136.075 421.408 135.08 424.58 134.085C424.649 134.3 424.716 134.515 424.785 134.73C421.689 135.859 418.594 136.988 415.498 138.118C415.356 137.769 415.213 137.42 415.069 137.07Z" fill="#E3C8A1"/>
<path fill-rule="evenodd" clip-rule="evenodd" d="M421.127 138.698C419.399 139.467 417.67 140.235 415.942 141.003C415.848 140.692 415.755 140.382 415.661 140.072C417.505 139.634 419.349 139.196 421.194 138.759C421.198 138.76 421.127 138.698 421.127 138.698Z" fill="#E3C8A1"/>
<path fill-rule="evenodd" clip-rule="evenodd" d="M353.082 138.941C355.274 143.942 358.248 148.594 356.022 154.663C354.01 160.149 350.652 164.327 346.179 167.849C350.917 166.207 352.978 163.575 357.776 152.989C358.456 156.776 359.995 160.189 359.316 163.082C358.704 165.69 356.075 168.391 353.628 169.906C341.503 177.408 325.948 171.764 320.949 158.284C317.929 150.142 317.239 141.851 319.701 133.397C321.546 127.059 322.215 126.35 328.8 125.03C327.144 125.104 326.018 125.152 324.348 125.226C327.051 121.796 330.135 120.071 333.988 120.216C340.464 120.457 345.685 124.793 348.798 132.317C348.231 132.392 347.532 132.27 347.262 132.555C344.6 135.348 342.206 133.818 339.28 132.708C328.664 128.686 321.947 135.059 320.678 143.519C320.645 143.744 320.812 144 321.125 145.032C322.26 138.572 324.831 133.874 331.083 132.778C335.099 132.075 339.01 132.872 342.707 135.549C336.859 140.869 333.691 147.062 335.714 154.911C336.602 158.36 338.544 161.186 341.986 162.72C340.492 160.689 338.633 158.869 337.627 156.66C334.704 150.24 336.718 142.537 342.293 137.498C343.152 136.72 344.023 135.943 344.964 135.269C346.761 133.98 348.519 133.58 349.925 135.837C350.971 136.866 352.026 137.903 353.082 138.941Z" fill="#E3C8A1"/>
<path fill-rule="evenodd" clip-rule="evenodd" d="M353.081 138.941C352.026 137.903 350.97 136.866 349.923 135.836C349.78 135.468 349.63 135.093 349.479 134.718C351.351 135.619 354.004 135.83 353.081 138.941Z" fill="#E3C8A1"/>
<path fill-rule="evenodd" clip-rule="evenodd" d="M426.833 323.957C427.992 324.243 429.102 324.516 430.212 324.788C430.21 324.886 430.208 324.983 430.205 325.08C429.537 325.077 428.869 325.075 427.946 325.071C428.87 325.917 429.657 326.637 430.443 327.359C430.364 327.482 430.285 327.607 430.205 327.732C428.945 326.957 427.686 326.182 426.256 325.302C425.667 326.539 425.162 327.602 424.656 328.665C424.441 328.602 424.226 328.54 424.01 328.478C424.397 327.196 424.782 325.915 425.188 324.567C424.153 324.272 423.247 324.012 421.683 323.565C422.735 323.426 423.113 323.376 423.771 323.288C423.383 322.784 423.104 322.421 422.827 322.058C422.889 321.973 422.951 321.886 423.012 321.799C423.819 322.389 424.625 322.977 425.619 323.706C426.184 322.344 426.732 321.025 427.279 319.704C427.46 319.761 427.641 319.818 427.823 319.875C427.514 321.146 427.206 322.417 426.833 323.957Z" fill="#E3C8A1"/>
<path fill-rule="evenodd" clip-rule="evenodd" d="M410.31 329.321C409.169 328.306 408.091 327.349 407.013 326.392C410.625 328.851 412.817 326.29 415.143 324.128C415.354 323.931 415.772 323.958 416.505 323.782C415.5 324.837 414.885 325.71 414.065 326.297C411.954 327.807 412.225 329.004 414.323 330.206C414.839 330.502 415.215 331.041 415.403 331.871C414.049 331.09 412.693 330.308 411.319 329.515C410.624 330.254 409.876 331.053 409.129 331.851C409.003 331.748 408.877 331.646 408.752 331.544C409.281 330.79 409.809 330.036 410.31 329.321Z" fill="#E3C8A1"/>
<path fill-rule="evenodd" clip-rule="evenodd" d="M410.129 149.975C411.82 150.413 413.25 151.326 415.346 150.624C416.623 150.197 418.538 151.676 420.008 152.892C419.432 152.849 418.854 152.804 418.071 152.745C423.353 157.525 424.225 159.019 423.918 162.447C422.821 160.747 421.815 158.829 420.465 157.195C418.778 155.151 416.619 154.967 413.979 155.624C409.23 156.806 404.382 157.699 399.523 158.239C398.304 158.375 396.883 156.718 395.559 155.888C397.643 154.905 398.671 156.789 400.168 157.626C397.846 155.146 398.053 153.027 401.27 151.785C404.043 150.714 407.163 150.542 410.129 149.975Z" fill="black"/>
<path fill-rule="evenodd" clip-rule="evenodd" d="M410.13 149.974C407.164 150.543 404.044 150.715 401.27 151.785C398.054 153.027 397.847 155.146 400.169 157.626C398.671 156.79 397.644 154.905 395.56 155.888C395.393 155.771 395.229 155.656 395.065 155.541C395.298 154.657 395.256 153.294 395.813 152.976C397.796 151.841 399.909 150.763 402.111 150.234C404.324 149.701 406.7 149.849 409.004 149.699C409.38 149.79 409.755 149.882 410.13 149.974Z" fill="#E3C8A1"/>
<path fill-rule="evenodd" clip-rule="evenodd" d="M409.005 149.699C406.7 149.849 404.324 149.702 402.112 150.234C399.91 150.764 397.796 151.843 395.813 152.976C395.257 153.294 395.298 154.657 395.065 155.542C394.662 154.862 394.259 154.183 393.854 153.505C396.312 149.734 403.884 147.195 408.104 148.771C408.468 148.908 408.709 149.382 409.005 149.699Z" fill="black"/>
<path fill-rule="evenodd" clip-rule="evenodd" d="M404.993 204.904C403.522 202.557 404.677 200.278 405.252 197.984C405.559 197.985 405.867 197.988 406.175 197.99C406.133 200.281 406.091 202.572 406.048 204.863C405.696 204.876 405.344 204.89 404.993 204.904Z" fill="black"/>
<path fill-rule="evenodd" clip-rule="evenodd" d="M400.374 196.954C401.452 201.499 401.123 202.77 398.586 202.859C398.956 200.816 399.313 198.832 399.671 196.847C399.905 196.884 400.14 196.92 400.374 196.954Z" fill="black"/>
<path fill-rule="evenodd" clip-rule="evenodd" d="M427.417 196.51C427.909 199.269 428.276 201.335 428.68 203.578C426.065 202.74 425.588 200.415 427.417 196.51Z" fill="black"/>
<path fill-rule="evenodd" clip-rule="evenodd" d="M401.831 194.41C400.479 192.209 401.864 190.152 402.368 188.05C402.652 188.057 402.936 188.066 403.218 188.074C403.164 190.183 403.108 192.293 403.053 194.402C402.646 194.405 402.238 194.408 401.831 194.41Z" fill="black"/>
<path fill-rule="evenodd" clip-rule="evenodd" d="M439.098 197.844C436.568 196.721 436.989 194.041 436.23 191.984C436.496 191.845 436.761 191.705 437.026 191.565C438.035 193.49 439.044 195.416 440.051 197.342C439.735 197.51 439.416 197.676 439.098 197.844Z" fill="black"/>
<path fill-rule="evenodd" clip-rule="evenodd" d="M400.043 214.251C399.084 212.396 399.209 210.432 400.433 208.341C400.689 210.269 400.945 212.196 401.201 214.125C400.815 214.166 400.429 214.21 400.043 214.251Z" fill="black"/>
<path fill-rule="evenodd" clip-rule="evenodd" d="M418.37 192.452C416.703 189.429 417.287 187.593 420.26 185.325C419.624 187.719 419.084 189.759 418.37 192.452Z" fill="black"/>
<path fill-rule="evenodd" clip-rule="evenodd" d="M447.54 208.449C448.823 210.232 450.105 212.014 451.497 213.947C449.454 214.307 447.785 212.258 446.926 208.919C447.13 208.762 447.335 208.606 447.54 208.449Z" fill="black"/>
<path fill-rule="evenodd" clip-rule="evenodd" d="M418.594 173.066C416.422 171.488 414.396 169.851 415.94 166.126C416.966 168.805 417.78 170.936 418.594 173.066Z" fill="black"/>
<path fill-rule="evenodd" clip-rule="evenodd" d="M413.242 210.474C411.13 208.799 411.293 206.993 413.513 204.01C413.406 206.552 413.324 208.513 413.242 210.474Z" fill="black"/>
<path fill-rule="evenodd" clip-rule="evenodd" d="M448.716 221.069C448.001 219.239 447.287 217.41 446.573 215.58C446.94 215.418 447.306 215.258 447.672 215.097C448.485 216.902 449.297 218.707 450.11 220.514C449.646 220.699 449.181 220.884 448.716 221.069Z" fill="black"/>
<path fill-rule="evenodd" clip-rule="evenodd" d="M442.888 205.699C443.784 207.559 444.68 209.416 445.687 211.506C443.269 211.148 442.291 209.202 442.888 205.699Z" fill="black"/>
<path fill-rule="evenodd" clip-rule="evenodd" d="M426.851 180.475C427.213 182.139 427.575 183.803 427.983 185.674C425.384 184.574 425.01 183.327 426.851 180.475Z" fill="black"/>
<path fill-rule="evenodd" clip-rule="evenodd" d="M419.201 196.059C418.952 198.557 418.775 200.329 418.569 202.39C416.399 200.779 416.544 199.349 419.201 196.059Z" fill="black"/>
<path fill-rule="evenodd" clip-rule="evenodd" d="M391.317 210.781C392.637 214.384 392.225 215.734 389.94 215.842C390.422 214.074 390.87 212.427 391.317 210.781Z" fill="black"/>
<path fill-rule="evenodd" clip-rule="evenodd" d="M433.841 202.096C431.034 202.003 430.885 200.919 433.173 197.065C433.418 198.906 433.627 200.486 433.841 202.096Z" fill="black"/>
<path fill-rule="evenodd" clip-rule="evenodd" d="M442.388 217.996C442.461 220.042 442.521 221.739 442.586 223.529C440.387 222.395 440.237 220.345 442.388 217.996Z" fill="black"/>
<path fill-rule="evenodd" clip-rule="evenodd" d="M433.928 218.747C434.337 220.214 434.745 221.679 435.194 223.29C432.791 223.022 432.272 221.505 433.928 218.747Z" fill="black"/>
<path fill-rule="evenodd" clip-rule="evenodd" d="M421.334 216.179C421.61 218.263 421.834 219.95 422.086 221.844C420.182 220.611 419.902 218.513 421.334 216.179Z" fill="black"/>
<path fill-rule="evenodd" clip-rule="evenodd" d="M433.377 191.389C433.345 189.619 433.314 187.848 433.281 186.078C433.674 186.062 434.069 186.047 434.464 186.032C434.602 187.808 434.742 189.585 434.881 191.363C434.38 191.372 433.878 191.381 433.377 191.389Z" fill="black"/>
<path fill-rule="evenodd" clip-rule="evenodd" d="M411.404 198.503C409.666 196.631 409.921 195.232 412.572 192.225C412.12 194.654 411.787 196.444 411.404 198.503Z" fill="black"/>
<path fill-rule="evenodd" clip-rule="evenodd" d="M400.758 224.568C401.404 225.819 402.049 227.069 403.085 229.076C401.703 228.68 400.661 228.662 400.506 228.282C400.07 227.212 399.996 225.993 399.78 224.833C400.106 224.745 400.432 224.657 400.758 224.568Z" fill="black"/>
<path fill-rule="evenodd" clip-rule="evenodd" d="M422.491 201.904C422.543 203.137 422.689 204.378 422.586 205.597C422.556 205.956 421.815 206.254 421.401 206.579C421.163 206.194 420.674 205.766 420.732 205.433C420.946 204.189 421.339 202.978 421.665 201.752C421.94 201.802 422.216 201.853 422.491 201.904Z" fill="black"/>
<path fill-rule="evenodd" clip-rule="evenodd" d="M426.433 228.834C426.016 227.339 425.598 225.842 425.182 224.346C425.563 224.23 425.945 224.113 426.326 223.998C426.811 225.47 427.295 226.943 427.78 228.414C427.331 228.555 426.882 228.694 426.433 228.834Z" fill="black"/>
<path fill-rule="evenodd" clip-rule="evenodd" d="M424.904 189.734C424.78 191.642 424.654 193.55 424.529 195.458C424.292 195.438 424.055 195.419 423.818 195.399C423.614 193.461 422.313 191.423 424.904 189.734Z" fill="black"/>
<path fill-rule="evenodd" clip-rule="evenodd" d="M418.194 207.854C418.779 209.676 418.487 211.305 417.604 212.804C417.223 212.727 416.845 212.649 416.464 212.571C416.78 210.977 417.096 209.382 417.413 207.787C417.673 207.809 417.934 207.831 418.194 207.854Z" fill="black"/>
<path fill-rule="evenodd" clip-rule="evenodd" d="M431.963 206.896C431.807 208.561 431.649 210.227 431.491 211.893C431.058 211.85 430.627 211.806 430.194 211.763C430.395 210.12 430.596 208.476 430.797 206.836C431.186 206.856 431.575 206.875 431.963 206.896Z" fill="black"/>
<path fill-rule="evenodd" clip-rule="evenodd" d="M410.936 217.959C411.07 218.967 411.323 219.979 411.281 220.981C411.263 221.397 410.619 221.788 410.258 222.189C409.903 221.754 409.206 221.273 409.257 220.892C409.393 219.858 409.846 218.867 410.174 217.859C410.43 217.892 410.683 217.926 410.936 217.959Z" fill="black"/>
<path fill-rule="evenodd" clip-rule="evenodd" d="M396.445 220.419C395.904 218.941 395.361 217.461 394.82 215.983C395.173 215.836 395.526 215.685 395.879 215.538C396.513 216.975 397.146 218.413 397.779 219.851C397.335 220.04 396.89 220.229 396.445 220.419Z" fill="black"/>
<path fill-rule="evenodd" clip-rule="evenodd" d="M444.082 204.901C443.428 203.392 442.773 201.883 442.119 200.375C442.45 200.212 442.78 200.051 443.11 199.889C443.855 201.324 444.603 202.761 445.347 204.196C444.925 204.43 444.503 204.666 444.082 204.901Z" fill="black"/>
<path fill-rule="evenodd" clip-rule="evenodd" d="M390.258 204.611C389.846 206.246 389.434 207.879 389.022 209.513C388.587 209.389 388.151 209.263 387.717 209.138C388.245 207.534 388.772 205.931 389.299 204.327C389.619 204.421 389.938 204.517 390.258 204.611Z" fill="black"/>
<path fill-rule="evenodd" clip-rule="evenodd" d="M415.598 222.34C415.378 220.682 415.191 219.273 414.958 217.516C417.09 219.405 417.261 220.995 415.598 222.34Z" fill="black"/>
<path fill-rule="evenodd" clip-rule="evenodd" d="M444.411 187.891C446.038 189.752 447.187 191.07 448.358 192.411C446.312 193.65 445.245 192.555 444.411 187.891Z" fill="black"/>
<path fill-rule="evenodd" clip-rule="evenodd" d="M454.763 198.405C455.854 199.923 456.945 201.441 458.098 203.045C456.005 203.39 454.78 201.902 454.763 198.405Z" fill="black"/>
<path fill-rule="evenodd" clip-rule="evenodd" d="M458.47 212.774C460.259 215.321 460.453 216.873 458.722 218.15C458.37 216.255 458.058 214.568 457.747 212.882C457.987 212.846 458.229 212.81 458.47 212.774Z" fill="black"/>
<path fill-rule="evenodd" clip-rule="evenodd" d="M469.934 207.943C472.014 209.84 471.019 211.716 470.531 213.594C470.256 213.59 469.98 213.585 469.705 213.581C469.781 211.701 469.857 209.822 469.934 207.943Z" fill="black"/>
<path fill-rule="evenodd" clip-rule="evenodd" d="M460.616 198.559C461.55 200.262 462.484 201.966 463.418 203.669C463.065 203.868 462.712 204.067 462.358 204.268C461.429 202.563 460.499 200.856 459.57 199.149C459.92 198.952 460.268 198.756 460.616 198.559Z" fill="black"/>
<path fill-rule="evenodd" clip-rule="evenodd" d="M462.661 213.739C462.448 212.129 462.234 210.522 462.02 208.913C462.252 208.858 462.481 208.802 462.713 208.747C463.05 210.327 463.385 211.905 463.721 213.485C463.368 213.57 463.014 213.654 462.661 213.739Z" fill="black"/>
<path d="M497.055 214.792C497.055 214.792 497.056 214.794 497.058 214.798C497.056 214.794 497.055 214.792 497.055 214.792Z" fill="white" stroke="black" stroke-width="2"/>
</g>
</svg>
