<?xml version="1.0" encoding="utf-8"?>
<!-- Generator: Adobe Illustrator 16.0.0, SVG Export Plug-In . SVG Version: 6.00 Build 0)  -->
<!DOCTYPE svg PUBLIC "-//W3C//DTD SVG 1.1//EN" "http://www.w3.org/Graphics/SVG/1.1/DTD/svg11.dtd" [
	<!ENTITY ns_flows "http://ns.adobe.com/Flows/1.0/">
	<!ENTITY ns_extend "http://ns.adobe.com/Extensibility/1.0/">
	<!ENTITY ns_ai "http://ns.adobe.com/AdobeIllustrator/10.0/">
	<!ENTITY ns_graphs "http://ns.adobe.com/Graphs/1.0/">
	<!ENTITY ns_vars "http://ns.adobe.com/Variables/1.0/">
	<!ENTITY ns_imrep "http://ns.adobe.com/ImageReplacement/1.0/">
	<!ENTITY ns_sfw "http://ns.adobe.com/SaveForWeb/1.0/">
	<!ENTITY ns_custom "http://ns.adobe.com/GenericCustomNamespace/1.0/">
	<!ENTITY ns_adobe_xpath "http://ns.adobe.com/XPath/1.0/">
]>
<svg version="1.1" id="Layer_1" xmlns:x="&ns_extend;" xmlns:i="&ns_ai;" xmlns:graph="&ns_graphs;"
	 xmlns="http://www.w3.org/2000/svg" xmlns:xlink="http://www.w3.org/1999/xlink" xmlns:a="http://ns.adobe.com/AdobeSVGViewerExtensions/3.0/"
	 x="0px" y="0px" width="974.951px" height="436.479px" viewBox="109.116 141.601 974.951 436.479"
	 enable-background="new 109.116 141.601 974.951 436.479" xml:space="preserve">
<metadata>
	<sfw  xmlns="&ns_sfw;">
		<slices></slices>
		<sliceSourceBounds  width="961.305" height="419.678" x="-292.789" y="-26.243" bottomLeftOrigin="true"></sliceSourceBounds>
	</sfw>
</metadata>
<g>
	<path fill="#8D5F09" stroke="#704900" stroke-width="3" d="M148.025,498.553l-0.188-0.465c-2.045-0.792-3.776-2.142-4.488-3.903
		c-1.086-2.69-0.431-6.406,0.821-10.255c1.838-5.595,6.688-16.288,6.799-16.55c0.424-1.355,0.938-2.75,1.416-4.237
		c-7.709-0.662-16.239-2.288-22.877-4.568c-5.243-1.768-9.855-4.111-11.016-6.985c-1.012-2.503,0.874-5.312,3.008-6.176
		c1.112-0.449,2.466-0.564,3.693-0.198c13.215,3.615,21.952,6.021,29.924,7.869c2.972-11.877,5.213-24.754,5.106-34.634
		c-0.025-1.932,0.972-3.735,2.827-4.484c2.969-1.199,7.708,0.124,8.906,3.093c0.112,0.276,0.206,0.777,0.355,1.149
		c1.932,0.513,3.683,1.64,4.357,3.31c0.151,0.371,0.338,0.834,0.303,1.28c0.092,17.326-3.474,45.621-10.592,66.722
		c2.263,4.803,4.655,9.659,6.677,14.667c0.299,0.741,0.844,2.356-0.362,2.842c-0.835,0.338-2.015-2.313-2.426-3.335
		c-1.609-3.986-3.09-7.919-4.662-11.812c-1.73,4.795-3.74,9.167-7.358,10.627C154.451,504.048,149.336,501.798,148.025,498.553z
		 M155.469,463.3c-0.605,1.969-1.174,4.033-1.949,5.855c-0.979,2.119-4.885,11.137-6.467,15.77
		c-0.882,2.621-1.339,4.961-1.204,6.635c0.001,0.537,0.133,1.131,0.284,1.502c0.263,0.648,0.802,1.188,1.398,1.594
		c0.106-1.876,0.638-4.034,1.355-6.264c1.839-5.595,6.688-16.289,6.799-16.548c0.882-2.624,1.691-5.429,2.555-8.366
		C157.346,463.404,156.453,463.332,155.469,463.3z M164.903,422.821c-0.025-1.932,0.971-3.735,2.827-4.484
		c0.371-0.149,0.871-0.245,1.374-0.338c-0.242-0.335-0.783-0.87-1.879-1.185c-1.229-0.366-2.398-0.326-3.046-0.062
		c-0.836,0.337-0.927,0.912-0.943,1.673c0.163,10.288-2.097,23.39-5.122,35.395c0.836,0.201,1.728,0.274,2.564,0.476
		C163.261,443.328,164.988,431.846,164.903,422.821z M167.034,421.422c-0.094,0.037-0.057,0.13-0.111,0.26
		c-0.535,1.619-1.596,17.686-1.596,17.686c0.168,0.147,0.427,0.257,0.707,0.145c0.372-0.148,0.686-0.706,0.924-1.451
		c1.159-3.273,0.994-14.636,0.281-16.398C167.164,421.478,167.126,421.384,167.034,421.422z"/>
	<path fill="#8D5F09" stroke="#704900" stroke-width="3" d="M255.337,433.654c3.706,9.18,3.212,17.036-0.167,23.362
		c2.151,4.523,4.263,8.954,6.172,13.685c0.299,0.741,0.843,2.355-0.363,2.843c-0.834,0.337-2.012-2.314-2.424-3.335
		c-1.573-3.896-2.979-7.641-4.476-11.352c-3.732,5.715-9.773,9.986-16.912,12.869l-2.782,1.125
		c-29.767,12.017-55.201-2.626-63.326-22.749c-3.857-9.552-3.836-20.452,1.554-30.07c4.339-7.685,12.006-14.34,23.32-18.907
		c3.71-1.497,8.133-0.156,10.169,3.013c22.105-3.748,41.296,9.856,48.11,26.735L255.337,433.654z M197.057,403.906
		c-24.295,9.812-29.656,29.122-23.215,45.073c3.969,9.83,12.483,18.362,23.769,22.542c-9.374-4.519-16.345-12.167-19.865-20.882
		c-6.44-15.951-1.08-35.264,23.216-45.073c0.648-0.263,1.337-0.432,2.097-0.416C201.606,403.688,199.19,403.045,197.057,403.906z
		 M192.153,415.269c1.353-1.193,1.759-1.789,1.646-2.067c-0.224-0.555-0.707-0.684-1.171-0.497
		c-5.284,2.134-14.146,12.508-16.246,23.601c-0.035,0.446,0.02,0.855,0.17,1.225c0.15,0.372,0.318,0.519,0.503,0.443
		c0.185-0.074,0.333-0.241,0.461-0.725C180.38,427.251,183.301,422.727,192.153,415.269z M196.351,421.125
		c-10.053,9.02-11.711,19.072-8.341,27.419c5.392,13.353,23.712,22.132,41.889,14.795c10.292-4.158,17.023-13.131,11.781-26.112
		c-5.016-12.425-20.611-22.198-38.137-15.122l-1.02,0.41l-0.056,0.131C200.242,423.544,197.804,422.587,196.351,421.125z
		 M228.111,433.537c-2.136-5.285-9.564-11.668-20.88-7.1c-1.484,0.598-2.91,1.606-4.579,2.279c-0.926,0.374-1.484,0.062-1.673-0.403
		c-0.786-1.948,5.037-4.623,7.356-5.556c7.232-2.92,19.403-0.826,22.474,6.778c0.937,2.32,1.262,5.53-0.222,6.13
		C229.568,436.077,228.897,435.485,228.111,433.537z M208.215,408.569c0.075,0.186,0.058,0.407,0.132,0.594
		c8.127-1.772,15.969-1.055,22.81,1.468c-6.992-3.433-15.261-4.946-23.985-3.581C207.58,407.53,207.99,408.011,208.215,408.569z"/>
	<path fill="#8D5F09" stroke="#704900" stroke-width="3" d="M326.656,375.522c1.16,2.874,0.058,6.556-3.096,7.828
		c-2.781,1.124-6.035-0.26-7.16-3.043c-0.261-0.648-0.393-1.242-0.563-1.927c-2.692-5.601-17.826,0.187-24.41,2.846
		c-0.928,0.376-1.911,0.88-2.839,1.253c4.453,4.349,9.863,11.333,15.181,19.429c7.414-4.072,14.755-8.33,18.656-13.356
		c0.353-0.465,0.687-0.707,1.056-0.855c1.207-0.487,2.399,0.324,2.658,0.975c1.125,2.78-7.849,12.876-16.995,21.745
		c5.544,9.193,10.61,18.798,13.642,26.307c2.922,7.235,4.107,12.577,2.144,14.123c1.182,4.271,1.044,7.131-0.717,7.842
		c-8.625,3.483-20.724-22.476-27.105-37.48c-0.722,0.614-1.444,1.229-2.112,1.715c2.693,6.137,5.815,11.997,8.36,18.303
		c0.3,0.742,0.843,2.355-0.361,2.843c-0.836,0.336-2.015-2.316-2.426-3.336c-2.322-5.748-4.438-11.258-6.759-17.007
		c-0.759,0.521-1.371,0.876-1.74,1.026c-4.731,1.909-8.466,1.475-10.148-2.695c-1.91-4.73,2.7-9.072,9.632-13.272
		c-9.018-15.124-22.499-8.173-25.906-16.612c-1.16-2.874-0.964-5.325,0.16-7.613c-4.194-10.388,9.213-16.446,21.177-21.277
		c13.354-5.392,34.102-9.565,39.494,3.789l0.337,0.835c0.824,2.04,0.591,4.4-0.76,6.131L326.656,375.522z M294.22,406.306
		c-7.565-18.732-20.475-14.383-26.264-18.838c-0.219,1.061-0.088,2.193,0.474,3.583c0.825,2.04,2.443,2.573,6.809,3.509
		c3.438,0.767,8.103,1.904,12.459,5.214c2.329,1.758,4.509,4.221,6.486,7.519c0.094-0.037,0.241-0.203,0.334-0.241L294.22,406.306z
		 M296.46,364.312c0.464-0.188,0.627-0.578,0.517-0.856c-0.188-0.465-0.97-0.797-1.84-0.552c-2.616,0.732-5.102,1.521-7.604,2.531
		c-5.658,2.283-10.366,5.046-14.517,8.127c-0.482,0.408-0.721,1.153-0.535,1.615c0.113,0.278,0.373,0.387,0.744,0.24
		c0.095-0.037,0.149-0.168,0.334-0.243c4.15-3.078,8.857-5.842,14.515-8.124c2.69-1.088,5.362-1.949,8.107-2.626L296.46,364.312z
		 M323.537,375.809c-2.727,0.994-5.889-0.426-6.974-3.115c-0.264-0.647-0.394-1.243-0.564-1.929
		c-0.39-0.704-0.877-1.372-1.659-1.704c-2.433-0.419-5.125-0.409-8.022-0.103c-5.197,1.021-14.452,4.543-14.732,4.653
		c-3.523,1.423-7.065,3.07-10.124,4.307c1.207,0.051,2.844,0.898,4.613,2.343c1.391-0.562,2.837-1.254,4.229-1.815
		c3.708-1.497,10.144-3.989,16.011-4.955c3.23-0.549,6.2-0.669,8.801,0.435c1.434,0.609,2.83,1.665,3.504,3.335
		c0.262,0.647,0.376,1.466,0.562,1.928c0.488,1.207,2.05,1.868,3.255,1.382c1.39-0.562,2.071-2.346,1.437-3.922L323.537,375.809z
		 M321.887,451.324c-7.303-1.257-16.273-18.666-22.278-32.204c-0.093,0.04,0.037,0.094-0.057,0.131
		c4.604,10.867,12.215,27.315,18.513,33.833c1.733,1.887,3.278,2.773,4.115,2.976c0.13,0.056,0.353,0.073,0.445,0.035
		C322.755,455.073,322.338,452.976,321.887,451.324z"/>
	<path fill="#8D5F09" stroke="#704900" stroke-width="3" d="M375.306,380.899c-1.855,0.749-3.856,1.666-5.748,2.86
		c1.234,2.521,2.412,5.172,3.498,7.861c0.299,0.744,0.843,2.356-0.363,2.842c-0.834,0.337-2.013-2.313-2.425-3.335l-2.508-6.213
		c-8.264,5.71-14.864,14.736-11.644,22.712c0.299,0.741,0.747,1.316,1.157,1.798c2.729-0.455,5.734-1.561,8.517-2.683
		c9.737-3.932,18.773-12.002,25.796-16.779c2.185-1.529,3.111-2.441,5.616-3.454c2.781-1.122,5.737-0.481,7.749,1.296
		c3.58-1.016,7.431,0.773,8.777,4.111c1.386,3.43-0.477,7.635-3.832,9.206c-9.36,5.936-19.999,12.171-33.075,17.45
		c-8.253,3.335-16.717,4.81-23.079,1.879c-6.482-0.296-11.912-3.064-14.794-10.204c-3.146-7.789-0.478-15.338,2.587-21.104
		c-0.745-0.241-1.58-0.439-2.231-0.716c-7.671-0.57-15.095-4.799-18.241-12.591c-5.728-14.188,3.339-29.927,18.177-35.918
		c3.988-1.61,7.406-1.157,10.402,0.653c6.515-0.69,11.639,4.252,14.596,11.579c1.123,2.781-0.315,6.166-3.097,7.289
		c-2.318,0.938-4.938,0.054-6.45-1.818l-0.463,0.188c-2.783,1.125-6.038-0.259-7.16-3.043c-0.15-0.37-0.393-0.704-0.543-1.075
		c-7.134,4.501-11.047,12.442-8.202,19.488c0.789,1.949,1.889,3.338,3.246,4.3c2.619-0.194,5.643-0.985,8.889-2.295
		c6.677-2.695,8.121-3.926,12.294-5.611c3.152-1.274,6.328-1.152,8.026,1.181c3.265-0.995,6.313-0.392,7.624,2.855
		C379.526,376.392,378.089,379.775,375.306,380.899z M332.557,346.608c-4.914,1.983-11.204,9.377-11.04,19.664l0.036,0.092
		c0.3,0.744,0.636,1.04,1.006,0.891c0.557-0.226,1.111-1.526,1.089-2.381c-0.024-7.539,6.712-14.359,9.62-16.504
		c0.483-0.41,0.796-0.968,0.609-1.433C333.689,346.475,333.114,346.383,332.557,346.608z M345.125,351.024
		c-0.486-0.667-0.71-1.225-1.731-0.812c-9.365,3.781-15.37,13.217-12.038,21.471c1.162,2.875,3.134,4.558,5.626,5.387
		c-0.559-0.854-1.025-1.743-1.439-2.763C331.65,364.661,337.619,355.674,345.125,351.024z M349.241,406.093
		c0.859,2.133,2.481,3.203,4.431,3.495l-0.337-0.836c-1.76-4.356-1.126-8.928,0.718-12.906c2.232-4.893,6.988-9.94,12.678-13.748
		l-0.675-1.668C355.73,385.568,345.383,396.541,349.241,406.093z M357.269,350.649c0.675,1.67,0.439,3.49-0.391,4.905
		c0.595,0.945,2.028,1.554,3.142,1.104c1.206-0.486,1.925-2.179,1.436-3.385c-1.945-4.823-4.63-8.268-7.997-9.391
		C354.969,345.756,356.221,348.054,357.269,350.649z M403.019,399.585c-9.358,5.935-19.998,12.173-33.073,17.452
		c-1.577,0.635-3.19,1.18-4.804,1.725c3.36-0.495,6.94-1.51,10.558-2.972c12.889-5.203,23.38-11.272,32.646-17.171
		c0.092-0.038,0.242-0.204,0.333-0.242c2.003-0.915,3.018-3.482,2.267-5.337c-0.636-1.577-2.254-2.647-4.057-2.568
		C408.183,393.94,406.375,398.014,403.019,399.585z M371.81,373.575c0.211,2.394-1.098,4.758-3.417,5.693
		c-0.279,0.113-0.426,0.28-0.703,0.393l0.561,1.392c1.891-1.195,3.894-2.111,5.933-2.935c1.208-0.487,1.923-2.178,1.438-3.385
		C374.909,372.972,373.553,373.086,371.81,373.575z"/>
	<path fill="#8D5F09" stroke="#704900" stroke-width="3" d="M441.641,387.874c-1.112,0.446-2.283,0.488-3.472,0.213
		c-0.666,1.024-1.537,1.809-2.648,2.257c-1.02,0.411-2.152,0.546-3.211,0.326l-2.025,0.061l-0.555,0.224
		c-9.18,3.708-16.703,9.118-22.983,13.596c0.45,1.113,1.028,2.28,1.479,3.395c0.298,0.742,0.844,2.354-0.363,2.843
		c-0.833,0.336-2.013-2.315-2.425-3.334l-0.598-1.486c-3.428,2.464-9.138,5.415-9.138,5.415c-2.782,1.123-6.036-0.26-7.16-3.042
		l-0.225-0.555c-1.385-3.432-0.412-6.632,2.161-9.608c-0.281-0.427-0.561-0.853-0.748-1.316l-3.332-8.255
		c-2.62-6.491-4.813-12.185-6.834-17.191c-5.504-13.633-9.804-22.681-17.896-32.573c-0.374-0.387-0.599-0.945-0.823-1.5
		c-1.123-2.782,0.26-6.037,3.042-7.159c1.115-0.45,2.375-0.528,3.474-0.216c0.571-0.986,1.536-1.806,2.647-2.256
		c2.317-0.935,4.901-0.146,6.336,1.54c13.369,16.281,19.792,26.844,32.314,57.593l3.709-1.497c4.082-1.646,6.065-2.342,7.81-2.83
		c-6.405-5.178-11.995-10.471-14.583-12.877c-0.335-0.296-0.578-0.629-0.726-1c-0.638-1.576,0.026-3.138,1.602-3.774
		c2.134-0.86,3.27,0.62,4.704,1.767c-0.075-0.186-0.241-0.334-0.317-0.519c-0.562-1.391,0.25-3.12,1.733-3.719
		c1.021-0.413,2.453-0.343,3.104,0.472c3.8,3.535,16.744,8.88,26.828,15.16c0.986,0.571,1.676,1.481,2.126,2.594
		C445.769,383.403,444.423,386.749,441.641,387.874z M376.481,360.581c0.878,1.91,1.996,2.537,2.831,2.2
		c0.833-0.336,1.256-1.694,0.507-3.548l-0.112-0.278c-5.051-11.44-7.384-14.814-10.648-19.427c-1.082-1.611-2.254-2.109-2.905-1.847
		c-0.556,0.226-0.665,1.024-0.177,2.229c0.187,0.464,0.374,0.927,0.691,1.446C369.804,345.913,371.542,349.415,376.481,360.581z
		 M405.914,388.064c-12.803-30.64-18.761-40.851-31.922-56.893c-0.615-0.721-1.936-1.052-2.862-0.676
		c-0.465,0.188-0.854,0.559-1.112,0.987c0.038,0.093,0.168,0.147,0.206,0.24c13.367,16.281,19.828,26.938,32.426,57.875
		C403.724,389.054,404.836,388.604,405.914,388.064z M441.863,381.743c-0.225-0.557-0.467-0.888-0.895-1.148
		c-7.056-4.378-15.533-8.288-22.623-12.221c-1.246-0.682-2.307-1.44-3.239-2.144c1.752,1.665,4.211,4.018,7.152,6.497
		c4.092,2.121,8.577,4.409,12.727,6.941c1.579,0.438,3.013,1.586,3.686,3.257c0.299,0.742,0.414,1.558,0.397,2.32
		c0.446,0.036,0.984,0.033,1.449-0.153C441.91,384.528,442.425,383.134,441.863,381.743z"/>
	<path fill="#8D5F09" stroke="#704900" stroke-width="3" d="M492.084,367.505c-1.114,0.451-2.282,0.49-3.473,0.216
		c-0.665,1.022-1.536,1.805-2.648,2.255c-1.019,0.413-2.153,0.546-3.21,0.325l-2.025,0.063l-0.555,0.225
		c-9.18,3.708-16.702,9.117-22.983,13.594c0.449,1.112,1.028,2.28,1.478,3.396c0.3,0.742,0.843,2.354-0.364,2.841
		c-0.834,0.339-2.012-2.313-2.423-3.335l-0.6-1.483c-3.428,2.462-9.138,5.413-9.138,5.413c-2.782,1.124-6.036-0.258-7.16-3.042
		l-0.225-0.555c-1.384-3.431-0.411-6.631,2.16-9.61c-0.28-0.427-0.558-0.853-0.745-1.316l-3.333-8.251
		c-2.619-6.492-4.812-12.187-6.834-17.194c-5.503-13.63-9.803-22.679-17.896-32.57c-0.373-0.388-0.598-0.945-0.823-1.5
		c-1.124-2.782,0.26-6.037,3.043-7.16c1.112-0.449,2.375-0.529,3.472-0.215c0.573-0.986,1.536-1.808,2.649-2.256
		c2.318-0.937,4.901-0.146,6.336,1.539c13.368,16.28,19.791,26.845,32.314,57.594l3.709-1.497c4.082-1.648,6.065-2.341,7.809-2.828
		c-6.406-5.179-11.993-10.473-14.583-12.879c-0.336-0.297-0.577-0.63-0.727-1c-0.637-1.578,0.026-3.139,1.602-3.774
		c2.133-0.861,3.27,0.62,4.705,1.767c-0.076-0.185-0.244-0.333-0.318-0.52c-0.562-1.391,0.25-3.121,1.735-3.719
		c1.019-0.412,2.449-0.343,3.103,0.474c3.801,3.534,16.743,8.878,26.828,15.159c0.985,0.572,1.676,1.48,2.126,2.592
		C496.211,363.035,494.867,366.382,492.084,367.505z M426.923,340.214c0.88,1.909,1.996,2.536,2.831,2.2
		c0.835-0.338,1.256-1.694,0.51-3.548l-0.114-0.278c-5.05-11.441-7.382-14.814-10.646-19.427c-1.083-1.611-2.255-2.109-2.905-1.847
		c-0.556,0.225-0.665,1.023-0.18,2.229c0.188,0.464,0.374,0.926,0.692,1.447C420.246,325.545,421.985,329.051,426.923,340.214z
		 M456.354,367.695c-12.801-30.637-18.758-40.85-31.921-56.89c-0.614-0.723-1.934-1.053-2.862-0.678
		c-0.463,0.187-0.852,0.56-1.11,0.987c0.038,0.093,0.167,0.148,0.204,0.242c13.367,16.28,19.829,26.937,32.427,57.872
		C454.167,368.688,455.279,368.238,456.354,367.695z M492.307,361.377c-0.225-0.555-0.468-0.89-0.896-1.147
		c-7.052-4.381-15.534-8.289-22.623-12.221c-1.247-0.685-2.307-1.44-3.238-2.145c1.752,1.665,4.212,4.017,7.152,6.497
		c4.095,2.12,8.575,4.408,12.725,6.94c1.581,0.439,3.016,1.586,3.688,3.257c0.299,0.743,0.412,1.559,0.397,2.319
		c0.446,0.036,0.983,0.034,1.447-0.151C492.352,364.162,492.868,362.768,492.307,361.377z"/>
	<path fill="#8D5F09" stroke="#704900" stroke-width="3" d="M553.448,313.286c3.706,9.181,3.212,17.038-0.167,23.362
		c2.153,4.524,4.263,8.955,6.173,13.684c0.3,0.742,0.844,2.355-0.364,2.843c-0.834,0.337-2.013-2.316-2.424-3.336
		c-1.573-3.895-2.977-7.641-4.475-11.349c-3.731,5.713-9.773,9.985-16.913,12.869l-2.783,1.124
		c-29.766,12.019-55.2-2.625-63.325-22.748c-3.857-9.553-3.836-20.452,1.555-30.071c4.338-7.684,12.006-14.339,23.319-18.906
		c3.71-1.498,8.135-0.158,10.168,3.013c22.105-3.75,41.297,9.856,48.111,26.733L553.448,313.286z M495.169,283.539
		c-24.294,9.811-29.656,29.123-23.214,45.073c3.969,9.83,12.483,18.363,23.768,22.542c-9.372-4.519-16.344-12.165-19.864-20.882
		c-6.442-15.951-1.082-35.263,23.215-45.073c0.648-0.261,1.335-0.431,2.096-0.414C499.717,283.319,497.303,282.677,495.169,283.539z
		 M490.266,294.901c1.351-1.193,1.758-1.789,1.646-2.067c-0.225-0.556-0.707-0.684-1.171-0.496
		c-5.285,2.134-14.146,12.505-16.247,23.6c-0.035,0.445,0.02,0.854,0.172,1.225c0.149,0.37,0.316,0.518,0.502,0.443
		c0.185-0.075,0.334-0.242,0.462-0.726C478.495,306.882,481.412,302.359,490.266,294.901z M494.464,300.756
		c-10.056,9.022-11.713,19.072-8.344,27.418c5.393,13.354,23.714,22.134,41.89,14.794c10.292-4.156,17.024-13.129,11.782-26.11
		c-5.017-12.427-20.61-22.2-38.138-15.124l-1.018,0.412l-0.056,0.13C498.352,303.176,495.917,302.219,494.464,300.756z
		 M526.223,313.169c-2.135-5.285-9.563-11.667-20.878-7.1c-1.484,0.6-2.911,1.608-4.58,2.28c-0.926,0.375-1.483,0.061-1.672-0.403
		c-0.787-1.948,5.037-4.622,7.355-5.557c7.232-2.922,19.403-0.826,22.473,6.779c0.937,2.32,1.262,5.53-0.22,6.129
		C527.679,315.71,527.009,315.118,526.223,313.169z M506.328,288.202c0.073,0.186,0.057,0.408,0.131,0.594
		c8.126-1.772,15.965-1.054,22.809,1.468c-6.992-3.432-15.262-4.948-23.986-3.581C505.691,287.164,506.102,287.643,506.328,288.202z
		"/>
	<path fill="#8D5F09" stroke="#704900" stroke-width="3" d="M609.446,323.246c-0.277,0.112-1.13,0.133-1.54,0.189
		c-3.731,0.106-6.132-1.297-7.517-4.729c-0.15-0.371-0.246-0.873-0.395-1.243c-3.469-4.314-6.507-7.834-9.303-11.02
		c2.431,11.099,2.93,21.683-2.635,23.928c-4.543,1.835-9.63,2.056-14.355-0.027c-7.725,0.1-15.671-4.889-21.025-18.149
		c-2.62-6.492-4.562-15.307-6.111-23.417c-1.427,1.007-2.797,1.884-4.189,2.445c-0.836,0.337-1.614,0.544-2.432,0.658
		c1.496,3.171,2.862,6.288,4.173,9.532c0.3,0.744,0.843,2.357-0.362,2.842c-0.836,0.337-2.013-2.315-2.425-3.335
		c-1.198-2.968-2.173-5.917-3.279-8.921c-1.337-0.107-2.676-0.753-3.701-1.956c-3.414,1.161-6.776,0.58-8.762-4.335
		c-1.535-3.801-1.247-6.83,0.069-7.579c5.729-3.174,10.232-5.642,13.848-7.101c6.027-2.434,9.521-2.333,12.164-0.058
		c5.699-1.115,8.399,1.569,10.91,7.782c2.694,6.677,5.2,17.421,11.153,32.164c0.374,0.928,0.749,1.856,1.142,2.561
		c-0.188-6.612-5.346-21.787-7.119-30.99c-1.082-1.074-2.198-2.242-3.262-3.537c-0.242-0.333-0.485-0.667-0.635-1.039
		c-0.973-2.411,0.003-5.069,2.188-6.6c0.187-0.074,0.241-0.205,0.427-0.281c2.597-1.048,7.36,1.666,12.835,6.145
		c1.209,0.588,2.436,1.496,2.941,2.477c5.773,5.22,12.055,11.958,17.126,18.108c0.14-2.322,0.32-4.012,0.282-4.106
		c-0.567-15.302-3.718-35.921-8.904-49.035c-1.199-2.968,0.392-5.442,3.079-6.527c2.875-1.162,6.276-0.484,7.75,1.294
		c2.836-0.715,5.68-0.354,7.133,1.648c0.076,0.185,0.281,0.426,0.355,0.612l0.04,0.092c6.238,16.248,12.955,43.84,13.862,66.123
		c0.244,6.479,0.266,12.942-3.81,15.669c-0.429,0.281-0.853,0.559-1.315,0.746C614.507,325.625,611.161,324.82,609.446,323.246z
		 M526.631,280.004c0.224,0.555,0.855,0.517,1.874,0.104c3.432-1.386,9.897-6.477,9.56-7.31c-0.038-0.092-0.13-0.056-0.223-0.017
		c-1.578,0.636-11.324,6.944-11.324,6.944L526.631,280.004z M538.563,288.991c0.669,0.052,1.672-0.135,2.691-0.549
		c1.485-0.599,3.096-1.681,4.725-2.986c-0.17-1.224-0.434-2.413-0.698-3.602c-2.127,2.479-4.553,4.751-7.056,6.3L538.563,288.991z
		 M563.097,289.652c-1.293-4.006-2.288-7.272-3.299-9.775c-2.06-5.101-3.178-6.267-5.924-6.129c0.634,1.038,1.083,2.151,1.645,3.542
		c2.695,6.676,5.2,17.42,11.155,32.164c2.396,5.935,4.537,7.768,6.634,7.351c-0.84-1.278-1.605-2.91-2.355-4.766
		C567.357,303.14,564.955,295.59,563.097,289.652z M581.09,328.874c1.931-0.026,3.991-0.534,5.844-1.283
		c0.836-0.337,1.669-1.212,2.126-3.555c1.002-5.258-0.643-14.946-2.616-22.24c-1.697-1.794-3.3-3.629-4.995-5.424
		C585.337,310.009,587.97,325.879,581.09,328.874z M592.361,242.463l-0.094,0.037c-0.094,0.039-0.057,0.13-0.016,0.223
		c0.042,1.71,4.864,17.125,4.864,17.125c0.131,0.056,0.131,0.056,0.222,0.018c0.095-0.038,0.226,0.018,0.316-0.019l0.094-0.038
		c0.333-0.243,0.425-0.819,0.404-1.673c-0.1-2.117-1.639-6.996-3.136-10.704C594.303,245.67,592.917,242.238,592.361,242.463z
		 M616.72,321.495c1.673-0.674,2.353-1.92,2.886-4.077c0.55-2.379,0.556-5.833,0.397-9.435
		c-0.813-21.782-7.627-49.336-13.712-65.214c-0.262-0.65-2.009-0.7-3.494-0.639c6.086,16.416,12.322,42.801,13.117,64.268
		c0.221,6.165,0.225,12.312-3.24,15.219C613.641,321.877,615.331,322.057,616.72,321.495z"/>
	<path fill="#8D5F09" stroke="#704900" stroke-width="3" d="M728.819,245.496c-0.648,0.261-1.336,0.432-1.965,0.471
		c-2.657,0.101-5.588,0.316-8.783,0.958c6.015,5.013,11.399,10.065,15.797,14.544c0.538,0.538,0.895,1.15,1.155,1.799
		c1.124,2.782-0.257,6.036-3.041,7.159l-0.372,0.151c-0.159,2.006-1.473,3.83-3.42,4.617c-0.372,0.148-0.74,0.299-1.151,0.355
		c0.917,2.004,1.835,4.005,2.659,6.047c0.297,0.742,0.843,2.355-0.363,2.842c-0.837,0.338-2.014-2.314-2.425-3.335l-2.285-5.655
		c-0.966-0.258-1.728-0.813-2.436-1.498c-5.517-5.646-13.992-14.087-22.505-21.544c-1.577,0.637-3.282,1.219-4.952,1.893
		c-5.657,2.282-11.516,4.865-16.895,7.576c2.73,6.232,5.891,12.183,8.477,18.582c0.298,0.742,0.84,2.355-0.366,2.841
		c-0.833,0.338-2.014-2.314-2.424-3.335c-2.397-5.934-4.587-11.629-6.948-17.47c-0.516,0.317-0.98,0.503-1.5,0.822
		c2.197,7.309,8.83,19.73,1.41,22.726l-0.463,0.188c-0.252,2.043-1.193,3.719-3.326,4.579c-2.781,1.125-6.036-0.259-7.158-3.043
		c-1.5-3.709-2.904-7.457-4.051-11.091c-0.286,3.028-0.239,5.814-3.58,7.162c-2.78,1.123-6.035-0.26-7.157-3.042l-0.227-0.556
		c-2.994-7.417,0.662-13.855,7.162-19.393c-2.914-16.296-1.636-29.431,4.294-32.904c1.107-2.603,2.551-4.371,4.497-5.157
		c9.09-3.669,25.123,4.524,40.311,15.431c7.57-2.086,14.532-3.279,19.879-3.39c2.154-0.008,4.331,1.379,5.191,3.511
		C732.984,241.118,731.602,244.373,728.819,245.496z M659.179,239.966c-0.112-0.278-0.185-0.465-0.369-0.39
		c-1.115,0.45-0.81,14.024,0.687,17.734c0.265,0.648,0.821,0.963,0.912,0.925C660.41,258.235,660.304,242.747,659.179,239.966z
		 M703.118,239.266c-7.781-5.378-18.443-11.75-26.322-13.638c-3.961-0.991-7.062-0.923-9.196-0.064
		c-0.462,0.188-0.979,0.505-1.479,1.139c3.212-0.326,6.833,0.367,10.944,1.729c2.153-0.007,4.385,0.711,6.598,1.649
		c4.427,1.881,9.189,5.135,14.18,8.943c0.596,0.408,1.136,0.943,1.731,1.35C700.724,240.016,701.965,239.621,703.118,239.266z
		 M669.345,253.117c-1.018-4.658-1.829-9.076-1.659-12.921c-1.031,2.789-0.98,7.191,0.157,13.743
		C668.362,253.622,668.824,253.435,669.345,253.117z M672.301,271.121c1.105,3.544,3.035,8.051,3.623,11.912
		c1.056-0.857,1.236-2.01,0.802-4.423c-0.701-4.139-3.021-9.349-4.277-13.802c-0.615,0.354-1.132,0.672-1.745,1.027
		C671.156,267.486,671.681,269.323,672.301,271.121z M671.165,236.528c-0.751,3.216-0.512,8.081,0.942,15.151
		c5.378-2.711,10.997-5.088,15.91-7.071l1.39-0.563C681.944,238.647,675.266,235.196,671.165,236.528z M731.684,263.537
		c-4.733-4.776-10.751-10.327-17.36-15.748c-1.187,0.265-2.468,0.567-3.711,0.96c7.43,5.844,14.284,12.136,19.465,17.486
		c0.371,0.388,0.745,0.777,0.97,1.333c1.074-0.541,1.647-2.066,1.196-3.18C732.13,264.112,731.888,263.777,731.684,263.537z"/>
	<path fill="#8D5F09" stroke="#704900" stroke-width="3" d="M720.884,233.602c-1.206,0.487-2.652,0.64-4.048,0.124
		c-5.615-2.155-11.276-6.556-14.232-13.881c-6.291-15.58,5.177-29.916,21.128-36.356c24.386-9.846,42.033-2.735,48.623,13.585
		c4.906,12.148,1.812,25.585-13.862,31.912c-2.409,0.973-4.914,1.984-7.642,2.978c1.011,1.965,2.094,4.115,2.955,6.249
		c3.445,8.531,7.536,21.871,2.437,23.93c-3.8,1.535-7.745-0.217-9.408-3.535c-13.568-26.66-12.475-21.278-25.201-41.054
		c-0.207-0.24-0.396-0.705-0.509-0.981c-1.196-2.968,0.261-6.036,3.135-7.198c5.1-2.058,13.009,2.837,20.076,12.062
		c6.195-1.749,15.641-3.729,16.236-3.861c5.656-2.282,6.608-7.413,4.397-12.882c-4.492-11.129-18.553-17.638-35.62-11.826
		c2.469,5.582,5.271,10.921,7.593,16.671c0.301,0.742,0.846,2.354-0.363,2.841c-0.835,0.336-2.013-2.315-2.423-3.336
		c-2.136-5.285-4.14-10.515-6.236-15.709l-0.925,0.374c-13.818,5.579-15.565,11.138-13.355,16.61
		c2.171,5.379,8.13,10.521,10.077,15.345C724.99,228.817,724.037,232.328,720.884,233.602z M726.098,186.954
		c1.632-0.767,2.205-1.214,2.135-1.399c-0.115-0.279-1.489,0.062-2.971,0.66l-0.65,0.261c-13.83,6.34-23.214,16.493-19.603,30.24
		l0.373,0.927c0.6,1.484,1.512,2.409,1.977,2.221c0.37-0.149,0.48-0.947-0.01-2.691
		C703.591,203.591,712.563,193.498,726.098,186.954z"/>
	<path fill="#8D5F09" stroke="#704900" stroke-width="3" d="M823.169,200.067c-1.854,0.748-3.856,1.664-5.748,2.859
		c1.236,2.521,2.413,5.174,3.499,7.862c0.3,0.743,0.842,2.356-0.363,2.842c-0.834,0.337-2.014-2.315-2.426-3.335l-2.507-6.212
		c-8.264,5.71-14.862,14.737-11.644,22.712c0.3,0.742,0.748,1.316,1.159,1.797c2.727-0.453,5.733-1.559,8.515-2.682
		c9.736-3.932,18.772-12.003,25.795-16.78c2.188-1.53,3.112-2.443,5.615-3.454c2.782-1.123,5.738-0.483,7.75,1.293
		c3.579-1.015,7.431,0.774,8.778,4.113c1.384,3.43-0.476,7.633-3.832,9.205c-9.359,5.936-20,12.173-33.073,17.452
		c-8.253,3.331-16.717,4.809-23.08,1.876c-6.48-0.295-11.911-3.063-14.793-10.204c-3.148-7.789-0.479-15.338,2.586-21.104
		c-0.743-0.24-1.579-0.44-2.231-0.718c-7.669-0.569-15.093-4.797-18.238-12.587c-5.728-14.188,3.34-29.928,18.177-35.92
		c3.987-1.61,7.403-1.157,10.4,0.653c6.518-0.689,11.642,4.253,14.598,11.577c1.123,2.783-0.314,6.167-3.096,7.292
		c-2.321,0.937-4.939,0.052-6.451-1.817l-0.463,0.185c-2.782,1.125-6.038-0.256-7.16-3.039c-0.15-0.373-0.394-0.705-0.542-1.077
		c-7.136,4.5-11.048,12.443-8.203,19.489c0.788,1.948,1.89,3.338,3.246,4.298c2.619-0.195,5.644-0.985,8.891-2.295
		c6.674-2.694,8.118-3.926,12.295-5.611c3.151-1.273,6.325-1.152,8.024,1.181c3.266-0.995,6.313-0.393,7.622,2.854
		C827.39,195.559,825.951,198.945,823.169,200.067z M780.421,165.775c-4.915,1.984-11.207,9.377-11.04,19.665l0.036,0.094
		c0.3,0.74,0.636,1.037,1.007,0.888c0.556-0.225,1.11-1.526,1.088-2.381c-0.026-7.539,6.713-14.358,9.622-16.503
		c0.482-0.411,0.795-0.968,0.605-1.432C781.553,165.642,780.977,165.55,780.421,165.775z M792.988,170.191
		c-0.487-0.667-0.709-1.222-1.729-0.812c-9.368,3.782-15.371,13.217-12.04,21.47c1.161,2.874,3.135,4.558,5.626,5.385
		c-0.558-0.852-1.027-1.741-1.438-2.761C779.512,183.828,785.481,174.839,792.988,170.191z M797.104,225.261
		c0.86,2.133,2.479,3.205,4.433,3.495l-0.339-0.834c-1.759-4.359-1.123-8.929,0.72-12.91c2.229-4.891,6.987-9.938,12.678-13.745
		l-0.676-1.67C803.593,204.736,793.246,215.708,797.104,225.261z M805.133,169.818c0.673,1.669,0.439,3.49-0.391,4.904
		c0.597,0.945,2.027,1.554,3.143,1.104c1.202-0.485,1.922-2.177,1.437-3.384c-1.948-4.821-4.632-8.268-7.999-9.389
		C802.832,164.922,804.085,167.222,805.133,169.818z M850.882,218.752c-9.359,5.936-19.996,12.173-33.072,17.452
		c-1.58,0.636-3.19,1.18-4.806,1.724c3.36-0.494,6.94-1.508,10.559-2.968c12.887-5.204,23.381-11.274,32.646-17.173
		c0.092-0.036,0.241-0.204,0.334-0.242c2-0.916,3.016-3.481,2.267-5.336c-0.637-1.578-2.256-2.648-4.058-2.57
		C856.044,213.109,854.236,217.183,850.882,218.752z M819.673,192.743c0.212,2.395-1.098,4.759-3.416,5.694
		c-0.278,0.113-0.428,0.281-0.703,0.391l0.561,1.391c1.893-1.193,3.896-2.11,5.933-2.934c1.207-0.485,1.925-2.179,1.439-3.383
		C822.772,192.14,821.417,192.254,819.673,192.743z"/>
	<path fill="#8D5F09" stroke="#704900" stroke-width="3" d="M822.428,155.502c11.775-4.756,33.146-0.44,37.052,1.216
		c0.242-5.274,1.106-7.673,2.128-8.086c0.928-0.374,1.953,0.829,2.777,2.87c1.234,3.06,3.625,12.987-0.64,14.712
		c0,0-9.538-3.592-18.7-5.177c-2.024,0.062-3.974,0.31-5.365,0.87c-2.967,1.199-4.48,3.32-3.022,6.937
		c2.434,6.027,7.643,8.779,14.017,9.873c9.491,0.267,20.277-1.07,28.858,0.426c9.846,0.34,18.396,2.28,21.838,10.811
		c3.671,9.088-6.236,17.942-19.59,23.333c-10.572,4.269-23.396,6.427-33.433,4.547c-2.152,0.008-4.197-0.247-6.146-0.538
		c1.607,3.449,3.215,6.898,4.637,10.423c0.301,0.742,0.844,2.356-0.361,2.842c-0.835,0.337-2.015-2.314-2.424-3.334
		c-1.385-3.43-2.679-6.899-4.027-10.239c-6.838-1.446-12.31-4.844-14.669-10.686c-1.124-2.782,0.257-6.035,3.041-7.16
		c0,0,34.603,7.168,47.492,1.964c3.987-1.61,5.966-4.457,4.093-9.095c-1.123-2.781-3.782-4.296-7.312-5.028
		c-9.102-0.1-20.704,1.349-30.493-0.198c-11.275-0.408-21.794-2.955-26.101-13.621C813.045,165.654,815.842,158.16,822.428,155.502z
		 M824.529,156.701c-6.306,2.548-8.709,6.213-6.463,11.777c0.338,0.835,2.377,5.081,3.117,4.782
		c0.557-0.224,0.313-1.097-0.061-2.024c-0.261-0.648-0.654-1.353-0.803-1.724c-3.109-7.697,0.618-9.418,3.733-10.785l0.279-0.112
		c1.112-0.45,0.779-0.208,2.448-0.88c0.463-0.188,0.611-0.356,0.537-0.542c-0.375-0.926-0.745-1.317-2.602-0.567L824.529,156.701z
		 M836.261,160.377c-1.579,0.097-2.991,0.343-4.105,0.794c-2.966,1.197-4.441,3.412-2.985,7.03c1.91,4.729,5.468,7.392,9.929,8.824
		c-2.106-1.737-4.024-4.09-5.225-7.059C832.417,166.351,833.222,162.467,836.261,160.377z M893.848,189.217
		c3.668,9.088-6.199,18.034-19.555,23.426l-1.02,0.412c2.523-0.697,7.291-2.513,7.385-2.553c7.881-3.181,14.98-7.773,17.506-12.999
		c1.127-2.289,1.285-4.294,0.427-6.427c-1.648-4.081-4.534-6.151-8.733-7.475C891.531,185.084,892.875,186.805,893.848,189.217z"/>
	<path fill="#8D5F09" stroke="#704900" stroke-width="3" d="M913.827,212.534c-1.484,0.598-2.413,0.435-2.989-0.193
		c-0.906,1.228-2.574,2.44-2.574,2.44c-2.041,0.823-3.025,0.251-3.55-1.047c-0.975-2.41,2.7-9.61,1.426-12.762
		c-0.975-2.411-6.23-2.877-7.991-7.235c-0.899-2.226,0.311-7.783,6.337-10.216c0.835-0.337,1.708-0.581,2.655-0.639
		c0.814-0.652,1.797-1.159,2.91-1.606c4.082-1.647,9.562-0.087,11.401,4.457C925.006,194.54,917.722,210.962,913.827,212.534z
		 M915.883,187.977c2.098,5.192,0.395,12.998-2.091,18.855c-0.241,0.743-0.404,1.672-0.552,2.378
		c0.237-0.205,0.406-0.595,0.704-0.931c2.679-3.778,4.996-10.323,5.39-15.228c0.195-2.451-0.031-4.624-0.667-6.2
		c-1.089-2.689-4.248-3.57-6.714-3.005C913.683,184.661,915.097,186.03,915.883,187.977z"/>
	<path fill="#8D5F09" stroke="#704900" stroke-width="3" d="M382.065,541.341c-1.112,0.45-2.283,0.488-3.473,0.216
		c-0.665,1.022-1.536,1.806-2.648,2.255c-1.019,0.411-2.151,0.548-3.211,0.326l-2.024,0.062l-0.555,0.226
		c-9.181,3.706-16.702,9.116-22.983,13.596c0.448,1.112,1.028,2.28,1.478,3.394c0.299,0.741,0.843,2.356-0.363,2.844
		c-0.835,0.336-2.012-2.318-2.424-3.337l-0.6-1.484c-3.427,2.463-9.138,5.415-9.138,5.415c-2.782,1.122-6.034-0.258-7.16-3.042
		l-0.224-0.556c-1.385-3.432-0.412-6.629,2.161-9.609c-0.282-0.427-0.561-0.852-0.749-1.316l-3.331-8.253
		c-2.622-6.491-4.814-12.186-6.836-17.192c-5.503-13.633-9.804-22.68-17.896-32.57c-0.374-0.39-0.599-0.944-0.822-1.5
		c-1.124-2.784,0.259-6.038,3.042-7.16c1.113-0.451,2.375-0.527,3.473-0.216c0.573-0.984,1.536-1.807,2.649-2.256
		c2.317-0.936,4.9-0.146,6.334,1.54c13.37,16.279,19.792,26.844,32.315,57.593l3.709-1.497c4.081-1.648,6.065-2.341,7.809-2.83
		c-6.405-5.18-11.996-10.472-14.583-12.876c-0.334-0.296-0.577-0.632-0.727-1.003c-0.638-1.575,0.026-3.139,1.603-3.772
		c2.133-0.861,3.271,0.618,4.704,1.767c-0.074-0.186-0.243-0.335-0.315-0.521c-0.564-1.39,0.247-3.119,1.733-3.719
		c1.018-0.41,2.45-0.342,3.102,0.473c3.799,3.534,16.743,8.879,26.827,15.16c0.985,0.572,1.675,1.479,2.125,2.591
		C386.192,536.869,384.847,540.218,382.065,541.341z M316.905,514.048c0.88,1.909,1.995,2.537,2.83,2.2
		c0.834-0.336,1.257-1.696,0.507-3.547l-0.112-0.28c-5.05-11.44-7.383-14.812-10.648-19.427c-1.082-1.611-2.254-2.108-2.904-1.848
		c-0.555,0.227-0.665,1.024-0.177,2.229c0.188,0.465,0.374,0.929,0.692,1.447C310.228,499.381,311.965,502.884,316.905,514.048z
		 M346.336,541.527c-12.802-30.635-18.759-40.849-31.923-56.888c-0.614-0.724-1.934-1.054-2.86-0.678
		c-0.465,0.187-0.854,0.559-1.112,0.986c0.038,0.094,0.168,0.148,0.206,0.24c13.367,16.281,19.828,26.938,32.427,57.873
		C344.147,542.522,345.261,542.073,346.336,541.527z M382.287,535.211c-0.225-0.556-0.467-0.892-0.895-1.149
		c-7.052-4.378-15.533-8.287-22.622-12.22c-1.246-0.682-2.308-1.44-3.238-2.143c1.751,1.663,4.211,4.016,7.151,6.494
		c4.094,2.123,8.576,4.41,12.726,6.942c1.579,0.439,3.014,1.586,3.687,3.256c0.3,0.741,0.414,1.558,0.398,2.319
		c0.444,0.035,0.984,0.034,1.447-0.152C382.333,537.997,382.848,536.601,382.287,535.211z"/>
	<path fill="#8D5F09" stroke="#704900" stroke-width="3" d="M411.423,495.729c-1.856,0.749-3.857,1.664-5.748,2.859
		c1.234,2.523,2.412,5.175,3.498,7.865c0.3,0.742,0.843,2.354-0.362,2.842c-0.836,0.337-2.016-2.315-2.427-3.335l-2.507-6.213
		c-8.265,5.71-14.866,14.737-11.646,22.712c0.3,0.741,0.749,1.314,1.158,1.798c2.73-0.456,5.735-1.56,8.517-2.683
		c9.735-3.93,18.773-12.004,25.795-16.78c2.186-1.528,3.113-2.441,5.616-3.452c2.78-1.124,5.737-0.483,7.747,1.295
		c3.582-1.015,7.431,0.772,8.778,4.112c1.386,3.432-0.477,7.633-3.833,9.205c-9.358,5.936-19.997,12.173-33.073,17.45
		c-8.252,3.336-16.718,4.81-23.077,1.879c-6.483-0.296-11.915-3.063-14.797-10.203c-3.146-7.789-0.478-15.339,2.587-21.104
		c-0.743-0.239-1.579-0.441-2.231-0.719c-7.671-0.566-15.093-4.795-18.241-12.586c-5.727-14.188,3.339-29.93,18.177-35.921
		c3.989-1.609,7.405-1.155,10.402,0.656c6.515-0.692,11.639,4.25,14.595,11.578c1.125,2.781-0.314,6.165-3.095,7.288
		c-2.32,0.937-4.94,0.055-6.451-1.816l-0.463,0.187c-2.781,1.124-6.038-0.259-7.159-3.041c-0.15-0.37-0.392-0.705-0.542-1.076
		c-7.134,4.499-11.047,12.442-8.2,19.489c0.786,1.947,1.886,3.338,3.245,4.297c2.617-0.19,5.643-0.984,8.887-2.293
		c6.677-2.696,8.123-3.927,12.294-5.611c3.153-1.273,6.33-1.153,8.028,1.181c3.266-0.995,6.313-0.394,7.623,2.854
		C415.642,491.222,414.205,494.606,411.423,495.729z M368.673,461.438c-4.915,1.982-11.205,9.378-11.042,19.665l0.039,0.093
		c0.299,0.744,0.635,1.037,1.005,0.889c0.556-0.226,1.109-1.525,1.089-2.381c-0.024-7.539,6.712-14.358,9.622-16.504
		c0.482-0.41,0.794-0.967,0.609-1.43C369.805,461.305,369.229,461.214,368.673,461.438z M381.24,465.854
		c-0.485-0.666-0.709-1.222-1.729-0.812c-9.367,3.783-15.372,13.217-12.039,21.47c1.161,2.875,3.134,4.558,5.626,5.386
		c-0.56-0.853-1.026-1.742-1.439-2.763C367.766,479.491,373.735,470.503,381.24,465.854z M385.356,520.921
		c0.86,2.132,2.48,3.206,4.433,3.493l-0.337-0.832c-1.76-4.361-1.126-8.931,0.719-12.91c2.231-4.891,6.988-9.938,12.677-13.747
		l-0.673-1.666C391.845,500.399,381.5,511.37,385.356,520.921z M393.385,465.48c0.673,1.667,0.439,3.49-0.392,4.904
		c0.597,0.947,2.03,1.554,3.143,1.104c1.205-0.486,1.925-2.178,1.436-3.386c-1.946-4.821-4.631-8.267-7.997-9.39
		C391.084,460.585,392.337,462.885,393.385,465.48z M439.134,514.414c-9.358,5.936-19.997,12.175-33.072,17.453
		c-1.577,0.636-3.191,1.179-4.806,1.724c3.362-0.495,6.942-1.508,10.559-2.969c12.889-5.203,23.38-11.274,32.646-17.173
		c0.092-0.036,0.24-0.205,0.332-0.243c2.004-0.915,3.017-3.481,2.268-5.337c-0.636-1.575-2.255-2.647-4.057-2.567
		C444.298,508.771,442.49,512.845,439.134,514.414z M407.925,488.405c0.211,2.394-1.098,4.759-3.417,5.694
		c-0.277,0.114-0.425,0.279-0.704,0.391l0.562,1.392c1.891-1.194,3.893-2.111,5.932-2.935c1.208-0.488,1.923-2.181,1.438-3.387
		C411.024,487.801,409.669,487.916,407.925,488.405z"/>
	<path fill="#8D5F09" stroke="#704900" stroke-width="3" d="M392.952,470.831c-0.86-2.132-0.255-4.639,1.208-6.093
		c18.457-17.592,34.602-33.169,72.266-49.133l0.093-0.035c2.41-0.977,5.104-0.444,7.134,1.108l1.948-0.787
		c3.616-1.459,7.912,0.365,9.374,3.982c1.459,3.617-0.401,7.82-3.889,9.335c-14.819,6.307-26.351,11.934-36.007,17.667
		c1.682,3.634,3.365,7.269,4.899,11.069c0.3,0.744,0.845,2.357-0.361,2.843c-0.835,0.34-2.014-2.316-2.425-3.335
		c-1.311-3.244-2.398-6.475-3.578-9.665c-1.928,1.104-3.725,2.261-5.523,3.419c3.895,9.645,7.878,18.174,11.472,27.076
		c2.995,7.417,5.713,14.948,7.856,23.468c0.715,2.838-0.796,6.037-3.578,7.161c-3.062,1.233-6.705-0.312-7.941-3.374
		c-6.59-16.32-10.537-30.905-17.129-47.764c-6.261,4.793-11.946,9.677-17.686,15.229c0.97,1.334,1.717,2.651,2.166,3.764
		c1.085,2.691,0.701,4.679-0.873,5.315c-2.411,0.976-7.822-0.941-15.735-7.991C394.969,473.686,393.627,472.501,392.952,470.831z
		 M427.703,454.858c-0.281-0.964-0.285-2.042-0.028-3.008c-7.727,5.169-14.339,10.427-20.819,16.28
		c0.874,0.831,1.567,1.741,2.31,2.517C415.182,464.985,421.07,459.802,427.703,454.858z M420.649,444.335
		c-0.555,0.225-1.076,0.542-1.5,0.823c-1.722,1.343-4.336,3.689-6.815,6.094c-0.888,1.007-4.574,3.896-4.05,5.194
		c0.037,0.094,0.167,0.148,0.205,0.24l0.092-0.037c0.836-0.337,8.799-6.788,12.352-10.273c1.168-1.116,1.816-1.917,1.648-2.066
		C422.208,443.921,421.388,444.034,420.649,444.335z M436.868,475.425c0.788,1.947,1.742,4.043,2.854,3.594
		c0.278-0.112-2.876-10.595-4.823-15.417c-0.6-1.483-1.066-2.374-1.251-2.3c-0.928,0.376-0.902,2.307-0.547,3.457
		c0.601,2.021,1.708,5.563,2.98,8.719L436.868,475.425z M436.263,448.814c1.946-1.325,4.114-2.631,6.283-3.939l-0.636-1.575
		c-2.723,1.531-5.395,2.933-7.896,4.482C434.849,447.984,435.63,448.314,436.263,448.814z M443.77,444.166
		c9.75-5.769,21.467-11.473,36.191-17.74c2.04-0.823,3.054-3.389,2.232-5.431c-0.825-2.04-3.428-3.146-5.467-2.323l-1.02,0.412
		l0.186,0.465c1.46,3.617-0.401,7.82-3.888,9.335c-11.33,4.791-20.712,9.335-28.87,13.706L443.77,444.166z"/>
	<path fill="#8D5F09" stroke="#704900" stroke-width="3" d="M475.732,417.569c-0.374-0.927-0.533-1.673-0.473-2.236
		c0.06-0.562,0.017-1.03-0.133-1.399c0.429-1.253,0.791-2.494,1.083-3.727c0.294-1.233,0.679-2.415,1.159-3.542
		c0.392-1.524,0.768-3.042,1.127-4.553c0.361-1.511,0.787-2.905,1.277-4.185c0.431-0.173,0.863-0.4,1.288-0.681
		c0.426-0.281,0.726-0.74,0.896-1.389c0.495-0.199,0.909-0.51,1.24-0.933c0.333-0.42,0.778-0.746,1.334-0.969
		c0.741-0.298,1.311-0.133,1.71,0.496c0.398,0.632,0.695,1.193,0.896,1.686l0.638,1.579l0.711,1.761
		c0.35,0.867,0.538,1.599,0.564,2.198c0.027,0.603-0.051,1.209-0.235,1.823c-0.185,0.612-0.446,1.259-0.783,1.931
		c-0.339,0.678-0.729,1.537-1.172,2.578c-0.517,1.215-0.898,2.358-1.146,3.43c-0.253,1.072-0.634,2.216-1.15,3.431
		c-0.258,0.608-0.368,1.138-0.33,1.588c0.037,0.452-0.026,1.001-0.199,1.645c-0.133,0.916-0.324,1.692-0.566,2.333
		c-0.248,0.638-0.468,1.25-0.662,1.831c-0.196,0.582-0.367,1.226-0.514,1.934c-0.146,0.706-0.212,1.523-0.197,2.451
		c-0.024,0.299-0.056,0.707-0.099,1.226c-0.042,0.521-0.112,1.054-0.217,1.598c-0.103,0.546-0.264,1.041-0.477,1.489
		c-0.215,0.446-0.541,0.757-0.973,0.933c-0.803,0.324-1.614,0.364-2.431,0.117c-0.819-0.243-1.415-0.83-1.79-1.758
		c-0.199-0.493-0.226-1.004-0.079-1.531c0.146-0.527,0.219-1.328,0.215-2.405c-0.201-0.495-0.246-1.143-0.137-1.941
		c0.108-0.798,0.229-1.476,0.364-2.034c-0.424-1.05-0.572-1.907-0.445-2.57C476.154,419.107,476.056,418.371,475.732,417.569z"/>
	<path fill="#8D5F09" stroke="#704900" stroke-width="3" d="M491.63,418.479c11.776-4.754,33.147-0.44,37.052,1.219
		c0.243-5.276,1.108-7.675,2.128-8.086c0.927-0.376,1.952,0.828,2.776,2.868c1.236,3.061,3.625,12.989-0.64,14.71
		c0,0-9.537-3.589-18.698-5.175c-2.024,0.062-3.974,0.31-5.366,0.871c-2.967,1.199-4.482,3.319-3.022,6.937
		c2.434,6.027,7.645,8.777,14.016,9.871c9.491,0.267,20.276-1.068,28.861,0.428c9.842,0.339,18.392,2.28,21.836,10.812
		c3.669,9.088-6.236,17.939-19.589,23.333c-10.573,4.268-23.398,6.428-33.433,4.547c-2.153,0.007-4.197-0.248-6.147-0.538
		c1.607,3.446,3.216,6.896,4.638,10.422c0.3,0.74,0.842,2.354-0.363,2.842c-0.835,0.337-2.013-2.314-2.425-3.336
		c-1.385-3.43-2.677-6.897-4.025-10.237c-6.839-1.444-12.312-4.846-14.67-10.687c-1.125-2.78,0.259-6.035,3.042-7.16
		c0,0,34.602,7.169,47.491,1.965c3.987-1.61,5.965-4.458,4.093-9.095c-1.124-2.782-3.782-4.299-7.314-5.026
		c-9.101-0.104-20.703,1.346-30.494-0.2c-11.273-0.408-21.792-2.958-26.099-13.623C482.248,428.632,485.045,421.137,491.63,418.479z
		 M493.733,419.681c-6.308,2.545-8.71,6.21-6.462,11.774c0.336,0.836,2.376,5.082,3.117,4.781c0.557-0.224,0.313-1.097-0.062-2.023
		c-0.262-0.649-0.656-1.352-0.805-1.723c-3.108-7.698,0.62-9.419,3.735-10.784l0.279-0.114c1.113-0.447,0.779-0.205,2.448-0.88
		c0.464-0.187,0.612-0.355,0.538-0.54c-0.375-0.927-0.748-1.316-2.601-0.568L493.733,419.681z M505.461,423.355
		c-1.577,0.097-2.99,0.342-4.102,0.792c-2.965,1.198-4.444,3.415-2.984,7.029c1.909,4.732,5.466,7.393,9.927,8.827
		c-2.104-1.739-4.024-4.092-5.223-7.059C501.619,429.33,502.423,425.444,505.461,423.355z M563.05,452.193
		c3.669,9.09-6.201,18.034-19.554,23.428l-1.021,0.411c2.526-0.697,7.293-2.512,7.385-2.55c7.881-3.185,14.98-7.775,17.507-13.001
		c1.125-2.289,1.285-4.295,0.425-6.428c-1.646-4.081-4.533-6.149-8.734-7.475C560.734,448.062,562.077,449.783,563.05,452.193z"/>
	<g>
		<path fill="#333333" stroke="#333333" stroke-width="3" d="M589.444,416.085c-1.205,0.486-2.652,0.64-4.047,0.125
			c-5.617-2.155-11.276-6.556-14.233-13.883c-6.29-15.58,5.179-29.916,21.127-36.354c24.388-9.85,42.035-2.736,48.626,13.583
			c4.903,12.149,1.81,25.586-13.862,31.914c-2.41,0.974-4.916,1.983-7.642,2.977c1.011,1.966,2.095,4.114,2.954,6.25
			c3.445,8.53,7.537,21.872,2.436,23.93c-3.802,1.535-7.743-0.217-9.408-3.534c-13.568-26.66-12.474-21.279-25.204-41.053
			c-0.205-0.241-0.393-0.706-0.505-0.983c-1.197-2.97,0.259-6.034,3.133-7.196c5.099-2.06,13.01,2.836,20.076,12.062
			c6.197-1.747,15.643-3.727,16.238-3.861c5.656-2.282,6.606-7.412,4.396-12.883c-4.492-11.125-18.553-17.638-35.621-11.823
			c2.471,5.579,5.273,10.919,7.593,16.669c0.302,0.743,0.844,2.356-0.362,2.842c-0.834,0.338-2.012-2.314-2.424-3.334
			c-2.137-5.285-4.139-10.517-6.236-15.709l-0.928,0.373c-13.815,5.579-15.562,11.136-13.353,16.608
			c2.171,5.378,8.131,10.522,10.078,15.345C593.551,411.299,592.598,414.812,589.444,416.085z M594.659,369.437
			c1.633-0.767,2.206-1.215,2.131-1.4c-0.112-0.276-1.486,0.062-2.97,0.66l-0.649,0.26c-13.833,6.343-23.214,16.492-19.604,30.242
			l0.375,0.927c0.6,1.485,1.512,2.409,1.975,2.222c0.371-0.151,0.481-0.95-0.008-2.692
			C572.15,386.074,581.125,375.98,594.659,369.437z"/>
		<path fill="#333333" stroke="#333333" stroke-width="3" d="M723.736,373.94c3.708,9.18,3.213,17.036-0.166,23.363
			c2.151,4.523,4.265,8.955,6.173,13.686c0.299,0.742,0.843,2.354-0.363,2.841c-0.833,0.338-2.013-2.315-2.425-3.334
			c-1.571-3.896-2.979-7.643-4.475-11.353c-3.732,5.712-9.771,9.985-16.913,12.869l-2.781,1.124
			c-29.768,12.019-55.202-2.627-63.326-22.75c-3.856-9.55-3.837-20.451,1.555-30.068c4.338-7.686,12.007-14.34,23.32-18.908
			c3.707-1.497,8.135-0.156,10.167,3.014c22.105-3.75,41.298,9.857,48.111,26.735L723.736,373.94z M665.458,344.195
			c-24.295,9.81-29.655,29.121-23.214,45.073c3.971,9.829,12.482,18.361,23.768,22.542c-9.374-4.521-16.342-12.167-19.866-20.883
			c-6.438-15.951-1.077-35.264,23.216-45.073c0.649-0.262,1.338-0.432,2.098-0.415C670.007,343.975,667.592,343.331,665.458,344.195
			z M660.556,355.559c1.351-1.194,1.756-1.789,1.646-2.067c-0.227-0.557-0.709-0.687-1.172-0.499
			c-5.283,2.136-14.145,12.508-16.246,23.601c-0.038,0.445,0.021,0.854,0.17,1.227c0.149,0.37,0.316,0.518,0.504,0.443
			c0.185-0.076,0.332-0.243,0.462-0.726C648.783,367.536,651.702,363.014,660.556,355.559z M664.75,361.41
			c-10.053,9.021-11.71,19.073-8.339,27.42c5.392,13.354,23.711,22.133,41.887,14.796c10.293-4.156,17.025-13.131,11.783-26.111
			c-5.018-12.427-20.613-22.201-38.136-15.124l-1.022,0.413l-0.055,0.129C668.641,363.83,666.207,362.873,664.75,361.41z
			 M696.514,373.825c-2.135-5.285-9.564-11.666-20.88-7.102c-1.483,0.601-2.91,1.607-4.581,2.282
			c-0.925,0.374-1.483,0.061-1.671-0.402c-0.788-1.947,5.037-4.624,7.356-5.56c7.23-2.922,19.404-0.823,22.475,6.781
			c0.934,2.317,1.26,5.527-0.224,6.129C697.97,376.365,697.298,375.772,696.514,373.825z M676.615,348.854
			c0.076,0.187,0.058,0.411,0.131,0.595c8.128-1.771,15.969-1.055,22.809,1.468c-6.991-3.431-15.261-4.946-23.985-3.581
			C675.98,347.817,676.392,348.3,676.615,348.854z"/>
		<path fill="#333333" stroke="#333333" stroke-width="3" d="M717.963,364.193c-1.208,0.486-2.655,0.641-4.05,0.126
			c-5.613-2.156-11.275-6.558-14.232-13.882c-6.289-15.581,5.179-29.916,21.127-36.357c24.388-9.847,42.035-2.736,48.625,13.585
			c4.906,12.146,1.81,25.585-13.861,31.912c-2.411,0.974-4.916,1.985-7.642,2.978c1.01,1.967,2.094,4.117,2.954,6.249
			c3.444,8.53,7.537,21.871,2.438,23.931c-3.801,1.535-7.746-0.217-9.41-3.535c-13.568-26.661-12.475-21.278-25.203-41.056
			c-0.205-0.239-0.392-0.704-0.505-0.979c-1.197-2.97,0.259-6.035,3.133-7.198c5.101-2.058,13.012,2.837,20.077,12.062
			c6.197-1.746,15.642-3.729,16.238-3.859c5.654-2.284,6.604-7.412,4.395-12.883c-4.493-11.127-18.554-17.639-35.619-11.825
			c2.47,5.582,5.271,10.918,7.595,16.67c0.298,0.741,0.842,2.355-0.363,2.843c-0.836,0.337-2.014-2.316-2.427-3.336
			c-2.132-5.285-4.136-10.516-6.233-15.709l-0.926,0.375c-13.817,5.578-15.566,11.138-13.356,16.61
			c2.173,5.379,8.132,10.521,10.08,15.345C722.07,359.407,721.114,362.921,717.963,364.193z M723.178,317.545
			c1.633-0.766,2.206-1.214,2.131-1.399c-0.111-0.277-1.484,0.061-2.966,0.659l-0.648,0.262
			c-13.835,6.34-23.217,16.493-19.609,30.242l0.374,0.927c0.602,1.483,1.513,2.407,1.978,2.222c0.373-0.15,0.481-0.948-0.009-2.691
			C700.669,334.184,709.644,324.09,723.178,317.545z"/>
		<path fill="#333333" stroke="#333333" stroke-width="3" d="M813.432,313.784c-3.618,1.459-7.312,1.657-9.034-2.608
			c-1.199-2.967-0.778-5.4,0.538-6.149c10.77-5.643,15.46-8.184,21.739-13.2c0.096-0.036,0.147-0.167,0.241-0.203
			c1.02-0.412,2.269,0.811,2.979,2.571c0.788,1.948-0.449,5.034-2.814,8.255c3.773,1.064,7.844,7.941,11.513,17.029
			c3.781,9.365,6.354,18.142,8.016,25.991c3.525-0.346,6.575,0.798,8.298,5.061c1.724,4.267,1.158,7.945-0.808,8.955
			c-1.411,0.785-2.854,1.476-4.172,2.225c1.181,2.65,2.45,5.264,3.575,8.048c0.299,0.742,0.843,2.354-0.363,2.841
			c-0.834,0.336-2.014-2.314-2.424-3.334c-0.713-1.763-1.386-3.43-1.967-5.139c-0.345,3.159-1.507,5.354-3.733,6.25
			c-2.874,1.162-5.736-0.054-7.378-1.98c-5.598,3.23-9.916,6.162-14.99,10.151c-0.094,0.039-0.335,0.241-0.427,0.279
			c-1.483,0.6-3.273-1.158-4.319-3.755c-1.727-4.264,3.173-12.175,10.076-18.844c-4.255-18.558-6.446-23.712-12.914-43.21
			C814.544,313.334,813.986,313.559,813.432,313.784z M817.866,312.747c-0.742,0.3,5.404,17.124,5.404,17.124
			c0.129,0.056,0.354,0.073,0.535,0c1.579-0.638-0.199-5.311-1.438-8.372l-0.373-0.925
			C820.423,316.676,818.424,312.521,817.866,312.747z M841.841,346.745c0.647-0.261,1.297-0.525,1.892-0.655
			c-1.624-7.755-4.213-16.31-7.921-25.49c-2.246-5.565-4.526-10.145-6.688-12.829c-0.973-1.334-1.939-2.129-2.719-2.461
			c1.829,2.927,3.548,6.655,5.271,10.921c4.603,11.406,7.312,21.853,8.957,31.002L841.841,346.745z M845.758,363.931
			c-1.964,1.011-3.708,2.037-5.394,2.935c0.876,0.832,2.232,1.254,3.53,0.731C845.284,367.034,845.595,365.398,845.758,363.931z"/>
		<path fill="#333333" stroke="#333333" stroke-width="3" d="M818.19,299.135c-0.86-2.132-0.255-4.643,1.206-6.094
			c18.456-17.592,34.604-33.17,72.269-49.132l0.092-0.038c2.41-0.973,5.105-0.442,7.135,1.11l1.948-0.787
			c3.616-1.46,7.913,0.364,9.37,3.981c1.463,3.617-0.397,7.819-3.886,9.335c-14.817,6.307-26.35,11.934-36.006,17.666
			c1.682,3.634,3.364,7.271,4.899,11.071c0.301,0.741,0.844,2.356-0.361,2.842c-0.837,0.338-2.015-2.315-2.426-3.334
			c-1.31-3.247-2.396-6.475-3.576-9.665c-1.929,1.103-3.728,2.26-5.523,3.418c3.894,9.643,7.878,18.173,11.472,27.076
			c2.996,7.419,5.713,14.949,7.859,23.466c0.713,2.839-0.799,6.039-3.582,7.161c-3.06,1.236-6.704-0.312-7.939-3.373
			c-6.592-16.322-10.536-30.903-17.131-47.764c-6.26,4.796-11.945,9.678-17.686,15.23c0.969,1.333,1.716,2.649,2.167,3.763
			c1.084,2.689,0.702,4.679-0.873,5.314c-2.413,0.975-7.822-0.938-15.738-7.989C820.205,301.988,818.865,300.803,818.19,299.135z
			 M852.941,283.161c-0.283-0.963-0.286-2.042-0.029-3.008c-7.728,5.169-14.34,10.427-20.822,16.279
			c0.875,0.834,1.566,1.742,2.312,2.519C840.422,293.286,846.308,288.105,852.941,283.161z M845.887,272.638
			c-0.557,0.225-1.076,0.542-1.502,0.822c-1.722,1.342-4.336,3.69-6.814,6.094c-0.888,1.006-4.574,3.897-4.05,5.195
			c0.037,0.093,0.168,0.149,0.204,0.242l0.094-0.039c0.835-0.336,8.8-6.788,12.354-10.272c1.166-1.118,1.812-1.92,1.645-2.068
			C847.445,272.225,846.629,272.339,845.887,272.638z M862.105,303.728c0.79,1.948,1.741,4.043,2.856,3.593
			c0.276-0.112-2.878-10.593-4.823-15.416c-0.601-1.483-1.065-2.375-1.253-2.299c-0.928,0.374-0.902,2.306-0.545,3.456
			c0.598,2.022,1.706,5.565,2.979,8.719L862.105,303.728z M861.5,277.119c1.946-1.325,4.115-2.633,6.283-3.94l-0.637-1.576
			c-2.723,1.532-5.396,2.935-7.895,4.481C860.086,276.287,860.867,276.618,861.5,277.119z M869.008,272.47
			c9.749-5.769,21.466-11.472,36.19-17.741c2.041-0.825,3.057-3.389,2.233-5.431c-0.824-2.04-3.43-3.145-5.47-2.32l-1.019,0.413
			l0.187,0.463c1.462,3.616-0.402,7.819-3.887,9.334c-11.334,4.791-20.715,9.335-28.871,13.707L869.008,272.47z"/>
		<path fill="#333333" stroke="#333333" stroke-width="3" d="M925.52,270.359c-1.195-2.968,0.223-6.129,3.099-7.291
			c13.816-5.578,19.038,35.13,39.901,26.706c2.503-1.012,4.598-3.042,6.612-5.259c-1.592-4.75-2.927-9.388-3.002-9.574
			c-1.61-3.987-2.901-7.457-4.172-10.61c-2.397-5.933-4.792-10.792-9.807-16.534c-0.241-0.332-0.446-0.574-0.559-0.852
			c-1.013-2.504,1.783-5.467,2.987-5.952c1.855-0.75,4.348,0.077,6.935,1.945c0.241-0.204,0.428-0.281,0.612-0.354
			c7.327-2.958,22.733,18.107,29.023,33.687c0.971,2.41,1.687,4.711,2.194,6.771c1.811,7.682,5.637,14.763-1.018,18.313
			c-0.276,0.112-0.518,0.316-0.795,0.43c-3.431,1.385-6.015,0.594-8.101-1.367c-0.372,0.15-0.742,0.3-1.149,0.357
			c0.689,1.446,1.291,2.931,1.888,4.414c0.3,0.741,0.846,2.355-0.361,2.841c-0.835,0.338-2.014-2.313-2.426-3.333
			c-0.523-1.299-0.952-2.635-1.439-3.841c-3.513-0.417-5.994-3.621-7.847-7.941c-4.388,3.821-9.611,7.439-14.343,9.35
			c-21.884,8.836-25.273-11.581-37.76-31.022C925.783,271.006,925.633,270.636,925.52,270.359z M928.88,269.325
			c0.836-0.337,1.221-1.248,0.884-2.083c-0.336-0.834-1.248-1.221-2.082-0.883c-0.836,0.336-1.224,1.249-0.885,2.081
			C927.133,269.275,928.045,269.662,928.88,269.325z M969.558,260.02c0.557-0.226,0.478-0.948,0.065-1.969
			c-1.385-3.43-9.901-13.041-10.736-12.705c-0.093,0.037-0.058,0.13-0.018,0.223c0.637,1.577,10.372,14.471,10.372,14.471
			C969.334,260.003,969.466,260.058,969.558,260.02z M996.405,299.005c2.319-0.937,2.742-2.292,2.623-4.187
			c-0.139-2.749-1.771-7.59-2.653-11.117c-0.434-1.873-1.073-3.988-2.01-6.308c-3.331-8.253-9.604-18.446-15.438-25.15
			c-3.208-3.667-5.516-5.647-8.51-6.917c7.1,6.625,15.011,19.284,19.133,29.486c0.972,2.41,1.742,4.581,2.247,6.639
			c1.641,6.997,4.967,13.635,0.45,17.399C993.307,299.61,994.646,299.717,996.405,299.005z"/>
		<path fill="#333333" stroke="#333333" stroke-width="3" d="M985.195,256.293c-1.205,0.485-2.652,0.641-4.048,0.125
			c-5.615-2.154-11.275-6.557-14.234-13.882c-6.287-15.579,5.18-29.916,21.127-36.354c24.39-9.848,42.038-2.738,48.626,13.584
			c4.907,12.146,1.811,25.586-13.86,31.913c-2.411,0.974-4.919,1.984-7.644,2.977c1.009,1.966,2.093,4.117,2.953,6.25
			c3.445,8.529,7.537,21.869,2.436,23.931c-3.8,1.534-7.743-0.219-9.407-3.537c-13.569-26.659-12.476-21.278-25.203-41.053
			c-0.203-0.242-0.391-0.704-0.505-0.982c-1.197-2.967,0.259-6.036,3.133-7.197c5.101-2.059,13.009,2.836,20.076,12.062
			c6.196-1.748,15.643-3.729,16.237-3.86c5.659-2.284,6.604-7.413,4.396-12.884c-4.492-11.127-18.555-17.637-35.619-11.825
			c2.471,5.58,5.272,10.92,7.592,16.671c0.301,0.741,0.844,2.356-0.36,2.841c-0.836,0.339-2.012-2.316-2.425-3.335
			c-2.136-5.285-4.14-10.515-6.235-15.709l-0.926,0.375c-13.817,5.579-15.564,11.138-13.354,16.609
			c2.17,5.379,8.131,10.523,10.075,15.345C989.304,251.508,988.348,255.02,985.195,256.293z M990.412,209.646
			c1.633-0.767,2.205-1.215,2.131-1.4c-0.111-0.277-1.484,0.061-2.969,0.659l-0.648,0.261
			c-13.834,6.342-23.215,16.494-19.606,30.242l0.376,0.926c0.598,1.485,1.511,2.409,1.975,2.221c0.371-0.149,0.48-0.949-0.009-2.692
			C967.901,226.283,976.875,216.189,990.412,209.646z"/>
		<path fill="#333333" stroke="#333333" stroke-width="3" d="M1049.21,189.141c0.371-0.151,0.908-0.152,1.315-0.21
			c4.124-0.477,8.735,6.936,12.852,17.137c4.271,10.572,5.452,20.448,6.557,28.521c0.95,7.166,0.207,12.535-3.5,14.033
			c-3.34,1.35-6.559-0.481-7.978-2.927c-3.285,0.679-6.299-1.449-7.349-4.043c-0.149-0.37-0.262-0.648-0.318-1.056
			c-4.081-21.864-5.094-24.368-12.704-46.423c-1.237-3.599,0.776-6.893,3.742-8.089
			C1044.887,184.846,1046.879,186.306,1049.21,189.141z M1042.648,199.34c-0.739,0.298,5.407,17.121,5.407,17.121
			c0.128,0.057,0.352,0.074,0.537-0.001c1.576-0.637-0.204-5.31-1.44-8.371l-0.371-0.928
			C1045.208,203.266,1043.208,199.113,1042.648,199.34z M1067.228,241.505c0.141-1.781-0.087-3.954-0.245-6.479
			c-0.488-7.892-2.19-17.45-6.385-27.835c-2.247-5.565-4.528-10.145-6.689-12.83c-0.969-1.333-1.938-2.13-2.72-2.46
			c1.827,2.928,3.55,6.655,5.271,10.92c4.27,10.573,5.45,20.448,6.554,28.521c0.819,6.034,0.444,10.714-1.889,12.95
			c0.841,1.28,2.514,2.219,4.183,1.546C1066.885,245.204,1067.084,243.29,1067.228,241.505z M1059.791,250.334
			c1.761-0.711,3.6-0.698,5.346-0.112l0.279-0.113c4.082-1.646,8.805,0.437,10.49,4.611c1.683,4.171-0.23,9.043-4.312,10.691
			c-1.763,0.712-3.694,0.738-5.439,0.149l-0.187,0.073c-0.833,0.338-1.799,0.618-2.652,0.639c0.953,2.095,1.907,4.191,2.806,6.417
			c0.3,0.743,0.843,2.355-0.361,2.844c-0.836,0.336-2.014-2.317-2.426-3.335c-0.861-2.133-1.687-4.173-2.415-6.25
			c-2.417-0.642-4.429-2.418-5.439-4.922C1053.793,256.854,1055.709,251.981,1059.791,250.334z M1070.316,255.035
			c1.011,2.505,0.798,5.179-0.495,7.318l0.462-0.186c2.319-0.938,3.442-3.764,2.469-6.174c-0.636-1.578-2.033-2.63-3.536-2.888
			C1069.661,253.681,1070.016,254.292,1070.316,255.035z"/>
	</g>
</g>
</svg>
