<svg version="1.2" baseProfile="tiny-ps" xmlns="http://www.w3.org/2000/svg" viewBox="0 0 1920 616" width="1920" height="616">
	<title>heroBG-svg</title>
	<defs>
		<clipPath clipPathUnits="userSpaceOnUse" id="cp1">
			<path d="M1920 0L1920 195.44C1626.32 308.84 1300.09 372 956.5 372C615.84 372 292.23 309.91 0.5 198.32L0.5 0L1920 0Z" />
		</clipPath>
	</defs>
	<style>
		tspan { white-space:pre }
		.shp0 { fill: #fdeaa7 } 
		.shp1 { fill: none;stroke: #000000 } 
		.shp2 { fill: #fa6456 } 
		.shp3 { fill: #2e1e00 } 
		.shp4 { fill: #fefffa } 
		.shp5 { fill: #ffdc38 } 
		.shp6 { fill: #adf0e7 } 
		.shp7 { opacity: 0.4;fill: #fefffa } 
		.shp8 { opacity: 0.4;fill: #2e1e00 } 
		.shp9 { fill: #c7b19a } 
		.shp10 { fill: #f9a058 } 
		.shp11 { fill: #333333 } 
		.shp12 { fill: #000000 } 
		.shp13 { fill: #e3c8a1 } 
		.shp14 { fill: #b18e5d } 
		.shp15 { fill: #ffffff } 
		.shp16 { fill: #ffffff;stroke: #000000;stroke-width: 2 } 
	</style>
	<path id="Layer" class="shp0" d="M1920 0L1920 195.44C1626.32 308.84 1300.09 372 956.5 372C615.84 372 292.23 309.91 0.5 198.32L0.5 0L1920 0Z" />
	<path id="Layer" class="shp1" d="M1931 184C1931 184 1536 370 993 373.5C450 377 -19 158 -19 158" />
	<path id="Layer" class="shp2" d="M1730.12 225.39C1739.43 219.95 1759.99 212.57 1772.97 223.8C1785.18 234.37 1782.02 253.97 1781.69 255.9C1792.05 245.41 1807.96 247.42 1813.97 255.95C1819.14 263.29 1817.42 276.1 1807.81 283.77C1811.78 284.79 1825.87 288.85 1829.69 299.71C1834.92 314.6 1817.42 332.37 1804.75 339.82C1777.58 355.79 1728.04 350.48 1708.26 315.07C1690.34 282.99 1704.67 240.23 1730.12 225.39Z" />
	<path id="Layer" fill-rule="evenodd" class="shp3" d="M1761.77 348.45C1757.41 348 1753.06 347.21 1748.81 346.05C1730.71 341.14 1716.15 330.22 1707.82 315.31C1699.38 300.19 1697.47 281.84 1702.45 263.63C1707.06 246.74 1717.31 232.28 1729.86 224.96C1739.89 219.11 1760.33 212.2 1773.29 223.42C1784.17 232.84 1783.07 249.3 1782.39 254.53C1787.37 250.05 1793.86 247.81 1800.41 248.36C1806.27 248.84 1811.49 251.58 1814.38 255.66C1819.37 262.75 1818.27 275.45 1808.87 283.54C1814.76 285.17 1826.67 289.62 1830.16 299.55C1835.37 314.36 1818.58 332.27 1805 340.25C1793.18 347.2 1777.42 350.07 1761.77 348.45ZM1730.37 225.82C1718.03 233.01 1707.95 247.25 1703.4 263.9C1698.5 281.85 1700.38 299.94 1708.69 314.82C1716.89 329.5 1731.23 340.25 1749.07 345.09C1768.37 350.33 1789.61 348.14 1804.5 339.39C1811.62 335.2 1818.74 328.8 1823.53 322.26C1827.71 316.56 1832.09 308.05 1829.22 299.88C1825.7 289.85 1812.99 285.61 1807.69 284.25C1807.5 284.2 1807.36 284.06 1807.32 283.87C1807.28 283.69 1807.35 283.5 1807.5 283.38C1817.15 275.69 1818.42 263.13 1813.56 256.24C1810.85 252.39 1805.89 249.81 1800.33 249.35C1793.59 248.79 1786.93 251.3 1782.04 256.24C1781.89 256.4 1781.65 256.44 1781.46 256.34C1781.26 256.24 1781.16 256.02 1781.2 255.81C1781.57 253.66 1784.55 234.48 1772.64 224.18C1767.03 219.32 1759.5 217.53 1750.24 218.84C1740.55 220.21 1732.58 224.53 1730.37 225.82Z" />
	<path id="Layer" class="shp4" d="M1437.24 390.28C1448.85 382.83 1463.27 379.73 1477.86 382.7C1507.59 388.75 1526.79 417.77 1520.73 447.51C1520.67 447.79 1520.61 448.07 1520.55 448.35C1517.3 463.12 1508.38 475.21 1496.54 482.8C1483.07 477.05 1467.69 468.48 1452.17 457.66C1436.65 446.84 1423.28 435.38 1413.22 424.74C1416.46 409.97 1425.4 397.86 1437.24 390.28Z" />
	<path id="Layer" fill-rule="evenodd" class="shp3" d="M1412.74 424.63C1415.91 410.19 1424.51 397.84 1436.97 389.86C1449.18 382.03 1463.74 379.31 1477.96 382.21C1492.47 385.17 1504.96 393.6 1513.13 405.95C1521.3 418.31 1524.17 433.1 1521.22 447.61C1521.16 447.9 1521.1 448.18 1521.03 448.45C1517.86 462.89 1509.26 475.23 1496.81 483.22C1496.67 483.31 1496.5 483.32 1496.35 483.25C1482.32 477.27 1466.95 468.56 1451.89 458.06C1436.81 447.56 1423.32 436.15 1412.86 425.08C1412.84 425.05 1412.81 425.02 1412.8 424.99C1412.73 424.88 1412.71 424.75 1412.74 424.63ZM1520.06 448.23C1520.13 447.96 1520.18 447.69 1520.24 447.41C1523.14 433.16 1520.32 418.63 1512.3 406.5C1504.28 394.37 1492.01 386.09 1477.76 383.18C1463.79 380.34 1449.5 383.01 1437.5 390.7C1425.34 398.49 1416.92 410.51 1413.77 424.59C1424.15 435.55 1437.52 446.84 1452.46 457.25C1467.37 467.64 1482.6 476.28 1496.5 482.24C1508.6 474.39 1516.97 462.33 1520.06 448.23Z" />
	<path id="Layer" class="shp4" d="M1413.22 424.74C1423.28 435.38 1436.65 446.83 1452.17 457.65C1467.69 468.48 1483.07 477.05 1496.54 482.8C1484.92 490.25 1470.51 493.36 1455.92 490.38C1426.18 484.32 1406.99 455.31 1413.04 425.57C1413.1 425.29 1413.16 425.01 1413.22 424.74Z" />
	<path id="Layer" fill-rule="evenodd" class="shp3" d="M1412.56 425.47L1412.56 425.46C1412.62 425.18 1412.67 424.9 1412.74 424.62C1412.78 424.44 1412.92 424.3 1413.1 424.26C1413.27 424.21 1413.46 424.26 1413.59 424.4C1424 435.42 1437.44 446.78 1452.46 457.25C1467.46 467.71 1482.77 476.38 1496.74 482.34C1496.91 482.41 1497.02 482.57 1497.04 482.76C1497.05 482.94 1496.97 483.12 1496.81 483.22C1484.6 491.05 1470.04 493.77 1455.82 490.87C1441.31 487.91 1428.81 479.48 1420.64 467.13C1420.03 466.21 1419.45 465.27 1418.9 464.32C1412.07 452.57 1409.82 438.9 1412.56 425.47ZM1451.89 458.06C1437.12 447.77 1423.87 436.62 1413.51 425.76C1407.58 455.15 1426.63 483.91 1456.02 489.9C1469.68 492.68 1483.65 490.19 1495.48 482.88C1481.69 476.91 1466.64 468.34 1451.89 458.06ZM1413.04 425.57L1413.04 425.56L1413.04 425.57Z" />
	<path id="Layer" fill-rule="evenodd" class="shp3" d="M1496.05 482.84C1496.03 482.65 1496.12 482.48 1496.27 482.38C1508.5 474.54 1516.95 462.42 1520.06 448.24C1520.1 448.06 1520.24 447.92 1520.41 447.87C1520.59 447.82 1520.78 447.87 1520.91 448C1537.58 465.65 1544.28 479.86 1539.3 487C1534.33 494.14 1518.67 492.78 1496.35 483.26C1496.25 483.21 1496.17 483.14 1496.11 483.05C1496.08 482.99 1496.05 482.91 1496.05 482.84ZM1520.82 449.37C1517.57 463.11 1509.36 474.88 1497.6 482.7C1518.68 491.56 1533.94 492.97 1538.49 486.44C1541.18 482.56 1539.97 476.14 1535.28 468.06C1532.05 462.51 1527.19 456.18 1520.82 449.37Z" />
	<path id="Layer" fill-rule="evenodd" class="shp3" d="M1394.47 386.07C1399.45 378.94 1415.11 380.3 1437.43 389.82C1437.6 389.9 1437.72 390.06 1437.73 390.24C1437.75 390.43 1437.66 390.6 1437.5 390.7C1425.27 398.54 1416.82 410.66 1413.71 424.84C1413.67 425.02 1413.54 425.17 1413.36 425.22C1413.18 425.27 1412.99 425.21 1412.86 425.08C1406.08 417.9 1400.95 411.29 1397.58 405.49C1392.67 397.04 1391.52 390.31 1394.47 386.07ZM1436.18 390.38C1415.1 381.52 1399.84 380.11 1395.29 386.64C1390.73 393.17 1397.33 407 1412.95 423.71C1416.2 409.97 1424.41 398.19 1436.18 390.38Z" />
	<path id="Layer" class="shp5" d="M1520.85 338.94C1522.85 342.39 1521.68 346.82 1518.22 348.82C1514.77 350.83 1510.35 349.65 1508.34 346.2C1506.34 342.75 1507.51 338.32 1510.96 336.32C1514.42 334.31 1518.84 335.49 1520.85 338.94Z" />
	<path id="Layer" fill-rule="evenodd" class="shp3" d="M1510.71 335.89C1514.4 333.75 1519.14 335.01 1521.28 338.69C1523.41 342.38 1522.16 347.11 1518.47 349.25C1514.79 351.39 1510.05 350.13 1507.91 346.45C1505.77 342.77 1507.03 338.03 1510.71 335.89ZM1511.21 336.75C1508 338.61 1506.91 342.74 1508.77 345.95C1510.64 349.16 1514.76 350.26 1517.97 348.39C1521.18 346.53 1522.28 342.4 1520.41 339.19C1518.55 335.98 1514.42 334.88 1511.21 336.75Z" />
	<path id="Layer" class="shp4" d="M1614.96 496.23C1614.96 496.23 1621.8 502.84 1617.54 507.72C1613.28 512.61 1606.12 506.29 1606.12 506.29C1606.12 506.29 1600.44 515.37 1594.16 509.74C1587.89 504.12 1595.9 499.47 1595.9 499.47C1595.9 499.47 1590.47 496.96 1590.42 490.86C1590.36 484.75 1598.1 483.99 1601.75 488.61C1601.75 488.61 1609.19 479.02 1614.29 483.87C1619.4 488.73 1614.96 496.23 1614.96 496.23Z" />
	<path id="Layer" fill-rule="evenodd" class="shp3" d="M1591.29 504.82C1591.56 502.26 1593.77 500.35 1594.94 499.51C1593.39 498.55 1589.97 495.87 1589.92 490.86C1589.9 488.26 1591.2 486.31 1593.49 485.5C1596.24 484.54 1599.61 485.52 1601.74 487.84C1602.94 486.42 1606.72 482.31 1610.57 482.02C1612.1 481.9 1613.47 482.4 1614.64 483.51C1619.33 487.98 1616.37 494.58 1615.57 496.14C1616.82 497.48 1621.93 503.46 1617.92 508.05C1616.84 509.28 1615.5 509.96 1613.94 510.06C1610.68 510.27 1607.39 507.94 1606.22 507.02C1605.34 508.26 1602.72 511.54 1599.29 512.02C1597.38 512.29 1595.54 511.65 1593.83 510.11C1593.05 509.41 1592.45 508.7 1592.02 507.96C1591.43 506.94 1591.18 505.89 1591.29 504.82ZM1614.61 496.58C1614.45 496.43 1614.41 496.17 1614.53 495.97C1614.57 495.9 1618.7 488.75 1613.95 484.23C1612.98 483.32 1611.9 482.92 1610.64 483.01C1606.53 483.32 1602.19 488.86 1602.14 488.92C1602.05 489.04 1601.91 489.11 1601.75 489.11C1601.6 489.11 1601.45 489.04 1601.36 488.92C1599.28 486.28 1596 485.68 1593.83 486.44C1591.96 487.1 1590.9 488.71 1590.92 490.86C1590.97 496.56 1595.9 498.92 1596.11 499.02C1596.28 499.1 1596.39 499.26 1596.4 499.45C1596.41 499.63 1596.31 499.81 1596.15 499.9C1596.12 499.92 1592.58 502.01 1592.28 504.92C1592.13 506.42 1592.87 507.92 1594.5 509.37C1595.98 510.7 1597.54 511.26 1599.15 511.03C1602.84 510.51 1605.67 506.07 1605.7 506.03C1605.78 505.9 1605.9 505.82 1606.05 505.8C1606.19 505.78 1606.34 505.82 1606.45 505.92C1606.49 505.95 1610.32 509.3 1613.87 509.07C1615.16 508.98 1616.27 508.42 1617.17 507.39C1619.27 504.98 1618.38 502.04 1617.1 499.83C1616.01 497.95 1614.64 496.61 1614.61 496.58Z" />
	<path id="Layer" class="shp3" d="M1489.08 562.01C1488.53 562.32 1487.83 562.14 1487.52 561.59C1487.2 561.05 1487.39 560.35 1487.93 560.03C1488.48 559.71 1489.18 559.9 1489.49 560.44C1489.81 560.99 1489.63 561.69 1489.08 562.01Z" />
	<path id="Layer" class="shp6" d="M1554.67 150.02C1548.94 157.1 1478.82 163.68 1478.82 163.68L1441.88 232.66C1441.88 232.66 1417.82 280.47 1403.63 277.5C1383.62 273.32 1440.69 183.85 1440.69 183.85L1431.94 181.33C1431.94 181.33 1416.75 209.92 1393.48 211.44C1370.23 212.98 1316.6 199.38 1322.09 184.3C1326.48 172.22 1392.16 187.85 1392.16 187.85L1449.08 99.28C1456.71 109.83 1475.28 130.22 1501.48 124.1L1501.49 124.1C1511.3 123.23 1536.6 121.35 1545.13 124.34C1555.81 128.07 1548.57 136.67 1548.57 136.67C1548.57 136.67 1560.4 142.94 1554.67 150.02Z" />
	<path id="Layer" fill-rule="evenodd" class="shp3" d="M1407.15 277.81C1405.89 278.15 1404.68 278.23 1403.52 277.98C1401.66 277.59 1400.33 276.5 1399.59 274.73C1392.97 259 1435.23 191.55 1439.92 184.15L1432.18 181.91C1430.49 184.91 1418.12 205.85 1399.62 210.91C1397.65 211.45 1395.62 211.8 1393.52 211.94C1373.78 213.24 1332.34 203.81 1323.08 191.47C1321.23 189.01 1320.74 186.54 1321.62 184.13C1323.53 178.87 1336.06 177.83 1358.84 181.05C1374.3 183.24 1389.48 186.72 1391.93 187.29L1448.66 99.01C1448.75 98.87 1448.9 98.78 1449.06 98.78C1449.23 98.78 1449.38 98.85 1449.48 98.99C1453.38 104.37 1459.86 111.96 1468.59 117.52C1479.07 124.19 1490.1 126.25 1501.37 123.61C1501.39 123.61 1501.42 123.6 1501.44 123.6C1511.77 122.68 1536.73 120.87 1545.3 123.87C1548.62 125.03 1550.63 126.78 1551.26 129.08C1552.11 132.2 1550.16 135.35 1549.31 136.52C1550.92 137.47 1555.76 140.62 1556.61 144.77C1557 146.7 1556.48 148.57 1555.06 150.33C1549.39 157.35 1484.55 163.63 1479.13 164.15L1442.32 232.9C1441.42 234.7 1421.54 273.87 1407.15 277.81ZM1431.81 180.85C1431.89 180.82 1431.98 180.82 1432.07 180.85L1440.83 183.37C1440.98 183.42 1441.1 183.53 1441.16 183.68C1441.22 183.82 1441.2 183.99 1441.11 184.12C1440.64 184.86 1393.85 258.52 1400.51 274.35C1401.13 275.81 1402.18 276.69 1403.73 277.01C1417.39 279.86 1441.2 232.91 1441.44 232.44L1478.38 163.44C1478.46 163.29 1478.61 163.2 1478.77 163.18C1502.95 160.91 1549.86 155.18 1554.29 149.71C1555.51 148.19 1555.96 146.6 1555.63 144.98C1554.73 140.55 1548.4 137.14 1548.34 137.11C1548.2 137.04 1548.11 136.91 1548.08 136.77C1548.05 136.62 1548.09 136.47 1548.19 136.35C1548.22 136.31 1551.22 132.69 1550.3 129.34C1549.76 127.38 1547.96 125.85 1544.97 124.81C1536.59 121.88 1511.85 123.68 1501.56 124.59C1490.02 127.27 1478.75 125.17 1468.05 118.36C1459.5 112.91 1453.09 105.57 1449.1 100.16L1392.58 188.12C1392.47 188.3 1392.25 188.38 1392.05 188.34C1391.88 188.3 1375.45 184.41 1358.7 182.04C1330.98 178.12 1323.74 181.2 1322.55 184.47C1321.8 186.55 1322.24 188.7 1323.87 190.87C1327.9 196.23 1339.11 201.69 1354.64 205.84C1368.61 209.57 1383.85 211.58 1393.45 210.95C1416.17 209.46 1431.35 181.38 1431.5 181.09C1431.56 180.97 1431.68 180.88 1431.81 180.85Z" />
	<path id="Layer" class="shp3" d="M1497.66 124.95C1497.63 124.96 1497.59 124.97 1497.56 124.97L1444.57 127.69C1444.3 127.71 1444.06 127.5 1444.05 127.22C1444.03 126.95 1444.24 126.72 1444.52 126.7L1497.5 123.98C1497.78 123.96 1498.01 124.17 1498.03 124.45C1498.04 124.69 1497.88 124.89 1497.66 124.95Z" />
	<path id="Layer" class="shp3" d="M1542.22 139.66C1533 142.18 1515.88 144.61 1491.08 146.91C1466.43 149.2 1442.98 150.5 1442.75 150.52C1442.48 150.53 1442.24 150.32 1442.23 150.05C1442.21 149.77 1442.42 149.54 1442.7 149.52C1443.63 149.47 1536.26 144.28 1548.29 136.25C1548.52 136.1 1548.83 136.16 1548.98 136.39C1549.14 136.62 1549.07 136.93 1548.85 137.08C1547.54 137.95 1545.33 138.81 1542.22 139.66Z" />
	<path id="Layer" class="shp3" d="M1478.94 164.16C1478.83 164.19 1478.71 164.18 1478.6 164.13C1478.35 164.01 1478.25 163.71 1478.37 163.46L1486.43 146.58C1486.54 146.34 1486.84 146.23 1487.09 146.35C1487.34 146.47 1487.44 146.76 1487.32 147.01L1479.26 163.89C1479.2 164.03 1479.08 164.12 1478.94 164.16Z" />
	<path id="Layer" class="shp3" d="M1444.56 183.77C1444.54 183.77 1444.53 183.78 1444.51 183.78C1439.42 184.68 1434.56 182.86 1431.37 181.18C1427.94 179.36 1425.73 177.36 1425.63 177.28C1425.43 177.09 1425.42 176.78 1425.6 176.58C1425.79 176.37 1426.1 176.36 1426.3 176.54C1426.39 176.62 1435.11 184.43 1444.34 182.8C1444.61 182.75 1444.87 182.93 1444.92 183.2C1444.96 183.46 1444.8 183.7 1444.56 183.77Z" />
	<path id="Layer" class="shp2" d="M1449.08 99.28C1461.04 80.65 1472.92 62.06 1485.85 44.08L1488.59 63.5C1503.66 65.78 1511.91 78.16 1511.91 78.16L1525.82 70.17C1514.27 112.71 1497.53 124.47 1497.53 124.47C1465.01 128.18 1449.08 99.28 1449.08 99.28Z" />
	<path id="Layer" fill-rule="evenodd" class="shp3" d="M1497.66 124.95C1497.64 124.96 1497.61 124.96 1497.59 124.97C1480.61 126.9 1468.21 119.88 1460.79 113.64C1452.76 106.9 1448.68 99.59 1448.64 99.52C1448.55 99.36 1448.56 99.16 1448.66 99.01L1450.17 96.66C1461.42 79.14 1473.06 61.02 1485.45 43.79C1485.56 43.62 1485.77 43.55 1485.97 43.6C1486.17 43.64 1486.31 43.81 1486.34 44.01L1489.03 63.07C1502.42 65.25 1510.5 75.4 1512.05 77.5L1525.57 69.74C1525.75 69.64 1525.96 69.65 1526.12 69.78C1526.28 69.9 1526.35 70.11 1526.3 70.3C1523 82.47 1517.1 99.85 1507.75 113.56C1502.14 121.79 1497.99 124.76 1497.82 124.88C1497.77 124.91 1497.72 124.94 1497.66 124.95ZM1449.66 99.29C1450.45 100.63 1454.4 106.98 1461.46 112.91C1468.7 118.98 1480.8 125.83 1497.34 123.99C1498.71 122.94 1514.13 110.44 1525.02 71.2L1512.15 78.59C1511.93 78.72 1511.64 78.65 1511.49 78.43C1511.41 78.31 1503.18 66.21 1488.51 64C1488.29 63.96 1488.12 63.79 1488.09 63.57L1485.53 45.38C1473.43 62.29 1462.03 80.03 1451 97.19L1449.66 99.29Z" />
	<path id="Layer" class="shp3" d="M1466.9 71.75L1474.51 82.54L1461.18 80.49L1466.9 71.75Z" />
	<path id="Layer" fill-rule="evenodd" class="shp3" d="M1474.64 83.02C1474.58 83.04 1474.51 83.04 1474.44 83.03L1461.1 80.99C1460.94 80.96 1460.79 80.85 1460.73 80.7C1460.66 80.54 1460.67 80.36 1460.76 80.22L1466.48 71.48C1466.57 71.34 1466.72 71.25 1466.89 71.25C1467.05 71.25 1467.21 71.33 1467.3 71.46L1474.92 82.25C1475.03 82.41 1475.04 82.63 1474.94 82.8C1474.87 82.91 1474.76 82.99 1474.64 83.02ZM1462.02 80.12L1473.43 81.87L1466.91 72.63L1462.02 80.12Z" />
	<path id="Layer" class="shp3" d="M1458.13 85.21L1464.68 93.31L1454.41 90.42L1458.13 85.21Z" />
	<path id="Layer" fill-rule="evenodd" class="shp3" d="M1464.81 93.79C1464.73 93.81 1464.64 93.81 1464.55 93.79L1454.28 90.9C1454.12 90.86 1454 90.74 1453.94 90.59C1453.89 90.44 1453.91 90.27 1454.01 90.13L1457.72 84.92C1457.81 84.79 1457.95 84.72 1458.11 84.71C1458.27 84.71 1458.41 84.78 1458.51 84.9L1465.07 93C1465.21 93.16 1465.22 93.4 1465.1 93.58C1465.03 93.69 1464.93 93.76 1464.81 93.79ZM1455.23 90.13L1463.31 92.41L1458.15 86.03L1455.23 90.13Z" />
	<path id="Layer" class="shp3" d="M1494.59 103.21C1494.47 103.24 1494.35 103.24 1494.24 103.18C1488.02 100.13 1490.63 93.35 1490.66 93.28C1490.76 93.03 1491.05 92.9 1491.31 93C1491.56 93.1 1491.69 93.39 1491.59 93.65C1491.49 93.89 1489.29 99.64 1494.67 102.29C1494.92 102.41 1495.02 102.71 1494.9 102.95C1494.84 103.09 1494.72 103.18 1494.59 103.21Z" />
	<path id="Layer" class="shp3" d="M1503.11 96.89C1503.53 98.45 1502.61 100.06 1501.05 100.49C1499.49 100.92 1497.88 100 1497.46 98.44C1497.03 96.88 1497.95 95.27 1499.51 94.84C1501.07 94.42 1502.68 95.33 1503.11 96.89Z" />
	<path id="Layer" class="shp3" d="M1496.39 88.1C1496.63 89 1496.1 89.93 1495.2 90.18C1494.3 90.42 1493.37 89.89 1493.12 88.99C1492.87 88.09 1493.4 87.16 1494.31 86.91C1495.21 86.66 1496.14 87.2 1496.39 88.1Z" />
	<path id="Layer" class="shp3" d="M1510.26 96.22C1510.5 97.12 1509.97 98.05 1509.07 98.3C1508.17 98.54 1507.24 98.01 1506.99 97.11C1506.74 96.21 1507.27 95.28 1508.18 95.03C1509.08 94.78 1510.01 95.32 1510.26 96.22Z" />
	<path id="Layer" class="shp3" d="M1499.77 79.82C1499.88 81.37 1497.65 82.78 1494.78 82.99C1491.91 83.19 1489.5 82.11 1489.39 80.56C1489.28 79.01 1491.52 77.59 1494.38 77.39C1497.25 77.18 1499.66 78.27 1499.77 79.82Z" />
	<path id="Layer" class="shp3" d="M1518.04 91.75C1519.76 94.05 1520.14 96.67 1518.9 97.6C1517.66 98.53 1515.26 97.41 1513.54 95.11C1511.82 92.8 1511.43 90.18 1512.67 89.25C1513.92 88.33 1516.32 89.44 1518.04 91.75Z" />
	<g id="Layer" style="opacity: 0.4">
		<g id="Layer" style="opacity: 0.4">
			<path id="Layer" class="shp7" d="M1538.38 67.47C1545.73 94.35 1529.89 122.11 1503.01 129.46C1476.12 136.81 1448.36 120.97 1441.01 94.09C1433.66 67.2 1449.5 39.44 1476.38 32.09C1503.27 24.74 1531.03 40.58 1538.38 67.47Z" />
			<path id="Layer" fill-rule="evenodd" class="shp8" d="M1503.14 129.94C1476.03 137.35 1447.94 121.33 1440.53 94.22C1433.12 67.11 1449.14 39.02 1476.25 31.61C1503.36 24.2 1531.45 40.23 1538.86 67.33C1546.27 94.44 1530.25 122.53 1503.14 129.94ZM1476.52 32.57C1449.94 39.84 1434.22 67.38 1441.49 93.96C1448.76 120.54 1476.29 136.25 1502.87 128.98C1529.45 121.71 1545.17 94.18 1537.9 67.6C1530.63 41.02 1503.1 25.3 1476.52 32.57Z" />
		</g>
	</g>
	<path id="Layer" fill-rule="evenodd" class="shp3" d="M1503.14 129.94C1476.03 137.35 1447.94 121.33 1440.53 94.22C1433.12 67.11 1449.14 39.02 1476.25 31.61C1503.36 24.2 1531.45 40.23 1538.86 67.33C1546.27 94.44 1530.25 122.53 1503.14 129.94ZM1476.52 32.57C1449.94 39.84 1434.22 67.38 1441.49 93.96C1448.76 120.54 1476.29 136.25 1502.87 128.98C1529.45 121.71 1545.17 94.18 1537.9 67.6C1530.63 41.02 1503.1 25.3 1476.52 32.57Z" />
	<path id="Layer" class="shp4" d="M1701.47 497.96C1710.3 500.89 1703.89 511.45 1703.89 511.45C1703.89 511.45 1724.2 512.65 1721.08 527.6C1717.96 542.54 1699.21 534.99 1699.21 534.99C1700.81 535.63 1698.48 542.89 1698.11 543.94C1697.02 547.04 1695.41 550 1693.07 552.35C1685.72 559.77 1670.4 557.52 1665.09 548.48C1660.07 539.92 1669.18 530.29 1675.4 525.35C1667.86 527.71 1650.62 514.25 1666.31 501.5C1676.6 493.14 1688.98 505.87 1688.98 505.87C1688.98 505.87 1691.29 494.57 1701.47 497.96Z" />
	<path id="Layer" fill-rule="evenodd" class="shp3" d="M1679.06 557.18C1678.9 557.16 1678.74 557.14 1678.58 557.12C1672.5 556.36 1667.3 553.22 1664.66 548.73C1662.35 544.78 1662.66 540.27 1665.6 535.3C1667.86 531.5 1671.24 528.22 1673.68 526.12C1669.19 526.26 1663.42 522.73 1660.85 517.94C1659.08 514.65 1657.4 508.1 1665.99 501.12C1675.18 493.65 1686.02 502.48 1688.71 504.93C1689.2 503.3 1690.58 499.73 1693.73 497.91C1695.95 496.63 1698.61 496.48 1701.63 497.49C1703.96 498.26 1705.5 499.62 1706.21 501.53C1707.5 505.04 1705.57 509.36 1704.7 511.02C1707.3 511.3 1715.63 512.57 1719.69 517.88C1721.74 520.56 1722.37 523.86 1721.57 527.7C1720.76 531.56 1718.87 534.31 1715.94 535.87C1710.49 538.79 1703.07 536.82 1700.21 535.88C1700.56 538.28 1698.98 542.97 1698.58 544.1C1697.36 547.59 1695.62 550.49 1693.43 552.7C1690.05 556.1 1684.71 557.76 1679.06 557.18ZM1675.45 524.85C1675.62 524.87 1675.76 524.96 1675.84 525.11C1675.96 525.32 1675.9 525.59 1675.71 525.74C1671.97 528.71 1660.18 539.12 1665.52 548.23C1668 552.45 1672.93 555.41 1678.7 556.13C1684.22 556.83 1689.46 555.28 1692.72 552C1694.81 549.89 1696.47 547.12 1697.64 543.77C1699.12 539.59 1699.64 535.7 1699.03 535.45C1699.03 535.45 1699.03 535.45 1699.03 535.45C1698.77 535.35 1698.65 535.06 1698.75 534.81C1698.86 534.55 1699.15 534.43 1699.4 534.53C1699.52 534.58 1709.16 538.38 1715.47 535C1718.13 533.57 1719.85 531.05 1720.59 527.5C1721.33 523.96 1720.76 520.93 1718.9 518.49C1714.43 512.65 1703.97 511.96 1703.86 511.95C1703.69 511.94 1703.53 511.84 1703.45 511.69C1703.37 511.53 1703.38 511.35 1703.47 511.2C1703.5 511.14 1706.71 505.77 1705.27 501.87C1704.68 500.26 1703.35 499.11 1701.31 498.43C1698.58 497.52 1696.19 497.64 1694.22 498.77C1690.54 500.9 1689.48 505.92 1689.47 505.97C1689.43 506.15 1689.3 506.3 1689.12 506.35C1688.94 506.4 1688.75 506.35 1688.62 506.22C1688.5 506.09 1676.44 493.91 1666.62 501.89C1658.59 508.42 1660.1 514.45 1661.72 517.47C1664.69 522.99 1671.55 526.03 1675.26 524.87C1675.32 524.85 1675.39 524.84 1675.45 524.85Z" />
	<g id="Clip-Path" clip-path="url(#cp1)">
		<g id="Layer">
			<path id="Layer" fill-rule="evenodd" class="shp9" d="M434.45 76.97C431.65 79.81 428.89 82.61 425.72 85.83C430.17 83.51 433.96 81.53 437.75 79.55C437.87 79.73 437.99 79.92 438.1 80.1C437.58 80.7 437.05 81.29 436.19 82.27C438.85 81.31 441.01 80.53 443.8 79.51C442.48 80.9 441.61 81.82 440.73 82.73C440.87 82.88 441 83.03 441.14 83.18C441.84 82.73 442.55 82.28 443.13 81.91C447.21 85.99 451.25 89.92 455.11 94.01C455.81 94.75 456.15 96.19 456.05 97.23C455.18 105.5 454.16 113.75 453.13 122.48C452.03 114.18 451.06 106.47 449.93 98.78C449.71 97.32 448.97 95.86 448.17 94.6C446.71 92.28 444.21 91.6 441.87 93C439.35 94.52 436.81 96.13 434.65 98.11C429.64 102.68 423.96 103.68 417.42 102.76C412.39 102.05 407.24 102.02 402.13 101.97C396.26 101.91 390.93 103.84 386.55 107.74C377.81 115.5 370.95 124.49 370.06 136.68C369.81 140.09 370.12 143.74 371.1 147C373.19 153.95 378.82 156.77 385.89 155.04C386.49 154.9 387.09 154.73 387.29 154.68C391.16 159.22 393.89 164.37 398.73 167.79C399.21 168.13 399.57 169.35 399.34 169.9C395.64 178.66 391.76 187.35 388.09 196.12C386.82 199.15 385.98 202.35 385.01 205.5C383.28 211.16 383.72 216.81 385.2 222.46C385.47 223.49 385.5 224.58 385.64 225.65C385.4 225.76 385.15 225.88 384.91 226C381.7 220.27 378.49 214.55 375.27 208.83C375.06 208.88 374.85 208.94 374.63 209C376 215.83 377.36 222.66 378.83 230.05C378.14 229.08 377.68 228.53 377.31 227.92C373.43 221.47 369.5 215.06 365.75 208.53C364.79 206.87 364.14 204.88 363.92 202.98C363.71 201.09 364.22 199.12 364.42 197.19C364.13 197.15 363.85 197.11 363.57 197.07C363.01 201.86 362.45 206.64 361.89 211.43C361.69 211.42 361.49 211.4 361.29 211.38C361.55 203.77 361.73 196.16 362.08 188.56C362.61 177.06 363.03 165.54 360.37 154.25C358.54 146.49 356.52 138.73 353.86 131.23C351.94 125.82 352.69 122.23 356.9 118.07C367.29 107.78 378.06 98.14 391.21 91.45C397.77 88.11 404.69 85.38 411.95 85.29C416.14 85.24 419.75 84.22 423.32 82.8C427.13 81.29 430.63 79.01 434.45 76.97ZM368.13 199.73C368.2 206.28 369.73 212.5 372.94 218.26C371.33 212.08 369.73 205.91 368.13 199.73ZM369.84 190.1C369.64 190.12 369.44 190.15 369.23 190.17C369.62 193.07 370 195.96 370.39 198.85C370.59 198.82 370.79 198.79 370.99 198.77C370.61 195.88 370.23 192.99 369.84 190.1ZM373.55 215.23C373.85 215.15 374.16 215.06 374.46 214.98C373.6 211.82 372.75 208.66 371.89 205.5C371.57 205.59 371.25 205.68 370.93 205.76C371.8 208.92 372.68 212.07 373.55 215.23Z" />
			<path id="Layer" fill-rule="evenodd" class="shp9" d="M474.6 334.99C473.81 329.06 473.07 323.14 472.23 317.23C471.41 311.45 471.93 305.64 471.15 299.95C470.47 296.54 469.79 293.13 469.11 289.72C477.42 299.51 479.5 311.87 483.4 323.5C482.73 322.54 482.06 321.57 481.39 320.6C481.19 320.69 480.99 320.79 480.79 320.88C482.25 324.72 483.7 328.55 485.16 332.39C484.89 332.5 484.62 332.61 484.35 332.72C483.49 331.46 482.63 330.19 481.78 328.93C481.59 329.03 481.4 329.12 481.21 329.22C481.81 330.8 482.41 332.38 482.98 333.88L474.6 334.99ZM399.98 344.86C400.02 344.63 400.06 344.4 400.09 344.17C399.52 344.01 398.93 343.67 398.38 343.73C391.74 344.41 385.89 340.74 384.94 335.25C383.81 328.74 387.87 322 394.25 320.63C397.01 320.03 398.49 318.67 399.9 316.46C405.47 307.7 413.86 304.74 423.78 305.5C429.08 305.91 433.1 308.94 436.73 312.61C437.32 313.2 438.58 313.64 439.37 313.45C446.09 311.82 450.55 314.19 452.55 320.61C454.42 326.64 451.83 332.32 445.69 334.09C442.59 334.98 442.27 336.58 442.53 339.25L438.21 339.82C438.6 339.67 438.92 339.47 439.15 339.21C443.88 333.68 444.48 325.88 438.8 320.88C435.27 317.78 431.1 315.95 426.53 315.11C423.89 314.62 421.38 315.02 419.2 316.91C418.71 317.34 417.69 317.28 416.91 317.26C414.99 317.22 412.79 316.42 411.21 317.1C406.56 319.11 402.54 322.18 399.73 326.54C396.78 331.12 396.8 337.7 399.92 341.77C400.77 342.88 402.19 344.23 403.4 344.41L399.98 344.86ZM316.59 355.97C316.06 356.22 315.42 356.36 314.69 356.42C312.1 356.64 309.52 356.92 306.95 357.25L316.59 355.97ZM318.48 353.07C318.83 350.62 319.5 348.2 319.51 345.45C317.32 348.07 315.14 350.69 312.56 353.8C313.14 349.27 313.64 345.33 314.14 341.39C313.98 341.34 313.81 341.29 313.64 341.24C312.97 343.09 312.3 344.95 311.63 346.81C311.41 346.75 311.2 346.7 310.99 346.65C312.47 340.3 313.96 333.96 315.45 327.62C314.77 328.35 314 329.16 312.89 330.33C314.78 323.18 316.99 316.68 321.25 311.04C322.59 309.27 324.37 309.41 326.1 309.73C330.28 310.5 333.73 312.65 335.78 316.37C338.03 320.43 339.93 324.69 341.79 328.95C343.62 333.13 345.38 337.34 346.85 341.65C347.94 344.86 348.52 348.25 349.33 351.58L316.59 355.97C317.62 355.49 318.26 354.6 318.48 353.07ZM403.66 344.43C403.57 344.43 403.49 344.42 403.4 344.41L413.64 343.06C413.67 343.12 413.71 343.18 413.74 343.24C410.16 343.71 406.9 344.45 403.66 344.43ZM412.76 341.56C411.39 339.04 412.18 336.71 414.95 336.67C419.91 336.61 424.56 335.89 429.15 333.91C431.22 333.01 433.25 334.84 433.01 337.03C432.83 338.69 433.38 339.97 434.71 340.14C434.92 340.16 435.14 340.18 435.37 340.19L418.46 342.42C419.56 341.16 420.65 339.89 421.75 338.63C420.2 338.26 418.65 337.88 417.1 337.52C416.85 337.47 416.56 337.56 416.3 337.59C414.88 337.79 413.24 337.83 413.3 339.83C413.33 341.04 414.46 342.15 415.95 342.75L413.64 343.06C413.23 342.37 412.98 341.98 412.76 341.56ZM435.37 340.19L438.21 339.82C437.39 340.13 436.31 340.23 435.37 340.19ZM398 327.06C400.67 322.54 404.53 319.55 408.75 316.9C411.31 315.31 413.86 314.9 416.71 315.89C417.33 316.1 418.34 316.07 418.82 315.69C421.66 313.49 424.87 313.17 428.02 314.27C432.03 315.66 435.87 317.56 439.35 319.05C436.49 310.06 426.31 304.88 415.01 307.26C405.07 309.34 397.04 318.56 398 327.06ZM398.61 342.47C395 335.49 396.85 328.41 396.87 321.33C392.38 321.83 388.78 323.48 387.15 328.07C385.76 331.96 385.07 335.86 388.23 339.16C390.96 342.02 394.44 343.09 398.61 342.47ZM438.91 314.98C441.19 321.03 445.15 326.36 443.65 333.5C447.44 332.5 450.29 330.83 451.42 327.27C452.76 323.05 451.52 319.21 448.52 316.14C445.79 313.34 442.38 313.78 438.91 314.98ZM322.68 354.68C326.49 354.94 330.05 348.63 329.24 343.43C324.81 345.94 323.55 350.02 322.68 354.68ZM415.95 342.75L418.46 342.42C418.23 342.69 418 342.95 417.77 343.21C417.14 343.15 416.52 342.99 415.95 342.75ZM428.51 340.8C429.77 339.74 430.93 339.06 431.61 338.06C431.97 337.53 431.67 335.78 431.37 335.7C430.18 335.38 428.88 335.5 427.61 335.48C427.44 335.48 427.25 335.55 427.11 335.65C425.86 336.6 424.63 337.57 423.39 338.53C425.01 339.25 426.63 339.97 428.51 340.8Z" />
			<path id="Layer" fill-rule="evenodd" class="shp9" d="M321.06 162.66C324.3 168.12 328.97 171.84 335.08 173.45C343.33 175.64 350.87 174.19 357.36 168.4C357.74 172.24 357.54 172.65 354.01 174.05C351.96 174.86 349.85 175.51 347.95 176.85C351.04 175.9 354.13 174.95 357.22 174C357.32 174.19 357.43 174.39 357.53 174.59C356.71 175.07 355.95 175.88 355.08 176C347.11 177.09 339.14 178.3 331.12 178.95C327.35 179.25 324.1 177.25 321.41 174.43C315.08 167.77 310.91 159.91 308.54 151.13C308 149.16 308.16 146.76 308.73 144.78C310.75 137.81 312.91 130.86 315.37 124.04C317.05 119.41 320.23 116.01 325.09 114.24C328.45 113.01 331.16 113.82 334.16 116.02C327.27 116.33 322.06 118.97 318.64 124.65C323.58 119.3 329.34 116.37 336.9 118.32C325.83 116.78 321.39 125.2 315.62 131.59C315.78 131.82 315.95 132.05 316.11 132.29C316.87 131.61 317.62 130.94 318.88 129.82C315.25 141.13 315.67 151.69 320.85 161.89C320.21 161.19 319.32 160.6 318.98 159.78C317.59 156.42 316.37 153 315.1 149.59C314.86 148.96 314.67 148.31 314.45 147.68C314.17 147.78 313.89 147.89 313.62 148C314.38 153.56 316.25 158.68 320.06 163C320.15 163.11 320.71 162.79 321.06 162.66Z" />
			<path id="Layer" fill-rule="evenodd" class="shp10" d="M347.85 94.36C343.64 94.41 338.04 94.45 332.43 94.57C329.71 94.63 327.65 93.7 327.02 90.9C326.4 88.15 327.26 85.51 329.55 84.05C336.12 79.89 342.66 75.58 349.62 72.15C363.36 65.39 377.8 60.31 392.49 55.94C406.72 51.7 421.08 48.17 435.85 46.49C439.19 46.1 442.62 46.06 445.97 46.3C448.4 46.47 450.75 47.55 451.47 50.24C452.2 52.97 451.91 55.9 449.48 57.52C443.84 61.27 438.14 65.04 432.1 68.07C418.87 74.7 405.06 80.01 390.79 83.96C380.35 86.84 369.79 89.35 359.27 91.96C355.97 92.78 352.61 93.37 347.85 94.36ZM446.31 55.27C447.07 52.81 445.49 51.94 443.68 51.8C438.13 51.38 432.51 50.55 427.01 51C413.16 52.13 399.81 55.78 386.6 60.01C374.44 63.91 362.45 68.25 351.37 74.62C346.27 77.55 341.55 81.26 337.08 85.11C334.44 87.39 335.24 88.61 338.4 89.69C345.27 92.03 352.28 91.34 359.01 90.06C370.11 87.95 381.09 85.13 391.99 82.13C404.65 78.65 416.85 73.77 428.36 67.44C434.79 63.91 441.69 60.61 444.65 52.39C445.36 53.63 445.84 54.45 446.31 55.27Z" />
			<path id="Layer" fill-rule="evenodd" class="shp11" d="M434.16 76.83C435.06 76.21 435.96 75.58 436.86 74.96C437.03 75.15 437.21 75.34 437.38 75.53C435.86 77.24 434.34 78.96 432.82 80.67C432.9 80.81 432.99 80.94 433.08 81.08C437.52 79.13 441.96 77.17 447.19 74.87C446.33 77.89 445.7 80.09 445 82.51C448.3 85.96 451.94 89.57 455.37 93.37C458.5 96.82 458.94 100.86 457.29 105.16C457.08 105.7 456.94 106.27 456.63 107.26C462.07 101.4 468.77 100.39 475.68 100.62C479.31 100.75 482.56 102.87 484.02 106.23C487.15 113.4 488.39 121.06 485.75 128.56C484.01 133.48 481.13 138.05 478.37 142.53C476.08 146.25 473.37 149.75 470.54 153.08C467.99 156.08 465.11 158.81 462.23 161.5C460.75 162.88 460.28 164.3 460.54 166.28C461.34 172.48 463.8 177.81 467.48 182.93C473.33 191.07 477.48 199.99 475.99 210.53C475.63 213.09 475.48 215.68 475.25 218.26C475.22 218.61 475.15 219.06 475.32 219.32C477.87 223.14 474.91 227.25 475.89 231.17C476.01 231.61 475.05 232.47 474.44 232.94C467.78 238.07 460.15 240.8 451.85 241.57C442.37 242.45 432.87 243.15 423.38 243.83C420.8 244.02 420.12 245.11 420.27 247.66C420.58 252.83 422.76 257.28 425.64 261.25C428.11 264.67 429.96 269.14 435.04 269.87C435.27 269.9 435.49 270.17 435.66 270.37C439.98 275.6 445.96 277.3 452.31 278.2C453.56 278.38 454.82 278.49 456.04 278.8C461.6 280.2 467.01 281.56 470.55 286.96C473.88 292.03 477.58 296.59 479.42 302.74C481.63 310.15 485.61 317.03 488.76 324.17C489.87 326.7 490.79 329.32 491.92 332.22C488.87 332.63 486.14 333.07 483.39 333.29C482.86 333.33 482.02 332.6 481.73 332.02C481.17 330.9 480.9 329.64 480.97 328.24C481.83 329.52 482.69 330.8 483.55 332.08C483.84 331.96 484.13 331.85 484.43 331.74C482.98 327.91 481.52 324.08 480.07 320.26C480.24 320.16 480.41 320.06 480.58 319.95C481.32 321 482.06 322.05 482.8 323.1C478.81 311.33 476.74 298.77 468.42 288.87C469.13 292.35 469.85 295.82 470.7 299.97C469.68 301.66 469.68 304.1 471.3 306.52C471.51 306.83 471.57 307.3 471.56 307.69C471.47 310.24 470.62 313.03 471.37 315.29C473.15 320.64 472.25 326.21 473.38 331.57C473.58 332.52 473.77 333.47 473.98 334.49C463.31 335.9 452.56 337.33 441.69 338.77C441.75 336.26 441.37 334.17 444.92 333.44C450.02 332.39 453.24 327.31 452.29 322.27C451.15 316.33 448.74 312.68 442.08 312.24C441.9 312.23 441.69 312.2 441.55 312.28C438.07 314.14 435.88 312.29 433.52 309.89C424.18 300.39 404.22 304.92 398.46 317.18C397.12 320.03 394.32 319.67 392.1 320.4C384.46 322.91 381.39 334.4 387.19 339.92C389.91 342.52 393.41 343.65 397.31 343.19C397.99 343.11 398.72 343.46 399.43 343.6C399.37 343.89 399.31 344.17 399.25 344.45C382.43 346.69 365.61 348.92 348.51 351.19C348.27 350.34 348.04 349.51 347.81 348.68C346.41 343.64 345.33 338.48 343.52 333.59C341.61 328.43 339.07 323.5 336.7 318.53C334.7 314.34 331.69 311.2 327.17 309.62C323.82 308.44 321.73 308.88 319.68 311.67C315.71 317.07 313.89 323.37 311.91 330.32C313.23 328.77 314.12 327.73 314.73 327.01C313.26 333.23 311.74 339.67 310.22 346.1C310.47 346.17 310.73 346.24 310.98 346.31C311.65 344.33 312.32 342.36 312.99 340.38C313.14 340.42 313.29 340.46 313.44 340.5C312.93 344.56 312.41 348.62 311.84 353.06C314.38 349.98 316.64 347.24 318.91 344.49C319.13 344.59 319.35 344.69 319.57 344.78C318.84 348.02 318.16 351.27 317.31 354.48C317.19 354.95 316.29 355.42 315.68 355.54C313.66 355.91 311.62 356.12 309.72 356.37C307.17 352.93 306.85 349.53 308.06 345.57C308.81 343.11 308.44 340.26 308.39 337.59C308.17 326.27 312.96 317.16 320.63 309.25C321.81 308.03 322.99 306.72 323.8 305.25C325.95 301.37 329.41 299.07 333.11 297.01C339.62 293.38 346.27 289.99 352.65 286.14C358.5 282.6 362.34 277.15 365.26 271.06C370.49 260.18 369.38 248.87 367.52 237.5C366.3 230.07 365.23 222.61 363.94 215.19C363.73 213.99 362.71 212.92 362.07 211.79C361.78 211.88 361.49 211.98 361.19 212.08C361.72 207.24 362.25 202.41 362.77 197.57C362.97 197.58 363.18 197.59 363.38 197.6C363.48 197.82 363.72 198.08 363.67 198.25C361.87 204.23 364.52 209.2 367.39 214.04C370.56 219.39 373.94 224.62 377.24 229.89C377.42 230.17 377.71 230.38 378.09 230.75C376.63 223.56 375.22 216.58 373.8 209.6C373.99 209.52 374.18 209.43 374.36 209.34C377.67 215.24 380.97 221.13 384.27 227.02C384.48 226.94 384.69 226.84 384.9 226.76C384.71 225.37 384.76 223.91 384.31 222.62C381.89 215.65 382.83 208.73 385.27 202.15C388.42 193.65 392.3 185.43 395.86 177.08C396.94 174.55 398.01 172.01 399.12 169.38C393.36 166.17 390.67 160.46 386.61 155.41C386.49 155.45 385.85 155.69 385.19 155.86C376.94 158.02 370.19 153.15 369.13 144.17C367.87 133.41 371.75 124.35 378.35 116.13C382.43 111.04 386.82 106.39 393.08 104.04C399.13 101.78 405.43 102.41 411.67 102.75C415.23 102.94 418.77 103.59 422.32 103.68C426.22 103.79 429.55 102.16 432.58 99.7C435.2 97.56 437.96 95.56 440.8 93.73C443.44 92.02 445.84 92.56 447.41 95.34C448.53 97.31 449.46 99.56 449.79 101.78C450.61 107.37 451.04 113 451.63 118.62C451.72 119.51 451.86 120.39 452.4 121.32C453.28 115.37 454.17 109.43 455.04 103.48C455.09 103.13 455.03 102.75 455.1 102.41C455.95 98.06 455.23 94.6 451.25 91.65C447.95 89.21 445.5 85.63 442.58 82.46C441.79 82.96 441.01 83.45 440.24 83.94C440.11 83.78 439.98 83.63 439.85 83.48C440.82 82.55 441.78 81.62 443.26 80.19C440.37 81.21 438.08 82.02 435.13 83.06C436.25 81.97 436.92 81.34 437.58 80.7C437.48 80.51 437.37 80.33 437.27 80.15C433.3 82.21 429.33 84.28 425.33 86.35C428.22 83.27 431.2 80.1 434.17 76.93C434.18 76.93 434.16 76.83 434.16 76.83ZM420.76 138.86C420.91 138.83 421.05 138.79 421.19 138.76C421.2 138.74 421.2 138.72 421.2 138.69C421.18 138.69 421.15 138.7 421.13 138.7C421.01 138.75 420.88 138.81 420.76 138.86ZM435 137.78C433.27 137 431.47 136.23 429.7 136.3C426.9 136.42 424.12 137.09 421.34 137.59C421.23 137.61 421.24 138.28 421.2 138.69C425.8 138.39 430.4 138.09 435 137.78ZM415.66 140.07C415.75 140.38 415.85 140.69 415.94 141C417.55 140.29 419.16 139.58 420.76 138.86C419.06 139.26 417.36 139.67 415.66 140.07ZM434.21 144.44C433.52 147.83 432.74 151.2 432.2 154.61C431.93 156.34 431.94 158.16 432.11 159.91C433.16 171.14 437.46 181.13 443.67 190.45C450.23 200.3 456.16 210.48 458.02 222.98C458.19 221.48 458.31 220.47 458.42 219.47C458.56 219.49 458.71 219.51 458.85 219.53C459.13 220.48 459.42 221.42 459.83 222.83C460.38 221.71 460.68 221.1 460.99 220.47C462.71 221.81 464.71 220.67 465.89 218.05C468.51 218.84 469.67 216.9 470.73 215.41C471.95 213.69 473.3 211.72 473.51 209.74C473.69 208.09 472.3 206.28 471.6 204.54C471.88 204.42 472.16 204.29 472.45 204.17C472.95 204.9 473.47 205.64 474.15 206.63C473.8 203.95 473.92 201.46 473.07 199.38C472.16 197.18 472.25 194.01 468.95 193.28C468.75 193.24 468.73 192.24 468.7 191.69C468.67 191.06 468.93 190.35 468.71 189.81C468.22 188.58 467.62 187.36 466.88 186.27C464.58 182.9 462.03 179.69 459.89 176.23C456.88 171.34 454.24 166.22 451.23 161.32C450.46 160.07 448.92 159.3 447.74 158.31C447.57 157.6 447.57 156.39 447.21 156.27C444.73 155.46 442.19 154.8 439.63 154.25C439.03 154.13 438.29 154.63 437.61 154.85C435.57 153.43 434.48 154.29 434.07 156.42C433.83 157.67 433.81 158.96 433.69 160.24C433.42 160.21 433.15 160.18 432.89 160.16C433.06 158.1 432.75 155.83 433.53 154.05C434.68 151.44 436.6 149.17 438.22 146.78C439.04 145.56 439.7 143.7 440.83 143.33C443.7 142.38 446.89 142.03 449.6 143.84C450.59 144.51 451.33 146.07 451.45 147.3C451.52 147.95 450.13 149.17 449.21 149.41C445.77 150.3 442.25 150.86 438.77 151.63C437.77 151.85 436.84 152.36 435.88 152.74C436 153.18 436.13 153.63 436.25 154.07C440.66 153.49 445.12 153.13 449.46 152.23C452.46 151.61 455.28 150.12 455.83 146.57C456.21 144.06 454.44 141.11 451.66 139.97C446.43 137.81 441.09 138.18 435.79 139.84C434.82 139.73 433.86 139.61 432.21 139.41C433.08 141.61 433.64 143.03 434.21 144.44ZM455.63 223.89C454.82 221.02 454.45 218.1 453.22 215.6C450.25 209.55 446.9 203.69 443.67 197.77C439.73 190.56 434.79 183.84 433.8 175.29C433.5 172.71 432.39 170.22 431.62 167.7C431.2 166.33 430.3 164.95 430.36 163.61C430.58 158.85 431.19 154.11 431.53 149.35C431.77 145.9 431.63 142.48 429.02 139.65C429.33 141.97 429.64 144.29 429.94 146.6C429.79 146.62 429.64 146.63 429.49 146.65C428.94 144.35 428.4 142.04 427.86 139.78C425.61 140.23 423.93 140.51 422.28 140.91C414.63 142.75 406.98 144.6 399.35 146.52C397.2 147.06 395.03 147.66 393 148.53C390.41 149.64 388.54 153.2 388.88 155.79C389.21 158.32 390.73 159.54 394.43 160.24C399.25 161.15 403.94 160.57 408.55 159.06C410.87 158.29 413.19 157.51 415.5 156.73C415.69 157.04 415.87 157.36 416.05 157.68C412.67 159.91 409.51 162.64 405.85 164.21C403.27 165.31 401.58 166.69 400.57 169.07C397.88 175.37 395.27 181.71 392.64 188.04C392.44 188.53 392.01 189.33 392.17 189.49C394.12 191.42 391.81 192.25 391.1 193.23C389.27 195.72 387.29 197.94 387.97 201.49C388.22 202.8 387.66 204.61 386.83 205.72C385.04 208.1 384.38 210.34 385.71 213.16C386.13 214.04 386.27 215.71 385.75 216.25C383.72 218.32 385.52 219.81 386.12 221.96C386.23 220.49 386.31 219.47 386.38 218.46C386.63 218.47 386.87 218.48 387.11 218.49C386.98 220.33 389.52 221.86 387.48 223.97C387.38 224.07 387.62 224.62 387.82 224.87C389.14 226.49 390.5 228.08 391.99 229.86C392.25 229.16 392.31 228.88 392.45 228.67C392.53 228.56 392.76 228.55 393.08 228.43C394.4 231.88 396.8 233.97 400.66 233.94C402.36 233.92 404.09 234 405.76 233.74C415.95 232.13 426.12 230.46 436.28 228.7C437.46 228.5 438.51 227.62 440 226.86C440 226.86 440.46 227.41 440.93 227.98C442.46 227.57 443.98 227.16 445.37 226.79C445.23 225.07 445.11 223.64 444.99 222.2C445.27 222.17 445.55 222.13 445.83 222.09C446.42 223.52 447.01 224.94 447.61 226.39C449.07 226.03 450.28 225.74 451.19 225.51C451.51 224.37 451.76 223.49 452.01 222.61C452.24 222.66 452.46 222.72 452.69 222.77C452.68 223.46 452.66 224.15 452.64 225.08C453.75 224.64 454.57 224.31 455.63 223.89ZM440 226.86C440 226.86 440 226.86 440 226.86ZM382.19 241.57C379.21 237.26 376.41 233.21 373.6 229.16C373.38 229.29 373.15 229.43 372.93 229.57C372.91 230.48 372.88 231.39 372.84 233.08C371.04 229.64 369.6 226.9 368.16 224.15C367.93 224.23 367.7 224.31 367.47 224.38C368.13 229.36 368.92 234.32 369.42 239.32C369.92 244.48 370.57 249.69 370.39 254.85C370.06 263.88 367.27 272.32 362.45 279.97C361.07 282.15 361.49 283.44 363.43 284.45C364.43 284.96 365.73 285.22 366.83 285.1C368.87 284.86 370.85 284.13 372.88 283.83C379.48 282.89 386.1 282.05 392.71 281.18C392.71 281.24 392.7 281.31 392.7 281.37C385.07 283.37 377.45 285.37 369.82 287.37C369.88 287.64 369.94 287.92 369.99 288.19C377.68 291.25 385.72 291.53 393.81 290.73C398.79 290.23 403.83 289.58 408.64 288.23C414.51 286.58 420.2 284.22 425.89 281.96C427.22 281.43 428.2 280.03 429.35 279.04C429.22 278.84 429.1 278.65 428.98 278.45C426.35 278.8 423.72 279.15 421.29 279.47C424.63 276.67 430.77 279.79 433.1 274.08C432.58 273.63 432.26 273.32 431.91 273.05C424.77 267.55 420.32 260.38 418.72 251.52C418.44 249.93 417.52 249.83 416.33 249.63C410.04 248.54 403.72 247.42 398.47 243.43C396.19 241.71 394.18 239.63 391.85 237.54C392.58 239.64 393.23 241.53 393.88 243.41C393.72 243.53 393.56 243.65 393.4 243.77C390.63 240.95 387.85 238.14 385.06 235.31C384.99 235.79 384.93 236.25 384.83 237C383.51 235.53 382.41 234.31 381.02 232.77C381.44 235.89 381.79 238.55 382.19 241.57ZM380.7 136.25C383.57 131.99 386.24 127.56 389.37 123.49C394.04 117.43 400.24 113.54 407.85 112.25C411.39 111.65 414.89 112.08 417.92 114.57C416.69 114.44 415.45 114.3 413.8 114.11C415.74 119.02 415.25 124.54 419.14 127.8C419.22 129.37 419.27 130.57 419.33 131.77C419.6 131.77 419.87 131.77 420.13 131.77C419.8 132.48 419.46 133.19 419.16 133.81C421.95 133.44 424.6 133.09 426.59 132.82C426.94 128.19 427.47 123.71 427.56 119.21C427.65 114.87 427.32 110.52 427.08 106.18C427.05 105.68 426.41 105.22 426.06 104.74C425.87 104.84 425.69 104.94 425.5 105.05C425.75 107.96 425.99 110.87 426.24 113.79C425.95 113.81 425.67 113.82 425.39 113.84C425.01 111.01 424.63 108.17 424.28 105.48C420.11 105.05 416.15 104.36 412.19 104.31C406.59 104.23 400.79 103.78 395.43 105.01C386.63 107.03 381.41 114.09 376.5 121.13C372.85 126.36 370.98 131.95 372.06 138.49C373.38 146.6 382.81 152.31 390.17 148.56C394.34 146.45 398.59 145.31 403.02 144.33C406.6 143.54 410.26 142.75 411.37 138.91C408.17 139.34 404.73 139.79 401.28 140.25C401.3 140.45 401.33 140.64 401.36 140.84C402.5 140.68 403.64 140.53 404.79 140.38C391.46 143.41 387.52 140.94 380.7 136.25ZM465.68 144.47C465.77 144.75 465.86 145.02 465.96 145.3C463.44 146.16 460.97 147.33 458.38 147.79C456.63 148.11 456.2 148.99 456.46 150.23C456.87 152.18 457.66 154.05 458.45 156.44C460.66 154.58 462.98 153.31 464.33 151.36C468.54 145.28 472.63 139.09 476.3 132.67C479.96 126.26 481.3 119.42 477.5 112.41C476.14 109.89 473.7 108.49 470.97 108.91C464.12 109.95 459.33 114.38 454.7 119C454.39 119.31 454.39 119.92 454.2 120.56C467.23 114.74 472.93 114.13 475.78 117.85C473.05 117.48 470.06 117.08 466.63 116.62C472.21 124.27 471.51 136.42 465.51 140.31C466 139.32 466.44 138.49 466.83 137.63C468.79 133.36 470.1 128.98 469.24 124.19C468.11 117.94 465.55 116.56 459.91 119.25C459.35 119.52 458.8 119.81 458.25 120.08C454.95 121.7 452.78 124.09 452.29 127.91C451.97 130.36 451.19 132.75 450.83 135.2C450.7 136.12 450.86 137.69 451.42 138.01C454.89 139.97 457.22 142.66 457.75 147.29C460.64 146.26 463.16 145.37 465.68 144.47ZM429.87 117.06C436.43 109.35 447.02 108.64 448.46 113.6C446.68 112.94 444.82 112.24 442.97 111.54C442.67 111.81 442.36 112.08 442.05 112.35C443.5 115.51 444.83 118.73 446.46 121.79C447.04 122.88 448.37 123.56 449.56 124.61C446.9 131.35 445.45 133.27 442.09 133.87C442.54 133.21 442.84 132.75 442.87 132.71C440.62 132.88 438.11 133.52 435.77 133.13C433.42 132.73 431.24 131.31 428.88 130.3C429.41 132.79 430.37 134.92 433.3 135.46C436.35 136.01 439.43 136.4 442.43 137.13C444.72 137.69 446.38 136.7 447.13 134.99C448.61 131.64 450.67 128.03 450.56 124.58C450.31 116.31 449.33 108 447.9 99.84C446.96 94.47 444.36 92.69 439.22 96.26C435.45 98.88 431.9 101.83 428.22 104.66C428.76 108.72 429.32 112.93 429.87 117.06ZM383.58 134.49C394.87 133.33 405.9 132.1 416.09 128.16C414.65 123.31 413.3 118.75 411.95 114.21C397.65 114.36 390.04 123.49 383.58 134.49ZM475.21 222.22C475.14 221.87 475.08 221.52 475.02 221.17C474.03 221 472.93 220.46 472.07 220.71C462.13 223.63 452.27 226.84 442.29 229.59C436.97 231.06 431.47 231.94 426 232.81C418.13 234.06 409.95 233.79 402.07 238.09C407.36 237.77 412.04 237.42 416.72 237.24C420.8 237.09 424.88 237.16 428.95 237.09C435.1 236.97 441.26 236.84 447.05 234.39C451.28 232.59 455.45 230.63 459.67 228.81C464.83 226.58 470.03 224.41 475.21 222.22ZM480.78 125.87C475.75 138.09 469.27 149.34 458.84 158.23C459.04 158.97 459.3 159.94 459.69 161.42C461.84 159.54 463.86 158.15 465.4 156.36C469.02 152.15 472.21 147.56 475.95 143.47C483.57 135.13 487.11 125.53 484.7 114.42C482.56 104.52 478.61 100.31 469.21 102.44C465.76 103.22 462.26 104.23 460.76 108.4C463.15 107.02 465.23 105.69 467.41 104.58C470.53 103 473.84 102.3 477.21 103.61C478.31 104.03 479.18 105.03 480.14 105.77C479.99 105.94 479.82 106.1 479.66 106.27C473.24 102.13 460.79 106.26 458.21 113.25C460.74 111.71 463.19 109.64 466.03 108.63C469.05 107.57 472.41 107.27 475.64 107.19C476.4 107.17 477.54 109.31 477.92 110.62C478.51 112.67 480.78 112.95 481.55 114.57C483.49 118.71 482.5 122.88 481.58 127.7C481.11 126.62 480.91 126.18 480.78 125.87ZM473.59 227.89C462.51 231.32 452.06 235.52 441.19 237.64C430.33 239.75 419.05 239.78 408.54 240.68C412.95 242.06 418.12 242.15 423.27 241.54C432.52 240.46 441.76 239.13 451 237.9C451.02 238.04 451.04 238.19 451.06 238.32C448.99 238.7 446.92 239.08 444.84 239.45C444.89 239.69 444.94 239.93 444.99 240.16C450.26 239.21 455.6 238.53 460.78 237.23C464.17 236.38 467.41 234.8 470.58 233.27C472.52 232.34 473.81 230.67 473.59 227.89ZM445.68 124.89C443.68 120.39 441.96 116.53 440.23 112.64C432.49 114.1 427.39 120.48 429.04 128.2C434.59 127.1 440.16 125.99 445.68 124.89ZM385.19 136.42C391.79 137.93 398.4 139.53 405.46 138.15C410.59 137.15 414.55 134.96 416.87 130.02C415.41 130.45 413.81 130.85 412.77 131.84C409.75 134.68 406.27 136.04 402.19 135.72C400.73 135.61 399.28 134.69 397.88 134.8C393.61 135.17 389.37 135.86 385.19 136.42ZM455.4 150.72C453.61 151.95 451.93 152.58 451.11 153.79C449.88 155.6 454.21 166.19 456.3 166.17C458.53 166.14 458.15 167.67 458.71 168.55C459.36 169.57 459.61 170.86 460.03 172.04C460.23 171.98 460.42 171.92 460.61 171.87C458.91 164.95 457.2 158.03 455.4 150.72ZM446.65 125.77C445.66 126.39 444.57 126.9 443.7 127.66C441.31 129.73 438.68 130.46 435.6 129.63C434.34 129.29 433.03 129.15 431.75 128.93C436.99 133.37 445.58 131.22 446.65 125.77ZM467.43 227.57C472.09 227.34 474.1 226.12 474.04 223.68C471.91 224.94 469.83 226.16 467.43 227.57ZM415.07 137.07C415.21 137.42 415.36 137.77 415.5 138.12C418.59 136.99 421.69 135.86 424.79 134.73C424.72 134.51 424.65 134.3 424.58 134.09C421.41 135.08 418.24 136.07 415.07 137.07Z" />
			<path id="Layer" fill-rule="evenodd" class="shp12" d="M434.16 76.83L434.18 76.93C427.97 81.58 420.99 84.57 413.34 86.71C413.32 86.34 413.29 85.92 413.25 85.4C402.55 86.56 392.76 90.3 383.62 95.93C371.64 103.29 361.57 112.86 352.23 123.25C351.62 123.93 351.38 125.41 351.64 126.34C354.06 135.13 357.16 143.77 359.01 152.68C360.6 160.35 361.41 168.31 361.5 176.15C361.64 188.48 360.89 200.81 360.5 213.32C360.07 213.41 359.4 213.56 358.63 213.72C358.52 213.25 358.39 212.91 358.39 212.57C358.56 203.52 358.76 194.46 358.9 185.41C358.92 183.79 358.8 182.17 358.58 180.57C358.19 177.64 357.06 177.07 354.11 177.68C346.48 179.23 338.82 180.66 331.17 182.14C326.23 183.1 322.15 181.22 318.53 178.14C309.48 170.43 305.83 160.35 305.94 148.71C305.95 147.38 306.21 146.02 306.58 144.73C308.26 138.8 309.62 132.72 311.91 127.03C313.29 123.59 316.18 120.77 318.75 117.91C313.8 125.89 312.06 134.99 309.47 143.72C308.6 146.63 308.63 150.23 309.5 153.15C311.95 161.42 316.16 168.84 322.28 175.06C325.23 178.06 328.93 179.4 332.95 179.17C339.03 178.83 345.08 178.1 351.12 177.32C353.11 177.07 355.02 176.18 356.94 175.49C357.36 175.33 357.64 174.77 357.69 174.02C354.44 175.06 351.19 176.11 347.94 177.15C347.86 176.92 347.79 176.69 347.71 176.46C349.73 175.75 351.76 175.07 353.77 174.32C357.74 172.83 357.74 172.82 357.93 169.11C354.94 170.49 351.75 172.34 348.32 173.47C340.9 175.91 333.95 174.23 327.83 169.71C325.37 167.9 323.59 165.17 321.5 162.86C321.3 162.52 321.09 162.18 320.88 161.84C318.92 156.94 317.5 151.95 317.07 146.61C316.64 141.34 317.35 136.34 318.95 131.38C319.07 130.98 319.17 130.58 319.4 129.72C318.15 130.85 317.28 131.65 316.4 132.45C316.06 132.17 315.72 131.89 315.37 131.61C316.72 130.26 318.04 128.89 319.42 127.57C322.85 124.28 325.56 119.95 330.68 118.95C332.88 118.52 335.18 118.58 337.12 118.44C335.1 117.2 330.52 117.05 327.23 118.88C324.23 120.56 321.53 122.78 318.8 124.7C321.99 119.19 327.32 116.88 333.57 115.97C330.51 113.25 329.73 113.21 322.36 115.35C327.56 110.94 333.83 110.62 339.37 114.69C341.75 116.43 343.97 118.41 346.13 120.42C349.3 123.38 350.74 123.02 353.57 119.88C357.27 115.79 361.41 112.08 365.52 108.39C369.68 104.64 373.96 101.02 378.34 97.53C384.25 92.83 391.17 90.25 398.29 87.83C405.04 85.53 411.84 84.04 418.85 82.85C423.21 82.11 427.22 79.32 431.42 77.51C432.27 77.14 433.25 77.05 434.16 76.83ZM353.08 138.94C354 135.83 351.35 135.62 349.48 134.72C349.63 135.09 349.78 135.47 349.93 135.84C348.52 133.58 346.76 133.98 344.96 135.27C344.02 135.94 343.15 136.72 342.29 137.5C336.72 142.54 334.7 150.24 337.63 156.66C338.63 158.87 340.49 160.69 341.98 162.72C338.54 161.19 336.6 158.36 335.71 154.91C333.69 147.06 336.86 140.87 342.71 135.55C339.01 132.87 335.1 132.07 331.08 132.78C324.83 133.87 322.26 138.57 321.12 145.03C320.81 144 320.64 143.74 320.68 143.52C321.94 135.06 328.66 128.69 339.28 132.71C342.2 133.82 344.6 135.35 347.26 132.56C347.53 132.27 348.23 132.39 348.8 132.32C345.68 124.79 340.46 120.46 333.99 120.22C330.13 120.07 327.05 121.8 324.35 125.23C326.02 125.15 327.14 125.1 328.8 125.03C322.21 126.35 321.55 127.06 319.7 133.4C317.24 141.85 317.93 150.14 320.95 158.28C325.95 171.76 341.5 177.41 353.63 169.91C356.07 168.39 358.7 165.69 359.31 163.08C359.99 160.19 358.45 156.78 357.77 152.99C352.98 163.57 350.92 166.21 346.18 167.85C350.65 164.33 354.01 160.15 356.02 154.66C358.25 148.59 355.27 143.94 353.08 138.94Z" />
			<path id="Layer" fill-rule="evenodd" class="shp12" d="M412.82 342.74C409.59 343.16 406.57 343.62 403.55 343.95C401.26 344.19 398.38 341.23 397.51 338.05C395.72 331.48 397.61 326.07 402.71 321.75C404.73 320.05 406.9 318.46 409.18 317.13C410.41 316.42 412.26 315.69 413.41 316.12C416.59 317.27 419 316.13 421.59 314.63C422.39 314.17 423.66 314.39 424.69 314.5C430.59 315.1 435.67 317.43 439.63 321.89C442.7 325.34 442.88 331.28 440.4 335.95C439.25 338.1 438.13 339.84 435.27 339.82C433.21 339.8 432.31 339.04 432.22 337.06C432.06 333.64 430.53 332.64 427.17 333.7C426.92 333.79 426.62 333.76 426.39 333.88C423.4 335.44 420.46 336.11 416.88 335.86C411.49 335.47 410.54 337.45 412.82 342.74ZM426.83 323.96C427.21 322.42 427.51 321.14 427.82 319.87C427.64 319.82 427.46 319.76 427.28 319.7C426.73 321.02 426.18 322.34 425.62 323.7C424.62 322.98 423.82 322.39 423.01 321.8C422.95 321.88 422.89 321.97 422.83 322.06C423.1 322.42 423.38 322.78 423.77 323.29C423.11 323.37 422.73 323.43 421.68 323.56C423.25 324.01 424.15 324.27 425.19 324.57C424.78 325.91 424.4 327.2 424.01 328.48C424.23 328.54 424.44 328.6 424.65 328.66C425.16 327.6 425.67 326.54 426.25 325.3C427.69 326.18 428.94 326.96 430.2 327.73C430.28 327.61 430.36 327.48 430.44 327.36C429.66 326.64 428.87 325.92 427.94 325.07C428.87 325.07 429.54 325.08 430.2 325.08C430.21 324.98 430.21 324.88 430.21 324.79C429.1 324.51 427.99 324.24 426.83 323.96ZM410.31 329.32C409.81 330.04 409.28 330.79 408.75 331.55C408.88 331.65 409 331.75 409.13 331.85C409.88 331.05 410.62 330.26 411.32 329.52C412.69 330.31 414.05 331.09 415.4 331.87C415.21 331.04 414.84 330.5 414.32 330.21C412.22 329 411.95 327.81 414.06 326.3C414.88 325.71 415.5 324.84 416.5 323.78C415.77 323.96 415.35 323.93 415.14 324.13C412.82 326.29 410.62 328.85 407.01 326.39C408.09 327.35 409.17 328.31 410.31 329.32Z" />
			<path id="Layer" fill-rule="evenodd" class="shp12" d="M397.21 326.65C395.98 319.45 403.86 309.01 413.58 306.68C428 303.22 436.64 312.29 438.97 319.44C434.59 316.16 429.91 313.45 424.28 313.4C422.38 313.38 420.48 314.4 418.57 314.89C417.67 315.11 416.65 315.53 415.85 315.31C413.23 314.56 410.86 314.74 408.48 316.14C404.04 318.73 400.16 321.88 397.21 326.65Z" />
			<path id="Layer" fill-rule="evenodd" class="shp12" d="M398.07 342C393.81 342.49 390.15 341.63 387.46 338.58C384.29 334.98 385.05 330.93 386.72 326.84C388.48 322.54 392.08 321.33 396.18 320.56C396.17 327.74 394.37 334.88 398.07 342Z" />
			<path id="Layer" fill-rule="evenodd" class="shp12" d="M442.97 332.85C444.06 325.73 440.63 320.32 438.05 314.57C441.39 312.85 444.62 312.85 447.62 315.35C450.42 317.69 452 323.19 450.82 326.54C449.57 330.09 446.93 331.99 442.97 332.85Z" />
			<path id="Layer" fill-rule="evenodd" class="shp12" d="M321.65 354.85C322.67 349.56 323.88 345.09 328.89 342.48C329.42 347.11 327.22 350.57 325.06 353.97C324.66 354.59 323.13 354.5 321.65 354.85Z" />
			<path id="Layer" fill-rule="evenodd" class="shp12" d="M415.93 342.85C414.75 341.65 413.04 340.68 412.59 339.3C412.01 337.52 413.87 337.13 415.34 336.97C416.23 336.87 417.15 336.67 418 336.83C419.05 337.04 420.03 337.57 421.05 337.97C420.35 338.94 419.75 340 418.93 340.85C418.29 341.51 417.37 341.92 415.93 342.85Z" />
			<path id="Layer" fill-rule="evenodd" class="shp12" d="M428 339.63C427.74 339.66 427.43 339.8 427.21 339.71C425.65 339.12 424.11 338.48 422.56 337.85C423.73 336.93 424.88 335.99 426.08 335.1C426.35 334.91 426.77 334.96 427.1 334.84C428.68 334.25 430.31 333.8 431.1 335.86C431.74 337.5 430.15 339.31 428 339.63Z" />
			<path id="Layer" fill-rule="evenodd" class="shp12" d="M367.12 199.45C368.9 206.36 370.56 212.79 372.18 219.05C369.83 216.87 366.56 204.95 367.12 199.45Z" />
			<path id="Layer" fill-rule="evenodd" class="shp12" d="M320.88 161.84C321.09 162.18 321.3 162.52 321.51 162.86C321.2 163.01 320.68 163.35 320.63 163.29C316.82 158.74 314.48 153.59 314.44 147.55C316.42 152.39 317.09 157.82 320.88 161.84Z" />
			<path id="Layer" fill-rule="evenodd" class="shp12" d="M371.05 205.98C371.94 209.29 372.84 212.6 373.74 215.91C373.46 215.99 373.18 216.07 372.9 216.14C371.96 212.83 371.03 209.52 370.1 206.21C370.41 206.13 370.73 206.06 371.05 205.98Z" />
			<path id="Layer" fill-rule="evenodd" class="shp12" d="M368.94 190.38C369.36 193.5 369.77 196.63 370.19 199.75C370.01 199.78 369.83 199.8 369.65 199.82C369.24 196.7 368.82 193.57 368.4 190.44C368.58 190.42 368.76 190.4 368.94 190.38Z" />
			<path id="Layer" fill-rule="evenodd" class="shp12" d="M425.63 340.92C423.8 341.16 422.17 341.38 420.55 341.59C421.72 339.41 421.72 339.41 425.63 340.92Z" />
			<path id="Layer" fill-rule="evenodd" class="shp13" d="M455.63 223.89C454.57 224.31 453.75 224.64 452.64 225.08C452.66 224.15 452.68 223.45 452.69 222.76C452.46 222.71 452.24 222.66 452.01 222.61C451.76 223.49 451.51 224.37 451.19 225.51C450.28 225.73 449.07 226.03 447.61 226.39C447.01 224.94 446.42 223.51 445.83 222.09C445.55 222.13 445.27 222.16 445 222.2C445.11 223.63 445.23 225.07 445.37 226.78C443.98 227.16 442.46 227.57 440.93 227.98C440.45 227.41 440 226.85 440 226.86C438.51 227.62 437.46 228.5 436.28 228.7C426.13 230.46 415.95 232.12 405.77 233.74C404.1 234 402.36 233.92 400.66 233.93C396.8 233.97 394.4 231.87 393.08 228.43C392.76 228.54 392.53 228.56 392.45 228.67C392.31 228.88 392.25 229.15 391.99 229.85C390.5 228.08 389.14 226.49 387.82 224.87C387.62 224.62 387.38 224.06 387.48 223.96C389.52 221.86 386.98 220.33 387.11 218.48C386.87 218.47 386.63 218.47 386.38 218.46C386.31 219.47 386.23 220.49 386.12 221.95C385.52 219.81 383.72 218.31 385.75 216.25C386.27 215.71 386.13 214.04 385.71 213.16C384.38 210.34 385.04 208.1 386.83 205.72C387.66 204.61 388.22 202.8 387.97 201.48C387.29 197.94 389.27 195.72 391.1 193.22C391.81 192.25 394.12 191.41 392.17 189.49C392.01 189.33 392.44 188.52 392.64 188.04C395.27 181.71 397.88 175.37 400.57 169.07C401.58 166.69 403.27 165.31 405.85 164.21C409.51 162.64 412.67 159.91 416.05 157.67C415.87 157.36 415.69 157.04 415.51 156.73C413.19 157.5 410.88 158.29 408.55 159.05C403.94 160.56 399.25 161.14 394.43 160.23C390.73 159.53 389.21 158.32 388.88 155.79C388.54 153.2 390.41 149.64 393 148.53C395.03 147.65 397.2 147.05 399.35 146.51C406.98 144.6 414.63 142.75 422.28 140.9C423.93 140.5 425.61 140.22 427.86 139.77C428.4 142.04 428.94 144.34 429.49 146.65C429.64 146.63 429.8 146.62 429.95 146.6C429.64 144.28 429.33 141.97 429.02 139.65C431.63 142.48 431.77 145.9 431.53 149.35C431.19 154.11 430.58 158.85 430.36 163.61C430.3 164.95 431.2 166.33 431.62 167.7C432.39 170.22 433.5 172.71 433.8 175.28C434.79 183.83 439.73 190.56 443.67 197.77C446.9 203.69 450.25 209.55 453.22 215.6C454.45 218.1 454.82 221.02 455.63 223.89ZM395.06 155.54C395.23 155.66 395.39 155.77 395.56 155.89C396.88 156.72 398.3 158.38 399.52 158.24C404.38 157.7 409.23 156.81 413.98 155.63C416.62 154.97 418.78 155.15 420.47 157.2C421.82 158.83 422.82 160.75 423.92 162.45C424.23 159.02 423.36 157.53 418.07 152.75C418.86 152.81 419.43 152.85 420.01 152.89C418.54 151.68 416.62 150.2 415.35 150.62C413.25 151.33 411.82 150.41 410.13 149.97C409.75 149.88 409.38 149.79 409 149.7C408.71 149.38 408.47 148.91 408.1 148.77C403.88 147.2 396.31 149.74 393.86 153.5C394.26 154.18 394.66 154.86 395.06 155.54ZM404.99 204.9C405.35 204.89 405.7 204.88 406.05 204.86C406.09 202.57 406.13 200.28 406.18 197.99C405.87 197.99 405.56 197.99 405.25 197.98C404.68 200.28 403.52 202.56 404.99 204.9ZM400.37 196.95C400.14 196.92 399.9 196.88 399.67 196.85C399.31 198.83 398.96 200.81 398.59 202.86C401.12 202.77 401.45 201.5 400.37 196.95ZM427.42 196.51C425.59 200.42 426.07 202.74 428.68 203.58C428.28 201.33 427.91 199.27 427.42 196.51ZM401.83 194.41C402.24 194.41 402.65 194.4 403.05 194.4C403.11 192.29 403.16 190.18 403.22 188.07C402.94 188.06 402.65 188.06 402.37 188.05C401.86 190.15 400.48 192.21 401.83 194.41ZM439.1 197.84C439.42 197.68 439.73 197.51 440.05 197.34C439.04 195.42 438.04 193.49 437.03 191.57C436.76 191.71 436.5 191.85 436.23 191.99C436.99 194.04 436.57 196.72 439.1 197.84ZM400.04 214.25C400.43 214.21 400.81 214.17 401.2 214.12C400.94 212.2 400.69 210.27 400.43 208.34C399.21 210.43 399.08 212.4 400.04 214.25ZM418.37 192.45C419.08 189.76 419.62 187.72 420.26 185.32C417.29 187.59 416.7 189.43 418.37 192.45ZM447.54 208.45C447.33 208.61 447.13 208.76 446.92 208.92C447.78 212.26 449.45 214.31 451.5 213.95C450.1 212.01 448.82 210.23 447.54 208.45ZM418.59 173.07C417.78 170.94 416.96 168.81 415.94 166.13C414.4 169.85 416.42 171.49 418.59 173.07ZM413.24 210.47C413.32 208.51 413.41 206.55 413.51 204.01C411.29 206.99 411.13 208.8 413.24 210.47ZM448.72 221.07C449.18 220.88 449.65 220.7 450.11 220.51C449.3 218.71 448.49 216.9 447.67 215.1C447.31 215.26 446.94 215.42 446.57 215.58C447.29 217.41 448 219.24 448.72 221.07ZM442.89 205.7C442.29 209.2 443.27 211.15 445.69 211.51C444.68 209.42 443.78 207.56 442.89 205.7ZM426.85 180.47C425.01 183.33 425.38 184.57 427.98 185.67C427.58 183.8 427.21 182.14 426.85 180.47ZM419.2 196.06C416.55 199.35 416.4 200.78 418.57 202.39C418.78 200.33 418.95 198.56 419.2 196.06ZM391.32 210.78C390.87 212.43 390.42 214.07 389.94 215.84C392.23 215.73 392.64 214.38 391.32 210.78ZM433.84 202.1C433.63 200.49 433.42 198.91 433.17 197.06C430.88 200.92 431.03 202 433.84 202.1ZM442.39 218C440.24 220.34 440.39 222.4 442.59 223.53C442.52 221.74 442.46 220.04 442.39 218ZM433.93 218.75C432.27 221.5 432.79 223.02 435.19 223.29C434.75 221.68 434.34 220.21 433.93 218.75ZM421.33 216.18C419.9 218.51 420.18 220.61 422.08 221.84C421.83 219.95 421.61 218.26 421.33 216.18ZM433.38 191.39C433.88 191.38 434.38 191.37 434.88 191.36C434.74 189.59 434.6 187.81 434.46 186.03C434.07 186.05 433.68 186.06 433.28 186.08C433.31 187.85 433.35 189.62 433.38 191.39ZM411.4 198.5C411.79 196.44 412.12 194.65 412.57 192.22C409.92 195.23 409.67 196.63 411.4 198.5ZM400.76 224.57C400.43 224.66 400.11 224.75 399.78 224.83C400 225.99 400.07 227.21 400.51 228.28C400.66 228.66 401.7 228.68 403.08 229.08C402.05 227.07 401.4 225.82 400.76 224.57ZM422.49 201.9C422.21 201.85 421.94 201.8 421.67 201.75C421.34 202.98 420.95 204.19 420.73 205.43C420.67 205.77 421.16 206.19 421.4 206.58C421.81 206.25 422.56 205.96 422.59 205.6C422.69 204.38 422.54 203.14 422.49 201.9ZM426.43 228.83C426.88 228.69 427.33 228.56 427.78 228.41C427.29 226.94 426.81 225.47 426.32 224C425.94 224.11 425.56 224.23 425.18 224.35C425.6 225.84 426.02 227.34 426.43 228.83ZM424.9 189.73C422.31 191.42 423.61 193.46 423.82 195.4C424.05 195.42 424.29 195.44 424.53 195.46C424.65 193.55 424.78 191.64 424.9 189.73ZM418.19 207.85C417.93 207.83 417.67 207.81 417.41 207.79C417.1 209.38 416.78 210.98 416.46 212.57C416.85 212.65 417.22 212.73 417.6 212.8C418.49 211.31 418.78 209.68 418.19 207.85ZM431.96 206.9C431.57 206.88 431.19 206.86 430.8 206.84C430.6 208.48 430.39 210.12 430.19 211.76C430.63 211.81 431.06 211.85 431.49 211.89C431.65 210.23 431.81 208.56 431.96 206.9ZM410.94 217.96C410.68 217.93 410.43 217.89 410.18 217.86C409.85 218.87 409.39 219.86 409.26 220.89C409.21 221.27 409.9 221.75 410.26 222.19C410.62 221.79 411.26 221.4 411.28 220.98C411.32 219.98 411.07 218.97 410.94 217.96ZM396.44 220.42C396.89 220.23 397.33 220.04 397.78 219.85C397.15 218.41 396.51 216.97 395.88 215.54C395.53 215.69 395.17 215.84 394.82 215.98C395.36 217.46 395.9 218.94 396.44 220.42ZM444.08 204.9C444.5 204.67 444.92 204.43 445.35 204.2C444.6 202.76 443.85 201.32 443.11 199.89C442.78 200.05 442.45 200.21 442.12 200.38C442.77 201.88 443.43 203.39 444.08 204.9ZM390.26 204.61C389.94 204.52 389.62 204.42 389.3 204.33C388.77 205.93 388.25 207.53 387.72 209.14C388.15 209.26 388.59 209.39 389.02 209.51C389.43 207.88 389.85 206.25 390.26 204.61ZM415.6 222.34C417.26 221 417.09 219.41 414.96 217.52C415.19 219.27 415.38 220.68 415.6 222.34Z" />
			<path id="Layer" fill-rule="evenodd" class="shp13" d="M382.19 241.57C381.79 238.55 381.44 235.89 381.03 232.77C382.41 234.31 383.51 235.53 384.83 237C384.93 236.24 384.99 235.78 385.06 235.3C387.85 238.14 390.63 240.95 393.4 243.77C393.56 243.65 393.72 243.53 393.88 243.41C393.23 241.52 392.58 239.64 391.85 237.54C394.18 239.63 396.2 241.7 398.47 243.43C403.72 247.42 410.04 248.53 416.33 249.63C417.52 249.83 418.44 249.93 418.72 251.52C420.32 260.38 424.78 267.55 431.91 273.05C432.26 273.32 432.58 273.63 433.1 274.08C430.77 279.78 424.63 276.67 421.29 279.47C423.73 279.15 426.35 278.8 428.98 278.45C429.1 278.64 429.23 278.84 429.35 279.03C428.2 280.03 427.22 281.43 425.89 281.96C420.2 284.22 414.51 286.58 408.64 288.23C403.83 289.58 398.79 290.23 393.81 290.73C385.72 291.53 377.68 291.25 369.99 288.19C369.94 287.92 369.88 287.64 369.82 287.37C377.45 285.37 385.07 283.37 392.7 281.37C392.71 281.3 392.71 281.24 392.72 281.17C386.1 282.05 379.48 282.89 372.88 283.83C370.85 284.12 368.87 284.86 366.83 285.1C365.73 285.22 364.43 284.96 363.44 284.45C361.49 283.44 361.07 282.15 362.45 279.97C367.27 272.32 370.06 263.88 370.39 254.85C370.58 249.69 369.93 244.48 369.42 239.32C368.93 234.32 368.13 229.36 367.47 224.38C367.7 224.3 367.93 224.22 368.16 224.15C369.6 226.89 371.04 229.64 372.84 233.07C372.88 231.39 372.91 230.48 372.93 229.56C373.15 229.43 373.38 229.29 373.6 229.16C376.41 233.21 379.21 237.26 382.19 241.57Z" />
			<path id="Layer" fill-rule="evenodd" class="shp13" d="M435.79 139.84C441.09 138.17 446.43 137.81 451.65 139.96C454.43 141.11 456.21 144.06 455.82 146.57C455.28 150.12 452.45 151.61 449.46 152.23C445.12 153.13 440.66 153.48 436.25 154.07C436.12 153.63 436 153.18 435.87 152.74C436.84 152.36 437.77 151.85 438.77 151.63C442.24 150.86 445.77 150.3 449.2 149.41C450.13 149.17 451.52 147.94 451.45 147.3C451.32 146.07 450.59 144.5 449.6 143.84C446.89 142.02 443.7 142.38 440.82 143.33C439.69 143.7 439.04 145.56 438.21 146.78C436.6 149.17 434.67 151.44 433.53 154.05C432.74 155.83 433.06 158.1 432.88 160.15C433.15 160.18 433.42 160.21 433.69 160.24C433.81 158.96 433.83 157.67 434.07 156.42C434.48 154.29 435.57 153.43 437.61 154.85C440.99 156 444.36 157.15 447.74 158.31C448.92 159.3 450.46 160.07 451.23 161.32C454.23 166.22 456.88 171.34 459.89 176.23C462.03 179.69 464.58 182.9 466.88 186.26C467.62 187.36 468.22 188.58 468.71 189.81C468.93 190.35 468.67 191.06 468.7 191.68C468.73 192.24 468.75 193.24 468.95 193.28C472.25 194.01 472.16 197.18 473.07 199.38C473.92 201.46 473.8 203.94 474.15 206.63C473.46 205.64 472.95 204.9 472.44 204.16C472.16 204.29 471.88 204.42 471.6 204.54C472.3 206.28 473.69 208.09 473.51 209.73C473.3 211.71 471.95 213.69 470.73 215.41C469.67 216.9 468.5 218.84 465.89 218.04C464.71 220.67 462.71 221.81 460.99 220.47C460.68 221.1 460.38 221.71 459.83 222.82C459.41 221.42 459.13 220.47 458.85 219.53C458.71 219.51 458.56 219.49 458.42 219.47C458.3 220.47 458.19 221.47 458.02 222.98C456.16 210.48 450.23 200.3 443.67 190.45C437.46 181.12 433.16 171.13 432.11 159.91C431.94 158.16 431.93 156.34 432.2 154.61C432.74 151.2 433.52 147.83 434.2 144.44C434.73 142.91 435.26 141.38 435.79 139.84ZM444.41 187.89C445.25 192.56 446.31 193.65 448.36 192.41C447.19 191.07 446.04 189.75 444.41 187.89ZM454.76 198.41C454.78 201.9 456 203.39 458.1 203.04C456.94 201.44 455.85 199.92 454.76 198.41ZM458.47 212.77C458.23 212.81 457.99 212.85 457.75 212.88C458.06 214.57 458.37 216.25 458.72 218.15C460.45 216.87 460.26 215.32 458.47 212.77ZM469.93 207.94C469.86 209.82 469.78 211.7 469.7 213.58C469.98 213.58 470.25 213.59 470.53 213.59C471.02 211.72 472.01 209.84 469.93 207.94ZM460.62 198.56C460.27 198.76 459.92 198.95 459.57 199.15C460.5 200.86 461.43 202.56 462.36 204.27C462.71 204.07 463.06 203.87 463.42 203.67C462.48 201.97 461.55 200.26 460.62 198.56ZM462.66 213.74C463.01 213.65 463.37 213.57 463.72 213.48C463.38 211.91 463.05 210.33 462.71 208.75C462.48 208.8 462.25 208.86 462.02 208.91C462.23 210.52 462.45 212.13 462.66 213.74Z" />
			<path id="Layer" fill-rule="evenodd" class="shp13" d="M380.7 136.25C387.52 140.94 391.46 143.41 404.79 140.38C403.64 140.53 402.5 140.68 401.36 140.84C401.33 140.64 401.3 140.44 401.27 140.25C404.72 139.79 408.17 139.34 411.37 138.91C410.25 142.75 406.6 143.53 403.02 144.33C398.59 145.31 394.34 146.45 390.17 148.56C382.81 152.31 373.38 146.6 372.06 138.49C370.98 131.95 372.85 126.36 376.5 121.13C381.41 114.09 386.63 107.03 395.43 105.01C400.79 103.78 406.59 104.23 412.19 104.3C416.15 104.36 420.11 105.05 424.27 105.48C424.63 108.17 425.01 111.01 425.38 113.84C425.67 113.82 425.95 113.81 426.24 113.79C425.99 110.87 425.75 107.96 425.5 105.05C425.69 104.94 425.87 104.84 426.06 104.74C426.41 105.22 427.05 105.68 427.08 106.18C427.32 110.52 427.65 114.87 427.56 119.21C427.47 123.7 426.94 128.19 426.59 132.82C424.6 133.08 421.95 133.44 419.16 133.81C419.46 133.19 419.8 132.48 420.13 131.77C419.87 131.77 419.6 131.77 419.33 131.77C419.27 130.57 419.22 129.37 419.14 127.8C415.25 124.54 415.74 119.02 413.8 114.11C415.45 114.3 416.69 114.43 417.92 114.57C414.89 112.08 411.39 111.65 407.85 112.25C400.24 113.53 394.04 117.43 389.37 123.49C386.24 127.56 383.57 131.99 380.7 136.25Z" />
			<path id="Layer" fill-rule="evenodd" class="shp13" d="M465.68 144.47C463.16 145.37 460.64 146.26 457.75 147.29C457.22 142.65 454.89 139.97 451.42 138.01C450.86 137.69 450.7 136.12 450.83 135.2C451.19 132.75 451.97 130.36 452.29 127.91C452.78 124.09 454.95 121.69 458.25 120.08C458.81 119.81 459.35 119.51 459.92 119.25C465.55 116.56 468.11 117.94 469.24 124.19C470.1 128.98 468.79 133.35 466.83 137.62C466.44 138.48 466 139.32 465.51 140.31C471.51 136.42 472.21 124.27 466.63 116.61C470.06 117.07 473.05 117.48 475.78 117.85C472.93 114.13 467.23 114.74 454.2 120.55C454.39 119.92 454.39 119.31 454.7 119C459.34 114.38 464.12 109.95 470.97 108.91C473.7 108.49 476.14 109.89 477.5 112.41C481.31 119.42 479.96 126.25 476.3 132.67C472.63 139.09 468.54 145.28 464.33 151.36C462.98 153.31 460.66 154.58 458.45 156.43C457.66 154.04 456.87 152.18 456.46 150.23C456.2 148.99 456.63 148.11 458.38 147.79C460.97 147.33 463.44 146.16 465.96 145.29C465.86 145.02 465.77 144.75 465.68 144.47Z" />
			<path id="Layer" fill-rule="evenodd" class="shp13" d="M429.87 117.06C429.32 112.93 428.76 108.72 428.22 104.66C431.9 101.83 435.45 98.88 439.22 96.26C444.36 92.68 446.96 94.47 447.9 99.84C449.33 108 450.31 116.31 450.56 124.58C450.67 128.03 448.61 131.64 447.13 134.99C446.38 136.7 444.72 137.69 442.43 137.13C439.43 136.39 436.35 136.01 433.3 135.46C430.37 134.92 429.41 132.79 428.88 130.3C431.24 131.31 433.42 132.73 435.77 133.13C438.11 133.52 440.62 132.88 442.87 132.71C442.84 132.75 442.54 133.21 442.09 133.87C445.46 133.27 446.9 131.35 449.56 124.61C448.37 123.56 447.04 122.87 446.46 121.79C444.83 118.73 443.5 115.51 442.06 112.35C442.36 112.08 442.67 111.81 442.97 111.54C444.82 112.24 446.68 112.93 448.46 113.6C447.02 108.64 436.43 109.36 429.87 117.06Z" />
			<path id="Layer" fill-rule="evenodd" class="shp14" d="M383.58 134.49C390.04 123.49 397.65 114.36 411.95 114.21C413.3 118.75 414.65 123.31 416.09 128.16C405.91 132.1 394.87 133.33 383.58 134.49Z" />
			<path id="Layer" fill-rule="evenodd" class="shp13" d="M475.21 222.22C470.03 224.41 464.83 226.58 459.67 228.81C455.45 230.63 451.28 232.59 447.05 234.39C441.26 236.85 435.1 236.97 428.95 237.09C424.88 237.16 420.8 237.09 416.72 237.24C412.04 237.42 407.36 237.77 402.07 238.09C409.95 233.79 418.13 234.06 426 232.81C431.47 231.94 436.97 231.06 442.29 229.59C452.27 226.84 462.13 223.63 472.07 220.71C472.93 220.46 474.03 221 475.02 221.17C475.08 221.52 475.15 221.87 475.21 222.22Z" />
			<path id="Layer" fill-rule="evenodd" class="shp13" d="M480.78 125.87C480.92 126.18 481.11 126.62 481.58 127.7C482.5 122.88 483.5 118.71 481.55 114.57C480.79 112.95 478.51 112.67 477.92 110.62C477.54 109.31 476.4 107.17 475.64 107.19C472.42 107.27 469.05 107.57 466.04 108.63C463.2 109.64 460.74 111.71 458.21 113.25C460.79 106.26 473.24 102.13 479.66 106.27C479.82 106.1 479.99 105.94 480.15 105.77C479.18 105.03 478.31 104.03 477.22 103.61C473.84 102.3 470.53 103 467.41 104.58C465.23 105.69 463.15 107.02 460.76 108.4C462.26 104.23 465.76 103.22 469.21 102.44C478.61 100.31 482.56 104.52 484.71 114.42C487.11 125.53 483.57 135.13 475.95 143.47C472.21 147.56 469.02 152.15 465.4 156.36C463.86 158.15 461.84 159.54 459.69 161.42C459.3 159.94 459.04 158.98 458.84 158.24C469.27 149.34 475.75 138.09 480.78 125.87Z" />
			<path id="Layer" fill-rule="evenodd" class="shp13" d="M473.59 227.89C473.81 230.67 472.52 232.34 470.58 233.27C467.41 234.8 464.17 236.38 460.78 237.23C455.6 238.53 450.26 239.22 444.99 240.16C444.94 239.93 444.89 239.69 444.84 239.45C446.92 239.08 448.99 238.7 451.06 238.33C451.04 238.19 451.02 238.04 451 237.9C441.76 239.13 432.52 240.46 423.27 241.55C418.12 242.15 412.95 242.07 408.54 240.68C419.06 239.78 430.33 239.76 441.19 237.64C452.06 235.52 462.51 231.32 473.59 227.89Z" />
			<path id="Layer" fill-rule="evenodd" class="shp14" d="M445.68 124.89C440.16 125.99 434.59 127.1 429.04 128.2C427.39 120.48 432.49 114.11 440.23 112.64C441.96 116.53 443.68 120.39 445.68 124.89Z" />
			<path id="Layer" fill-rule="evenodd" class="shp15" d="M385.19 136.42C389.37 135.86 393.61 135.17 397.88 134.81C399.28 134.69 400.73 135.62 402.19 135.73C406.27 136.04 409.75 134.69 412.77 131.84C413.81 130.85 415.41 130.45 416.87 130.02C414.55 134.96 410.59 137.15 405.46 138.15C398.4 139.53 391.79 137.93 385.19 136.42Z" />
			<path id="Layer" fill-rule="evenodd" class="shp13" d="M455.4 150.72C457.2 158.03 458.91 164.95 460.61 171.87C460.42 171.92 460.23 171.98 460.03 172.04C459.61 170.86 459.37 169.57 458.71 168.55C458.15 167.67 458.53 166.14 456.3 166.17C454.21 166.2 449.88 155.6 451.11 153.79C451.93 152.58 453.61 151.95 455.4 150.72Z" />
			<path id="Layer" fill-rule="evenodd" class="shp15" d="M443.7 127.66C441.31 129.73 438.68 130.46 435.59 129.63C434.34 129.29 433.03 129.15 431.75 128.93C436.99 133.36 445.58 131.22 446.65 125.77C445.66 126.39 444.58 126.9 443.7 127.66Z" />
			<path id="Layer" fill-rule="evenodd" class="shp13" d="M421.2 138.76C421.24 138.35 421.22 137.61 421.34 137.59C424.12 137.09 426.9 136.42 429.7 136.3C431.47 136.23 433.27 137 435 137.78C430.37 138.09 425.75 138.39 421.13 138.7L421.2 138.76Z" />
			<path id="Layer" fill-rule="evenodd" class="shp13" d="M447.74 158.31C444.37 157.15 440.99 156 437.61 154.85C438.29 154.63 439.03 154.13 439.63 154.25C442.19 154.8 444.73 155.45 447.21 156.27C447.57 156.39 447.57 157.6 447.74 158.31Z" />
			<path id="Layer" fill-rule="evenodd" class="shp13" d="M435.79 139.84C435.26 141.38 434.73 142.91 434.21 144.44C433.64 143.03 433.08 141.61 432.2 139.41C433.86 139.61 434.82 139.72 435.79 139.84Z" />
			<path id="Layer" fill-rule="evenodd" class="shp13" d="M467.43 227.58C469.83 226.16 471.91 224.94 474.04 223.68C474.1 226.12 472.09 227.34 467.43 227.58Z" />
			<path id="Layer" fill-rule="evenodd" class="shp13" d="M415.07 137.07C418.24 136.07 421.41 135.08 424.58 134.09C424.65 134.3 424.72 134.51 424.79 134.73C421.69 135.86 418.59 136.99 415.5 138.12C415.36 137.77 415.21 137.42 415.07 137.07Z" />
			<path id="Layer" fill-rule="evenodd" class="shp13" d="M421.13 138.7C419.4 139.47 417.67 140.24 415.94 141C415.85 140.69 415.75 140.38 415.66 140.07C417.5 139.63 419.35 139.2 421.19 138.76C421.2 138.76 421.13 138.7 421.13 138.7Z" />
			<path id="Layer" fill-rule="evenodd" class="shp13" d="M353.08 138.94C355.27 143.94 358.25 148.59 356.02 154.66C354.01 160.15 350.65 164.33 346.18 167.85C350.92 166.21 352.98 163.57 357.78 152.99C358.46 156.78 360 160.19 359.32 163.08C358.7 165.69 356.07 168.39 353.63 169.91C341.5 177.41 325.95 171.76 320.95 158.28C317.93 150.14 317.24 141.85 319.7 133.4C321.55 127.06 322.21 126.35 328.8 125.03C327.14 125.1 326.02 125.15 324.35 125.23C327.05 121.8 330.13 120.07 333.99 120.22C340.46 120.46 345.69 124.79 348.8 132.32C348.23 132.39 347.53 132.27 347.26 132.56C344.6 135.35 342.21 133.82 339.28 132.71C328.66 128.69 321.95 135.06 320.68 143.52C320.64 143.74 320.81 144 321.13 145.03C322.26 138.57 324.83 133.87 331.08 132.78C335.1 132.07 339.01 132.87 342.71 135.55C336.86 140.87 333.69 147.06 335.71 154.91C336.6 158.36 338.54 161.19 341.99 162.72C340.49 160.69 338.63 158.87 337.63 156.66C334.7 150.24 336.72 142.54 342.29 137.5C343.15 136.72 344.02 135.94 344.96 135.27C346.76 133.98 348.52 133.58 349.93 135.84C350.97 136.87 352.03 137.9 353.08 138.94Z" />
			<path id="Layer" fill-rule="evenodd" class="shp13" d="M353.08 138.94C352.03 137.9 350.97 136.87 349.92 135.84C349.78 135.47 349.63 135.09 349.48 134.72C351.35 135.62 354 135.83 353.08 138.94Z" />
			<path id="Layer" fill-rule="evenodd" class="shp13" d="M426.83 323.96C427.99 324.24 429.1 324.52 430.21 324.79C430.21 324.89 430.21 324.98 430.2 325.08C429.54 325.08 428.87 325.07 427.95 325.07C428.87 325.92 429.66 326.64 430.44 327.36C430.36 327.48 430.29 327.61 430.2 327.73C428.94 326.96 427.69 326.18 426.26 325.3C425.67 326.54 425.16 327.6 424.66 328.67C424.44 328.6 424.23 328.54 424.01 328.48C424.4 327.2 424.78 325.92 425.19 324.57C424.15 324.27 423.25 324.01 421.68 323.56C422.74 323.43 423.11 323.38 423.77 323.29C423.38 322.78 423.1 322.42 422.83 322.06C422.89 321.97 422.95 321.89 423.01 321.8C423.82 322.39 424.63 322.98 425.62 323.71C426.18 322.34 426.73 321.02 427.28 319.7C427.46 319.76 427.64 319.82 427.82 319.88C427.51 321.15 427.21 322.42 426.83 323.96Z" />
			<path id="Layer" fill-rule="evenodd" class="shp13" d="M410.31 329.32C409.17 328.31 408.09 327.35 407.01 326.39C410.63 328.85 412.82 326.29 415.14 324.13C415.35 323.93 415.77 323.96 416.5 323.78C415.5 324.84 414.88 325.71 414.06 326.3C411.95 327.81 412.23 329 414.32 330.21C414.84 330.5 415.21 331.04 415.4 331.87C414.05 331.09 412.69 330.31 411.32 329.51C410.62 330.25 409.88 331.05 409.13 331.85C409 331.75 408.88 331.65 408.75 331.54C409.28 330.79 409.81 330.04 410.31 329.32Z" />
			<path id="Layer" fill-rule="evenodd" class="shp12" d="M410.13 149.97C411.82 150.41 413.25 151.33 415.35 150.62C416.62 150.2 418.54 151.68 420.01 152.89C419.43 152.85 418.85 152.8 418.07 152.75C423.35 157.53 424.23 159.02 423.92 162.45C422.82 160.75 421.81 158.83 420.46 157.19C418.78 155.15 416.62 154.97 413.98 155.62C409.23 156.81 404.38 157.7 399.52 158.24C398.3 158.38 396.88 156.72 395.56 155.89C397.64 154.91 398.67 156.79 400.17 157.63C397.85 155.15 398.05 153.03 401.27 151.78C404.04 150.71 407.16 150.54 410.13 149.97Z" />
			<path id="Layer" fill-rule="evenodd" class="shp13" d="M410.13 149.97C407.16 150.54 404.04 150.72 401.27 151.78C398.05 153.03 397.85 155.15 400.17 157.63C398.67 156.79 397.64 154.91 395.56 155.89C395.39 155.77 395.23 155.66 395.06 155.54C395.3 154.66 395.26 153.29 395.81 152.98C397.8 151.84 399.91 150.76 402.11 150.23C404.32 149.7 406.7 149.85 409 149.7C409.38 149.79 409.75 149.88 410.13 149.97Z" />
			<path id="Layer" fill-rule="evenodd" class="shp12" d="M409 149.7C406.7 149.85 404.32 149.7 402.11 150.23C399.91 150.76 397.8 151.84 395.81 152.98C395.26 153.29 395.3 154.66 395.06 155.54C394.66 154.86 394.26 154.18 393.85 153.5C396.31 149.73 403.88 147.19 408.1 148.77C408.47 148.91 408.71 149.38 409 149.7Z" />
			<path id="Layer" fill-rule="evenodd" class="shp12" d="M404.99 204.9C403.52 202.56 404.68 200.28 405.25 197.98C405.56 197.99 405.87 197.99 406.18 197.99C406.13 200.28 406.09 202.57 406.05 204.86C405.7 204.88 405.34 204.89 404.99 204.9Z" />
			<path id="Layer" fill-rule="evenodd" class="shp12" d="M400.37 196.95C401.45 201.5 401.12 202.77 398.59 202.86C398.96 200.82 399.31 198.83 399.67 196.85C399.9 196.88 400.14 196.92 400.37 196.95Z" />
			<path id="Layer" fill-rule="evenodd" class="shp12" d="M427.42 196.51C427.91 199.27 428.28 201.34 428.68 203.58C426.06 202.74 425.59 200.41 427.42 196.51Z" />
			<path id="Layer" fill-rule="evenodd" class="shp12" d="M401.83 194.41C400.48 192.21 401.86 190.15 402.37 188.05C402.65 188.06 402.94 188.07 403.22 188.07C403.16 190.18 403.11 192.29 403.05 194.4C402.65 194.41 402.24 194.41 401.83 194.41Z" />
			<path id="Layer" fill-rule="evenodd" class="shp12" d="M439.1 197.84C436.57 196.72 436.99 194.04 436.23 191.98C436.5 191.84 436.76 191.71 437.03 191.56C438.04 193.49 439.04 195.42 440.05 197.34C439.74 197.51 439.42 197.68 439.1 197.84Z" />
			<path id="Layer" fill-rule="evenodd" class="shp12" d="M400.04 214.25C399.08 212.4 399.21 210.43 400.43 208.34C400.69 210.27 400.94 212.2 401.2 214.13C400.81 214.17 400.43 214.21 400.04 214.25Z" />
			<path id="Layer" fill-rule="evenodd" class="shp12" d="M418.37 192.45C416.7 189.43 417.29 187.59 420.26 185.32C419.62 187.72 419.08 189.76 418.37 192.45Z" />
			<path id="Layer" fill-rule="evenodd" class="shp12" d="M447.54 208.45C448.82 210.23 450.11 212.01 451.5 213.95C449.45 214.31 447.79 212.26 446.93 208.92C447.13 208.76 447.33 208.61 447.54 208.45Z" />
			<path id="Layer" fill-rule="evenodd" class="shp12" d="M418.59 173.07C416.42 171.49 414.4 169.85 415.94 166.13C416.97 168.81 417.78 170.94 418.59 173.07Z" />
			<path id="Layer" fill-rule="evenodd" class="shp12" d="M413.24 210.47C411.13 208.8 411.29 206.99 413.51 204.01C413.41 206.55 413.32 208.51 413.24 210.47Z" />
			<path id="Layer" fill-rule="evenodd" class="shp12" d="M448.72 221.07C448 219.24 447.29 217.41 446.57 215.58C446.94 215.42 447.31 215.26 447.67 215.1C448.49 216.9 449.3 218.71 450.11 220.51C449.65 220.7 449.18 220.88 448.72 221.07Z" />
			<path id="Layer" fill-rule="evenodd" class="shp12" d="M442.89 205.7C443.78 207.56 444.68 209.42 445.69 211.51C443.27 211.15 442.29 209.2 442.89 205.7Z" />
			<path id="Layer" fill-rule="evenodd" class="shp12" d="M426.85 180.47C427.21 182.14 427.57 183.8 427.98 185.67C425.38 184.57 425.01 183.33 426.85 180.47Z" />
			<path id="Layer" fill-rule="evenodd" class="shp12" d="M419.2 196.06C418.95 198.56 418.77 200.33 418.57 202.39C416.4 200.78 416.54 199.35 419.2 196.06Z" />
			<path id="Layer" fill-rule="evenodd" class="shp12" d="M391.32 210.78C392.64 214.38 392.23 215.73 389.94 215.84C390.42 214.07 390.87 212.43 391.32 210.78Z" />
			<path id="Layer" fill-rule="evenodd" class="shp12" d="M433.84 202.1C431.03 202 430.88 200.92 433.17 197.06C433.42 198.91 433.63 200.49 433.84 202.1Z" />
			<path id="Layer" fill-rule="evenodd" class="shp12" d="M442.39 218C442.46 220.04 442.52 221.74 442.59 223.53C440.39 222.4 440.24 220.34 442.39 218Z" />
			<path id="Layer" fill-rule="evenodd" class="shp12" d="M433.93 218.75C434.34 220.21 434.75 221.68 435.19 223.29C432.79 223.02 432.27 221.5 433.93 218.75Z" />
			<path id="Layer" fill-rule="evenodd" class="shp12" d="M421.33 216.18C421.61 218.26 421.83 219.95 422.09 221.84C420.18 220.61 419.9 218.51 421.33 216.18Z" />
			<path id="Layer" fill-rule="evenodd" class="shp12" d="M433.38 191.39C433.35 189.62 433.31 187.85 433.28 186.08C433.67 186.06 434.07 186.05 434.46 186.03C434.6 187.81 434.74 189.59 434.88 191.36C434.38 191.37 433.88 191.38 433.38 191.39Z" />
			<path id="Layer" fill-rule="evenodd" class="shp12" d="M411.4 198.5C409.67 196.63 409.92 195.23 412.57 192.22C412.12 194.65 411.79 196.44 411.4 198.5Z" />
			<path id="Layer" fill-rule="evenodd" class="shp12" d="M400.76 224.57C401.4 225.82 402.05 227.07 403.08 229.08C401.7 228.68 400.66 228.66 400.51 228.28C400.07 227.21 400 225.99 399.78 224.83C400.11 224.75 400.43 224.66 400.76 224.57Z" />
			<path id="Layer" fill-rule="evenodd" class="shp12" d="M422.49 201.9C422.54 203.14 422.69 204.38 422.59 205.6C422.56 205.96 421.81 206.25 421.4 206.58C421.16 206.19 420.67 205.77 420.73 205.43C420.95 204.19 421.34 202.98 421.67 201.75C421.94 201.8 422.22 201.85 422.49 201.9Z" />
			<path id="Layer" fill-rule="evenodd" class="shp12" d="M426.43 228.83C426.02 227.34 425.6 225.84 425.18 224.35C425.56 224.23 425.94 224.11 426.33 224C426.81 225.47 427.3 226.94 427.78 228.41C427.33 228.56 426.88 228.69 426.43 228.83Z" />
			<path id="Layer" fill-rule="evenodd" class="shp12" d="M424.9 189.73C424.78 191.64 424.65 193.55 424.53 195.46C424.29 195.44 424.06 195.42 423.82 195.4C423.61 193.46 422.31 191.42 424.9 189.73Z" />
			<path id="Layer" fill-rule="evenodd" class="shp12" d="M418.19 207.85C418.78 209.68 418.49 211.31 417.6 212.8C417.22 212.73 416.85 212.65 416.46 212.57C416.78 210.98 417.1 209.38 417.41 207.79C417.67 207.81 417.93 207.83 418.19 207.85Z" />
			<path id="Layer" fill-rule="evenodd" class="shp12" d="M431.96 206.9C431.81 208.56 431.65 210.23 431.49 211.89C431.06 211.85 430.63 211.81 430.19 211.76C430.39 210.12 430.6 208.48 430.8 206.84C431.19 206.86 431.57 206.88 431.96 206.9Z" />
			<path id="Layer" fill-rule="evenodd" class="shp12" d="M410.94 217.96C411.07 218.97 411.32 219.98 411.28 220.98C411.26 221.4 410.62 221.79 410.26 222.19C409.9 221.75 409.21 221.27 409.26 220.89C409.39 219.86 409.85 218.87 410.17 217.86C410.43 217.89 410.68 217.93 410.94 217.96Z" />
			<path id="Layer" fill-rule="evenodd" class="shp12" d="M396.44 220.42C395.9 218.94 395.36 217.46 394.82 215.98C395.17 215.84 395.53 215.69 395.88 215.54C396.51 216.97 397.15 218.41 397.78 219.85C397.33 220.04 396.89 220.23 396.44 220.42Z" />
			<path id="Layer" fill-rule="evenodd" class="shp12" d="M444.08 204.9C443.43 203.39 442.77 201.88 442.12 200.38C442.45 200.21 442.78 200.05 443.11 199.89C443.86 201.32 444.6 202.76 445.35 204.2C444.93 204.43 444.5 204.67 444.08 204.9Z" />
			<path id="Layer" fill-rule="evenodd" class="shp12" d="M390.26 204.61C389.85 206.25 389.43 207.88 389.02 209.51C388.59 209.39 388.15 209.26 387.72 209.14C388.25 207.53 388.77 205.93 389.3 204.33C389.62 204.42 389.94 204.52 390.26 204.61Z" />
			<path id="Layer" fill-rule="evenodd" class="shp12" d="M415.6 222.34C415.38 220.68 415.19 219.27 414.96 217.52C417.09 219.41 417.26 221 415.6 222.34Z" />
			<path id="Layer" fill-rule="evenodd" class="shp12" d="M444.41 187.89C446.04 189.75 447.19 191.07 448.36 192.41C446.31 193.65 445.25 192.56 444.41 187.89Z" />
			<path id="Layer" fill-rule="evenodd" class="shp12" d="M454.76 198.41C455.85 199.92 456.94 201.44 458.1 203.04C456 203.39 454.78 201.9 454.76 198.41Z" />
			<path id="Layer" fill-rule="evenodd" class="shp12" d="M458.47 212.77C460.26 215.32 460.45 216.87 458.72 218.15C458.37 216.25 458.06 214.57 457.75 212.88C457.99 212.85 458.23 212.81 458.47 212.77Z" />
			<path id="Layer" fill-rule="evenodd" class="shp12" d="M469.93 207.94C472.01 209.84 471.02 211.72 470.53 213.59C470.26 213.59 469.98 213.59 469.7 213.58C469.78 211.7 469.86 209.82 469.93 207.94Z" />
			<path id="Layer" fill-rule="evenodd" class="shp12" d="M460.62 198.56C461.55 200.26 462.48 201.97 463.42 203.67C463.06 203.87 462.71 204.07 462.36 204.27C461.43 202.56 460.5 200.86 459.57 199.15C459.92 198.95 460.27 198.76 460.62 198.56Z" />
			<path id="Layer" fill-rule="evenodd" class="shp12" d="M462.66 213.74C462.45 212.13 462.23 210.52 462.02 208.91C462.25 208.86 462.48 208.8 462.71 208.75C463.05 210.33 463.38 211.91 463.72 213.49C463.37 213.57 463.01 213.65 462.66 213.74Z" />
			<path id="Layer" class="shp16" d="M497.06 214.79C497.06 214.79 497.06 214.79 497.06 214.8C497.06 214.79 497.06 214.79 497.06 214.79Z" />
		</g>
	</g>
</svg>