<svg version="1.2" baseProfile="tiny-ps" xmlns="http://www.w3.org/2000/svg" viewBox="0 0 1920 1099" width="1920" height="1099">
	<title>landingBG-svg</title>
	<defs>
		<clipPath clipPathUnits="userSpaceOnUse" id="cp1">
			<path d="M0 922.32L0 0L1920 0L1920 919.24C1626.19 1032.77 1299.78 1096 956 1096C615.34 1096 291.73 1033.91 0 922.32Z" />
		</clipPath>
	</defs>
	<style>
		tspan { white-space:pre }
		.shp0 { fill: #fdeaa7 } 
		.shp1 { fill: #fa6456 } 
		.shp2 { fill: #2e1e00 } 
		.shp3 { fill: #fefffa } 
		.shp4 { fill: #ffdc38 } 
		.shp5 { fill: #adf0e7 } 
		.shp6 { opacity: 0.4;fill: #fefffa } 
		.shp7 { opacity: 0.4;fill: #2e1e00 } 
		.shp8 { fill: #c7b19a } 
		.shp9 { fill: #f9a058 } 
		.shp10 { fill: #333333 } 
		.shp11 { fill: #000000 } 
		.shp12 { fill: #e3c8a1 } 
		.shp13 { fill: #b18e5d } 
		.shp14 { fill: #ffffff } 
		.shp15 { fill: #ffffff;stroke: #333333;stroke-width: 2 } 
		.shp16 { fill: #73b7ea } 
		.shp17 { fill: none;stroke: #000000 } 
	</style>
	<g id="Clip-Path" clip-path="url(#cp1)">
		<g id="Layer">
			<path id="Layer" class="shp0" d="M0 922.32L0 0L1920 0L1920 919.24C1626.19 1032.77 1299.78 1096 956 1096C615.34 1096 291.73 1033.91 0 922.32Z" />
			<path id="Layer" class="shp1" d="M1720.76 418.22C1730.08 412.78 1750.64 405.4 1763.61 416.63C1775.82 427.2 1772.67 446.8 1772.33 448.73C1782.69 438.25 1798.6 440.25 1804.61 448.78C1809.79 456.12 1808.07 468.93 1798.45 476.6C1802.43 477.62 1816.51 481.68 1820.33 492.54C1825.56 507.43 1808.06 525.2 1795.39 532.65C1768.22 548.62 1718.68 543.31 1698.9 507.9C1680.98 475.82 1695.31 433.06 1720.76 418.22Z" />
			<path id="Layer" fill-rule="evenodd" class="shp2" d="M1752.41 541.28C1748.05 540.83 1743.71 540.04 1739.45 538.88C1721.35 533.97 1706.79 523.05 1698.46 508.14C1690.02 493.02 1688.11 474.67 1693.09 456.46C1697.7 439.57 1707.95 425.11 1720.51 417.79C1730.54 411.94 1750.97 405.03 1763.93 416.25C1774.82 425.67 1773.71 442.13 1773.03 447.36C1778.01 442.88 1784.5 440.64 1791.05 441.19C1796.91 441.67 1802.14 444.41 1805.02 448.49C1810.01 455.58 1808.91 468.28 1799.51 476.37C1805.4 478 1817.31 482.45 1820.8 492.38C1826.01 507.19 1809.22 525.1 1795.64 533.08C1783.82 540.03 1768.06 542.9 1752.41 541.28ZM1721.01 418.65C1708.68 425.84 1698.6 440.08 1694.05 456.73C1689.14 474.68 1691.02 492.77 1699.33 507.65C1707.53 522.33 1721.87 533.08 1739.71 537.92C1759.01 543.16 1780.25 540.98 1795.14 532.22C1802.26 528.03 1809.38 521.63 1814.17 515.09C1818.36 509.39 1822.74 500.88 1819.86 492.71C1816.34 482.68 1803.63 478.44 1798.33 477.08C1798.14 477.03 1798 476.89 1797.96 476.7C1797.92 476.52 1797.99 476.33 1798.14 476.21C1807.79 468.52 1809.06 455.96 1804.2 449.06C1801.49 445.22 1796.54 442.64 1790.97 442.18C1784.24 441.62 1777.57 444.13 1772.68 449.07C1772.53 449.23 1772.29 449.27 1772.1 449.17C1771.91 449.07 1771.8 448.85 1771.84 448.64C1772.22 446.49 1775.19 427.31 1763.28 417C1757.68 412.15 1750.14 410.36 1740.88 411.67C1731.2 413.04 1723.22 417.36 1721.01 418.65Z" />
			<path id="Layer" class="shp3" d="M1427.88 583.11C1439.5 575.66 1453.91 572.55 1468.5 575.53C1498.24 581.59 1517.43 610.61 1511.37 640.34C1511.31 640.62 1511.26 640.9 1511.19 641.18C1507.95 655.95 1499.02 668.04 1487.18 675.63C1473.72 669.88 1458.34 661.31 1442.81 650.49C1427.29 639.66 1413.92 628.21 1403.87 617.57C1407.1 602.79 1416.04 590.69 1427.88 583.11Z" />
			<path id="Layer" fill-rule="evenodd" class="shp2" d="M1403.38 617.46C1406.55 603.02 1415.15 590.67 1427.61 582.69C1439.82 574.86 1454.38 572.14 1468.6 575.04C1483.11 578 1495.6 586.43 1503.77 598.78C1511.94 611.13 1514.81 625.93 1511.86 640.44C1511.8 640.73 1511.74 641.01 1511.67 641.28C1508.51 655.72 1499.9 668.06 1487.45 676.05C1487.31 676.13 1487.14 676.15 1486.99 676.09C1472.96 670.1 1457.59 661.39 1442.53 650.89C1427.45 640.39 1413.96 628.98 1403.5 617.91C1403.48 617.88 1403.46 617.85 1403.44 617.82C1403.37 617.71 1403.35 617.58 1403.38 617.46ZM1510.7 641.06C1510.77 640.79 1510.83 640.52 1510.88 640.24C1513.79 625.99 1510.97 611.46 1502.94 599.33C1494.92 587.2 1482.65 578.92 1468.4 576.01C1454.43 573.17 1440.14 575.84 1428.14 583.53C1415.99 591.32 1407.56 603.35 1404.41 617.42C1414.79 628.38 1428.17 639.67 1443.1 650.08C1458.02 660.48 1473.24 669.11 1487.14 675.07C1499.24 667.22 1507.61 655.16 1510.7 641.06Z" />
			<path id="Layer" class="shp3" d="M1403.87 617.57C1413.92 628.21 1427.29 639.66 1442.81 650.49C1458.34 661.3 1473.72 669.88 1487.18 675.63C1475.57 683.08 1461.15 686.19 1446.56 683.21C1416.82 677.15 1397.63 648.14 1403.69 618.4C1403.74 618.12 1403.8 617.84 1403.87 617.57Z" />
			<path id="Layer" fill-rule="evenodd" class="shp2" d="M1403.2 618.3L1403.2 618.29C1403.26 618.01 1403.32 617.73 1403.38 617.45C1403.43 617.27 1403.56 617.13 1403.74 617.09C1403.92 617.04 1404.1 617.09 1404.23 617.23C1414.64 628.25 1428.08 639.61 1443.1 650.08C1458.1 660.54 1473.41 669.21 1487.38 675.17C1487.55 675.24 1487.66 675.4 1487.68 675.59C1487.7 675.77 1487.61 675.95 1487.45 676.05C1475.24 683.88 1460.68 686.6 1446.46 683.7C1431.95 680.74 1419.45 672.31 1411.28 659.96C1410.67 659.04 1410.09 658.1 1409.54 657.15C1402.72 645.4 1400.46 631.73 1403.2 618.3ZM1442.53 650.89C1427.77 640.6 1414.52 629.45 1404.15 618.59C1398.22 647.98 1417.27 676.74 1446.66 682.73C1460.32 685.51 1474.29 683.02 1486.12 675.71C1472.33 669.74 1457.28 661.17 1442.53 650.89ZM1403.69 618.4L1403.68 618.39L1403.69 618.4Z" />
			<path id="Layer" fill-rule="evenodd" class="shp2" d="M1486.69 675.67C1486.67 675.49 1486.76 675.31 1486.92 675.21C1499.14 667.37 1507.59 655.25 1510.7 641.07C1510.74 640.89 1510.88 640.75 1511.06 640.7C1511.23 640.65 1511.42 640.7 1511.55 640.83C1528.22 658.48 1534.92 672.69 1529.94 679.83C1524.97 686.98 1509.31 685.61 1486.99 676.09C1486.89 676.04 1486.81 675.97 1486.75 675.88C1486.72 675.81 1486.69 675.74 1486.69 675.67ZM1511.47 642.2C1508.21 655.93 1500 667.71 1488.24 675.53C1509.32 684.39 1524.58 685.8 1529.13 679.26C1531.83 675.39 1530.61 668.97 1525.92 660.89C1522.7 655.34 1517.83 649.01 1511.47 642.2Z" />
			<path id="Layer" fill-rule="evenodd" class="shp2" d="M1385.11 578.9C1390.09 571.77 1405.75 573.13 1428.07 582.65C1428.24 582.73 1428.36 582.89 1428.37 583.07C1428.39 583.25 1428.3 583.43 1428.15 583.53C1415.91 591.37 1407.46 603.49 1404.35 617.67C1404.31 617.85 1404.18 618 1404 618.05C1403.82 618.1 1403.63 618.04 1403.51 617.91C1396.72 610.73 1391.59 604.12 1388.23 598.32C1383.32 589.87 1382.16 583.14 1385.11 578.9ZM1426.82 583.21C1405.74 574.35 1390.48 572.94 1385.93 579.47C1381.37 586 1387.97 599.83 1403.59 616.54C1406.84 602.8 1415.05 591.02 1426.82 583.21Z" />
			<path id="Layer" class="shp4" d="M1511.49 531.77C1513.49 535.22 1512.32 539.65 1508.87 541.65C1505.41 543.66 1500.99 542.48 1498.98 539.03C1496.98 535.58 1498.15 531.15 1501.6 529.15C1505.06 527.14 1509.48 528.32 1511.49 531.77Z" />
			<path id="Layer" fill-rule="evenodd" class="shp2" d="M1501.36 528.72C1505.04 526.58 1509.78 527.84 1511.92 531.52C1514.06 535.21 1512.8 539.94 1509.12 542.08C1505.43 544.22 1500.69 542.97 1498.55 539.28C1496.41 535.6 1497.67 530.86 1501.36 528.72ZM1501.85 529.58C1498.65 531.44 1497.55 535.57 1499.41 538.78C1501.28 541.99 1505.41 543.09 1508.62 541.22C1511.83 539.36 1512.92 535.23 1511.06 532.02C1509.19 528.81 1505.07 527.72 1501.85 529.58Z" />
			<path id="Layer" class="shp3" d="M1605.6 689.06C1605.6 689.06 1612.45 695.67 1608.18 700.55C1603.92 705.44 1596.76 699.12 1596.76 699.12C1596.76 699.12 1591.08 708.2 1584.81 702.57C1578.53 696.95 1586.54 692.3 1586.54 692.3C1586.54 692.3 1581.12 689.79 1581.06 683.69C1581.01 677.58 1588.75 676.82 1592.39 681.44C1592.39 681.44 1599.83 671.85 1604.93 676.7C1610.04 681.56 1605.6 689.06 1605.6 689.06Z" />
			<path id="Layer" fill-rule="evenodd" class="shp2" d="M1581.93 697.65C1582.2 695.09 1584.42 693.18 1585.58 692.34C1584.03 691.38 1580.61 688.7 1580.56 683.69C1580.54 681.1 1581.84 679.14 1584.14 678.33C1586.88 677.37 1590.25 678.35 1592.38 680.67C1593.58 679.25 1597.36 675.14 1601.21 674.85C1602.74 674.73 1604.11 675.24 1605.28 676.34C1609.97 680.81 1607.01 687.41 1606.21 688.97C1607.46 690.31 1612.57 696.29 1608.56 700.88C1607.48 702.11 1606.14 702.79 1604.58 702.89C1601.32 703.1 1598.03 700.77 1596.87 699.85C1595.99 701.09 1593.36 704.37 1589.93 704.85C1588.02 705.12 1586.19 704.48 1584.47 702.94C1583.69 702.24 1583.09 701.53 1582.66 700.79C1582.07 699.77 1581.82 698.72 1581.93 697.65ZM1605.25 689.41C1605.09 689.25 1605.05 689 1605.17 688.8C1605.21 688.73 1609.34 681.59 1604.59 677.06C1603.63 676.14 1602.54 675.75 1601.28 675.84C1597.17 676.15 1592.83 681.69 1592.79 681.75C1592.69 681.87 1592.55 681.94 1592.39 681.94C1592.24 681.94 1592.1 681.87 1592 681.75C1589.92 679.11 1586.64 678.51 1584.47 679.27C1582.6 679.93 1581.54 681.54 1581.56 683.68C1581.61 689.39 1586.54 691.75 1586.75 691.85C1586.92 691.93 1587.03 692.09 1587.04 692.28C1587.05 692.46 1586.95 692.64 1586.79 692.73C1586.76 692.75 1583.22 694.84 1582.92 697.75C1582.77 699.25 1583.52 700.75 1585.14 702.2C1586.62 703.53 1588.19 704.09 1589.79 703.86C1593.48 703.35 1596.31 698.9 1596.34 698.86C1596.42 698.73 1596.55 698.65 1596.69 698.63C1596.83 698.61 1596.98 698.65 1597.09 698.75C1597.13 698.78 1600.96 702.13 1604.51 701.9C1605.8 701.81 1606.91 701.25 1607.81 700.23C1609.92 697.81 1609.02 694.87 1607.74 692.66C1606.65 690.78 1605.28 689.44 1605.25 689.41Z" />
			<path id="Layer" class="shp2" d="M1479.72 754.84C1479.18 755.15 1478.48 754.97 1478.16 754.42C1477.84 753.88 1478.03 753.18 1478.57 752.86C1479.12 752.54 1479.82 752.73 1480.14 753.27C1480.45 753.82 1480.27 754.52 1479.72 754.84Z" />
			<path id="Layer" class="shp4" d="M1554.4 865.64L1517.73 875.53L1494.87 915.4L1479.09 872.07L1445.11 855.87L1481.88 845.13L1504.64 806.11L1520.52 848.58L1554.4 865.64Z" />
			<path id="Layer" fill-rule="evenodd" class="shp2" d="M1494.82 915.9C1494.63 915.88 1494.47 915.75 1494.41 915.58L1478.69 872.43L1444.9 856.32C1444.71 856.23 1444.6 856.04 1444.61 855.83C1444.63 855.63 1444.77 855.45 1444.97 855.4L1481.54 844.7L1504.21 805.86C1504.31 805.69 1504.49 805.6 1504.68 805.61C1504.87 805.64 1505.04 805.76 1505.11 805.94L1520.91 848.22L1554.63 865.2C1554.81 865.29 1554.92 865.49 1554.9 865.69C1554.88 865.9 1554.73 866.07 1554.53 866.12L1518.06 875.95L1495.3 915.65C1495.21 915.82 1495.02 915.92 1494.83 915.9L1494.82 915.9L1494.82 915.9ZM1446.5 855.99L1479.3 871.62C1479.42 871.68 1479.51 871.78 1479.56 871.9L1494.97 914.23L1517.3 875.28C1517.36 875.16 1517.47 875.08 1517.6 875.05L1553.02 865.5L1520.29 849.02C1520.18 848.97 1520.09 848.87 1520.05 848.76L1504.54 807.27L1482.3 845.38C1482.24 845.49 1482.14 845.57 1482.01 845.61L1446.5 855.99Z" />
			<path id="Layer" class="shp5" d="M1545.31 342.85C1539.59 349.93 1469.46 356.5 1469.46 356.5L1432.52 425.49C1432.52 425.49 1408.47 473.3 1394.27 470.33C1374.27 466.14 1431.34 376.68 1431.34 376.68L1422.58 374.16C1422.58 374.16 1407.39 402.75 1384.13 404.27C1360.87 405.81 1307.25 392.21 1312.73 377.13C1317.12 365.05 1382.8 380.68 1382.8 380.68L1439.72 292.11C1447.35 302.66 1465.93 323.05 1492.12 316.93L1492.13 316.93C1501.94 316.06 1527.24 314.18 1535.78 317.17C1546.46 320.9 1539.21 329.5 1539.21 329.5C1539.21 329.5 1551.04 335.77 1545.31 342.85Z" />
			<path id="Layer" fill-rule="evenodd" class="shp2" d="M1397.79 470.64C1396.54 470.98 1395.32 471.06 1394.17 470.81C1392.3 470.42 1390.98 469.33 1390.23 467.56C1383.61 451.83 1425.87 384.38 1430.56 376.98L1422.82 374.74C1421.14 377.74 1408.76 398.68 1390.26 403.74C1388.3 404.28 1386.26 404.63 1384.16 404.77C1364.42 406.07 1322.98 396.64 1313.72 384.3C1311.88 381.84 1311.38 379.37 1312.26 376.96C1314.17 371.7 1326.7 370.66 1349.48 373.88C1364.94 376.07 1380.12 379.55 1382.57 380.12L1439.3 291.84C1439.39 291.7 1439.54 291.61 1439.71 291.61C1439.87 291.61 1440.03 291.68 1440.12 291.81C1444.02 297.2 1450.5 304.79 1459.23 310.35C1469.71 317.02 1480.74 319.08 1492.01 316.44C1492.03 316.44 1492.06 316.43 1492.08 316.43C1502.42 315.51 1527.37 313.7 1535.94 316.7C1539.26 317.86 1541.27 319.61 1541.9 321.91C1542.75 325.03 1540.8 328.18 1539.95 329.35C1541.56 330.3 1546.4 333.45 1547.25 337.6C1547.64 339.53 1547.12 341.4 1545.7 343.16C1540.03 350.18 1475.19 356.46 1469.77 356.98L1432.96 425.73C1432.06 427.53 1412.19 466.7 1397.79 470.64ZM1422.45 373.68C1422.53 373.65 1422.63 373.65 1422.72 373.68L1431.47 376.2C1431.63 376.25 1431.75 376.36 1431.8 376.51C1431.86 376.65 1431.84 376.82 1431.76 376.95C1431.28 377.69 1384.49 451.35 1391.15 467.18C1391.77 468.64 1392.82 469.52 1394.37 469.84C1408.03 472.69 1431.84 425.75 1432.08 425.27L1469.02 356.27C1469.1 356.12 1469.25 356.02 1469.41 356.01C1493.6 353.74 1540.5 348.01 1544.93 342.54C1546.15 341.02 1546.61 339.43 1546.27 337.81C1545.37 333.38 1539.04 329.97 1538.98 329.94C1538.84 329.87 1538.75 329.74 1538.72 329.6C1538.69 329.45 1538.73 329.3 1538.83 329.18C1538.86 329.14 1541.86 325.52 1540.94 322.17C1540.4 320.21 1538.61 318.68 1535.61 317.64C1527.23 314.71 1502.49 316.51 1492.21 317.42C1480.66 320.1 1469.39 318 1458.69 311.19C1450.14 305.74 1443.73 298.4 1439.74 292.99L1383.22 380.95C1383.11 381.13 1382.89 381.21 1382.69 381.17C1382.52 381.13 1366.09 377.24 1349.34 374.87C1321.62 370.95 1314.39 374.03 1313.2 377.3C1312.44 379.38 1312.89 381.53 1314.52 383.7C1318.54 389.06 1329.75 394.51 1345.28 398.67C1359.25 402.4 1374.49 404.41 1384.09 403.78C1406.81 402.29 1421.99 374.21 1422.14 373.92C1422.21 373.8 1422.32 373.71 1422.45 373.68Z" />
			<path id="Layer" class="shp2" d="M1488.3 317.79C1488.27 317.79 1488.23 317.8 1488.2 317.8L1435.21 320.52C1434.94 320.54 1434.7 320.33 1434.69 320.05C1434.68 319.78 1434.89 319.55 1435.16 319.53L1488.15 316.81C1488.42 316.79 1488.66 317 1488.67 317.28C1488.68 317.52 1488.52 317.72 1488.3 317.79Z" />
			<path id="Layer" class="shp2" d="M1532.86 332.49C1523.65 335.01 1506.53 337.44 1481.73 339.75C1457.08 342.03 1433.63 343.33 1433.39 343.35C1433.12 343.36 1432.88 343.15 1432.87 342.88C1432.85 342.6 1433.06 342.37 1433.34 342.35C1434.27 342.3 1526.9 337.12 1538.94 329.08C1539.17 328.93 1539.47 328.99 1539.63 329.22C1539.78 329.45 1539.72 329.76 1539.49 329.91C1538.19 330.78 1535.97 331.64 1532.86 332.49Z" />
			<path id="Layer" class="shp2" d="M1469.59 356.99C1469.48 357.02 1469.35 357.01 1469.24 356.95C1468.99 356.84 1468.89 356.54 1469.01 356.29L1477.07 339.41C1477.19 339.17 1477.48 339.06 1477.73 339.18C1477.98 339.3 1478.09 339.59 1477.97 339.84L1469.9 356.72C1469.84 356.86 1469.72 356.95 1469.59 356.99Z" />
			<path id="Layer" class="shp2" d="M1435.2 376.6C1435.19 376.6 1435.17 376.61 1435.15 376.61C1430.06 377.51 1425.2 375.69 1422.01 374.01C1418.58 372.19 1416.37 370.19 1416.28 370.11C1416.07 369.93 1416.06 369.61 1416.24 369.41C1416.43 369.2 1416.74 369.19 1416.95 369.37C1417.03 369.45 1425.75 377.26 1434.98 375.63C1435.25 375.58 1435.51 375.76 1435.56 376.03C1435.6 376.29 1435.44 376.53 1435.2 376.6Z" />
			<path id="Layer" class="shp1" d="M1439.72 292.11C1451.68 273.48 1463.57 254.89 1476.49 236.91L1479.23 256.33C1494.3 258.61 1502.55 270.99 1502.55 270.99L1516.46 263C1504.91 305.54 1488.17 317.3 1488.17 317.3C1455.65 321.01 1439.72 292.11 1439.72 292.11Z" />
			<path id="Layer" fill-rule="evenodd" class="shp2" d="M1488.3 317.78C1488.28 317.79 1488.25 317.79 1488.23 317.8C1471.25 319.73 1458.85 312.71 1451.43 306.48C1443.4 299.73 1439.32 292.42 1439.28 292.35C1439.19 292.19 1439.2 291.99 1439.3 291.84L1440.81 289.49C1452.06 271.97 1463.7 253.85 1476.09 236.62C1476.21 236.45 1476.41 236.38 1476.61 236.43C1476.81 236.47 1476.96 236.64 1476.98 236.84L1479.67 255.9C1493.06 258.08 1501.15 268.23 1502.69 270.33L1516.21 262.57C1516.39 262.47 1516.61 262.48 1516.77 262.61C1516.93 262.73 1517 262.94 1516.94 263.13C1513.64 275.3 1507.74 292.68 1498.4 306.38C1492.78 314.62 1488.63 317.59 1488.46 317.71C1488.41 317.74 1488.36 317.77 1488.3 317.78ZM1440.3 292.12C1441.09 293.46 1445.04 299.81 1452.1 305.74C1459.34 311.81 1471.44 318.66 1487.98 316.82C1489.36 315.77 1504.78 303.27 1515.66 264.03L1502.8 271.42C1502.57 271.55 1502.28 271.48 1502.13 271.26C1502.05 271.14 1493.82 259.04 1479.15 256.83C1478.94 256.79 1478.77 256.62 1478.74 256.4L1476.17 238.21C1464.07 255.12 1452.67 272.86 1441.65 290.02L1440.3 292.12Z" />
			<path id="Layer" class="shp2" d="M1457.54 264.58L1465.16 275.37L1451.82 273.32L1457.54 264.58Z" />
			<path id="Layer" fill-rule="evenodd" class="shp2" d="M1465.29 275.85C1465.22 275.87 1465.15 275.87 1465.08 275.86L1451.75 273.82C1451.58 273.79 1451.44 273.68 1451.37 273.53C1451.3 273.37 1451.31 273.19 1451.41 273.05L1457.12 264.31C1457.21 264.17 1457.37 264.08 1457.53 264.08C1457.7 264.08 1457.85 264.16 1457.95 264.29L1465.56 275.08C1465.68 275.24 1465.68 275.46 1465.58 275.63C1465.51 275.74 1465.4 275.82 1465.29 275.85ZM1452.66 272.95L1464.07 274.7L1457.56 265.46L1452.66 272.95Z" />
			<path id="Layer" class="shp2" d="M1448.77 278.04L1455.33 286.14L1445.06 283.25L1448.77 278.04Z" />
			<path id="Layer" fill-rule="evenodd" class="shp2" d="M1455.46 286.62C1455.37 286.64 1455.28 286.64 1455.19 286.62L1444.92 283.73C1444.77 283.69 1444.64 283.57 1444.59 283.42C1444.53 283.26 1444.56 283.1 1444.65 282.96L1448.36 277.75C1448.45 277.63 1448.6 277.55 1448.75 277.54C1448.91 277.54 1449.06 277.61 1449.15 277.73L1455.71 285.83C1455.85 285.99 1455.86 286.23 1455.74 286.41C1455.67 286.52 1455.57 286.59 1455.46 286.62ZM1445.87 282.96L1453.95 285.24L1448.79 278.86L1445.87 282.96Z" />
			<path id="Layer" class="shp2" d="M1485.23 296.04C1485.12 296.07 1484.99 296.06 1484.88 296.01C1478.66 292.96 1481.28 286.18 1481.3 286.11C1481.4 285.86 1481.69 285.73 1481.95 285.83C1482.2 285.94 1482.33 286.22 1482.23 286.48C1482.13 286.72 1479.93 292.47 1485.32 295.12C1485.56 295.24 1485.67 295.54 1485.54 295.78C1485.48 295.92 1485.36 296.01 1485.23 296.04Z" />
			<path id="Layer" class="shp2" d="M1493.75 289.72C1494.17 291.28 1493.26 292.89 1491.7 293.32C1490.14 293.75 1488.53 292.83 1488.1 291.27C1487.67 289.71 1488.59 288.1 1490.15 287.67C1491.71 287.25 1493.32 288.16 1493.75 289.72Z" />
			<path id="Layer" class="shp2" d="M1487.03 280.93C1487.28 281.83 1486.74 282.76 1485.84 283.01C1484.94 283.25 1484.01 282.72 1483.76 281.82C1483.52 280.92 1484.05 279.99 1484.95 279.74C1485.85 279.49 1486.78 280.02 1487.03 280.93Z" />
			<path id="Layer" class="shp2" d="M1500.9 289.05C1501.14 289.95 1500.61 290.88 1499.71 291.13C1498.81 291.38 1497.88 290.84 1497.63 289.94C1497.38 289.04 1497.92 288.11 1498.82 287.86C1499.72 287.62 1500.65 288.15 1500.9 289.05Z" />
			<path id="Layer" class="shp2" d="M1490.42 272.65C1490.53 274.19 1488.29 275.62 1485.42 275.82C1482.56 276.02 1480.14 274.94 1480.03 273.39C1479.92 271.84 1482.16 270.42 1485.02 270.22C1487.89 270.01 1490.31 271.1 1490.42 272.65Z" />
			<path id="Layer" class="shp2" d="M1508.68 284.58C1510.4 286.88 1510.78 289.5 1509.54 290.43C1508.3 291.36 1505.9 290.24 1504.18 287.94C1502.46 285.63 1502.07 283.01 1503.32 282.08C1504.56 281.16 1506.96 282.27 1508.68 284.58Z" />
			<g id="Layer" style="opacity: 0.4">
				<g id="Layer" style="opacity: 0.4">
					<path id="Layer" class="shp6" d="M1529.02 260.3C1536.37 287.18 1520.54 314.94 1493.65 322.29C1466.76 329.64 1439 313.81 1431.65 286.92C1424.3 260.03 1440.14 232.27 1467.03 224.92C1493.91 217.57 1521.67 233.41 1529.02 260.3Z" />
					<path id="Layer" fill-rule="evenodd" class="shp7" d="M1493.78 322.77C1466.67 330.18 1438.58 314.16 1431.17 287.05C1423.76 259.94 1439.79 231.85 1466.89 224.44C1494 217.03 1522.09 233.06 1529.5 260.16C1536.91 287.27 1520.89 315.36 1493.78 322.77ZM1467.16 225.4C1440.58 232.67 1424.87 260.21 1432.13 286.79C1439.4 313.37 1466.94 329.08 1493.52 321.81C1520.1 314.54 1535.81 287.01 1528.54 260.43C1521.27 233.85 1493.74 218.13 1467.16 225.4Z" />
				</g>
			</g>
			<path id="Layer" fill-rule="evenodd" class="shp2" d="M1493.78 322.77C1466.67 330.18 1438.58 314.16 1431.17 287.05C1423.76 259.94 1439.79 231.85 1466.89 224.44C1494 217.03 1522.09 233.06 1529.5 260.16C1536.91 287.27 1520.89 315.36 1493.78 322.77ZM1467.16 225.4C1440.58 232.67 1424.87 260.21 1432.13 286.79C1439.4 313.37 1466.94 329.08 1493.52 321.81C1520.1 314.54 1535.81 287.01 1528.54 260.43C1521.27 233.85 1493.74 218.13 1467.16 225.4Z" />
			<path id="Layer" class="shp3" d="M1734.47 841.96C1743.3 844.89 1736.89 855.45 1736.89 855.45C1736.89 855.45 1757.2 856.65 1754.08 871.6C1750.96 886.54 1732.21 878.99 1732.21 878.99C1733.81 879.63 1731.48 886.89 1731.11 887.94C1730.02 891.04 1728.41 894 1726.07 896.35C1718.72 903.77 1703.4 901.52 1698.09 892.48C1693.07 883.92 1702.18 874.29 1708.4 869.35C1700.86 871.71 1683.62 858.25 1699.31 845.5C1709.6 837.14 1721.98 849.87 1721.98 849.87C1721.98 849.87 1724.29 838.57 1734.47 841.96Z" />
			<path id="Layer" fill-rule="evenodd" class="shp2" d="M1712.06 901.18C1711.9 901.16 1711.74 901.14 1711.58 901.12C1705.5 900.36 1700.3 897.22 1697.66 892.73C1695.35 888.78 1695.66 884.27 1698.6 879.3C1700.86 875.5 1704.24 872.22 1706.68 870.12C1702.19 870.26 1696.42 866.73 1693.85 861.94C1692.08 858.65 1690.4 852.1 1698.99 845.12C1708.18 837.65 1719.02 846.48 1721.71 848.93C1722.2 847.3 1723.58 843.73 1726.73 841.91C1728.95 840.63 1731.61 840.48 1734.63 841.49C1736.96 842.26 1738.5 843.62 1739.21 845.53C1740.5 849.04 1738.57 853.36 1737.7 855.02C1740.3 855.3 1748.63 856.57 1752.69 861.88C1754.74 864.56 1755.37 867.86 1754.57 871.7C1753.76 875.56 1751.87 878.31 1748.94 879.87C1743.49 882.79 1736.07 880.82 1733.21 879.88C1733.56 882.28 1731.98 886.97 1731.58 888.1C1730.36 891.59 1728.62 894.49 1726.43 896.7C1723.05 900.1 1717.71 901.76 1712.06 901.18ZM1708.45 868.85C1708.62 868.87 1708.76 868.96 1708.84 869.11C1708.96 869.32 1708.9 869.59 1708.71 869.74C1704.97 872.71 1693.18 883.12 1698.52 892.23C1701 896.45 1705.93 899.41 1711.7 900.13C1717.22 900.83 1722.46 899.28 1725.72 896C1727.81 893.89 1729.47 891.12 1730.64 887.77C1732.12 883.59 1732.64 879.7 1732.03 879.45C1732.03 879.45 1732.03 879.45 1732.03 879.45C1731.77 879.35 1731.65 879.06 1731.75 878.81C1731.86 878.55 1732.15 878.43 1732.4 878.53C1732.52 878.58 1742.16 882.38 1748.47 879C1751.13 877.57 1752.85 875.05 1753.59 871.5C1754.33 867.96 1753.76 864.93 1751.9 862.49C1747.43 856.65 1736.97 855.96 1736.86 855.95C1736.69 855.94 1736.53 855.84 1736.45 855.68C1736.37 855.53 1736.38 855.35 1736.47 855.2C1736.5 855.14 1739.71 849.77 1738.27 845.87C1737.68 844.26 1736.35 843.11 1734.31 842.43C1731.58 841.52 1729.19 841.64 1727.22 842.77C1723.54 844.9 1722.48 849.92 1722.47 849.97C1722.43 850.15 1722.3 850.3 1722.12 850.35C1721.94 850.4 1721.75 850.35 1721.62 850.22C1721.5 850.09 1709.44 837.91 1699.62 845.89C1691.59 852.42 1693.1 858.45 1694.72 861.47C1697.69 866.99 1704.55 870.03 1708.26 868.87C1708.32 868.85 1708.39 868.84 1708.45 868.85Z" />
			<path id="Layer" fill-rule="evenodd" class="shp8" d="M398.8 524.74C392.85 530.78 386.99 536.73 380.26 543.57C389.7 538.64 397.76 534.43 405.82 530.23C406.06 530.62 406.31 531.01 406.56 531.4C405.44 532.66 404.33 533.93 402.5 536.01C408.15 533.96 412.73 532.3 418.67 530.15C415.86 533.1 414 535.05 412.15 536.99C412.43 537.31 412.73 537.62 413.01 537.94C414.51 536.99 416 536.04 417.24 535.25C425.9 543.92 434.48 552.26 442.69 560.96C444.16 562.51 444.91 565.57 444.67 567.79C442.83 585.36 440.66 602.89 438.48 621.43C436.14 603.8 434.09 587.41 431.67 571.07C431.22 567.98 429.64 564.88 427.94 562.2C424.84 557.27 419.54 555.83 414.56 558.81C409.2 562.03 403.81 565.45 399.22 569.65C388.59 579.37 376.51 581.49 362.62 579.53C351.93 578.02 340.99 577.96 330.15 577.85C317.68 577.72 306.35 581.84 297.05 590.1C278.49 606.6 263.9 625.7 262.02 651.6C261.5 658.84 262.14 666.58 264.23 673.5C268.67 688.27 280.63 694.26 295.65 690.6C296.93 690.28 298.2 689.93 298.62 689.83C306.85 699.47 312.64 710.41 322.92 717.67C323.95 718.39 324.7 721 324.21 722.16C316.35 740.77 308.12 759.22 300.32 777.86C297.63 784.29 295.83 791.1 293.79 797.79C290.1 809.82 291.04 821.82 294.17 833.8C294.75 835.99 294.81 838.32 295.12 840.58C294.6 840.83 294.08 841.08 293.57 841.33C286.74 829.17 279.92 817.01 273.1 804.86C272.64 804.97 272.19 805.09 271.73 805.21C274.63 819.72 277.52 834.23 280.66 849.94C279.17 847.87 278.19 846.7 277.42 845.41C269.18 831.71 260.82 818.09 252.86 804.23C250.83 800.69 249.44 796.47 248.98 792.42C248.53 788.41 249.62 784.23 250.03 780.12C249.43 780.04 248.83 779.95 248.23 779.87C247.04 790.05 245.86 800.21 244.67 810.39C244.25 810.35 243.82 810.32 243.39 810.28C243.94 794.11 244.33 777.95 245.07 761.79C246.2 737.37 247.08 712.91 241.44 688.91C237.55 672.43 233.26 655.94 227.6 640.01C223.52 628.53 225.13 620.9 234.06 612.06C256.14 590.19 279.02 569.72 306.95 555.5C320.88 548.41 335.58 542.61 351.01 542.43C359.9 542.32 367.57 540.15 375.17 537.13C383.25 533.92 390.68 529.08 398.8 524.74ZM257.91 785.52C258.08 799.44 261.32 812.66 268.13 824.89C264.73 811.77 261.32 798.65 257.91 785.52ZM261.56 765.07C261.13 765.12 260.69 765.17 260.26 765.23C261.08 771.37 261.89 777.51 262.71 783.65C263.14 783.6 263.57 783.53 264 783.48C263.19 777.34 262.37 771.21 261.56 765.07ZM269.43 818.45C270.08 818.28 270.72 818.1 271.37 817.92C269.55 811.21 267.72 804.5 265.9 797.79C265.22 797.97 264.55 798.16 263.87 798.35C265.72 805.05 267.58 811.75 269.43 818.45Z" />
			<path id="Layer" fill-rule="evenodd" class="shp8" d="M484.09 1072.85C482.42 1060.25 480.84 1047.67 479.06 1035.12C477.31 1022.84 478.41 1010.51 476.75 998.43C475.31 991.18 473.87 983.95 472.43 976.7C490.07 997.49 494.5 1023.75 502.78 1048.45C501.36 1046.4 499.94 1044.35 498.52 1042.29C498.09 1042.49 497.67 1042.69 497.24 1042.88C500.33 1051.03 503.42 1059.18 506.52 1067.33C505.95 1067.56 505.38 1067.8 504.81 1068.03C502.98 1065.35 501.16 1062.67 499.34 1059.98C498.94 1060.19 498.54 1060.39 498.14 1060.6C499.41 1063.96 500.69 1067.32 501.89 1070.5L484.09 1072.85ZM325.58 1093.82C325.66 1093.34 325.74 1092.85 325.82 1092.36C324.61 1092.03 323.35 1091.3 322.18 1091.42C308.07 1092.86 295.64 1085.08 293.62 1073.4C291.22 1059.58 299.84 1045.27 313.41 1042.35C319.27 1041.08 322.42 1038.19 325.4 1033.49C337.23 1014.89 355.06 1008.6 376.14 1010.22C387.4 1011.08 395.94 1017.52 403.65 1025.31C404.9 1026.58 407.58 1027.5 409.25 1027.1C423.53 1023.64 433.01 1028.66 437.25 1042.32C441.22 1055.11 435.72 1067.19 422.69 1070.94C416.1 1072.84 415.42 1076.24 415.96 1081.9L406.79 1083.11C407.62 1082.79 408.31 1082.36 408.78 1081.81C418.83 1070.06 420.11 1053.5 408.03 1042.89C400.54 1036.3 391.68 1032.4 381.97 1030.62C376.37 1029.59 371.03 1030.44 366.42 1034.44C365.36 1035.36 363.19 1035.23 361.55 1035.19C357.47 1035.11 352.79 1033.41 349.44 1034.86C339.56 1039.13 331.01 1045.65 325.05 1054.9C318.77 1064.63 318.82 1078.62 325.45 1087.27C327.26 1089.62 330.25 1092.47 332.83 1092.86L325.58 1093.82ZM148.45 1117.41C147.31 1117.95 145.95 1118.25 144.39 1118.38C138.9 1118.84 133.42 1119.44 127.97 1120.15L148.45 1117.41ZM152.45 1111.27C153.2 1106.05 154.61 1100.92 154.63 1095.07C149.99 1100.64 145.36 1106.22 139.87 1112.82C141.1 1103.2 142.16 1094.83 143.24 1086.46C142.88 1086.35 142.53 1086.24 142.18 1086.13C140.75 1090.07 139.32 1094.02 137.89 1097.96C137.43 1097.85 136.98 1097.73 136.53 1097.62C139.69 1084.14 142.85 1070.67 146.01 1057.21C144.56 1058.74 142.93 1060.47 140.56 1062.97C144.59 1047.77 149.27 1033.97 158.34 1021.97C161.18 1018.21 164.96 1018.51 168.64 1019.19C177.51 1020.83 184.84 1025.41 189.2 1033.29C193.98 1041.92 198 1050.99 201.96 1060.04C205.84 1068.89 209.59 1077.85 212.71 1087C215.03 1093.82 216.26 1101.02 217.99 1108.11L148.45 1117.41C150.62 1116.39 151.98 1114.51 152.45 1111.27ZM333.38 1092.91C333.2 1092.91 333.01 1092.89 332.83 1092.86L354.59 1089.99C354.66 1090.12 354.74 1090.25 354.82 1090.38C347.19 1091.39 340.29 1092.94 333.38 1092.91ZM352.73 1086.82C349.81 1081.46 351.48 1076.51 357.38 1076.43C367.91 1076.3 377.78 1074.76 387.54 1070.56C391.93 1068.66 396.25 1072.54 395.75 1077.19C395.37 1080.71 396.52 1083.43 399.36 1083.79C399.8 1083.84 400.26 1083.88 400.75 1083.91L364.83 1088.64C367.16 1085.96 369.49 1083.27 371.82 1080.59C368.53 1079.8 365.24 1078.99 361.94 1078.24C361.41 1078.12 360.81 1078.31 360.24 1078.38C357.23 1078.8 353.74 1078.89 353.86 1083.14C353.94 1085.71 356.34 1088.06 359.49 1089.35L354.59 1089.99C353.73 1088.54 353.2 1087.7 352.73 1086.82ZM400.75 1083.91L406.79 1083.11C405.06 1083.79 402.75 1084 400.75 1083.91ZM321.36 1056.01C327.05 1046.4 335.25 1040.05 344.22 1034.44C349.63 1031.05 355.05 1030.18 361.11 1032.28C362.44 1032.73 364.59 1032.66 365.61 1031.86C371.63 1027.18 378.44 1026.51 385.15 1028.84C393.67 1031.8 401.82 1035.83 409.21 1039C403.13 1019.9 381.51 1008.9 357.5 1013.94C336.38 1018.37 319.32 1037.95 321.36 1056.01ZM322.67 1088.75C315 1073.92 318.93 1058.88 318.98 1043.83C309.44 1044.9 301.79 1048.41 298.31 1058.16C295.38 1066.41 293.9 1074.7 300.62 1081.72C306.42 1087.79 313.81 1090.07 322.67 1088.75ZM408.27 1030.35C413.12 1043.19 421.53 1054.52 418.34 1069.69C426.39 1067.57 432.44 1064.01 434.85 1056.47C437.7 1047.48 435.06 1039.34 428.7 1032.81C422.89 1026.87 415.65 1027.79 408.27 1030.35ZM161.36 1114.68C169.47 1115.23 177.01 1101.84 175.3 1090.79C165.9 1096.12 163.21 1104.79 161.36 1114.68ZM359.49 1089.35L364.83 1088.64C364.35 1089.2 363.86 1089.76 363.38 1090.32C362.03 1090.19 360.7 1089.85 359.49 1089.35ZM386.18 1085.21C388.87 1082.94 391.33 1081.51 392.76 1079.38C393.53 1078.25 392.89 1074.54 392.25 1074.36C389.73 1073.69 386.96 1073.94 384.28 1073.9C383.92 1073.89 383.5 1074.04 383.21 1074.25C380.56 1076.28 377.93 1078.33 375.3 1080.38C378.75 1081.91 382.19 1083.44 386.18 1085.21Z" />
			<path id="Layer" fill-rule="evenodd" class="shp8" d="M157.92 706.79C164.81 718.37 174.72 726.27 187.71 729.71C205.23 734.36 221.25 731.26 235.04 718.98C235.85 727.12 235.42 728.01 227.93 730.97C223.58 732.69 219.09 734.08 215.05 736.92C221.62 734.9 228.18 732.88 234.75 730.86C234.97 731.28 235.18 731.7 235.39 732.11C233.67 733.15 232.04 734.87 230.21 735.12C213.26 737.43 196.33 740 179.31 741.38C171.29 742.03 164.38 737.77 158.67 731.78C145.22 717.64 136.36 700.94 131.32 682.27C130.2 678.09 130.52 673.01 131.74 668.79C136.03 653.99 140.61 639.24 145.85 624.74C149.4 614.9 156.17 607.69 166.49 603.92C173.63 601.31 179.38 603.03 185.75 607.69C171.12 608.37 160.05 613.97 152.78 626.04C163.29 614.66 175.52 608.45 191.59 612.58C168.06 609.31 158.64 627.2 146.36 640.77C146.71 641.26 147.07 641.76 147.42 642.26C149.02 640.83 150.62 639.4 153.29 637.01C145.6 661.03 146.47 683.48 157.49 705.14C156.13 703.66 154.23 702.41 153.51 700.67C150.56 693.53 147.97 686.25 145.26 679.01C144.76 677.68 144.34 676.31 143.89 674.95C143.3 675.18 142.7 675.41 142.11 675.63C143.73 687.44 147.7 698.32 155.81 707.51C155.99 707.73 157.19 707.05 157.92 706.79Z" />
			<path id="Layer" fill-rule="evenodd" class="shp9" d="M214.83 561.69C205.89 561.81 193.99 561.89 182.08 562.14C176.29 562.27 171.92 560.3 170.59 554.35C169.27 548.5 171.09 542.89 175.97 539.8C189.92 530.95 203.81 521.8 218.59 514.52C247.79 500.14 278.45 489.36 309.67 480.07C339.9 471.08 370.41 463.57 401.77 459.99C408.87 459.18 416.14 459.09 423.27 459.59C428.44 459.95 433.44 462.25 434.96 467.98C436.5 473.77 435.88 480 430.73 483.43C418.74 491.4 406.63 499.41 393.8 505.85C365.7 519.94 336.38 531.21 306.06 539.59C283.87 545.73 261.45 551.05 239.1 556.59C232.09 558.33 224.95 559.58 214.83 561.69ZM424 478.66C425.62 473.43 422.24 471.58 418.4 471.29C406.61 470.38 394.67 468.63 382.99 469.59C353.58 471.99 325.21 479.73 297.16 488.72C271.33 497 245.86 506.24 222.31 519.75C211.48 525.97 201.46 533.87 191.97 542.05C186.35 546.89 188.05 549.48 194.75 551.76C209.36 556.73 224.24 555.27 238.55 552.55C262.12 548.08 285.44 542.07 308.59 535.71C335.5 528.33 361.4 517.95 385.87 504.5C399.52 497 414.19 489.99 420.47 472.54C421.98 475.16 422.99 476.91 424 478.66Z" />
			<path id="Layer" fill-rule="evenodd" class="shp10" d="M398.19 524.46C400.1 523.13 402.01 521.81 403.92 520.48C404.29 520.88 404.66 521.28 405.03 521.68C401.8 525.33 398.56 528.97 395.33 532.62C395.52 532.91 395.7 533.19 395.89 533.48C405.32 529.33 414.75 525.18 425.88 520.28C424.03 526.7 422.69 531.37 421.21 536.53C428.22 543.84 435.94 551.52 443.25 559.58C449.89 566.91 450.82 575.49 447.32 584.64C446.88 585.78 446.58 586.98 445.92 589.09C457.47 576.64 471.72 574.51 486.38 575C494.09 575.25 501 579.77 504.11 586.9C510.75 602.14 513.39 618.42 507.76 634.35C504.08 644.8 497.97 654.51 492.1 664.03C487.23 671.92 481.47 679.35 475.46 686.43C470.05 692.8 463.92 698.59 457.81 704.32C454.67 707.24 453.67 710.26 454.21 714.46C455.92 727.64 461.14 738.97 468.96 749.85C481.39 767.14 490.21 786.08 487.04 808.48C486.27 813.91 485.96 819.42 485.47 824.89C485.4 825.64 485.26 826.6 485.62 827.14C491.04 835.26 484.74 843.98 486.84 852.31C487.08 853.26 485.04 855.07 483.74 856.07C469.6 866.98 453.39 872.78 435.77 874.41C415.63 876.28 395.45 877.76 375.28 879.21C369.8 879.6 368.36 881.92 368.68 887.34C369.35 898.32 373.97 907.78 380.08 916.21C385.34 923.47 389.25 932.98 400.06 934.52C400.54 934.59 401 935.16 401.36 935.59C410.55 946.68 423.25 950.3 436.75 952.23C439.39 952.6 442.08 952.84 444.66 953.49C456.47 956.47 467.98 959.35 475.49 970.82C482.56 981.61 490.43 991.29 494.32 1004.34C499.02 1020.09 507.48 1034.7 514.16 1049.87C516.53 1055.25 518.48 1060.82 520.88 1066.98C514.41 1067.84 508.6 1068.78 502.76 1069.24C501.63 1069.33 499.85 1067.78 499.24 1066.56C498.05 1064.18 497.48 1061.5 497.61 1058.51C499.44 1061.23 501.27 1063.95 503.1 1066.68C503.72 1066.43 504.35 1066.19 504.97 1065.94C501.88 1057.81 498.79 1049.69 495.7 1041.56C496.07 1041.35 496.44 1041.13 496.8 1040.92C498.37 1043.14 499.95 1045.37 501.52 1047.59C493.03 1022.59 488.63 995.92 470.96 974.89C472.48 982.27 474 989.64 475.81 998.47C473.63 1002.05 473.63 1007.23 477.08 1012.39C477.52 1013.05 477.66 1014.04 477.63 1014.86C477.44 1020.28 475.63 1026.2 477.23 1031C481 1042.38 479.09 1054.21 481.5 1065.59C481.93 1067.6 482.33 1069.62 482.76 1071.79C460.1 1074.8 437.27 1077.83 414.18 1080.89C414.3 1075.56 413.51 1071.12 421.04 1069.57C431.87 1067.34 438.72 1056.54 436.69 1045.84C434.28 1033.22 429.15 1025.46 415.01 1024.53C414.64 1024.51 414.19 1024.45 413.88 1024.61C406.49 1028.57 401.84 1024.64 396.83 1019.55C376.99 999.36 334.58 1008.98 322.35 1035.02C319.49 1041.08 313.55 1040.32 308.83 1041.87C292.61 1047.19 286.1 1071.6 298.4 1083.34C304.19 1088.85 311.63 1091.26 319.9 1090.28C321.35 1090.11 322.91 1090.84 324.41 1091.15C324.29 1091.75 324.16 1092.36 324.03 1092.96C288.3 1097.7 252.56 1102.45 216.25 1107.27C215.74 1105.46 215.24 1103.7 214.75 1101.93C211.78 1091.22 209.48 1080.26 205.64 1069.88C201.59 1058.92 196.18 1048.46 191.15 1037.89C186.91 1028.99 180.51 1022.32 170.91 1018.96C163.78 1016.46 159.35 1017.39 155 1023.31C146.57 1034.79 142.69 1048.16 138.5 1062.94C141.3 1059.65 143.18 1057.44 144.47 1055.91C141.36 1069.11 138.13 1082.79 134.9 1096.47C135.44 1096.61 135.98 1096.75 136.51 1096.9C137.94 1092.7 139.36 1088.51 140.78 1084.31C141.1 1084.4 141.43 1084.48 141.75 1084.57C140.65 1093.19 139.55 1101.8 138.34 1111.25C143.73 1104.71 148.54 1098.87 153.35 1093.04C153.82 1093.25 154.29 1093.46 154.76 1093.66C153.2 1100.54 151.77 1107.44 149.96 1114.26C149.7 1115.27 147.78 1116.26 146.49 1116.5C142.21 1117.29 137.87 1117.73 133.84 1118.27C128.42 1110.97 127.73 1103.75 130.3 1095.34C131.91 1090.1 131.11 1084.05 131 1078.38C130.54 1054.34 140.73 1034.98 157.01 1018.17C159.52 1015.58 162.02 1012.8 163.75 1009.67C168.31 1001.43 175.67 996.55 183.52 992.17C197.35 984.46 211.48 977.26 225.03 969.08C237.46 961.57 245.61 950 251.83 937.05C262.94 913.93 260.58 889.92 256.62 865.77C254.03 849.98 251.75 834.14 249.01 818.38C248.56 815.81 246.41 813.54 245.04 811.14C244.42 811.35 243.8 811.56 243.18 811.77C244.3 801.49 245.42 791.21 246.54 780.93C246.97 780.96 247.4 780.98 247.83 781.01C248.04 781.47 248.54 782.02 248.43 782.39C244.63 795.09 250.25 805.65 256.35 815.93C263.09 827.28 270.26 838.39 277.27 849.59C277.65 850.19 278.28 850.63 279.07 851.43C275.97 836.15 272.97 821.32 269.97 806.5C270.37 806.32 270.76 806.13 271.15 805.95C278.17 818.47 285.19 830.99 292.21 843.51C292.65 843.32 293.09 843.13 293.54 842.94C293.15 840 293.24 836.89 292.29 834.15C287.14 819.34 289.15 804.64 294.32 790.66C301.01 772.62 309.25 755.14 316.81 737.42C319.12 732.03 321.38 726.63 323.75 721.05C311.51 714.23 305.79 702.11 297.17 691.38C296.92 691.46 295.56 691.96 294.16 692.33C276.63 696.92 262.3 686.57 260.05 667.5C257.36 644.65 265.61 625.39 279.63 607.93C288.3 597.13 297.62 587.24 310.92 582.26C323.77 577.46 337.15 578.79 350.41 579.51C357.97 579.92 365.49 581.29 373.04 581.5C381.31 581.72 388.4 578.26 394.83 573.03C400.4 568.49 406.25 564.24 412.29 560.34C417.9 556.72 423 557.87 426.33 563.76C428.7 567.97 430.69 572.73 431.38 577.46C433.13 589.32 434.03 601.3 435.29 613.23C435.49 615.12 435.79 617 436.94 618.96C438.81 606.33 440.68 593.7 442.54 581.06C442.64 580.31 442.51 579.52 442.66 578.79C444.48 569.55 442.95 562.21 434.5 555.94C427.49 550.75 422.27 543.14 416.08 536.42C414.4 537.48 412.75 538.51 411.1 539.55C410.82 539.22 410.55 538.9 410.28 538.57C412.32 536.6 414.37 534.62 417.51 531.6C411.37 533.76 406.52 535.47 400.24 537.68C402.63 535.38 404.04 534.02 405.46 532.67C405.23 532.28 405.01 531.89 404.79 531.5C396.35 535.88 387.92 540.27 379.43 544.67C385.57 538.14 391.89 531.4 398.21 524.67C398.21 524.67 398.19 524.46 398.19 524.46ZM369.72 656.22C370.03 656.15 370.33 656.08 370.64 656C370.65 655.96 370.65 655.91 370.65 655.87C370.6 655.87 370.55 655.87 370.5 655.88C370.24 655.99 369.98 656.11 369.72 656.22ZM399.96 653.94C396.3 652.27 392.47 650.63 388.72 650.79C382.76 651.04 376.85 652.45 370.94 653.52C370.71 653.57 370.74 654.99 370.65 655.87C380.42 655.22 390.19 654.58 399.96 653.94ZM358.89 658.79C359.09 659.46 359.29 660.11 359.49 660.77C362.9 659.26 366.31 657.74 369.72 656.22C366.11 657.08 362.5 657.94 358.89 658.79ZM398.28 668.08C396.83 675.27 395.16 682.44 394.03 689.68C393.45 693.35 393.48 697.21 393.82 700.94C396.07 724.79 405.19 746.01 418.38 765.81C432.31 786.73 444.93 808.36 448.88 834.92C449.24 831.72 449.48 829.59 449.72 827.46C450.02 827.51 450.33 827.55 450.64 827.6C451.24 829.6 451.83 831.6 452.72 834.59C453.89 832.22 454.53 830.93 455.19 829.6C458.83 832.43 463.08 830.02 465.58 824.44C471.14 826.13 473.63 822 475.87 818.84C478.46 815.18 481.33 810.99 481.78 806.78C482.16 803.29 479.2 799.44 477.72 795.75C478.32 795.49 478.92 795.22 479.51 794.95C480.6 796.51 481.68 798.08 483.14 800.19C482.39 794.48 482.65 789.21 480.83 784.78C478.91 780.11 479.11 773.38 472.08 771.83C471.67 771.75 471.62 769.62 471.56 768.44C471.5 767.11 472.04 765.6 471.59 764.46C470.53 761.85 469.27 759.25 467.68 756.92C462.81 749.77 457.39 742.96 452.85 735.61C446.44 725.21 440.83 714.34 434.44 703.93C432.81 701.28 429.55 699.64 427.03 697.53C426.68 696.03 426.67 693.47 425.9 693.21C420.64 691.47 415.24 690.08 409.81 688.92C408.52 688.65 406.95 689.73 405.51 690.19C401.19 687.18 398.87 688.99 398 693.52C397.49 696.18 397.44 698.92 397.18 701.63C396.62 701.58 396.05 701.52 395.48 701.46C395.85 697.1 395.18 692.28 396.84 688.49C399.28 682.95 403.36 678.13 406.8 673.05C408.55 670.46 409.95 666.5 412.35 665.71C418.44 663.7 425.23 662.94 430.99 666.8C433.09 668.22 434.65 671.54 434.92 674.16C435.07 675.52 432.11 678.12 430.15 678.63C422.85 680.53 415.36 681.72 407.98 683.35C405.86 683.82 403.88 684.91 401.83 685.71C402.09 686.65 402.36 687.59 402.62 688.53C411.99 687.29 421.46 686.54 430.69 684.63C437.05 683.31 443.05 680.14 444.21 672.6C445.03 667.27 441.26 661 435.35 658.57C424.25 654 412.91 654.77 401.65 658.31C399.6 658.06 397.54 657.81 394.04 657.38C395.89 662.07 397.09 665.08 398.28 668.08ZM443.78 836.85C442.08 830.76 441.28 824.56 438.67 819.24C432.36 806.39 425.25 793.94 418.38 781.36C410.01 766.06 399.52 751.76 397.42 733.6C396.79 728.13 394.42 722.84 392.79 717.49C391.9 714.57 389.97 711.65 390.11 708.8C390.58 698.69 391.87 688.62 392.59 678.51C393.12 671.18 392.81 663.92 387.27 657.91C387.93 662.83 388.58 667.75 389.23 672.67C388.91 672.71 388.59 672.74 388.27 672.77C387.11 667.88 385.94 662.98 384.8 658.17C380.03 659.13 376.46 659.72 372.94 660.57C356.7 664.49 340.45 668.42 324.24 672.49C319.67 673.63 315.06 674.9 310.74 676.76C305.25 679.13 301.28 686.69 302 692.19C302.7 697.57 305.93 700.15 313.79 701.63C324.02 703.56 333.99 702.34 343.78 699.12C348.72 697.51 353.63 695.83 358.56 694.18C358.94 694.85 359.33 695.52 359.71 696.19C352.54 700.94 345.82 706.74 338.04 710.07C332.56 712.41 328.98 715.34 326.83 720.39C321.12 733.79 315.57 747.25 309.98 760.7C309.56 761.73 308.64 763.43 308.99 763.78C313.13 767.87 308.22 769.64 306.7 771.71C302.82 777.01 298.62 781.73 300.06 789.26C300.6 792.05 299.4 795.9 297.64 798.25C293.84 803.31 292.43 808.07 295.26 814.06C296.14 815.92 296.45 819.48 295.34 820.62C291.04 825.01 294.86 828.18 296.14 832.74C296.37 829.63 296.54 827.47 296.7 825.32C297.21 825.33 297.72 825.35 298.23 825.37C297.96 829.29 303.35 832.53 299.02 837.01C298.81 837.23 299.31 838.41 299.74 838.93C302.55 842.37 305.43 845.75 308.61 849.53C309.16 848.03 309.28 847.46 309.58 847.01C309.74 846.77 310.23 846.74 310.93 846.5C313.73 853.82 318.81 858.26 327.02 858.19C330.64 858.15 334.32 858.33 337.87 857.77C359.5 854.34 381.11 850.81 402.69 847.08C405.19 846.64 407.43 844.77 410.59 843.15C410.58 843.15 411.56 844.32 412.56 845.55C415.82 844.67 419.05 843.8 422 843C421.7 839.37 421.45 836.31 421.2 833.26C421.79 833.19 422.38 833.11 422.98 833.03C424.23 836.06 425.49 839.09 426.76 842.16C429.86 841.4 432.42 840.77 434.36 840.29C435.04 837.87 435.57 836 436.11 834.14C436.58 834.24 437.06 834.35 437.54 834.46C437.52 835.93 437.49 837.4 437.45 839.39C439.81 838.44 441.54 837.75 443.78 836.85ZM287.79 874.4C281.46 865.26 275.5 856.65 269.54 848.04C269.06 848.33 268.59 848.62 268.12 848.91C268.07 850.85 268.02 852.79 267.93 856.37C264.1 849.07 261.04 843.23 257.98 837.4C257.49 837.57 257 837.73 256.52 837.89C257.92 848.47 259.6 859.02 260.65 869.63C261.73 880.6 263.11 891.66 262.71 902.62C262.01 921.79 256.09 939.74 245.85 955.98C242.93 960.62 243.8 963.35 247.94 965.49C250.05 966.59 252.82 967.14 255.17 966.87C259.49 966.38 263.69 964.8 268.01 964.19C282.04 962.18 296.1 960.41 310.14 958.54C310.13 958.68 310.12 958.82 310.11 958.95C293.91 963.2 277.71 967.45 261.51 971.69C261.63 972.28 261.75 972.86 261.87 973.45C278.2 979.95 295.28 980.54 312.46 978.84C323.05 977.78 333.76 976.39 343.96 973.53C356.45 970.03 368.54 965.02 380.62 960.2C383.44 959.07 385.53 956.11 387.96 954C387.7 953.58 387.44 953.17 387.18 952.75C381.59 953.5 376.01 954.24 370.84 954.92C377.95 948.97 390.98 955.59 395.93 943.46C394.83 942.51 394.14 941.85 393.4 941.28C378.25 929.59 368.78 914.37 365.39 895.55C364.78 892.17 362.83 891.96 360.3 891.52C346.94 889.21 333.52 886.84 322.37 878.37C317.54 874.7 313.26 870.29 308.31 865.84C309.85 870.31 311.24 874.32 312.62 878.32C312.28 878.57 311.94 878.82 311.61 879.08C305.71 873.1 299.81 867.12 293.87 861.1C293.74 862.12 293.61 863.1 293.39 864.71C290.59 861.59 288.25 858.99 285.31 855.72C286.19 862.33 286.94 867.99 287.79 874.4ZM284.63 650.68C290.73 641.62 296.38 632.22 303.04 623.58C312.95 610.7 326.12 602.43 342.29 599.7C349.82 598.42 357.25 599.33 363.68 604.63C361.06 604.34 358.44 604.04 354.94 603.65C359.05 614.08 358.02 625.79 366.28 632.73C366.44 636.06 366.56 638.61 366.69 641.16C367.25 641.16 367.82 641.16 368.39 641.16C367.67 642.67 366.95 644.18 366.33 645.49C372.25 644.7 377.87 643.95 382.11 643.39C382.85 633.56 383.98 624.03 384.17 614.49C384.36 605.26 383.66 596.02 383.14 586.8C383.08 585.74 381.73 584.76 380.97 583.74C380.58 583.96 380.19 584.17 379.8 584.39C380.31 590.58 380.83 596.77 381.35 602.96C380.75 603 380.14 603.04 379.55 603.08C378.75 597.06 377.95 591.04 377.19 585.32C368.34 584.41 359.94 582.93 351.52 582.82C339.62 582.65 327.3 581.7 315.9 584.32C297.21 588.6 286.13 603.6 275.7 618.56C267.95 629.67 263.98 641.54 266.26 655.44C269.08 672.66 289.09 684.79 304.74 676.84C313.59 672.34 322.63 669.93 332.04 667.84C339.65 666.15 347.41 664.48 349.78 656.33C342.98 657.23 335.66 658.21 328.33 659.18C328.39 659.59 328.45 660 328.5 660.42C330.93 660.1 333.36 659.77 335.79 659.45C307.49 665.89 299.11 660.65 284.63 650.68ZM465.15 668.15C465.34 668.73 465.53 669.31 465.73 669.89C460.38 671.74 455.14 674.21 449.63 675.2C445.91 675.87 445 677.75 445.55 680.38C446.42 684.52 448.11 688.48 449.79 693.56C454.48 689.61 459.41 686.91 462.27 682.78C471.21 669.87 479.9 656.72 487.69 643.08C495.48 629.45 498.33 614.94 490.26 600.04C487.36 594.68 482.18 591.72 476.37 592.6C461.82 594.81 451.66 604.22 441.81 614.04C441.17 614.69 441.17 615.98 440.75 617.34C468.43 604.98 480.54 603.69 486.6 611.59C480.8 610.81 474.44 609.95 467.16 608.97C479.02 625.22 477.53 651.03 464.77 659.3C465.81 657.2 466.75 655.42 467.59 653.6C471.75 644.53 474.53 635.24 472.7 625.07C470.31 611.78 464.86 608.86 452.89 614.56C451.7 615.13 450.54 615.76 449.35 616.34C442.35 619.76 437.75 624.86 436.7 632.96C436.02 638.17 434.36 643.25 433.6 648.46C433.32 650.41 433.65 653.74 434.85 654.42C442.22 658.59 447.18 664.28 448.29 674.14C454.44 671.95 459.79 670.05 465.15 668.15ZM389.06 609.92C403 593.54 425.5 592.03 428.55 602.57C424.77 601.15 420.84 599.67 416.9 598.19C416.25 598.76 415.6 599.34 414.95 599.91C418.03 606.62 420.84 613.46 424.31 619.96C425.55 622.26 428.37 623.72 430.9 625.95C425.25 640.26 422.18 644.34 415.03 645.62C415.98 644.21 416.63 643.24 416.69 643.16C411.9 643.53 406.57 644.88 401.61 644.04C396.61 643.2 391.98 640.2 386.96 638.04C388.1 643.33 390.14 647.86 396.36 648.99C402.83 650.16 409.38 650.99 415.75 652.55C420.61 653.74 424.13 651.63 425.73 648.01C428.88 640.88 433.25 633.21 433.03 625.89C432.5 608.31 430.41 590.67 427.38 573.33C425.38 561.91 419.86 558.13 408.92 565.73C400.92 571.29 393.39 577.55 385.56 583.57C386.71 592.2 387.9 601.15 389.06 609.92ZM290.74 646.93C314.72 644.48 338.16 641.87 359.79 633.49C356.74 623.18 353.86 613.51 351 603.86C320.63 604.17 304.46 623.57 290.74 646.93ZM485.38 833.3C485.25 832.56 485.11 831.82 484.98 831.07C482.88 830.71 480.55 829.56 478.71 830.1C457.6 836.29 436.66 843.11 415.45 848.96C404.14 852.07 392.46 853.96 380.86 855.79C364.13 858.45 346.76 857.89 330.01 867C341.26 866.34 351.19 865.59 361.14 865.21C369.79 864.89 378.46 865.04 387.13 864.88C400.18 864.63 413.27 864.37 425.56 859.15C434.56 855.33 443.4 851.17 452.38 847.3C463.35 842.56 474.38 837.96 485.38 833.3ZM497.21 628.62C486.52 654.6 472.77 678.48 450.61 697.38C451.03 698.95 451.58 701.01 452.41 704.14C456.99 700.15 461.27 697.2 464.55 693.39C472.24 684.45 479.01 674.69 486.95 666C503.15 648.29 510.67 627.91 505.56 604.3C501 583.27 492.61 574.32 472.64 578.86C465.32 580.52 457.87 582.66 454.69 591.52C459.77 588.58 464.18 585.76 468.82 583.4C475.44 580.04 482.47 578.56 489.65 581.34C491.97 582.23 493.81 584.36 495.87 585.93C495.53 586.28 495.19 586.63 494.84 586.98C481.19 578.2 454.75 586.96 449.27 601.82C454.64 598.54 459.86 594.14 465.89 592.01C472.3 589.74 479.45 589.11 486.3 588.95C487.91 588.91 490.34 593.44 491.14 596.23C492.39 600.59 497.23 601.17 498.85 604.63C502.98 613.41 500.87 622.27 498.92 632.52C497.91 630.23 497.5 629.29 497.21 628.62ZM481.94 845.35C458.41 852.63 436.2 861.56 413.13 866.05C390.05 870.55 366.1 870.61 343.76 872.51C353.13 875.46 364.12 875.64 375.04 874.35C394.71 872.04 414.32 869.22 433.95 866.62C434 866.91 434.04 867.22 434.08 867.51C429.68 868.31 425.28 869.11 420.88 869.91C420.98 870.41 421.08 870.91 421.18 871.41C432.39 869.4 443.73 867.94 454.74 865.19C461.94 863.39 468.81 860.02 475.56 856.78C479.68 854.8 482.41 851.26 481.94 845.35ZM422.66 626.55C418.4 616.98 414.76 608.78 411.08 600.52C394.63 603.63 383.81 617.17 387.3 633.58C399.1 631.24 410.92 628.89 422.66 626.55ZM294.15 651.03C308.17 654.25 322.23 657.66 337.21 654.72C348.12 652.58 356.53 647.93 361.45 637.43C358.36 638.36 354.96 639.2 352.74 641.3C346.33 647.35 338.94 650.22 330.27 649.56C327.18 649.33 324.08 647.36 321.11 647.61C312.04 648.38 303.04 649.85 294.15 651.03ZM443.3 681.42C439.5 684.04 435.93 685.37 434.18 687.94C431.57 691.78 440.78 714.29 445.22 714.24C449.95 714.18 449.14 717.41 450.33 719.28C451.73 721.47 452.25 724.2 453.14 726.7C453.56 726.58 453.97 726.46 454.38 726.33C450.76 711.64 447.13 696.94 443.3 681.42ZM424.73 628.42C422.62 629.74 420.31 630.82 418.45 632.43C413.38 636.82 407.79 638.38 401.23 636.61C398.57 635.89 395.79 635.6 393.06 635.12C404.18 644.55 422.45 640 424.73 628.42ZM468.86 844.68C478.77 844.18 483.04 841.59 482.9 836.4C478.38 839.07 473.97 841.67 468.86 844.68ZM357.63 652.42C357.93 653.16 358.24 653.9 358.54 654.65C365.12 652.25 371.69 649.85 378.27 647.45C378.12 646.99 377.98 646.53 377.83 646.08C371.1 648.19 364.37 650.3 357.63 652.42Z" />
			<path id="Layer" fill-rule="evenodd" class="shp11" d="M398.19 524.46L398.22 524.67C385.04 534.54 370.2 540.89 353.96 545.45C353.91 544.65 353.84 543.76 353.76 542.66C331.02 545.11 310.24 553.08 290.82 565.02C265.37 580.67 243.98 600.98 224.14 623.05C222.84 624.5 222.34 627.65 222.88 629.62C228.04 648.3 234.61 666.66 238.54 685.58C241.92 701.88 243.65 718.77 243.84 735.43C244.14 761.62 242.53 787.82 241.72 814.39C240.8 814.59 239.37 814.9 237.72 815.25C237.51 814.24 237.22 813.52 237.24 812.81C237.59 793.57 238.01 774.34 238.3 755.1C238.35 751.68 238.09 748.22 237.64 744.83C236.8 738.6 234.41 737.39 228.14 738.67C211.92 741.98 195.65 745.01 179.4 748.17C168.91 750.21 160.25 746.21 152.56 739.66C133.33 723.28 125.57 701.87 125.8 677.14C125.83 674.32 126.39 671.42 127.17 668.69C130.74 656.09 133.62 643.18 138.49 631.08C141.42 623.79 147.55 617.79 153.01 611.72C142.51 628.67 138.81 648 133.3 666.54C131.47 672.73 131.53 680.37 133.37 686.57C138.58 704.14 147.52 719.9 160.52 733.13C166.78 739.5 174.65 742.35 183.2 741.86C196.09 741.12 208.96 739.58 221.78 737.93C226.01 737.38 230.08 735.5 234.15 734.03C235.05 733.7 235.63 732.5 235.73 730.91C228.83 733.13 221.92 735.35 215.02 737.56C214.86 737.07 214.7 736.58 214.54 736.09C218.83 734.58 223.14 733.14 227.4 731.55C235.85 728.39 235.84 728.36 236.25 720.48C229.9 723.41 223.13 727.35 215.84 729.75C200.08 734.93 185.32 731.35 172.31 721.75C167.09 717.9 163.31 712.11 158.87 707.2C158.43 706.48 157.99 705.76 157.54 705.04C153.38 694.62 150.37 684.02 149.45 672.69C148.55 661.5 150.04 650.86 153.44 640.32C153.71 639.49 153.9 638.62 154.39 636.8C151.75 639.21 149.89 640.91 148.03 642.6C147.3 642.01 146.57 641.41 145.84 640.82C148.7 637.96 151.51 635.04 154.43 632.24C161.74 625.24 167.49 616.06 178.36 613.93C183.04 613.02 187.92 613.14 192.05 612.85C187.75 610.21 178.02 609.89 171.04 613.79C164.66 617.34 158.93 622.07 153.13 626.13C159.91 614.45 171.22 609.52 184.51 607.59C178.01 601.81 176.35 601.74 160.69 606.29C171.73 596.91 185.05 596.24 196.83 604.87C201.88 608.57 206.6 612.78 211.19 617.06C217.92 623.33 220.97 622.58 227 615.91C234.85 607.22 243.64 599.34 252.37 591.49C261.22 583.54 270.31 575.83 279.62 568.42C292.17 558.43 306.87 552.95 321.98 547.81C336.33 542.94 350.77 539.77 365.65 537.24C374.93 535.67 383.44 529.74 392.36 525.9C394.17 525.12 396.24 524.93 398.19 524.46ZM225.95 656.39C227.91 649.78 222.28 649.34 218.3 647.42C218.62 648.22 218.94 649.02 219.26 649.82C216.25 645.01 212.52 645.86 208.7 648.59C206.71 650.03 204.86 651.67 203.03 653.33C191.19 664.03 186.91 680.4 193.12 694.03C195.26 698.73 199.21 702.59 202.38 706.91C195.06 703.65 190.94 697.65 189.05 690.32C184.76 673.64 191.49 660.49 203.91 649.19C196.06 643.5 187.75 641.81 179.22 643.3C165.94 645.63 160.47 655.61 158.06 669.33C157.4 667.14 157.04 666.6 157.11 666.12C159.81 648.15 174.08 634.61 196.63 643.15C202.85 645.51 207.93 648.76 213.59 642.83C214.16 642.22 215.64 642.48 216.85 642.32C210.24 626.34 199.14 617.13 185.39 616.62C177.2 616.31 170.65 619.97 164.91 627.26C168.46 627.1 170.85 627 174.37 626.84C160.38 629.65 158.96 631.15 155.04 644.62C149.81 662.57 151.27 680.19 157.69 697.48C168.31 726.12 201.35 738.11 227.11 722.17C232.31 718.95 237.89 713.22 239.19 707.68C240.63 701.53 237.37 694.28 235.92 686.24C225.73 708.72 221.35 714.31 211.28 717.8C220.78 710.32 227.92 701.44 232.19 689.79C236.93 676.9 230.6 667.02 225.95 656.39Z" />
			<path id="Layer" fill-rule="evenodd" class="shp10" d="M352.85 1089.31C345.98 1090.22 339.58 1091.2 333.15 1091.88C328.29 1092.4 322.18 1086.1 320.34 1079.35C316.53 1065.39 320.53 1053.9 331.37 1044.74C335.67 1041.11 340.27 1037.75 345.11 1034.92C347.72 1033.4 351.65 1031.87 354.1 1032.76C360.87 1035.23 365.98 1032.79 371.48 1029.62C373.18 1028.63 375.88 1029.1 378.08 1029.32C390.59 1030.6 401.39 1035.56 409.81 1045.03C416.32 1052.36 416.7 1064.98 411.43 1074.9C409 1079.47 406.61 1083.16 400.55 1083.11C396.16 1083.07 394.26 1081.47 394.07 1077.26C393.73 1069.99 390.47 1067.86 383.34 1070.12C382.8 1070.3 382.16 1070.24 381.67 1070.49C375.33 1073.81 369.07 1075.23 361.47 1074.69C350.04 1073.88 348 1078.09 352.85 1089.31ZM382.62 1049.42C383.41 1046.15 384.06 1043.45 384.72 1040.75C384.33 1040.62 383.95 1040.5 383.56 1040.38C382.4 1043.19 381.24 1045.99 380.04 1048.88C377.93 1047.34 376.21 1046.09 374.5 1044.83C374.37 1045.02 374.24 1045.2 374.11 1045.38C374.7 1046.16 375.29 1046.93 376.11 1048C374.71 1048.18 373.91 1048.29 371.68 1048.59C375 1049.53 376.92 1050.09 379.12 1050.71C378.26 1053.58 377.44 1056.3 376.62 1059.02C377.08 1059.15 377.54 1059.29 377.99 1059.42C379.07 1057.16 380.14 1054.9 381.39 1052.28C384.43 1054.14 387.1 1055.79 389.78 1057.44C389.95 1057.17 390.12 1056.91 390.29 1056.64C388.62 1055.11 386.94 1053.58 384.98 1051.78C386.94 1051.79 388.36 1051.8 389.78 1051.8C389.79 1051.6 389.79 1051.39 389.8 1051.18C387.44 1050.61 385.08 1050.03 382.62 1049.42ZM347.52 1060.81C346.45 1062.33 345.33 1063.94 344.21 1065.54C344.48 1065.75 344.74 1065.97 345.01 1066.19C346.6 1064.5 348.19 1062.8 349.66 1061.23C352.58 1062.91 355.46 1064.57 358.34 1066.23C357.94 1064.47 357.14 1063.33 356.04 1062.7C351.59 1060.14 351.01 1057.6 355.5 1054.39C357.24 1053.15 358.54 1051.29 360.68 1049.05C359.12 1049.42 358.23 1049.37 357.79 1049.78C352.85 1054.38 348.19 1059.82 340.51 1054.6C342.81 1056.63 345.1 1058.66 347.52 1060.81Z" />
			<path id="Layer" fill-rule="evenodd" class="shp10" d="M319.69 1055.14C317.07 1039.84 333.82 1017.66 354.47 1012.72C385.09 1005.38 403.46 1024.63 408.4 1039.82C399.1 1032.85 389.16 1027.09 377.2 1026.99C373.16 1026.95 369.13 1029.11 365.06 1030.15C363.16 1030.63 360.99 1031.53 359.28 1031.04C353.72 1029.45 348.69 1029.85 343.63 1032.81C334.21 1038.32 325.95 1045.01 319.69 1055.14Z" />
			<path id="Layer" fill-rule="evenodd" class="shp11" d="M321.52 1087.75C312.48 1088.78 304.69 1086.97 298.98 1080.48C292.24 1072.84 293.87 1064.22 297.42 1055.54C301.15 1046.41 308.8 1043.84 317.5 1042.21C317.48 1057.46 313.65 1072.62 321.52 1087.75Z" />
			<path id="Layer" fill-rule="evenodd" class="shp10" d="M416.9 1068.31C419.21 1053.19 411.93 1041.7 406.45 1029.48C413.55 1025.83 420.41 1025.81 426.78 1031.14C432.73 1036.11 436.07 1047.8 433.58 1054.9C430.92 1062.45 425.31 1066.49 416.9 1068.31Z" />
			<path id="Layer" fill-rule="evenodd" class="shp11" d="M159.18 1115.05C161.34 1103.8 163.92 1094.32 174.57 1088.76C175.69 1098.59 171.01 1105.96 166.42 1113.17C165.58 1114.5 162.34 1114.3 159.18 1115.05Z" />
			<path id="Layer" fill-rule="evenodd" class="shp11" d="M359.47 1089.54C356.95 1087.01 353.32 1084.95 352.36 1082.01C351.13 1078.23 355.09 1077.39 358.21 1077.06C360.09 1076.86 362.06 1076.42 363.85 1076.77C366.08 1077.2 368.17 1078.34 370.32 1079.18C368.85 1081.24 367.58 1083.5 365.84 1085.3C364.46 1086.72 362.51 1087.57 359.47 1089.54Z" />
			<path id="Layer" fill-rule="evenodd" class="shp11" d="M385.1 1082.71C384.54 1082.78 383.89 1083.07 383.43 1082.89C380.11 1081.63 376.83 1080.26 373.54 1078.93C376.02 1076.98 378.48 1074.98 381.03 1073.1C381.59 1072.69 382.5 1072.8 383.19 1072.54C386.55 1071.28 390 1070.34 391.69 1074.7C393.03 1078.18 389.67 1082.03 385.1 1082.71Z" />
			<path id="Layer" fill-rule="evenodd" class="shp11" d="M255.76 784.94C259.55 799.61 263.08 813.26 266.52 826.56C261.53 821.94 254.58 796.61 255.76 784.94Z" />
			<path id="Layer" fill-rule="evenodd" class="shp11" d="M157.54 705.03C157.99 705.76 158.43 706.48 158.87 707.2C158.23 707.53 157.12 708.25 157.01 708.13C148.92 698.45 143.94 687.52 143.87 674.68C148.08 684.97 149.49 696.49 157.54 705.03Z" />
			<path id="Layer" fill-rule="evenodd" class="shp11" d="M264.11 798.8C266.02 805.83 267.93 812.87 269.83 819.9C269.23 820.06 268.64 820.23 268.04 820.39C266.06 813.36 264.08 806.32 262.09 799.29C262.77 799.13 263.44 798.96 264.11 798.8Z" />
			<path id="Layer" fill-rule="evenodd" class="shp11" d="M259.64 765.65C260.52 772.29 261.4 778.94 262.28 785.57C261.9 785.63 261.52 785.67 261.14 785.73C260.26 779.09 259.38 772.44 258.5 765.8C258.88 765.75 259.26 765.71 259.64 765.65Z" />
			<path id="Layer" fill-rule="evenodd" class="shp11" d="M380.07 1085.45C376.17 1085.97 372.71 1086.43 369.27 1086.88C371.76 1082.26 371.76 1082.26 380.07 1085.45Z" />
			<path id="Layer" fill-rule="evenodd" class="shp12" d="M443.78 836.85C441.54 837.75 439.81 838.43 437.45 839.38C437.49 837.39 437.52 835.92 437.54 834.46C437.06 834.35 436.59 834.24 436.11 834.13C435.57 836 435.05 837.86 434.36 840.28C432.42 840.76 429.86 841.39 426.76 842.15C425.49 839.08 424.23 836.05 422.98 833.02C422.39 833.1 421.79 833.18 421.2 833.26C421.45 836.31 421.7 839.36 422 843C419.05 843.79 415.82 844.66 412.57 845.54C411.56 844.32 410.58 843.14 410.59 843.15C407.43 844.76 405.19 846.64 402.7 847.07C381.11 850.8 359.5 854.34 337.87 857.76C334.32 858.32 330.64 858.15 327.02 858.18C318.81 858.26 313.73 853.81 310.93 846.49C310.23 846.74 309.75 846.76 309.58 847C309.27 847.45 309.16 848.03 308.61 849.52C305.44 845.74 302.55 842.36 299.74 838.92C299.32 838.4 298.81 837.22 299.02 837C303.35 832.53 297.96 829.28 298.23 825.36C297.72 825.34 297.21 825.33 296.7 825.31C296.53 827.46 296.37 829.62 296.14 832.74C294.86 828.18 291.04 825 295.34 820.61C296.45 819.47 296.15 815.92 295.26 814.05C292.43 808.07 293.85 803.3 297.64 798.25C299.4 795.9 300.6 792.05 300.07 789.25C298.62 781.72 302.82 777 306.7 771.7C308.22 769.63 313.13 767.86 308.99 763.77C308.64 763.43 309.56 761.72 309.98 760.69C315.58 747.25 321.12 733.78 326.83 720.39C328.98 715.34 332.56 712.41 338.04 710.06C345.82 706.73 352.54 700.93 359.71 696.18C359.33 695.51 358.94 694.85 358.56 694.18C353.63 695.83 348.72 697.5 343.79 699.12C333.99 702.33 324.02 703.55 313.79 701.63C305.93 700.14 302.7 697.56 302 692.18C301.28 686.68 305.25 679.12 310.74 676.75C315.06 674.9 319.67 673.63 324.24 672.48C340.45 668.41 356.7 664.48 372.94 660.56C376.46 659.71 380.03 659.12 384.8 658.16C385.94 662.98 387.11 667.87 388.27 672.77C388.59 672.73 388.91 672.7 389.23 672.66C388.58 667.74 387.93 662.82 387.27 657.9C392.82 663.91 393.12 671.17 392.59 678.5C391.87 688.61 390.58 698.68 390.11 708.8C389.97 711.65 391.9 714.57 392.79 717.49C394.42 722.84 396.79 728.12 397.42 733.6C399.52 751.75 410.01 766.05 418.38 781.36C425.25 793.93 432.36 806.39 438.67 819.24C441.28 824.56 442.08 830.76 443.78 836.85ZM315.13 691.66C315.48 691.9 315.83 692.15 316.18 692.39C319 694.16 322.02 697.68 324.61 697.39C334.93 696.24 345.23 694.35 355.32 691.84C360.92 690.44 365.51 690.83 369.1 695.17C371.96 698.64 374.1 702.72 376.43 706.33C377.08 699.05 375.23 695.87 364.01 685.72C365.67 685.84 366.9 685.94 368.12 686.03C365 683.45 360.93 680.3 358.22 681.21C353.77 682.71 350.73 680.76 347.14 679.83C346.34 679.64 345.55 679.44 344.75 679.25C344.12 678.57 343.61 677.57 342.83 677.28C333.87 673.93 317.78 679.32 312.57 687.33C313.42 688.77 314.28 690.21 315.13 691.66ZM336.23 796.52C336.97 796.49 337.72 796.46 338.47 796.43C338.56 791.56 338.65 786.7 338.74 781.83C338.08 781.82 337.43 781.82 336.78 781.82C335.55 786.69 333.1 791.53 336.23 796.52ZM326.41 779.63C325.92 779.56 325.42 779.48 324.92 779.4C324.16 783.62 323.4 787.83 322.61 792.17C328 791.99 328.7 789.29 326.41 779.63ZM383.86 778.69C379.98 786.98 380.99 791.92 386.54 793.7C385.69 788.93 384.91 784.55 383.86 778.69ZM329.51 774.23C330.38 774.22 331.24 774.21 332.11 774.21C332.22 769.73 332.34 765.25 332.46 760.77C331.86 760.75 331.25 760.73 330.65 760.71C329.58 765.18 326.64 769.55 329.51 774.23ZM408.67 781.52C409.35 781.16 410.03 780.81 410.7 780.46C408.56 776.37 406.42 772.27 404.27 768.18C403.71 768.48 403.14 768.78 402.58 769.08C404.19 773.44 403.3 779.13 408.67 781.52ZM325.71 816.37C326.53 816.28 327.35 816.19 328.17 816.1C327.63 812.01 327.08 807.91 326.54 803.82C323.94 808.26 323.67 812.43 325.71 816.37ZM364.64 770.07C366.16 764.35 367.31 760.01 368.66 754.93C362.34 759.74 361.1 763.64 364.64 770.07ZM426.61 804.05C426.17 804.38 425.74 804.71 425.3 805.05C427.12 812.14 430.67 816.49 435.01 815.73C432.05 811.62 429.33 807.84 426.61 804.05ZM365.12 728.88C363.39 724.36 361.66 719.83 359.48 714.14C356.2 722.05 360.51 725.53 365.12 728.88ZM353.75 808.35C353.92 804.18 354.1 800.02 354.32 794.62C349.61 800.96 349.26 804.79 353.75 808.35ZM429.11 830.86C430.09 830.46 431.08 830.07 432.07 829.68C430.34 825.84 428.62 822 426.89 818.17C426.11 818.51 425.33 818.85 424.56 819.2C426.07 823.08 427.59 826.97 429.11 830.86ZM416.72 798.21C415.45 805.65 417.53 809.78 422.67 810.54C420.53 806.1 418.63 802.15 416.72 798.21ZM382.66 744.62C378.75 750.68 379.54 753.33 385.06 755.67C384.2 751.69 383.43 748.16 382.66 744.62ZM366.41 777.73C360.76 784.72 360.46 787.75 365.06 791.18C365.5 786.8 365.88 783.03 366.41 777.73ZM307.17 809C306.22 812.5 305.27 816 304.25 819.75C309.1 819.52 309.98 816.66 307.17 809ZM397.5 790.55C397.05 787.13 396.61 783.78 396.08 779.87C391.22 788.05 391.54 790.35 397.5 790.55ZM415.66 824.33C411.1 829.32 411.41 833.67 416.08 836.08C415.94 832.28 415.82 828.67 415.66 824.33ZM397.69 825.92C394.17 831.78 395.28 835 400.38 835.57C399.43 832.15 398.56 829.04 397.69 825.92ZM370.94 820.47C367.89 825.42 368.49 829.88 372.53 832.5C372 828.48 371.52 824.9 370.94 820.47ZM396.52 767.81C397.58 767.79 398.65 767.77 399.72 767.75C399.42 763.98 399.12 760.2 398.83 756.43C397.99 756.46 397.15 756.49 396.32 756.52C396.39 760.28 396.45 764.05 396.52 767.81ZM349.85 782.92C350.66 778.55 351.37 774.75 352.32 769.58C346.69 775.97 346.15 778.94 349.85 782.92ZM327.23 838.29C326.54 838.48 325.85 838.66 325.15 838.85C325.61 841.32 325.77 843.91 326.69 846.18C327.02 846.99 329.24 847.02 332.17 847.87C329.97 843.6 328.6 840.95 327.23 838.29ZM373.4 790.14C372.81 790.04 372.23 789.93 371.64 789.82C370.95 792.43 370.12 795 369.66 797.64C369.54 798.35 370.57 799.26 371.08 800.08C371.96 799.38 373.53 798.75 373.6 797.99C373.82 795.4 373.51 792.76 373.4 790.14ZM381.77 847.35C382.72 847.05 383.67 846.76 384.63 846.46C383.6 843.33 382.57 840.2 381.54 837.08C380.73 837.32 379.92 837.57 379.11 837.82C380 841 380.88 844.17 381.77 847.35ZM378.52 764.29C373.02 767.88 375.78 772.21 376.21 776.33C376.72 776.37 377.22 776.41 377.72 776.45C377.99 772.4 378.26 768.35 378.52 764.29ZM364.27 802.78C363.72 802.74 363.16 802.69 362.61 802.64C361.93 806.03 361.26 809.42 360.59 812.8C361.4 812.97 362.2 813.13 363.01 813.3C364.89 810.12 365.51 806.65 364.27 802.78ZM393.52 800.75C392.69 800.71 391.87 800.66 391.04 800.62C390.61 804.11 390.19 807.6 389.76 811.09C390.68 811.18 391.59 811.27 392.51 811.36C392.85 807.83 393.19 804.29 393.52 800.75ZM348.85 824.25C348.31 824.18 347.77 824.11 347.23 824.04C346.54 826.18 345.57 828.28 345.29 830.48C345.18 831.29 346.65 832.31 347.41 833.24C348.18 832.38 349.55 831.55 349.58 830.67C349.67 828.54 349.13 826.39 348.85 824.25ZM318.07 829.48C319.01 829.07 319.96 828.67 320.9 828.27C319.56 825.21 318.21 822.16 316.87 819.11C316.12 819.42 315.37 819.74 314.62 820.05C315.76 823.19 316.92 826.34 318.07 829.48ZM419.26 796.51C420.15 796.01 421.05 795.51 421.95 795.01C420.36 791.97 418.78 788.91 417.19 785.87C416.49 786.21 415.79 786.55 415.09 786.9C416.48 790.1 417.87 793.31 419.26 796.51ZM304.93 795.89C304.25 795.69 303.57 795.49 302.89 795.29C301.77 798.7 300.65 802.11 299.53 805.51C300.45 805.78 301.38 806.04 302.3 806.31C303.17 802.84 304.05 799.37 304.93 795.89ZM358.75 833.56C362.29 830.7 361.92 827.32 357.39 823.31C357.89 827.04 358.29 830.03 358.75 833.56Z" />
			<path id="Layer" fill-rule="evenodd" class="shp12" d="M287.79 874.4C286.94 868 286.19 862.33 285.31 855.71C288.25 858.98 290.59 861.58 293.39 864.7C293.61 863.09 293.74 862.12 293.88 861.09C299.81 867.11 305.71 873.09 311.61 879.07C311.95 878.82 312.28 878.57 312.62 878.32C311.24 874.31 309.85 870.3 308.31 865.84C313.26 870.29 317.54 874.69 322.37 878.36C333.53 886.83 346.95 889.2 360.3 891.52C362.84 891.96 364.78 892.16 365.39 895.55C368.78 914.37 378.25 929.59 393.4 941.27C394.14 941.85 394.83 942.51 395.93 943.46C390.98 955.58 377.95 948.97 370.84 954.92C376.02 954.23 381.6 953.49 387.18 952.75C387.44 953.17 387.7 953.58 387.96 953.99C385.54 956.11 383.44 959.07 380.62 960.2C368.54 965.01 356.45 970.02 343.97 973.53C333.76 976.39 323.05 977.78 312.46 978.83C295.29 980.54 278.2 979.94 261.87 973.45C261.75 972.86 261.63 972.27 261.51 971.69C277.71 967.44 293.91 963.2 310.11 958.95C310.13 958.81 310.13 958.67 310.14 958.54C296.1 960.4 282.04 962.18 268.01 964.18C263.69 964.8 259.49 966.37 255.17 966.87C252.82 967.14 250.05 966.58 247.94 965.49C243.8 963.34 242.93 960.62 245.85 955.98C256.09 939.73 262.01 921.79 262.71 902.62C263.11 891.65 261.73 880.59 260.65 869.62C259.61 859.01 257.92 848.47 256.52 837.89C257 837.73 257.49 837.56 257.98 837.4C261.04 843.23 264.1 849.06 267.93 856.36C268.02 852.78 268.07 850.85 268.12 848.9C268.59 848.62 269.06 848.33 269.54 848.03C275.5 856.65 281.46 865.26 287.79 874.4Z" />
			<path id="Layer" fill-rule="evenodd" class="shp12" d="M401.64 658.31C412.91 654.76 424.25 654 435.35 658.57C441.25 661 445.03 667.26 444.21 672.6C443.05 680.13 437.05 683.3 430.69 684.62C421.46 686.54 411.99 687.28 402.62 688.53C402.35 687.59 402.09 686.65 401.82 685.71C403.87 684.9 405.86 683.82 407.98 683.35C415.36 681.71 422.84 680.53 430.14 678.63C432.1 678.12 435.06 675.52 434.92 674.16C434.64 671.54 433.09 668.21 430.98 666.8C425.23 662.94 418.44 663.7 412.34 665.71C409.94 666.5 408.55 670.46 406.8 673.04C403.36 678.13 399.27 682.95 396.84 688.48C395.17 692.27 395.85 697.09 395.48 701.45C396.04 701.51 396.61 701.57 397.18 701.63C397.44 698.92 397.49 696.17 397.99 693.51C398.86 688.99 401.18 687.17 405.51 690.19C412.69 692.63 419.86 695.08 427.03 697.53C429.54 699.63 432.81 701.28 434.44 703.93C440.83 714.33 446.44 725.21 452.85 735.6C457.38 742.96 462.81 749.76 467.68 756.92C469.26 759.25 470.53 761.84 471.58 764.46C472.04 765.6 471.5 767.1 471.56 768.43C471.62 769.62 471.67 771.74 472.08 771.83C479.1 773.38 478.91 780.11 480.83 784.78C482.65 789.2 482.38 794.48 483.14 800.19C481.68 798.07 480.6 796.51 479.51 794.95C478.91 795.21 478.32 795.48 477.72 795.75C479.2 799.44 482.16 803.29 481.78 806.78C481.33 810.98 478.46 815.17 475.87 818.83C473.62 822 471.14 826.12 465.58 824.43C463.07 830.01 458.83 832.42 455.19 829.59C454.52 830.92 453.89 832.21 452.72 834.59C451.83 831.6 451.24 829.59 450.64 827.59C450.33 827.55 450.02 827.5 449.72 827.46C449.47 829.59 449.24 831.72 448.88 834.92C444.92 808.35 432.31 786.73 418.38 765.8C405.19 746 396.07 724.78 393.82 700.93C393.47 697.21 393.45 693.35 394.03 689.67C395.16 682.43 396.83 675.27 398.28 668.08C399.4 664.83 400.52 661.57 401.64 658.31ZM419.96 760.38C421.73 770.28 424 772.61 428.34 769.98C425.86 767.13 423.42 764.33 419.96 760.38ZM441.95 782.71C441.99 790.14 444.59 793.3 449.04 792.57C446.58 789.16 444.27 785.93 441.95 782.71ZM449.82 813.24C449.31 813.31 448.8 813.39 448.29 813.47C448.95 817.05 449.61 820.63 450.36 824.65C454.04 821.94 453.62 818.65 449.82 813.24ZM474.18 802.97C474.01 806.96 473.85 810.96 473.69 814.95C474.27 814.96 474.86 814.97 475.44 814.98C476.48 810.99 478.6 807 474.18 802.97ZM454.38 783.04C453.64 783.46 452.9 783.88 452.16 784.29C454.13 787.92 456.11 791.54 458.08 795.17C458.84 794.74 459.59 794.32 460.34 793.89C458.35 790.28 456.37 786.66 454.38 783.04ZM458.73 815.28C459.48 815.1 460.23 814.93 460.98 814.75C460.27 811.39 459.55 808.04 458.84 804.68C458.35 804.8 457.86 804.92 457.37 805.03C457.82 808.45 458.27 811.87 458.73 815.28Z" />
			<path id="Layer" fill-rule="evenodd" class="shp12" d="M284.63 650.68C299.11 660.65 307.49 665.89 335.79 659.45C333.36 659.77 330.93 660.09 328.5 660.42C328.44 660 328.38 659.59 328.33 659.18C335.65 658.21 342.98 657.23 349.77 656.33C347.4 664.48 339.64 666.15 332.03 667.84C322.63 669.93 313.59 672.34 304.74 676.84C289.09 684.79 269.08 672.66 266.25 655.44C263.98 641.54 267.95 629.67 275.7 618.56C286.13 603.6 297.21 588.6 315.9 584.31C327.3 581.7 339.62 582.65 351.51 582.82C359.94 582.93 368.33 584.41 377.19 585.32C377.94 591.03 378.74 597.05 379.54 603.07C380.14 603.04 380.75 603 381.35 602.96C380.83 596.77 380.31 590.58 379.79 584.39C380.19 584.17 380.58 583.96 380.97 583.74C381.72 584.76 383.08 585.74 383.14 586.8C383.65 596.02 384.36 605.26 384.17 614.49C383.98 624.03 382.85 633.55 382.11 643.39C377.87 643.95 372.25 644.7 366.33 645.49C366.95 644.18 367.67 642.67 368.39 641.16C367.82 641.16 367.25 641.16 366.68 641.16C366.56 638.61 366.44 636.06 366.28 632.72C358.02 625.79 359.05 614.08 354.93 603.65C358.44 604.04 361.06 604.33 363.68 604.63C357.25 599.33 349.82 598.42 342.29 599.7C326.12 602.42 312.95 610.7 303.04 623.58C296.38 632.22 290.73 641.62 284.63 650.68Z" />
			<path id="Layer" fill-rule="evenodd" class="shp12" d="M465.15 668.15C459.79 670.05 454.44 671.95 448.29 674.13C447.18 664.28 442.22 658.58 434.85 654.41C433.65 653.74 433.32 650.41 433.6 648.45C434.37 643.25 436.02 638.17 436.7 632.96C437.75 624.85 442.35 619.76 449.35 616.34C450.54 615.75 451.7 615.13 452.89 614.56C464.86 608.85 470.31 611.78 472.7 625.07C474.53 635.23 471.75 644.53 467.59 653.59C466.75 655.42 465.81 657.2 464.77 659.29C477.53 651.03 479.02 625.22 467.16 608.96C474.44 609.94 480.8 610.8 486.6 611.58C480.54 603.68 468.43 604.98 440.75 617.33C441.17 615.98 441.17 614.68 441.81 614.04C451.66 604.22 461.82 594.81 476.38 592.6C482.18 591.71 487.36 594.68 490.26 600.04C498.33 614.93 495.48 629.45 487.69 643.08C479.91 656.71 471.21 669.87 462.27 682.78C459.41 686.91 454.48 689.61 449.79 693.55C448.11 688.48 446.43 684.51 445.55 680.38C445 677.74 445.91 675.87 449.63 675.2C455.14 674.21 460.38 671.73 465.73 669.89C465.53 669.31 465.34 668.73 465.15 668.15Z" />
			<path id="Layer" fill-rule="evenodd" class="shp12" d="M389.06 609.92C387.9 601.15 386.71 592.2 385.56 583.57C393.39 577.55 400.92 571.29 408.93 565.73C419.86 558.13 425.38 561.92 427.38 573.33C430.42 590.67 432.5 608.31 433.03 625.89C433.25 633.21 428.88 640.88 425.73 648.01C424.13 651.63 420.61 653.74 415.75 652.55C409.38 650.98 402.83 650.16 396.37 648.99C390.14 647.86 388.1 643.32 386.96 638.04C391.98 640.19 396.61 643.2 401.61 644.04C406.57 644.87 411.9 643.53 416.69 643.16C416.63 643.24 415.98 644.21 415.03 645.62C422.18 644.34 425.25 640.26 430.9 625.95C428.37 623.72 425.55 622.26 424.31 619.96C420.85 613.46 418.03 606.62 414.95 599.91C415.6 599.34 416.25 598.76 416.9 598.19C420.84 599.67 424.77 601.15 428.56 602.57C425.5 592.03 403 593.54 389.06 609.92Z" />
			<path id="Layer" fill-rule="evenodd" class="shp13" d="M290.74 646.93C304.46 623.57 320.64 604.17 351 603.86C353.86 613.51 356.74 623.18 359.79 633.49C338.17 641.87 314.72 644.48 290.74 646.93Z" />
			<path id="Layer" fill-rule="evenodd" class="shp12" d="M485.38 833.3C474.38 837.96 463.35 842.56 452.38 847.3C443.4 851.17 434.56 855.33 425.56 859.15C413.27 864.37 400.18 864.64 387.13 864.88C378.46 865.05 369.79 864.89 361.14 865.21C351.19 865.59 341.26 866.34 330.01 867C346.76 857.89 364.13 858.45 380.86 855.79C392.46 853.96 404.14 852.07 415.45 848.96C436.65 843.11 457.59 836.29 478.71 830.1C480.55 829.56 482.88 830.71 484.98 831.07C485.11 831.82 485.25 832.56 485.38 833.3Z" />
			<path id="Layer" fill-rule="evenodd" class="shp12" d="M497.21 628.62C497.5 629.29 497.91 630.23 498.92 632.52C500.87 622.27 502.99 613.42 498.85 604.63C497.23 601.17 492.39 600.59 491.14 596.24C490.34 593.45 487.91 588.91 486.3 588.95C479.45 589.11 472.3 589.75 465.89 592.01C459.87 594.15 454.64 598.54 449.27 601.82C454.75 586.96 481.2 578.2 494.85 586.99C495.19 586.63 495.53 586.28 495.87 585.93C493.81 584.36 491.97 582.23 489.65 581.34C482.47 578.56 475.44 580.04 468.82 583.41C464.18 585.76 459.77 588.58 454.69 591.52C457.88 582.66 465.32 580.52 472.64 578.86C492.61 574.32 501 583.28 505.56 604.3C510.67 627.91 503.15 648.29 486.95 666C479.01 674.69 472.24 684.45 464.55 693.39C461.27 697.2 456.99 700.15 452.41 704.15C451.58 701.01 451.03 698.96 450.62 697.38C472.77 678.48 486.52 654.59 497.21 628.62Z" />
			<path id="Layer" fill-rule="evenodd" class="shp12" d="M481.94 845.35C482.41 851.25 479.68 854.8 475.56 856.78C468.81 860.02 461.94 863.39 454.74 865.19C443.73 867.94 432.39 869.4 421.18 871.42C421.08 870.91 420.98 870.41 420.88 869.91C425.28 869.11 429.69 868.31 434.08 867.52C434.04 867.22 434 866.92 433.95 866.62C414.32 869.23 394.71 872.04 375.04 874.36C364.12 875.64 353.13 875.46 343.76 872.51C366.1 870.61 390.05 870.55 413.13 866.06C436.2 861.56 458.41 852.63 481.94 845.35Z" />
			<path id="Layer" fill-rule="evenodd" class="shp13" d="M422.66 626.55C410.92 628.89 399.1 631.23 387.3 633.58C383.81 617.17 394.63 603.64 411.08 600.52C414.76 608.78 418.4 616.98 422.66 626.55Z" />
			<path id="Layer" fill-rule="evenodd" class="shp14" d="M294.15 651.03C303.04 649.85 312.04 648.38 321.11 647.61C324.08 647.36 327.18 649.33 330.27 649.57C338.94 650.23 346.33 647.35 352.74 641.3C354.96 639.2 358.36 638.36 361.45 637.44C356.53 647.94 348.12 652.58 337.21 654.72C322.23 657.65 308.17 654.24 294.15 651.03Z" />
			<path id="Layer" fill-rule="evenodd" class="shp12" d="M443.3 681.42C447.13 696.94 450.76 711.64 454.38 726.34C453.97 726.46 453.56 726.58 453.14 726.7C452.25 724.2 451.73 721.47 450.33 719.29C449.14 717.42 449.95 714.18 445.22 714.24C440.78 714.29 431.57 691.78 434.18 687.95C435.93 685.37 439.5 684.04 443.3 681.42Z" />
			<path id="Layer" fill-rule="evenodd" class="shp14" d="M418.45 632.43C413.38 636.82 407.79 638.38 401.23 636.61C398.57 635.89 395.79 635.6 393.06 635.12C404.18 644.55 422.45 640 424.73 628.41C422.62 629.74 420.31 630.82 418.45 632.43Z" />
			<path id="Layer" fill-rule="evenodd" class="shp12" d="M370.65 656.01C370.74 655.15 370.7 653.57 370.94 653.52C376.85 652.45 382.76 651.04 388.72 650.79C392.47 650.63 396.3 652.27 399.96 653.94C390.14 654.58 380.32 655.23 370.5 655.88L370.65 656.01Z" />
			<path id="Layer" fill-rule="evenodd" class="shp12" d="M427.03 697.53C419.86 695.08 412.69 692.64 405.51 690.19C406.95 689.73 408.52 688.65 409.81 688.92C415.24 690.07 420.64 691.47 425.9 693.21C426.67 693.46 426.68 696.03 427.03 697.53Z" />
			<path id="Layer" fill-rule="evenodd" class="shp12" d="M401.64 658.31C400.52 661.57 399.4 664.82 398.28 668.08C397.09 665.08 395.89 662.07 394.03 657.38C397.54 657.81 399.59 658.06 401.64 658.31Z" />
			<path id="Layer" fill-rule="evenodd" class="shp12" d="M468.86 844.68C473.97 841.67 478.38 839.07 482.9 836.4C483.04 841.59 478.77 844.18 468.86 844.68Z" />
			<path id="Layer" fill-rule="evenodd" class="shp12" d="M357.63 652.42C364.37 650.31 371.1 648.19 377.83 646.08C377.98 646.53 378.12 646.99 378.27 647.45C371.69 649.85 365.12 652.25 358.54 654.64C358.24 653.9 357.94 653.16 357.63 652.42Z" />
			<path id="Layer" fill-rule="evenodd" class="shp12" d="M370.5 655.88C366.83 657.51 363.15 659.14 359.48 660.77C359.29 660.11 359.09 659.46 358.89 658.8C362.8 657.87 366.72 656.93 370.64 656.01C370.65 656.01 370.5 655.88 370.5 655.88Z" />
			<path id="Layer" fill-rule="evenodd" class="shp12" d="M225.95 656.39C230.61 667.02 236.93 676.9 232.2 689.79C227.92 701.45 220.79 710.32 211.29 717.8C221.35 714.31 225.73 708.72 235.92 686.24C237.37 694.28 240.63 701.53 239.19 707.68C237.89 713.22 232.31 718.95 227.11 722.17C201.35 738.11 168.31 726.12 157.69 697.48C151.28 680.19 149.81 662.57 155.04 644.62C158.96 631.15 160.38 629.65 174.37 626.84C170.85 627 168.46 627.1 164.91 627.26C170.65 619.97 177.21 616.31 185.39 616.62C199.15 617.13 210.24 626.34 216.85 642.32C215.65 642.48 214.16 642.22 213.59 642.83C207.93 648.76 202.85 645.51 196.63 643.15C174.08 634.61 159.81 648.15 157.12 666.12C157.05 666.6 157.4 667.14 158.07 669.33C160.48 655.61 165.94 645.63 179.22 643.3C187.75 641.81 196.06 643.5 203.91 649.19C191.49 660.49 184.76 673.64 189.06 690.32C190.94 697.64 195.07 703.65 202.38 706.91C199.21 702.59 195.26 698.73 193.12 694.03C186.91 680.4 191.19 664.03 203.03 653.33C204.86 651.67 206.71 650.02 208.71 648.59C212.52 645.86 216.26 645.01 219.24 649.8C221.47 651.99 223.71 654.19 225.95 656.39Z" />
			<path id="Layer" fill-rule="evenodd" class="shp12" d="M225.95 656.39C223.71 654.19 221.47 651.99 219.24 649.8C218.94 649.02 218.62 648.22 218.3 647.42C222.28 649.34 227.91 649.78 225.95 656.39Z" />
			<path id="Layer" fill-rule="evenodd" class="shp12" d="M382.62 1049.42C385.08 1050.03 387.44 1050.61 389.8 1051.19C389.79 1051.39 389.79 1051.6 389.78 1051.81C388.36 1051.8 386.94 1051.79 384.99 1051.79C386.95 1053.58 388.62 1055.11 390.29 1056.65C390.12 1056.91 389.95 1057.17 389.78 1057.44C387.11 1055.79 384.43 1054.15 381.39 1052.28C380.14 1054.9 379.07 1057.16 377.99 1059.42C377.54 1059.29 377.08 1059.15 376.62 1059.02C377.44 1056.3 378.26 1053.58 379.13 1050.72C376.93 1050.09 375 1049.54 371.68 1048.59C373.91 1048.29 374.72 1048.18 376.11 1048C375.29 1046.93 374.7 1046.16 374.11 1045.39C374.24 1045.21 374.37 1045.02 374.5 1044.83C376.22 1046.09 377.93 1047.34 380.04 1048.89C381.24 1045.99 382.4 1043.19 383.57 1040.39C383.95 1040.51 384.34 1040.63 384.72 1040.75C384.06 1043.45 383.41 1046.15 382.62 1049.42Z" />
			<path id="Layer" fill-rule="evenodd" class="shp12" d="M347.52 1060.81C345.1 1058.66 342.81 1056.63 340.52 1054.59C348.19 1059.82 352.85 1054.38 357.79 1049.78C358.24 1049.37 359.12 1049.42 360.68 1049.05C358.55 1051.29 357.24 1053.14 355.5 1054.39C351.01 1057.6 351.59 1060.14 356.04 1062.69C357.14 1063.32 357.94 1064.47 358.34 1066.23C355.46 1064.57 352.58 1062.91 349.66 1061.23C348.19 1062.8 346.6 1064.49 345.01 1066.19C344.74 1065.97 344.48 1065.75 344.21 1065.54C345.33 1063.94 346.46 1062.33 347.52 1060.81Z" />
			<path id="Layer" fill-rule="evenodd" class="shp10" d="M347.13 679.83C350.73 680.76 353.76 682.7 358.22 681.21C360.93 680.3 365 683.45 368.12 686.03C366.9 685.94 365.67 685.84 364.01 685.72C375.23 695.87 377.08 699.05 376.43 706.33C374.1 702.72 371.96 698.64 369.09 695.17C365.51 690.83 360.92 690.44 355.31 691.83C345.23 694.34 334.93 696.24 324.61 697.39C322.02 697.68 319 694.16 316.19 692.39C320.61 690.3 322.8 694.31 325.98 696.09C321.04 690.82 321.48 686.32 328.31 683.68C334.21 681.4 340.83 681.04 347.13 679.83Z" />
			<path id="Layer" fill-rule="evenodd" class="shp12" d="M347.13 679.83C340.84 681.04 334.21 681.4 328.32 683.68C321.48 686.32 321.04 690.82 325.98 696.09C322.79 694.31 320.61 690.31 316.19 692.39C315.83 692.15 315.48 691.9 315.13 691.66C315.63 689.78 315.54 686.88 316.72 686.21C320.94 683.8 325.43 681.51 330.1 680.38C334.8 679.25 339.85 679.56 344.75 679.25C345.54 679.44 346.34 679.64 347.13 679.83Z" />
			<path id="Layer" fill-rule="evenodd" class="shp11" d="M344.75 679.25C339.85 679.57 334.8 679.25 330.1 680.38C325.43 681.51 320.94 683.8 316.72 686.21C315.54 686.88 315.63 689.78 315.13 691.66C314.28 690.21 313.42 688.77 312.56 687.33C317.78 679.32 333.87 673.93 342.83 677.27C343.61 677.57 344.12 678.57 344.75 679.25Z" />
			<path id="Layer" fill-rule="evenodd" class="shp11" d="M336.23 796.52C333.1 791.53 335.55 786.69 336.78 781.82C337.43 781.82 338.08 781.83 338.74 781.83C338.65 786.7 338.56 791.57 338.47 796.43C337.72 796.46 336.97 796.49 336.23 796.52Z" />
			<path id="Layer" fill-rule="evenodd" class="shp11" d="M326.41 779.63C328.7 789.28 328 791.99 322.61 792.17C323.4 787.83 324.16 783.62 324.92 779.4C325.42 779.48 325.92 779.56 326.41 779.63Z" />
			<path id="Layer" fill-rule="evenodd" class="shp11" d="M383.86 778.69C384.91 784.55 385.69 788.93 386.54 793.7C380.99 791.92 379.98 786.98 383.86 778.69Z" />
			<path id="Layer" fill-rule="evenodd" class="shp11" d="M329.51 774.23C326.64 769.55 329.58 765.18 330.65 760.71C331.25 760.73 331.86 760.75 332.46 760.77C332.34 765.25 332.22 769.73 332.11 774.21C331.24 774.22 330.37 774.22 329.51 774.23Z" />
			<path id="Layer" fill-rule="evenodd" class="shp11" d="M408.67 781.52C403.3 779.13 404.19 773.44 402.58 769.07C403.14 768.78 403.71 768.48 404.27 768.18C406.42 772.27 408.56 776.36 410.7 780.45C410.03 780.81 409.35 781.16 408.67 781.52Z" />
			<path id="Layer" fill-rule="evenodd" class="shp11" d="M325.71 816.37C323.67 812.43 323.94 808.26 326.54 803.82C327.08 807.91 327.63 812.01 328.17 816.11C327.35 816.19 326.53 816.28 325.71 816.37Z" />
			<path id="Layer" fill-rule="evenodd" class="shp11" d="M364.64 770.07C361.1 763.64 362.34 759.75 368.66 754.93C367.31 760.01 366.16 764.35 364.64 770.07Z" />
			<path id="Layer" fill-rule="evenodd" class="shp11" d="M426.61 804.05C429.33 807.84 432.06 811.62 435.01 815.73C430.67 816.49 427.13 812.14 425.3 805.05C425.73 804.71 426.17 804.38 426.61 804.05Z" />
			<path id="Layer" fill-rule="evenodd" class="shp11" d="M365.12 728.88C360.5 725.53 356.2 722.05 359.48 714.14C361.66 719.83 363.39 724.36 365.12 728.88Z" />
			<path id="Layer" fill-rule="evenodd" class="shp11" d="M353.75 808.35C349.26 804.79 349.61 800.95 354.32 794.62C354.1 800.02 353.92 804.18 353.75 808.35Z" />
			<path id="Layer" fill-rule="evenodd" class="shp11" d="M429.11 830.86C427.59 826.97 426.07 823.08 424.55 819.2C425.33 818.85 426.11 818.51 426.89 818.17C428.61 822.01 430.34 825.84 432.06 829.68C431.08 830.07 430.09 830.47 429.11 830.86Z" />
			<path id="Layer" fill-rule="evenodd" class="shp11" d="M416.73 798.21C418.63 802.16 420.53 806.1 422.67 810.54C417.53 809.78 415.45 805.65 416.73 798.21Z" />
			<path id="Layer" fill-rule="evenodd" class="shp11" d="M382.66 744.62C383.43 748.16 384.2 751.69 385.06 755.67C379.54 753.33 378.75 750.68 382.66 744.62Z" />
			<path id="Layer" fill-rule="evenodd" class="shp11" d="M366.41 777.73C365.88 783.03 365.5 786.8 365.06 791.18C360.45 787.75 360.76 784.72 366.41 777.73Z" />
			<path id="Layer" fill-rule="evenodd" class="shp11" d="M307.18 809C309.98 816.66 309.1 819.52 304.25 819.75C305.27 816 306.23 812.5 307.18 809Z" />
			<path id="Layer" fill-rule="evenodd" class="shp11" d="M397.5 790.55C391.54 790.35 391.23 788.05 396.09 779.87C396.61 783.78 397.05 787.13 397.5 790.55Z" />
			<path id="Layer" fill-rule="evenodd" class="shp11" d="M415.66 824.33C415.82 828.67 415.94 832.28 416.08 836.08C411.41 833.67 411.09 829.32 415.66 824.33Z" />
			<path id="Layer" fill-rule="evenodd" class="shp11" d="M397.69 825.92C398.56 829.04 399.43 832.15 400.38 835.57C395.28 835 394.17 831.78 397.69 825.92Z" />
			<path id="Layer" fill-rule="evenodd" class="shp11" d="M370.94 820.47C371.52 824.9 372 828.48 372.53 832.5C368.49 829.88 367.89 825.43 370.94 820.47Z" />
			<path id="Layer" fill-rule="evenodd" class="shp11" d="M396.52 767.81C396.45 764.05 396.39 760.28 396.32 756.52C397.15 756.49 397.99 756.46 398.83 756.43C399.12 760.2 399.42 763.98 399.72 767.75C398.65 767.77 397.58 767.79 396.52 767.81Z" />
			<path id="Layer" fill-rule="evenodd" class="shp11" d="M349.84 782.92C346.15 778.94 346.69 775.97 352.32 769.58C351.37 774.75 350.66 778.55 349.84 782.92Z" />
			<path id="Layer" fill-rule="evenodd" class="shp11" d="M327.23 838.29C328.6 840.95 329.97 843.6 332.17 847.86C329.24 847.02 327.02 846.99 326.69 846.18C325.77 843.91 325.61 841.32 325.15 838.85C325.85 838.66 326.54 838.48 327.23 838.29Z" />
			<path id="Layer" fill-rule="evenodd" class="shp11" d="M373.4 790.14C373.51 792.76 373.82 795.4 373.6 797.99C373.53 798.75 371.96 799.38 371.08 800.08C370.57 799.26 369.54 798.35 369.66 797.64C370.11 795 370.95 792.43 371.64 789.82C372.23 789.93 372.81 790.04 373.4 790.14Z" />
			<path id="Layer" fill-rule="evenodd" class="shp11" d="M381.77 847.35C380.88 844.17 379.99 841 379.11 837.82C379.92 837.57 380.73 837.32 381.54 837.08C382.57 840.21 383.6 843.34 384.63 846.46C383.68 846.76 382.72 847.05 381.77 847.35Z" />
			<path id="Layer" fill-rule="evenodd" class="shp11" d="M378.52 764.29C378.26 768.35 377.99 772.4 377.72 776.45C377.22 776.41 376.72 776.37 376.21 776.33C375.78 772.21 373.02 767.88 378.52 764.29Z" />
			<path id="Layer" fill-rule="evenodd" class="shp11" d="M364.27 802.78C365.51 806.65 364.89 810.12 363.01 813.3C362.2 813.14 361.4 812.97 360.59 812.8C361.26 809.42 361.93 806.03 362.61 802.64C363.16 802.69 363.71 802.74 364.27 802.78Z" />
			<path id="Layer" fill-rule="evenodd" class="shp11" d="M393.52 800.75C393.19 804.29 392.85 807.83 392.51 811.37C391.6 811.27 390.68 811.18 389.76 811.09C390.19 807.6 390.61 804.11 391.04 800.62C391.87 800.66 392.69 800.7 393.52 800.75Z" />
			<path id="Layer" fill-rule="evenodd" class="shp11" d="M348.85 824.25C349.13 826.39 349.67 828.54 349.58 830.67C349.54 831.55 348.18 832.38 347.41 833.24C346.65 832.31 345.18 831.29 345.28 830.48C345.57 828.28 346.54 826.18 347.23 824.04C347.77 824.11 348.31 824.18 348.85 824.25Z" />
			<path id="Layer" fill-rule="evenodd" class="shp11" d="M318.07 829.48C316.92 826.34 315.76 823.19 314.61 820.05C315.36 819.74 316.11 819.42 316.86 819.11C318.21 822.16 319.55 825.21 320.9 828.27C319.96 828.67 319.01 829.07 318.07 829.48Z" />
			<path id="Layer" fill-rule="evenodd" class="shp11" d="M419.26 796.51C417.87 793.31 416.48 790.1 415.09 786.9C415.79 786.55 416.49 786.21 417.19 785.87C418.78 788.91 420.37 791.96 421.95 795.01C421.05 795.51 420.15 796.01 419.26 796.51Z" />
			<path id="Layer" fill-rule="evenodd" class="shp11" d="M304.93 795.89C304.05 799.37 303.17 802.84 302.3 806.31C301.37 806.04 300.45 805.78 299.53 805.51C300.65 802.11 301.77 798.7 302.89 795.29C303.57 795.49 304.25 795.7 304.93 795.89Z" />
			<path id="Layer" fill-rule="evenodd" class="shp11" d="M358.75 833.56C358.29 830.03 357.89 827.04 357.39 823.31C361.92 827.32 362.29 830.7 358.75 833.56Z" />
			<path id="Layer" fill-rule="evenodd" class="shp11" d="M419.96 760.38C423.42 764.33 425.86 767.13 428.34 769.98C424 772.61 421.73 770.29 419.96 760.38Z" />
			<path id="Layer" fill-rule="evenodd" class="shp11" d="M441.95 782.71C444.27 785.94 446.58 789.16 449.04 792.57C444.59 793.3 441.99 790.14 441.95 782.71Z" />
			<path id="Layer" fill-rule="evenodd" class="shp11" d="M449.82 813.24C453.63 818.65 454.04 821.94 450.36 824.65C449.61 820.63 448.95 817.05 448.29 813.47C448.8 813.39 449.31 813.31 449.82 813.24Z" />
			<path id="Layer" fill-rule="evenodd" class="shp11" d="M474.18 802.97C478.59 807 476.48 810.99 475.44 814.98C474.86 814.97 474.27 814.96 473.69 814.95C473.85 810.96 474.01 806.96 474.18 802.97Z" />
			<path id="Layer" fill-rule="evenodd" class="shp11" d="M454.38 783.04C456.37 786.66 458.35 790.28 460.34 793.89C459.59 794.32 458.84 794.74 458.09 795.17C456.11 791.54 454.13 787.92 452.16 784.29C452.9 783.88 453.64 783.46 454.38 783.04Z" />
			<path id="Layer" fill-rule="evenodd" class="shp11" d="M458.73 815.29C458.27 811.87 457.82 808.45 457.37 805.03C457.86 804.92 458.35 804.8 458.84 804.68C459.55 808.04 460.27 811.39 460.98 814.75C460.23 814.93 459.48 815.11 458.73 815.29Z" />
			<path id="Layer" fill-rule="evenodd" class="shp15" d="M510.05 826.28C507.28 827.32 503.08 829.43 498.97 831.52C498.55 831.74 498.13 831.95 497.71 832.17C495.22 833.43 492.82 834.66 490.79 835.63C490.94 835.33 491.06 835.01 491.11 834.71C491.16 834.46 491.18 834.13 491.07 833.79C504.4 824.74 518.6 821.02 532.98 817.39C533.01 817.45 533.04 817.52 533.07 817.59C533.15 817.75 533.23 817.93 533.32 818.13C533.38 818.28 533.46 818.44 533.53 818.61C531.26 819.34 529.02 820.03 526.82 820.72C521.04 822.53 515.49 824.26 510.05 826.28ZM510.05 826.28L510.4 827.22L510.05 826.28Z" />
			<path id="Layer" class="shp3" d="M296.75 381.82C296.75 406.69 276.59 426.86 251.72 426.86C226.85 426.86 206.69 406.69 206.69 381.82C206.69 356.95 226.85 336.79 251.72 336.79C276.59 336.79 296.75 356.95 296.75 381.82Z" />
			<path id="Layer" fill-rule="evenodd" class="shp2" d="M251.72 427.86C226.34 427.86 205.68 407.21 205.68 381.82C205.68 356.44 226.34 335.79 251.72 335.79C277.1 335.79 297.75 356.44 297.75 381.82C297.75 407.21 277.1 427.86 251.72 427.86ZM251.72 337.79C227.44 337.79 207.68 357.54 207.68 381.82C207.68 406.1 227.44 425.86 251.72 425.86C276 425.86 295.75 406.1 295.75 381.82C295.75 357.54 276 337.79 251.72 337.79Z" />
			<path id="Layer" class="shp4" d="M658.35 172.02C658.35 198.78 636.66 220.48 609.89 220.48C583.13 220.48 561.43 198.78 561.43 172.02C561.43 145.26 583.13 123.56 609.89 123.56C636.66 123.56 658.35 145.26 658.35 172.02Z" />
			<path id="Layer" fill-rule="evenodd" class="shp2" d="M609.89 221.48C582.62 221.48 560.43 199.29 560.43 172.02C560.43 144.75 582.62 122.56 609.89 122.56C637.16 122.56 659.35 144.75 659.35 172.02C659.35 199.29 637.16 221.48 609.89 221.48ZM609.89 124.56C583.72 124.56 562.43 145.85 562.43 172.02C562.43 198.19 583.72 219.48 609.89 219.48C636.06 219.48 657.35 198.19 657.35 172.02C657.35 145.85 636.06 124.56 609.89 124.56Z" />
			<path id="Layer" class="shp16" d="M49.55 235.86C49.55 249.27 38.68 260.14 25.27 260.14C11.87 260.14 1 249.27 1 235.86C1 222.46 11.87 211.59 25.27 211.59C38.68 211.59 49.55 222.46 49.55 235.86Z" />
			<path id="Layer" fill-rule="evenodd" class="shp2" d="M25.27 261.14C11.34 261.14 0 249.8 0 235.86C0 221.93 11.34 210.59 25.27 210.59C39.21 210.59 50.54 221.93 50.54 235.86C50.54 249.8 39.21 261.14 25.27 261.14ZM25.27 212.59C12.44 212.59 2 223.03 2 235.86C2 248.69 12.44 259.14 25.27 259.14C38.1 259.14 48.54 248.69 48.54 235.86C48.54 223.03 38.1 212.59 25.27 212.59Z" />
		</g>
	</g>
	<path id="Layer" class="shp17" d="M1930.5 908C1930.5 908 1535.5 1094 992.5 1097.5C449.5 1101 -19.5 882 -19.5 882" />
	<path id="Layer" class="shp3" d="M1595.37 1011.09C1601.23 1006.65 1609.97 1005.59 1615.8 1010.66C1621.1 1015.27 1622.02 1023.64 1616.91 1028.7C1615.73 1029.87 1610.2 1034.73 1608.48 1034.05C1624.54 1040.37 1624.78 1063.4 1609.99 1069.62C1596.49 1075.29 1584.78 1059.56 1584.78 1059.56C1584.78 1059.56 1575.03 1087.96 1553.07 1078.18C1532.06 1068.82 1552.62 1043.12 1552.62 1043.12C1552.62 1043.12 1526.03 1052.3 1528.59 1027.61C1530.64 1007.7 1557.78 1015.76 1557.78 1015.76C1557.72 1009.08 1560.23 1001.2 1565.77 997.14C1569.48 994.43 1574.46 993.35 1578.93 994.5C1583.61 995.7 1587.59 999.12 1588.87 1003.83C1590.1 1008.33 1589.93 1013.53 1588.88 1018.07C1589.45 1015.62 1593.47 1012.53 1595.37 1011.09Z" />
	<path id="Layer" fill-rule="evenodd" class="shp2" d="M1560.01 1080.62C1557.69 1080.38 1555.31 1079.72 1552.87 1078.63C1547.77 1076.36 1544.64 1072.94 1543.55 1068.47C1541.25 1059.03 1548.63 1047.74 1551.31 1044.03C1549.98 1044.39 1547.85 1044.88 1545.4 1045.13C1539.94 1045.69 1535.49 1044.74 1532.53 1042.39C1528.87 1039.49 1527.37 1034.49 1528.09 1027.56C1528.6 1022.68 1530.63 1019.02 1534.12 1016.68C1538.67 1013.64 1544.91 1013.42 1549.34 1013.78C1553.01 1014.08 1556.02 1014.78 1557.29 1015.11C1557.39 1009.18 1559.57 1001.07 1565.48 996.75C1569.35 993.91 1574.55 992.86 1579.05 994.02C1584.13 995.32 1588.08 999.03 1589.35 1003.7C1590.29 1007.14 1590.47 1011.24 1589.9 1015.3C1591.25 1013.69 1593.26 1012.06 1595.07 1010.69C1600.79 1006.36 1609.86 1004.83 1616.13 1010.28C1618.97 1012.75 1620.66 1016.31 1620.79 1020.04C1620.9 1023.49 1619.64 1026.69 1617.26 1029.05C1617.2 1029.11 1613.07 1033.07 1610.2 1034.27C1617.01 1037.6 1621.22 1044.35 1621.31 1052.25C1621.4 1060.32 1617.14 1067.15 1610.18 1070.08C1598.16 1075.13 1587.46 1063.57 1584.94 1060.55C1584.42 1061.86 1583.25 1064.59 1581.36 1067.65C1578.96 1071.55 1574.89 1076.72 1569.17 1079.21C1566.26 1080.48 1563.2 1080.95 1560.01 1080.62ZM1552.67 1042.63C1552.81 1042.64 1552.94 1042.71 1553.03 1042.83C1553.16 1043.02 1553.15 1043.26 1553.01 1043.43C1552.98 1043.47 1550.18 1046.99 1547.75 1051.81C1545.52 1056.22 1543.16 1062.64 1544.52 1068.23C1545.53 1072.39 1548.47 1075.59 1553.27 1077.72C1558.79 1080.18 1564.01 1080.38 1568.77 1078.3C1579.28 1073.73 1584.26 1059.54 1584.31 1059.39C1584.37 1059.22 1584.52 1059.09 1584.7 1059.06C1584.89 1059.03 1585.07 1059.11 1585.18 1059.26C1585.3 1059.41 1596.82 1074.62 1609.8 1069.16C1616.37 1066.39 1620.4 1059.92 1620.31 1052.26C1620.24 1045.94 1617.04 1037.96 1608.3 1034.51C1608.04 1034.41 1607.92 1034.12 1608.02 1033.87C1608.12 1033.61 1608.41 1033.49 1608.66 1033.59C1609.82 1034.03 1614.43 1030.45 1616.56 1028.35C1618.74 1026.18 1619.89 1023.24 1619.79 1020.08C1619.68 1016.62 1618.1 1013.32 1615.47 1011.03C1609.6 1005.93 1601.07 1007.4 1595.67 1011.49C1594.09 1012.68 1589.91 1015.84 1589.36 1018.17C1589.36 1018.18 1589.36 1018.18 1589.36 1018.18C1589.3 1018.45 1589.03 1018.61 1588.76 1018.55C1588.5 1018.49 1588.33 1018.22 1588.39 1017.95C1589.51 1013.16 1589.51 1008.06 1588.39 1003.96C1587.21 999.64 1583.54 996.2 1578.8 994.98C1574.59 993.9 1569.71 994.88 1566.07 997.55C1560.24 1001.81 1558.23 1010.02 1558.28 1015.76C1558.28 1015.91 1558.21 1016.06 1558.08 1016.16C1557.95 1016.25 1557.79 1016.28 1557.64 1016.24C1557.49 1016.2 1542.95 1011.97 1534.68 1017.51C1531.44 1019.67 1529.55 1023.09 1529.08 1027.66C1528.4 1034.24 1529.77 1038.93 1533.15 1041.61C1539.84 1046.92 1552.33 1042.69 1552.46 1042.65C1552.53 1042.63 1552.6 1042.62 1552.67 1042.63Z" />
</svg>