<svg width="1063" height="963" viewBox="0 0 1063 963" fill="none" xmlns="http://www.w3.org/2000/svg">
<path d="M859.898 417.802C859.547 417.832 859.305 417.46 859.471 417.151C889.955 360.59 899.873 295.182 887.517 232.099C875.108 168.747 841.011 111.707 791.098 70.8008C741.186 29.8947 678.584 7.6836 614.072 7.99393C584.413 8.1366 555.203 13.0355 527.489 22.3087C471.75 40.9586 405.997 38.092 351.073 17.1633C318.729 4.83856 284.202 -0.714716 249.629 0.846653C215.056 2.40803 181.172 11.0511 150.072 26.241C118.972 41.431 91.3181 62.8451 68.8205 89.1584C46.3229 115.472 29.4601 146.125 19.2753 179.221C9.09055 212.318 5.80018 247.155 9.60802 281.577C13.4159 315.998 24.241 349.273 41.4134 379.342C67.1547 424.416 67.5578 488.521 40.5823 532.867C36.7107 539.232 33.0896 545.762 29.7308 552.444C10.7984 590.107 0.693117 631.593 0.182932 673.751C-0.327258 715.909 8.77115 757.63 26.7865 795.745C44.8019 833.859 71.2607 867.365 104.153 893.716C137.045 920.068 175.505 938.572 216.612 947.823C257.719 957.075 300.392 956.831 341.388 947.108C382.384 937.386 420.626 918.441 453.208 891.714C490.441 861.172 566.21 862.378 602.437 894.106C606.025 897.249 609.699 900.304 613.456 903.266C650.353 932.358 694.025 951.603 740.381 959.196C786.736 966.79 834.258 962.484 878.494 946.682C922.731 930.879 962.233 904.1 993.3 868.849C1024.37 833.598 1045.98 791.032 1056.12 745.138C1066.26 699.244 1064.59 651.523 1051.26 606.448C1037.94 561.374 1013.4 520.422 979.945 487.426C946.508 454.448 905.257 430.498 860.054 417.817C860.003 417.803 859.95 417.798 859.898 417.802Z" fill="#FFF7D9"/>
</svg>
