<svg width="296" height="297" viewBox="0 0 296 297" fill="none" xmlns="http://www.w3.org/2000/svg">
<path d="M262.335 143.723C262.341 143.795 262.431 143.825 262.48 143.771C271.292 133.961 277.72 122.242 281.26 109.529C284.817 96.754 285.361 83.3249 282.849 70.3017C280.337 57.2785 274.838 45.0178 266.785 34.4863C258.733 23.9549 248.347 15.4409 236.448 9.61703C224.548 3.79311 211.462 0.818213 198.22 0.927179C184.978 1.03614 171.943 4.22628 160.144 10.2452C148.345 16.2641 138.105 24.9475 130.232 35.61C129.938 36.0077 129.648 36.4079 129.362 36.8103C117.806 53.0407 97.0634 65.114 77.2471 67.1797C64.5589 68.5023 52.3281 72.6532 41.4521 79.3282C30.5761 86.0033 21.3309 95.0327 14.3947 105.754C7.4586 116.476 3.00757 128.618 1.36823 141.289C-0.271112 153.959 0.942758 166.838 4.92092 178.979C8.89908 191.12 15.5407 202.216 24.3581 211.452C33.1755 220.688 43.9449 227.831 55.8766 232.355C67.8083 236.88 80.5995 238.671 93.3113 237.599C110.327 236.201 129.497 245.225 139.15 259.308C140.458 261.216 141.845 263.074 143.31 264.878C151.993 275.568 163.124 284.002 175.757 289.461C188.39 294.921 202.151 297.246 215.872 296.238C229.592 295.229 242.866 290.918 254.564 283.67C266.263 276.423 276.041 266.453 283.067 254.608C290.093 242.763 294.16 229.393 294.921 215.636C295.682 201.878 293.116 188.138 287.44 175.585C281.79 163.09 273.226 152.138 262.469 143.65C262.412 143.605 262.329 143.65 262.335 143.723Z" fill="#FFF7D9"/>
</svg>
