<svg width="923" height="1118" viewBox="0 0 923 1118" fill="none" xmlns="http://www.w3.org/2000/svg">
<path d="M888.5 429.5L887.135 428.879L888.5 429.5ZM190 835.5L190.295 836.971L190.303 836.969L190 835.5ZM3.49968 982L4.97228 982.285L3.49968 982ZM122.684 1110.9C123.421 1110.52 123.713 1109.62 123.335 1108.88L117.179 1096.87C116.802 1096.13 115.898 1095.84 115.16 1096.22C114.423 1096.59 114.132 1097.5 114.509 1098.23L119.981 1108.91L109.301 1114.39C108.564 1114.76 108.272 1115.67 108.65 1116.4C109.028 1117.14 109.932 1117.43 110.669 1117.06L122.684 1110.9ZM122.46 1108.14C120.565 1107.53 118.676 1106.9 116.793 1106.27L115.832 1109.11C117.728 1109.75 119.631 1110.38 121.54 1110.99L122.46 1108.14ZM105.548 1102.27C101.803 1100.87 98.0981 1099.42 94.446 1097.91L93.3 1100.68C96.9858 1102.2 100.723 1103.67 104.499 1105.08L105.548 1102.27ZM83.5201 1093.14C79.8784 1091.47 76.3051 1089.73 72.8125 1087.94L71.4392 1090.6C74.9736 1092.42 78.5871 1094.18 82.2669 1095.87L83.5201 1093.14ZM62.3716 1082.22C58.8972 1080.2 55.5263 1078.11 52.273 1075.95L50.6118 1078.45C53.9183 1080.65 57.3403 1082.77 60.8631 1084.82L62.3716 1082.22ZM42.6195 1069.04C39.4389 1066.58 36.4083 1064.05 33.5441 1061.42L31.5181 1063.64C34.4484 1066.32 37.5438 1068.91 40.786 1071.41L42.6195 1069.04ZM25.2237 1053.03C22.56 1050.05 20.105 1046.97 17.8783 1043.79L15.4218 1045.52C17.7207 1048.8 20.25 1051.96 22.9872 1055.03L25.2237 1053.03ZM11.7826 1033.73C9.98717 1030.24 8.45551 1026.64 7.20924 1022.92L4.36499 1023.88C5.66119 1027.74 7.25261 1031.48 9.11462 1035.1L11.7826 1033.73ZM4.36653 1011.54C3.73307 1007.76 3.38181 1003.86 3.33342 999.845L0.333641 999.881C0.38386 1004.05 0.748573 1008.1 1.40765 1012.04L4.36653 1011.54ZM4.03182 988.107C4.27852 986.191 4.59134 984.251 4.97228 982.285L2.02709 981.715C1.63433 983.741 1.31135 985.744 1.05639 987.724L4.03182 988.107ZM4.97228 982.285C5.3674 980.247 5.81173 978.232 6.30347 976.24L3.39094 975.521C2.88713 977.562 2.4319 979.626 2.02709 981.715L4.97228 982.285ZM9.86128 964.422C11.2525 960.52 12.829 956.714 14.5754 953.004L11.8611 951.726C10.0743 955.522 8.46028 959.418 7.03548 963.414L9.86128 964.422ZM20.3548 942.08C22.4482 938.526 24.699 935.068 27.0916 931.704L24.6469 929.966C22.2066 933.397 19.9086 936.927 17.7699 940.557L20.3548 942.08ZM34.6665 921.909C37.3132 918.749 40.0843 915.68 42.9641 912.703L40.8078 910.617C37.8805 913.644 35.0612 916.765 32.3664 919.984L34.6665 921.909ZM51.8788 904.076C54.9385 901.299 58.0896 898.611 61.3167 896.011L59.4345 893.675C56.1638 896.31 52.9678 899.036 49.8625 901.855L51.8788 904.076ZM71.1992 888.481C74.5643 886.055 77.9895 883.715 81.4591 881.462L79.8251 878.946C76.3165 881.225 72.8509 883.591 69.4445 886.048L71.1992 888.481ZM92.0406 874.926C95.6367 872.814 99.2619 870.789 102.9 868.85L101.489 866.202C97.8159 868.16 94.1543 870.205 90.5209 872.34L92.0406 874.926ZM113.998 863.214C117.776 861.385 121.55 859.649 125.301 858.002L124.095 855.255C120.312 856.916 116.504 858.668 112.691 860.513L113.998 863.214ZM136.799 853.199C140.735 851.637 144.623 850.176 148.44 848.815L147.433 845.989C143.583 847.362 139.662 848.835 135.693 850.411L136.799 853.199ZM160.24 844.843C164.354 843.541 168.346 842.363 172.186 841.308L171.391 838.415C167.514 839.481 163.485 840.669 159.335 841.983L160.24 844.843ZM184.241 838.27C186.33 837.794 188.351 837.361 190.295 836.971L189.705 834.029C187.734 834.425 185.688 834.863 183.574 835.345L184.241 838.27ZM190.303 836.969C192.176 836.582 194.071 836.186 195.986 835.781L195.365 832.846C193.455 833.25 191.565 833.645 189.697 834.031L190.303 836.969ZM207.721 833.233C211.48 832.398 215.309 831.529 219.203 830.626L218.526 827.703C214.64 828.604 210.82 829.471 207.07 830.305L207.721 833.233ZM230.861 827.87C234.64 826.96 238.473 826.02 242.36 825.05L241.634 822.139C237.755 823.107 233.929 824.045 230.159 824.953L230.861 827.87ZM253.911 822.12C257.703 821.143 261.541 820.138 265.421 819.107L264.651 816.208C260.777 817.237 256.947 818.24 253.162 819.215L253.911 822.12ZM276.894 816.014C280.686 814.977 284.514 813.915 288.378 812.829L287.567 809.941C283.709 811.025 279.887 812.085 276.103 813.12L276.894 816.014ZM299.797 809.577C303.579 808.486 307.392 807.372 311.233 806.235L310.382 803.358C306.547 804.493 302.741 805.605 298.966 806.694L299.797 809.577ZM322.616 802.825C326.383 801.683 330.175 800.519 333.99 799.335L333.1 796.469C329.291 797.652 325.506 798.814 321.745 799.954L322.616 802.825ZM345.346 795.767C349.095 794.576 352.864 793.365 356.653 792.133L355.726 789.28C351.943 790.51 348.18 791.719 344.438 792.908L345.346 795.767ZM367.986 788.409C371.716 787.169 375.462 785.911 379.223 784.633L378.258 781.793C374.503 783.068 370.763 784.324 367.04 785.562L367.986 788.409ZM390.531 780.751C394.241 779.463 397.964 778.158 401.698 776.834L400.696 774.006C396.967 775.328 393.251 776.631 389.548 777.917L390.531 780.751ZM412.937 772.807C416.64 771.467 420.353 770.108 424.074 768.732L423.034 765.918C419.319 767.292 415.612 768.648 411.916 769.986L412.937 772.807ZM435.227 764.566C438.926 763.169 442.632 761.756 446.344 760.325L445.265 757.526C441.559 758.954 437.86 760.365 434.168 761.759L435.227 764.566ZM457.415 756.014C461.104 754.562 464.799 753.093 468.497 751.607L467.379 748.824C463.687 750.307 459.999 751.773 456.316 753.222L457.415 756.014ZM479.49 747.145C483.158 745.641 486.828 744.12 490.499 742.583L489.34 739.815C485.676 741.35 482.012 742.868 478.352 744.369L479.49 747.145ZM501.441 737.952C505.081 736.396 508.722 734.823 512.361 733.233L511.161 730.484C507.528 732.07 503.894 733.64 500.261 735.194L501.441 737.952ZM523.252 728.427C526.866 726.815 530.478 725.187 534.088 723.542L532.844 720.812C529.242 722.453 525.637 724.078 522.03 725.687L523.252 728.427ZM544.905 718.561C548.495 716.89 552.08 715.203 555.661 713.499L554.372 710.79C550.799 712.49 547.221 714.173 543.639 715.841L544.905 718.561ZM566.383 708.342C569.949 706.608 573.509 704.858 577.061 703.092L575.725 700.406C572.181 702.168 568.629 703.914 565.071 705.644L566.383 708.342ZM587.689 697.748C591.224 695.95 594.751 694.136 598.267 692.306L596.883 689.645C593.374 691.471 589.856 693.28 586.329 695.074L587.689 697.748ZM608.801 686.762C612.302 684.898 615.792 683.017 619.269 681.121L617.833 678.487C614.364 680.379 610.883 682.254 607.391 684.114L608.801 686.762ZM629.694 675.368C633.16 673.432 636.612 671.48 640.051 669.512L638.561 666.908C635.131 668.871 631.688 670.818 628.231 672.749L629.694 675.368ZM650.34 663.548C653.77 661.535 657.184 659.506 660.581 657.46L659.034 654.89C655.646 656.93 652.242 658.953 648.822 660.961L650.34 663.548ZM670.721 651.274C674.109 649.18 677.478 647.07 680.827 644.943L679.219 642.41C675.88 644.531 672.521 646.635 669.144 648.722L670.721 651.274ZM690.827 638.506C694.157 636.333 697.467 634.143 700.755 631.935L699.083 629.445C695.806 631.645 692.507 633.828 689.187 635.994L690.827 638.506ZM710.6 625.23C713.865 622.973 717.107 620.7 720.324 618.409L718.584 615.965C715.378 618.247 712.148 620.513 708.895 622.762L710.6 625.23ZM729.997 611.414C733.196 609.065 736.368 606.698 739.513 604.314L737.7 601.924C734.568 604.298 731.408 606.656 728.222 608.996L729.997 611.414ZM748.97 597.026C752.1 594.573 755.201 592.102 758.27 589.613L756.381 587.283C753.324 589.761 750.237 592.222 747.119 594.665L748.97 597.026ZM767.46 582.03C770.512 579.466 773.531 576.884 776.515 574.283L774.544 572.021C771.574 574.61 768.569 577.181 765.53 579.733L767.46 582.03ZM785.403 566.387C788.365 563.705 791.289 561.004 794.175 558.283L792.117 556.101C789.246 558.807 786.337 561.495 783.389 564.164L785.403 566.387ZM802.723 550.056C805.58 547.249 808.394 544.422 811.165 541.575L809.016 539.482C806.26 542.313 803.461 545.124 800.621 547.916L802.723 550.056ZM819.349 532.974C822.075 530.042 824.755 527.09 827.387 524.116L825.141 522.128C822.525 525.082 819.862 528.017 817.152 530.932L819.349 532.974ZM835.157 515.116C837.731 512.055 840.254 508.974 842.726 505.871L840.379 504.002C837.925 507.084 835.418 510.144 832.861 513.185L835.157 515.116ZM850.013 496.456C852.414 493.262 854.758 490.046 857.046 486.809L854.596 485.078C852.326 488.291 849.998 491.482 847.615 494.653L850.013 496.456ZM863.774 476.97C865.976 473.64 868.117 470.287 870.195 466.912L867.641 465.339C865.58 468.686 863.456 472.011 861.272 475.315L863.774 476.97ZM876.279 456.65C878.255 453.184 880.164 449.694 882.005 446.182L879.348 444.789C877.523 448.27 875.631 451.728 873.673 455.164L876.279 456.65ZM887.351 435.51C888.207 433.719 889.045 431.923 889.865 430.121L887.135 428.879C886.322 430.663 885.492 432.442 884.645 434.216L887.351 435.51ZM889.865 430.121C890.698 428.292 891.512 426.467 892.31 424.648L889.562 423.443C888.77 425.25 887.961 427.062 887.135 428.879L889.865 430.121ZM896.889 413.791C898.382 410.106 899.803 406.443 901.155 402.8L898.342 401.757C897.001 405.371 895.59 409.007 894.109 412.664L896.889 413.791ZM905.081 391.704C906.351 387.928 907.547 384.175 908.669 380.446L905.796 379.581C904.683 383.279 903.498 387.002 902.238 390.747L905.081 391.704ZM911.863 369.152C912.886 365.289 913.83 361.452 914.697 357.641L911.772 356.976C910.913 360.752 909.977 364.555 908.963 368.384L911.863 369.152ZM917.091 346.175C917.838 342.246 918.502 338.345 919.087 334.474L916.121 334.026C915.542 337.86 914.883 341.723 914.144 345.615L917.091 346.175ZM920.623 322.797C921.064 318.853 921.422 314.94 921.7 311.058L918.708 310.844C918.432 314.686 918.078 318.559 917.641 322.463L920.623 322.797ZM922.304 299.239C922.425 295.284 922.463 291.362 922.42 287.475L919.42 287.508C919.462 291.354 919.425 295.234 919.306 299.148L922.304 299.239ZM922.038 275.656C921.825 271.691 921.529 267.763 921.152 263.872L918.166 264.161C918.539 268.009 918.832 271.895 919.042 275.817L922.038 275.656ZM919.764 252.178C919.211 248.248 918.576 244.358 917.863 240.509L914.913 241.055C915.618 244.863 916.246 248.709 916.793 252.596L919.764 252.178ZM915.457 228.939C914.568 225.087 913.601 221.277 912.559 217.509L909.668 218.309C910.698 222.035 911.655 225.804 912.534 229.613L915.457 228.939ZM909.17 206.202C907.952 202.435 906.66 198.712 905.298 195.034L902.485 196.076C903.833 199.715 905.111 203.398 906.315 207.125L909.17 206.202ZM900.97 184.056C899.447 180.415 897.856 176.822 896.201 173.275L893.482 174.544C895.121 178.054 896.695 181.611 898.202 185.213L900.97 184.056ZM890.99 162.67C889.179 159.159 887.305 155.697 885.373 152.285L882.762 153.762C884.675 157.142 886.531 160.57 888.324 164.045L890.99 162.67ZM879.37 142.131C877.3 138.775 875.175 135.469 873 132.215L870.506 133.882C872.661 137.107 874.766 140.381 876.817 143.706L879.37 142.131ZM866.263 122.514C863.953 119.31 861.595 116.159 859.196 113.062L856.824 114.899C859.203 117.97 861.54 121.093 863.829 124.268L866.263 122.514ZM851.819 103.864C849.3 100.828 846.742 97.8473 844.151 94.9226L841.906 96.9121C844.476 99.813 847.012 102.769 849.51 105.779L851.819 103.864ZM836.184 86.2136C833.467 83.3366 830.721 80.5182 827.949 77.7588L825.833 79.8848C828.582 82.6228 831.308 85.419 834.003 88.2732L836.184 86.2136ZM819.468 69.5657C816.582 66.8603 813.675 64.2172 810.754 61.6367L808.768 63.8851C811.667 66.4463 814.552 69.0696 817.416 71.7544L819.468 69.5657ZM801.821 53.9746C798.77 51.4331 795.709 48.9593 792.646 46.5535L790.793 48.913C793.834 51.3012 796.873 53.7569 799.901 56.2797L801.821 53.9746ZM783.258 39.3972C780.056 37.0288 776.859 34.7352 773.672 32.5168L771.958 34.9788C775.121 37.181 778.295 39.4578 781.473 41.8089L783.258 39.3972ZM763.896 25.919C760.55 23.732 757.226 21.6299 753.93 19.6133L752.365 22.1722C755.634 24.1732 758.934 26.2594 762.254 28.43L763.896 25.919ZM743.777 13.6128C740.281 11.6195 736.829 9.7273 733.433 7.93692L732.034 10.5907C735.4 12.3655 738.823 14.2419 742.291 16.219L743.777 13.6128ZM722.894 2.61587C721.117 1.75909 719.36 0.932629 717.625 0.136616L716.374 2.86338C718.092 3.65126 719.831 4.46953 721.591 5.31809L722.894 2.61587Z" fill="black"/>
</svg>
